<svg xmlns="http://www.w3.org/2000/svg" xmlns:xlink="http://www.w3.org/1999/xlink" width="500" zoomAndPan="magnify" viewBox="0 0 375 374.999991" height="500" preserveAspectRatio="xMidYMid meet" version="1.0"><defs><g/><clipPath id="2b1eba9fc8"><path d="M 0 0 L 133 0 L 133 18 L 0 18 Z M 0 0 " clip-rule="nonzero"/></clipPath><clipPath id="7dbb912fbd"><path d="M 152.296875 92.40625 L 15.035156 127.796875 L -22.417969 -17.453125 L 114.84375 -52.84375 Z M 152.296875 92.40625 " clip-rule="nonzero"/></clipPath><clipPath id="b0c584074e"><path d="M 152.296875 92.40625 L 15.035156 127.796875 L -22.417969 -17.453125 L 114.84375 -52.84375 Z M 152.296875 92.40625 " clip-rule="nonzero"/></clipPath><clipPath id="eec3d01368"><path d="M 0 0 L 54 0 L 54 118 L 0 118 Z M 0 0 " clip-rule="nonzero"/></clipPath><clipPath id="60cb1e9221"><path d="M 152.296875 92.40625 L 15.035156 127.796875 L -22.417969 -17.453125 L 114.84375 -52.84375 Z M 152.296875 92.40625 " clip-rule="nonzero"/></clipPath><clipPath id="97814be172"><path d="M 152.296875 92.40625 L 15.035156 127.796875 L -22.417969 -17.453125 L 114.84375 -52.84375 Z M 152.296875 92.40625 " clip-rule="nonzero"/></clipPath><clipPath id="43c9fbcb21"><path d="M 4 5 L 136 5 L 136 80 L 4 80 Z M 4 5 " clip-rule="nonzero"/></clipPath><clipPath id="76e97214ee"><path d="M 152.296875 92.40625 L 15.035156 127.796875 L -22.417969 -17.453125 L 114.84375 -52.84375 Z M 152.296875 92.40625 " clip-rule="nonzero"/></clipPath><clipPath id="6caeeb31f4"><path d="M 152.296875 92.40625 L 15.035156 127.796875 L -22.417969 -17.453125 L 114.84375 -52.84375 Z M 152.296875 92.40625 " clip-rule="nonzero"/></clipPath><clipPath id="f4e5bad10a"><path d="M 0 0 L 19 0 L 19 127 L 0 127 Z M 0 0 " clip-rule="nonzero"/></clipPath><clipPath id="fc47d92472"><path d="M 152.296875 92.40625 L 15.035156 127.796875 L -22.417969 -17.453125 L 114.84375 -52.84375 Z M 152.296875 92.40625 " clip-rule="nonzero"/></clipPath><clipPath id="575359a7ad"><path d="M 152.296875 92.40625 L 15.035156 127.796875 L -22.417969 -17.453125 L 114.84375 -52.84375 Z M 152.296875 92.40625 " clip-rule="nonzero"/></clipPath><clipPath id="fd288c0ccb"><path d="M 0 1 L 83 1 L 83 109 L 0 109 Z M 0 1 " clip-rule="nonzero"/></clipPath><clipPath id="dd93ca63cc"><path d="M 152.296875 92.40625 L 15.035156 127.796875 L -22.417969 -17.453125 L 114.84375 -52.84375 Z M 152.296875 92.40625 " clip-rule="nonzero"/></clipPath><clipPath id="894f5aca0c"><path d="M 152.296875 92.40625 L 15.035156 127.796875 L -22.417969 -17.453125 L 114.84375 -52.84375 Z M 152.296875 92.40625 " clip-rule="nonzero"/></clipPath><clipPath id="2dfe00369a"><path d="M 0 0 L 132 0 L 132 31 L 0 31 Z M 0 0 " clip-rule="nonzero"/></clipPath><clipPath id="d90f336c73"><path d="M 152.296875 92.40625 L 15.035156 127.796875 L -22.417969 -17.453125 L 114.84375 -52.84375 Z M 152.296875 92.40625 " clip-rule="nonzero"/></clipPath><clipPath id="4684253d58"><path d="M 152.296875 92.40625 L 15.035156 127.796875 L -22.417969 -17.453125 L 114.84375 -52.84375 Z M 152.296875 92.40625 " clip-rule="nonzero"/></clipPath><clipPath id="b395658f60"><path d="M 239 357 L 375 357 L 375 375 L 239 375 Z M 239 357 " clip-rule="nonzero"/></clipPath><clipPath id="c8e3f7b28b"><path d="M 394.941406 392.40625 L 257.679688 427.796875 L 220.226562 282.546875 L 357.488281 247.15625 Z M 394.941406 392.40625 " clip-rule="nonzero"/></clipPath><clipPath id="8ad4629047"><path d="M 220.046875 282.59375 L 357.308594 247.203125 L 394.757812 392.453125 L 257.5 427.84375 Z M 220.046875 282.59375 " clip-rule="nonzero"/></clipPath><clipPath id="fd4d354261"><path d="M 318 257 L 375 257 L 375 375 L 318 375 Z M 318 257 " clip-rule="nonzero"/></clipPath><clipPath id="d5a1b14330"><path d="M 394.941406 392.40625 L 257.679688 427.796875 L 220.226562 282.546875 L 357.488281 247.15625 Z M 394.941406 392.40625 " clip-rule="nonzero"/></clipPath><clipPath id="28fb8b52b5"><path d="M 220.046875 282.59375 L 357.308594 247.203125 L 394.757812 392.453125 L 257.5 427.84375 Z M 220.046875 282.59375 " clip-rule="nonzero"/></clipPath><clipPath id="3d8aaa7559"><path d="M 236 295 L 368 295 L 368 370 L 236 370 Z M 236 295 " clip-rule="nonzero"/></clipPath><clipPath id="ca77fbe868"><path d="M 394.941406 392.40625 L 257.679688 427.796875 L 220.226562 282.546875 L 357.488281 247.15625 Z M 394.941406 392.40625 " clip-rule="nonzero"/></clipPath><clipPath id="77893be63a"><path d="M 220.046875 282.59375 L 357.308594 247.203125 L 394.757812 392.453125 L 257.5 427.84375 Z M 220.046875 282.59375 " clip-rule="nonzero"/></clipPath><clipPath id="2bd5f358a9"><path d="M 354 248 L 375 248 L 375 375 L 354 375 Z M 354 248 " clip-rule="nonzero"/></clipPath><clipPath id="f5fd4c7fd1"><path d="M 394.941406 392.40625 L 257.679688 427.796875 L 220.226562 282.546875 L 357.488281 247.15625 Z M 394.941406 392.40625 " clip-rule="nonzero"/></clipPath><clipPath id="b06f47e899"><path d="M 220.046875 282.59375 L 357.308594 247.203125 L 394.757812 392.453125 L 257.5 427.84375 Z M 220.046875 282.59375 " clip-rule="nonzero"/></clipPath><clipPath id="7500834c87"><path d="M 289 266 L 375 266 L 375 374 L 289 374 Z M 289 266 " clip-rule="nonzero"/></clipPath><clipPath id="312c7fb7f2"><path d="M 394.941406 392.40625 L 257.679688 427.796875 L 220.226562 282.546875 L 357.488281 247.15625 Z M 394.941406 392.40625 " clip-rule="nonzero"/></clipPath><clipPath id="7ed59f999e"><path d="M 220.046875 282.59375 L 357.308594 247.203125 L 394.757812 392.453125 L 257.5 427.84375 Z M 220.046875 282.59375 " clip-rule="nonzero"/></clipPath><clipPath id="2a457cb92e"><path d="M 240 344 L 375 344 L 375 375 L 240 375 Z M 240 344 " clip-rule="nonzero"/></clipPath><clipPath id="c3494c5a77"><path d="M 394.941406 392.40625 L 257.679688 427.796875 L 220.226562 282.546875 L 357.488281 247.15625 Z M 394.941406 392.40625 " clip-rule="nonzero"/></clipPath><clipPath id="2e3af405d0"><path d="M 220.046875 282.59375 L 357.308594 247.203125 L 394.757812 392.453125 L 257.5 427.84375 Z M 220.046875 282.59375 " clip-rule="nonzero"/></clipPath><clipPath id="a808422552"><path d="M 196 54.148438 L 279.902344 54.148438 L 279.902344 191 L 196 191 Z M 196 54.148438 " clip-rule="nonzero"/></clipPath><clipPath id="d89cbece56"><path d="M 214 54.148438 L 279.902344 54.148438 L 279.902344 106 L 214 106 Z M 214 54.148438 " clip-rule="nonzero"/></clipPath><clipPath id="2f89f6c370"><path d="M 95.402344 137 L 185 137 L 185 223.648438 L 95.402344 223.648438 Z M 95.402344 137 " clip-rule="nonzero"/></clipPath></defs><rect x="-37.5" width="450" fill="#ffffff" y="-37.499999" height="449.999989" fill-opacity="1"/><rect x="-37.5" width="450" fill="#ffffff" y="-37.499999" height="449.999989" fill-opacity="1"/><rect x="-37.5" width="450" fill="#3a015c" y="-37.499999" height="449.999989" fill-opacity="1"/><g clip-path="url(#2b1eba9fc8)"><g clip-path="url(#7dbb912fbd)"><g clip-path="url(#b0c584074e)"><path fill="#188680" d="M 62.308594 13.453125 C 23.808594 8.554688 -6.722656 -0.796875 -6.722656 -0.796875 C -6.722656 -0.796875 25.167969 -2.207031 63.667969 2.6875 C 102.167969 7.585938 132.699219 16.9375 132.699219 16.9375 C 132.699219 16.9375 100.808594 18.347656 62.308594 13.453125 " fill-opacity="1" fill-rule="nonzero"/></g></g></g><g clip-path="url(#eec3d01368)"><g clip-path="url(#60cb1e9221)"><g clip-path="url(#97814be172)"><path fill="#188680" d="M 16.644531 58.753906 C -1.058594 25.078125 -10.558594 -4.773438 -10.558594 -4.773438 C -10.558594 -4.773438 8.636719 19.976562 26.335938 53.652344 C 44.039062 87.328125 53.539062 117.179688 53.539062 117.179688 C 53.539062 117.179688 34.34375 92.429688 16.644531 58.753906 " fill-opacity="1" fill-rule="nonzero"/></g></g></g><g clip-path="url(#43c9fbcb21)"><g clip-path="url(#76e97214ee)"><g clip-path="url(#6caeeb31f4)"><path fill="#229f9b" d="M 66.972656 47.8125 C 30.84375 27.308594 4.527344 5.429688 4.527344 5.429688 C 4.527344 5.429688 36.789062 16.796875 72.921875 37.296875 C 109.050781 57.800781 135.371094 79.675781 135.371094 79.675781 C 135.371094 79.675781 103.105469 68.3125 66.972656 47.8125 " fill-opacity="1" fill-rule="nonzero"/></g></g></g><g clip-path="url(#f4e5bad10a)"><g clip-path="url(#fc47d92472)"><g clip-path="url(#575359a7ad)"><path fill="#229f9b" d="M -0.273438 53.761719 C -7.207031 12.773438 -6.875 -21.460938 -6.875 -21.460938 C -6.875 -21.460938 4.695312 10.761719 11.628906 51.75 C 18.5625 92.738281 18.234375 126.972656 18.234375 126.972656 C 18.234375 126.972656 6.660156 94.75 -0.273438 53.761719 " fill-opacity="1" fill-rule="nonzero"/></g></g></g><g clip-path="url(#fd288c0ccb)"><g clip-path="url(#dd93ca63cc)"><g clip-path="url(#894f5aca0c)"><path fill="#229f9b" d="M 36.914062 57.335938 C 13.246094 27.753906 -2.714844 1.183594 -2.714844 1.183594 C -2.714844 1.183594 19.699219 22.578125 43.367188 52.164062 C 67.035156 81.746094 82.992188 108.3125 82.992188 108.3125 C 82.992188 108.3125 60.578125 86.917969 36.914062 57.335938 " fill-opacity="1" fill-rule="nonzero"/></g></g></g><g clip-path="url(#2dfe00369a)"><g clip-path="url(#d90f336c73)"><g clip-path="url(#4684253d58)"><path fill="#229f9b" d="M 61.953125 20.433594 C 24.09375 11.882812 -5.40625 -0.34375 -5.40625 -0.34375 C -5.40625 -0.34375 26.472656 1.296875 64.332031 9.851562 C 102.191406 18.402344 131.691406 30.628906 131.691406 30.628906 C 131.691406 30.628906 99.8125 28.988281 61.953125 20.433594 " fill-opacity="1" fill-rule="nonzero"/></g></g></g><g fill="#f49f0a" fill-opacity="0.302"><g transform="translate(138.990391, 312.487828)"><g><path d="M 2.574219 0 L 7.722656 0 L 7.722656 -9.679688 L 18.503906 -9.679688 L 18.503906 0 L 23.652344 0 L 23.652344 -24.027344 L 18.503906 -24.027344 L 18.503906 -14.347656 L 7.722656 -14.347656 L 7.722656 -24.027344 L 2.574219 -24.027344 Z M 2.574219 0 "/></g></g></g><g fill="#f49f0a" fill-opacity="0.302"><g transform="translate(165.214862, 312.487828)"><g><path d="M 10.195312 0.480469 C 15 0.480469 19.292969 -2.472656 19.292969 -8.238281 C 19.292969 -14.003906 15 -16.957031 10.195312 -16.957031 C 5.421875 -16.957031 1.097656 -14.003906 1.097656 -8.238281 C 1.097656 -2.472656 5.421875 0.480469 10.195312 0.480469 Z M 10.195312 -3.808594 C 7.449219 -3.808594 5.972656 -5.699219 5.972656 -8.238281 C 5.972656 -10.777344 7.449219 -12.667969 10.195312 -12.667969 C 12.941406 -12.667969 14.417969 -10.777344 14.417969 -8.238281 C 14.417969 -5.699219 12.941406 -3.808594 10.195312 -3.808594 Z M 10.195312 -3.808594 "/></g></g></g><g fill="#f49f0a" fill-opacity="0.302"><g transform="translate(185.604046, 312.487828)"><g><path d="M 8.511719 0.480469 C 10.882812 0.480469 12.734375 -0.617188 14.003906 -2.09375 L 14.003906 0 L 18.226562 0 L 18.226562 -16.476562 L 13.457031 -16.476562 L 13.457031 -5.734375 C 12.769531 -4.738281 11.464844 -3.671875 9.78125 -3.671875 C 7.828125 -3.671875 6.625 -4.703125 6.625 -6.898438 L 6.625 -16.476562 L 1.855469 -16.476562 L 1.855469 -6.28125 C 1.855469 -2.472656 4.085938 0.480469 8.511719 0.480469 Z M 8.511719 0.480469 "/></g></g></g><g fill="#f49f0a" fill-opacity="0.302"><g transform="translate(205.85593, 312.487828)"><g><path d="M 8 0.480469 C 11.945312 0.480469 15.480469 -0.722656 15.480469 -4.601562 C 15.480469 -10.640625 6.214844 -9.269531 6.214844 -11.980469 C 6.214844 -13.007812 7.414062 -13.285156 8.511719 -13.285156 C 10.433594 -13.285156 12.839844 -12.5625 14.246094 -11.601562 L 14.246094 -15.550781 C 12.5625 -16.375 10.503906 -16.957031 8.167969 -16.957031 C 4.703125 -16.957031 1.304688 -15.6875 1.304688 -11.878906 C 1.304688 -5.9375 10.605469 -7.140625 10.605469 -4.496094 C 10.605469 -3.570312 9.472656 -3.261719 7.722656 -3.261719 C 5.734375 -3.261719 3.226562 -3.84375 1.441406 -5.011719 L 1.441406 -1.0625 C 3.125 -0.0703125 5.492188 0.480469 8 0.480469 Z M 8 0.480469 "/></g></g></g><g fill="#f49f0a" fill-opacity="0.302"><g transform="translate(222.297714, 312.487828)"><g><path d="M 10.640625 0.480469 C 13.113281 0.480469 15.136719 0.101562 16.683594 -0.550781 L 16.683594 -4.289062 C 15.273438 -3.707031 13.59375 -3.328125 11.707031 -3.328125 C 8.992188 -3.328125 6.453125 -4.289062 5.902344 -6.695312 L 17.507812 -6.695312 C 18.605469 -11.566406 16.40625 -16.957031 9.578125 -16.957031 C 5.871094 -16.957031 1.097656 -14.453125 1.097656 -8.238281 C 1.097656 -2.503906 5.421875 0.480469 10.640625 0.480469 Z M 5.871094 -9.78125 C 5.9375 -12.046875 7.722656 -13.320312 9.75 -13.320312 C 12.699219 -13.320312 13.351562 -10.914062 13.148438 -9.78125 Z M 5.871094 -9.78125 "/></g></g></g><g fill="#f49f0a" fill-opacity="0.502"><g transform="translate(137.715991, 311.213413)"><g><path d="M 2.574219 0 L 7.722656 0 L 7.722656 -9.679688 L 18.503906 -9.679688 L 18.503906 0 L 23.652344 0 L 23.652344 -24.027344 L 18.503906 -24.027344 L 18.503906 -14.347656 L 7.722656 -14.347656 L 7.722656 -24.027344 L 2.574219 -24.027344 Z M 2.574219 0 "/></g></g></g><g fill="#f49f0a" fill-opacity="0.502"><g transform="translate(163.940462, 311.213413)"><g><path d="M 10.195312 0.480469 C 15 0.480469 19.292969 -2.472656 19.292969 -8.238281 C 19.292969 -14.003906 15 -16.957031 10.195312 -16.957031 C 5.421875 -16.957031 1.097656 -14.003906 1.097656 -8.238281 C 1.097656 -2.472656 5.421875 0.480469 10.195312 0.480469 Z M 10.195312 -3.808594 C 7.449219 -3.808594 5.972656 -5.699219 5.972656 -8.238281 C 5.972656 -10.777344 7.449219 -12.667969 10.195312 -12.667969 C 12.941406 -12.667969 14.417969 -10.777344 14.417969 -8.238281 C 14.417969 -5.699219 12.941406 -3.808594 10.195312 -3.808594 Z M 10.195312 -3.808594 "/></g></g></g><g fill="#f49f0a" fill-opacity="0.502"><g transform="translate(184.329646, 311.213413)"><g><path d="M 8.511719 0.480469 C 10.882812 0.480469 12.734375 -0.617188 14.003906 -2.09375 L 14.003906 0 L 18.226562 0 L 18.226562 -16.476562 L 13.457031 -16.476562 L 13.457031 -5.734375 C 12.769531 -4.738281 11.464844 -3.671875 9.78125 -3.671875 C 7.828125 -3.671875 6.625 -4.703125 6.625 -6.898438 L 6.625 -16.476562 L 1.855469 -16.476562 L 1.855469 -6.28125 C 1.855469 -2.472656 4.085938 0.480469 8.511719 0.480469 Z M 8.511719 0.480469 "/></g></g></g><g fill="#f49f0a" fill-opacity="0.502"><g transform="translate(204.58153, 311.213413)"><g><path d="M 8 0.480469 C 11.945312 0.480469 15.480469 -0.722656 15.480469 -4.601562 C 15.480469 -10.640625 6.214844 -9.269531 6.214844 -11.980469 C 6.214844 -13.007812 7.414062 -13.285156 8.511719 -13.285156 C 10.433594 -13.285156 12.839844 -12.5625 14.246094 -11.601562 L 14.246094 -15.550781 C 12.5625 -16.375 10.503906 -16.957031 8.167969 -16.957031 C 4.703125 -16.957031 1.304688 -15.6875 1.304688 -11.878906 C 1.304688 -5.9375 10.605469 -7.140625 10.605469 -4.496094 C 10.605469 -3.570312 9.472656 -3.261719 7.722656 -3.261719 C 5.734375 -3.261719 3.226562 -3.84375 1.441406 -5.011719 L 1.441406 -1.0625 C 3.125 -0.0703125 5.492188 0.480469 8 0.480469 Z M 8 0.480469 "/></g></g></g><g fill="#f49f0a" fill-opacity="0.502"><g transform="translate(221.023314, 311.213413)"><g><path d="M 10.640625 0.480469 C 13.113281 0.480469 15.136719 0.101562 16.683594 -0.550781 L 16.683594 -4.289062 C 15.273438 -3.707031 13.59375 -3.328125 11.707031 -3.328125 C 8.992188 -3.328125 6.453125 -4.289062 5.902344 -6.695312 L 17.507812 -6.695312 C 18.605469 -11.566406 16.40625 -16.957031 9.578125 -16.957031 C 5.871094 -16.957031 1.097656 -14.453125 1.097656 -8.238281 C 1.097656 -2.503906 5.421875 0.480469 10.640625 0.480469 Z M 5.871094 -9.78125 C 5.9375 -12.046875 7.722656 -13.320312 9.75 -13.320312 C 12.699219 -13.320312 13.351562 -10.914062 13.148438 -9.78125 Z M 5.871094 -9.78125 "/></g></g></g><g fill="#efca08" fill-opacity="1"><g transform="translate(136.441592, 309.939028)"><g><path d="M 2.574219 0 L 7.722656 0 L 7.722656 -9.679688 L 18.503906 -9.679688 L 18.503906 0 L 23.652344 0 L 23.652344 -24.027344 L 18.503906 -24.027344 L 18.503906 -14.347656 L 7.722656 -14.347656 L 7.722656 -24.027344 L 2.574219 -24.027344 Z M 2.574219 0 "/></g></g></g><g fill="#efca08" fill-opacity="1"><g transform="translate(162.666062, 309.939028)"><g><path d="M 10.195312 0.480469 C 15 0.480469 19.292969 -2.472656 19.292969 -8.238281 C 19.292969 -14.003906 15 -16.957031 10.195312 -16.957031 C 5.421875 -16.957031 1.097656 -14.003906 1.097656 -8.238281 C 1.097656 -2.472656 5.421875 0.480469 10.195312 0.480469 Z M 10.195312 -3.808594 C 7.449219 -3.808594 5.972656 -5.699219 5.972656 -8.238281 C 5.972656 -10.777344 7.449219 -12.667969 10.195312 -12.667969 C 12.941406 -12.667969 14.417969 -10.777344 14.417969 -8.238281 C 14.417969 -5.699219 12.941406 -3.808594 10.195312 -3.808594 Z M 10.195312 -3.808594 "/></g></g></g><g fill="#efca08" fill-opacity="1"><g transform="translate(183.055246, 309.939028)"><g><path d="M 8.511719 0.480469 C 10.882812 0.480469 12.734375 -0.617188 14.003906 -2.09375 L 14.003906 0 L 18.226562 0 L 18.226562 -16.476562 L 13.457031 -16.476562 L 13.457031 -5.734375 C 12.769531 -4.738281 11.464844 -3.671875 9.78125 -3.671875 C 7.828125 -3.671875 6.625 -4.703125 6.625 -6.898438 L 6.625 -16.476562 L 1.855469 -16.476562 L 1.855469 -6.28125 C 1.855469 -2.472656 4.085938 0.480469 8.511719 0.480469 Z M 8.511719 0.480469 "/></g></g></g><g fill="#efca08" fill-opacity="1"><g transform="translate(203.30713, 309.939028)"><g><path d="M 8 0.480469 C 11.945312 0.480469 15.480469 -0.722656 15.480469 -4.601562 C 15.480469 -10.640625 6.214844 -9.269531 6.214844 -11.980469 C 6.214844 -13.007812 7.414062 -13.285156 8.511719 -13.285156 C 10.433594 -13.285156 12.839844 -12.5625 14.246094 -11.601562 L 14.246094 -15.550781 C 12.5625 -16.375 10.503906 -16.957031 8.167969 -16.957031 C 4.703125 -16.957031 1.304688 -15.6875 1.304688 -11.878906 C 1.304688 -5.9375 10.605469 -7.140625 10.605469 -4.496094 C 10.605469 -3.570312 9.472656 -3.261719 7.722656 -3.261719 C 5.734375 -3.261719 3.226562 -3.84375 1.441406 -5.011719 L 1.441406 -1.0625 C 3.125 -0.0703125 5.492188 0.480469 8 0.480469 Z M 8 0.480469 "/></g></g></g><g fill="#efca08" fill-opacity="1"><g transform="translate(219.748914, 309.939028)"><g><path d="M 10.640625 0.480469 C 13.113281 0.480469 15.136719 0.101562 16.683594 -0.550781 L 16.683594 -4.289062 C 15.273438 -3.707031 13.59375 -3.328125 11.707031 -3.328125 C 8.992188 -3.328125 6.453125 -4.289062 5.902344 -6.695312 L 17.507812 -6.695312 C 18.605469 -11.566406 16.40625 -16.957031 9.578125 -16.957031 C 5.871094 -16.957031 1.097656 -14.453125 1.097656 -8.238281 C 1.097656 -2.503906 5.421875 0.480469 10.640625 0.480469 Z M 5.871094 -9.78125 C 5.9375 -12.046875 7.722656 -13.320312 9.75 -13.320312 C 12.699219 -13.320312 13.351562 -10.914062 13.148438 -9.78125 Z M 5.871094 -9.78125 "/></g></g></g><g fill="#f49f0a" fill-opacity="0.302"><g transform="translate(111.773104, 286.917378)"><g><path d="M 24.0625 -46.671875 L 41.296875 0 L 31.84375 0 L 28.34375 -9.59375 L 12.546875 -9.59375 L 8.796875 0 L -0.546875 0 L 17.1875 -46.671875 Z M 15.078125 -16.828125 L 25.875 -16.828125 L 20.203125 -33.34375 L 20.078125 -33.34375 Z M 15.078125 -16.828125 "/></g></g></g><g fill="#f49f0a" fill-opacity="0.302"><g transform="translate(152.536097, 286.917378)"><g><path d="M 23.15625 -20.5625 C 22.269531 -21.488281 21.332031 -22.203125 20.34375 -22.703125 C 19.363281 -23.203125 18.226562 -23.453125 16.9375 -23.453125 C 14.8125 -23.453125 13.035156 -22.597656 11.609375 -20.890625 C 10.179688 -19.179688 9.46875 -17.101562 9.46875 -14.65625 C 9.46875 -12.15625 10.203125 -10.113281 11.671875 -8.53125 C 13.140625 -6.945312 15 -6.15625 17.25 -6.15625 C 18.414062 -6.15625 19.5 -6.414062 20.5 -6.9375 C 21.507812 -7.457031 22.394531 -8.140625 23.15625 -8.984375 L 23.15625 -0.84375 C 21.945312 -0.15625 20.75 0.316406 19.5625 0.578125 C 18.375 0.835938 17.140625 0.96875 15.859375 0.96875 C 11.640625 0.96875 8.09375 -0.546875 5.21875 -3.578125 C 2.34375 -6.617188 0.90625 -10.332031 0.90625 -14.71875 C 0.90625 -17.570312 1.566406 -20.222656 2.890625 -22.671875 C 4.222656 -25.117188 6.070312 -27.046875 8.4375 -28.453125 C 10.8125 -29.867188 13.425781 -30.578125 16.28125 -30.578125 C 17.40625 -30.578125 18.5625 -30.425781 19.75 -30.125 C 20.9375 -29.820312 22.070312 -29.347656 23.15625 -28.703125 Z M 18.453125 4.046875 L 11.453125 12.421875 L 7 10.125 L 12.90625 1.203125 Z M 18.453125 4.046875 "/></g></g></g><g fill="#f49f0a" fill-opacity="0.302"><g transform="translate(177.922517, 286.917378)"><g><path d="M 22.671875 -29.609375 L 31 -29.609375 L 31 0 L 22.671875 0 L 22.671875 -2.71875 L 22.546875 -2.71875 C 21.660156 -1.550781 20.484375 -0.644531 19.015625 0 C 17.554688 0.644531 16.0625 0.96875 14.53125 0.96875 C 10.632812 0.96875 7.390625 -0.566406 4.796875 -3.640625 C 2.203125 -6.722656 0.90625 -10.492188 0.90625 -14.953125 C 0.90625 -17.722656 1.46875 -20.296875 2.59375 -22.671875 C 3.71875 -25.046875 5.3125 -26.957031 7.375 -28.40625 C 9.445312 -29.851562 11.789062 -30.578125 14.40625 -30.578125 C 15.9375 -30.578125 17.4375 -30.253906 18.90625 -29.609375 C 20.375 -28.960938 21.628906 -28.035156 22.671875 -26.828125 Z M 16.40625 -23.09375 C 14.507812 -23.09375 12.878906 -22.273438 11.515625 -20.640625 C 10.148438 -19.015625 9.46875 -17.078125 9.46875 -14.828125 C 9.46875 -12.578125 10.148438 -10.628906 11.515625 -8.984375 C 12.878906 -7.335938 14.53125 -6.515625 16.46875 -6.515625 C 18.4375 -6.515625 20.101562 -7.328125 21.46875 -8.953125 C 22.832031 -10.578125 23.515625 -12.535156 23.515625 -14.828125 C 23.515625 -17.117188 22.820312 -19.066406 21.4375 -20.671875 C 20.050781 -22.285156 18.375 -23.09375 16.40625 -23.09375 Z M 16.40625 -23.09375 "/></g></g></g><g fill="#f49f0a" fill-opacity="0.302"><g transform="translate(211.99218, 286.917378)"><g><path d="M 2.65625 -42.03125 C 2.65625 -43.351562 3.132812 -44.515625 4.09375 -45.515625 C 5.0625 -46.523438 6.25 -47.03125 7.65625 -47.03125 C 9.0625 -47.03125 10.242188 -46.523438 11.203125 -45.515625 C 12.171875 -44.515625 12.65625 -43.351562 12.65625 -42.03125 C 12.65625 -40.625 12.171875 -39.4375 11.203125 -38.46875 C 10.242188 -37.5 9.0625 -37.015625 7.65625 -37.015625 C 6.25 -37.015625 5.0625 -37.5 4.09375 -38.46875 C 3.132812 -39.4375 2.65625 -40.625 2.65625 -42.03125 Z M 11.875 -29.609375 L 11.875 0 L 3.4375 0 L 3.4375 -29.609375 Z M 11.875 -29.609375 "/></g></g></g><g fill="#f49f0a" fill-opacity="0.302"><g transform="translate(227.248156, 286.917378)"><g><path d="M 12.546875 -45.46875 L 11.453125 -25.6875 L 6.390625 -25.6875 L 5.3125 -45.46875 Z M 12.546875 -45.46875 "/></g></g></g><g fill="#f49f0a" fill-opacity="0.302"><g transform="translate(245.097037, 286.917378)"><g><path d="M 18.203125 -22.609375 C 17.609375 -23.171875 16.925781 -23.648438 16.15625 -24.046875 C 15.394531 -24.453125 14.59375 -24.65625 13.75 -24.65625 C 13.0625 -24.65625 12.425781 -24.414062 11.84375 -23.9375 C 11.257812 -23.457031 10.96875 -22.851562 10.96875 -22.125 C 10.96875 -21.363281 11.300781 -20.757812 11.96875 -20.3125 C 12.632812 -19.875 13.671875 -19.375 15.078125 -18.8125 L 17.0625 -18.03125 C 18.914062 -17.300781 20.394531 -16.265625 21.5 -14.921875 C 22.601562 -13.578125 23.15625 -11.78125 23.15625 -9.53125 C 23.15625 -6.46875 22.078125 -3.953125 19.921875 -1.984375 C 17.773438 -0.015625 15.015625 0.96875 11.640625 0.96875 C 9.585938 0.96875 7.65625 0.535156 5.84375 -0.328125 C 4.039062 -1.191406 2.492188 -2.410156 1.203125 -3.984375 L 5.0625 -8.984375 C 5.90625 -8.054688 6.847656 -7.25 7.890625 -6.5625 C 8.941406 -5.882812 10.085938 -5.546875 11.328125 -5.546875 C 12.253906 -5.546875 13.050781 -5.835938 13.71875 -6.421875 C 14.382812 -7.003906 14.71875 -7.78125 14.71875 -8.75 C 14.71875 -9.664062 14.363281 -10.382812 13.65625 -10.90625 C 12.957031 -11.4375 11.898438 -11.984375 10.484375 -12.546875 C 7.910156 -13.503906 6.191406 -14.375 5.328125 -15.15625 C 4.472656 -15.945312 3.851562 -16.8125 3.46875 -17.75 C 3.082031 -18.695312 2.890625 -19.773438 2.890625 -20.984375 C 2.890625 -23.753906 3.785156 -26.046875 5.578125 -27.859375 C 7.367188 -29.671875 9.609375 -30.578125 12.296875 -30.578125 C 14.023438 -30.535156 15.753906 -30.257812 17.484375 -29.75 C 19.210938 -29.25 20.660156 -28.5 21.828125 -27.5 Z M 18.203125 -22.609375 "/></g></g></g><g fill="#f49f0a" fill-opacity="0.502"><g transform="translate(110.120659, 285.26493)"><g><path d="M 24.0625 -46.671875 L 41.296875 0 L 31.84375 0 L 28.34375 -9.59375 L 12.546875 -9.59375 L 8.796875 0 L -0.546875 0 L 17.1875 -46.671875 Z M 15.078125 -16.828125 L 25.875 -16.828125 L 20.203125 -33.34375 L 20.078125 -33.34375 Z M 15.078125 -16.828125 "/></g></g></g><g fill="#f49f0a" fill-opacity="0.502"><g transform="translate(150.883652, 285.26493)"><g><path d="M 23.15625 -20.5625 C 22.269531 -21.488281 21.332031 -22.203125 20.34375 -22.703125 C 19.363281 -23.203125 18.226562 -23.453125 16.9375 -23.453125 C 14.8125 -23.453125 13.035156 -22.597656 11.609375 -20.890625 C 10.179688 -19.179688 9.46875 -17.101562 9.46875 -14.65625 C 9.46875 -12.15625 10.203125 -10.113281 11.671875 -8.53125 C 13.140625 -6.945312 15 -6.15625 17.25 -6.15625 C 18.414062 -6.15625 19.5 -6.414062 20.5 -6.9375 C 21.507812 -7.457031 22.394531 -8.140625 23.15625 -8.984375 L 23.15625 -0.84375 C 21.945312 -0.15625 20.75 0.316406 19.5625 0.578125 C 18.375 0.835938 17.140625 0.96875 15.859375 0.96875 C 11.640625 0.96875 8.09375 -0.546875 5.21875 -3.578125 C 2.34375 -6.617188 0.90625 -10.332031 0.90625 -14.71875 C 0.90625 -17.570312 1.566406 -20.222656 2.890625 -22.671875 C 4.222656 -25.117188 6.070312 -27.046875 8.4375 -28.453125 C 10.8125 -29.867188 13.425781 -30.578125 16.28125 -30.578125 C 17.40625 -30.578125 18.5625 -30.425781 19.75 -30.125 C 20.9375 -29.820312 22.070312 -29.347656 23.15625 -28.703125 Z M 18.453125 4.046875 L 11.453125 12.421875 L 7 10.125 L 12.90625 1.203125 Z M 18.453125 4.046875 "/></g></g></g><g fill="#f49f0a" fill-opacity="0.502"><g transform="translate(176.270071, 285.26493)"><g><path d="M 22.671875 -29.609375 L 31 -29.609375 L 31 0 L 22.671875 0 L 22.671875 -2.71875 L 22.546875 -2.71875 C 21.660156 -1.550781 20.484375 -0.644531 19.015625 0 C 17.554688 0.644531 16.0625 0.96875 14.53125 0.96875 C 10.632812 0.96875 7.390625 -0.566406 4.796875 -3.640625 C 2.203125 -6.722656 0.90625 -10.492188 0.90625 -14.953125 C 0.90625 -17.722656 1.46875 -20.296875 2.59375 -22.671875 C 3.71875 -25.046875 5.3125 -26.957031 7.375 -28.40625 C 9.445312 -29.851562 11.789062 -30.578125 14.40625 -30.578125 C 15.9375 -30.578125 17.4375 -30.253906 18.90625 -29.609375 C 20.375 -28.960938 21.628906 -28.035156 22.671875 -26.828125 Z M 16.40625 -23.09375 C 14.507812 -23.09375 12.878906 -22.273438 11.515625 -20.640625 C 10.148438 -19.015625 9.46875 -17.078125 9.46875 -14.828125 C 9.46875 -12.578125 10.148438 -10.628906 11.515625 -8.984375 C 12.878906 -7.335938 14.53125 -6.515625 16.46875 -6.515625 C 18.4375 -6.515625 20.101562 -7.328125 21.46875 -8.953125 C 22.832031 -10.578125 23.515625 -12.535156 23.515625 -14.828125 C 23.515625 -17.117188 22.820312 -19.066406 21.4375 -20.671875 C 20.050781 -22.285156 18.375 -23.09375 16.40625 -23.09375 Z M 16.40625 -23.09375 "/></g></g></g><g fill="#f49f0a" fill-opacity="0.502"><g transform="translate(210.339735, 285.26493)"><g><path d="M 2.65625 -42.03125 C 2.65625 -43.351562 3.132812 -44.515625 4.09375 -45.515625 C 5.0625 -46.523438 6.25 -47.03125 7.65625 -47.03125 C 9.0625 -47.03125 10.242188 -46.523438 11.203125 -45.515625 C 12.171875 -44.515625 12.65625 -43.351562 12.65625 -42.03125 C 12.65625 -40.625 12.171875 -39.4375 11.203125 -38.46875 C 10.242188 -37.5 9.0625 -37.015625 7.65625 -37.015625 C 6.25 -37.015625 5.0625 -37.5 4.09375 -38.46875 C 3.132812 -39.4375 2.65625 -40.625 2.65625 -42.03125 Z M 11.875 -29.609375 L 11.875 0 L 3.4375 0 L 3.4375 -29.609375 Z M 11.875 -29.609375 "/></g></g></g><g fill="#f49f0a" fill-opacity="0.502"><g transform="translate(225.595711, 285.26493)"><g><path d="M 12.546875 -45.46875 L 11.453125 -25.6875 L 6.390625 -25.6875 L 5.3125 -45.46875 Z M 12.546875 -45.46875 "/></g></g></g><g fill="#f49f0a" fill-opacity="0.502"><g transform="translate(243.444591, 285.26493)"><g><path d="M 18.203125 -22.609375 C 17.609375 -23.171875 16.925781 -23.648438 16.15625 -24.046875 C 15.394531 -24.453125 14.59375 -24.65625 13.75 -24.65625 C 13.0625 -24.65625 12.425781 -24.414062 11.84375 -23.9375 C 11.257812 -23.457031 10.96875 -22.851562 10.96875 -22.125 C 10.96875 -21.363281 11.300781 -20.757812 11.96875 -20.3125 C 12.632812 -19.875 13.671875 -19.375 15.078125 -18.8125 L 17.0625 -18.03125 C 18.914062 -17.300781 20.394531 -16.265625 21.5 -14.921875 C 22.601562 -13.578125 23.15625 -11.78125 23.15625 -9.53125 C 23.15625 -6.46875 22.078125 -3.953125 19.921875 -1.984375 C 17.773438 -0.015625 15.015625 0.96875 11.640625 0.96875 C 9.585938 0.96875 7.65625 0.535156 5.84375 -0.328125 C 4.039062 -1.191406 2.492188 -2.410156 1.203125 -3.984375 L 5.0625 -8.984375 C 5.90625 -8.054688 6.847656 -7.25 7.890625 -6.5625 C 8.941406 -5.882812 10.085938 -5.546875 11.328125 -5.546875 C 12.253906 -5.546875 13.050781 -5.835938 13.71875 -6.421875 C 14.382812 -7.003906 14.71875 -7.78125 14.71875 -8.75 C 14.71875 -9.664062 14.363281 -10.382812 13.65625 -10.90625 C 12.957031 -11.4375 11.898438 -11.984375 10.484375 -12.546875 C 7.910156 -13.503906 6.191406 -14.375 5.328125 -15.15625 C 4.472656 -15.945312 3.851562 -16.8125 3.46875 -17.75 C 3.082031 -18.695312 2.890625 -19.773438 2.890625 -20.984375 C 2.890625 -23.753906 3.785156 -26.046875 5.578125 -27.859375 C 7.367188 -29.671875 9.609375 -30.578125 12.296875 -30.578125 C 14.023438 -30.535156 15.753906 -30.257812 17.484375 -29.75 C 19.210938 -29.25 20.660156 -28.5 21.828125 -27.5 Z M 18.203125 -22.609375 "/></g></g></g><g fill="#efca08" fill-opacity="1"><g transform="translate(108.468213, 283.612485)"><g><path d="M 24.0625 -46.671875 L 41.296875 0 L 31.84375 0 L 28.34375 -9.59375 L 12.546875 -9.59375 L 8.796875 0 L -0.546875 0 L 17.1875 -46.671875 Z M 15.078125 -16.828125 L 25.875 -16.828125 L 20.203125 -33.34375 L 20.078125 -33.34375 Z M 15.078125 -16.828125 "/></g></g></g><g fill="#efca08" fill-opacity="1"><g transform="translate(149.231206, 283.612485)"><g><path d="M 23.15625 -20.5625 C 22.269531 -21.488281 21.332031 -22.203125 20.34375 -22.703125 C 19.363281 -23.203125 18.226562 -23.453125 16.9375 -23.453125 C 14.8125 -23.453125 13.035156 -22.597656 11.609375 -20.890625 C 10.179688 -19.179688 9.46875 -17.101562 9.46875 -14.65625 C 9.46875 -12.15625 10.203125 -10.113281 11.671875 -8.53125 C 13.140625 -6.945312 15 -6.15625 17.25 -6.15625 C 18.414062 -6.15625 19.5 -6.414062 20.5 -6.9375 C 21.507812 -7.457031 22.394531 -8.140625 23.15625 -8.984375 L 23.15625 -0.84375 C 21.945312 -0.15625 20.75 0.316406 19.5625 0.578125 C 18.375 0.835938 17.140625 0.96875 15.859375 0.96875 C 11.640625 0.96875 8.09375 -0.546875 5.21875 -3.578125 C 2.34375 -6.617188 0.90625 -10.332031 0.90625 -14.71875 C 0.90625 -17.570312 1.566406 -20.222656 2.890625 -22.671875 C 4.222656 -25.117188 6.070312 -27.046875 8.4375 -28.453125 C 10.8125 -29.867188 13.425781 -30.578125 16.28125 -30.578125 C 17.40625 -30.578125 18.5625 -30.425781 19.75 -30.125 C 20.9375 -29.820312 22.070312 -29.347656 23.15625 -28.703125 Z M 18.453125 4.046875 L 11.453125 12.421875 L 7 10.125 L 12.90625 1.203125 Z M 18.453125 4.046875 "/></g></g></g><g fill="#efca08" fill-opacity="1"><g transform="translate(174.617626, 283.612485)"><g><path d="M 22.671875 -29.609375 L 31 -29.609375 L 31 0 L 22.671875 0 L 22.671875 -2.71875 L 22.546875 -2.71875 C 21.660156 -1.550781 20.484375 -0.644531 19.015625 0 C 17.554688 0.644531 16.0625 0.96875 14.53125 0.96875 C 10.632812 0.96875 7.390625 -0.566406 4.796875 -3.640625 C 2.203125 -6.722656 0.90625 -10.492188 0.90625 -14.953125 C 0.90625 -17.722656 1.46875 -20.296875 2.59375 -22.671875 C 3.71875 -25.046875 5.3125 -26.957031 7.375 -28.40625 C 9.445312 -29.851562 11.789062 -30.578125 14.40625 -30.578125 C 15.9375 -30.578125 17.4375 -30.253906 18.90625 -29.609375 C 20.375 -28.960938 21.628906 -28.035156 22.671875 -26.828125 Z M 16.40625 -23.09375 C 14.507812 -23.09375 12.878906 -22.273438 11.515625 -20.640625 C 10.148438 -19.015625 9.46875 -17.078125 9.46875 -14.828125 C 9.46875 -12.578125 10.148438 -10.628906 11.515625 -8.984375 C 12.878906 -7.335938 14.53125 -6.515625 16.46875 -6.515625 C 18.4375 -6.515625 20.101562 -7.328125 21.46875 -8.953125 C 22.832031 -10.578125 23.515625 -12.535156 23.515625 -14.828125 C 23.515625 -17.117188 22.820312 -19.066406 21.4375 -20.671875 C 20.050781 -22.285156 18.375 -23.09375 16.40625 -23.09375 Z M 16.40625 -23.09375 "/></g></g></g><g fill="#efca08" fill-opacity="1"><g transform="translate(208.687289, 283.612485)"><g><path d="M 2.65625 -42.03125 C 2.65625 -43.351562 3.132812 -44.515625 4.09375 -45.515625 C 5.0625 -46.523438 6.25 -47.03125 7.65625 -47.03125 C 9.0625 -47.03125 10.242188 -46.523438 11.203125 -45.515625 C 12.171875 -44.515625 12.65625 -43.351562 12.65625 -42.03125 C 12.65625 -40.625 12.171875 -39.4375 11.203125 -38.46875 C 10.242188 -37.5 9.0625 -37.015625 7.65625 -37.015625 C 6.25 -37.015625 5.0625 -37.5 4.09375 -38.46875 C 3.132812 -39.4375 2.65625 -40.625 2.65625 -42.03125 Z M 11.875 -29.609375 L 11.875 0 L 3.4375 0 L 3.4375 -29.609375 Z M 11.875 -29.609375 "/></g></g></g><g fill="#efca08" fill-opacity="1"><g transform="translate(223.943265, 283.612485)"><g><path d="M 12.546875 -45.46875 L 11.453125 -25.6875 L 6.390625 -25.6875 L 5.3125 -45.46875 Z M 12.546875 -45.46875 "/></g></g></g><g fill="#efca08" fill-opacity="1"><g transform="translate(241.792146, 283.612485)"><g><path d="M 18.203125 -22.609375 C 17.609375 -23.171875 16.925781 -23.648438 16.15625 -24.046875 C 15.394531 -24.453125 14.59375 -24.65625 13.75 -24.65625 C 13.0625 -24.65625 12.425781 -24.414062 11.84375 -23.9375 C 11.257812 -23.457031 10.96875 -22.851562 10.96875 -22.125 C 10.96875 -21.363281 11.300781 -20.757812 11.96875 -20.3125 C 12.632812 -19.875 13.671875 -19.375 15.078125 -18.8125 L 17.0625 -18.03125 C 18.914062 -17.300781 20.394531 -16.265625 21.5 -14.921875 C 22.601562 -13.578125 23.15625 -11.78125 23.15625 -9.53125 C 23.15625 -6.46875 22.078125 -3.953125 19.921875 -1.984375 C 17.773438 -0.015625 15.015625 0.96875 11.640625 0.96875 C 9.585938 0.96875 7.65625 0.535156 5.84375 -0.328125 C 4.039062 -1.191406 2.492188 -2.410156 1.203125 -3.984375 L 5.0625 -8.984375 C 5.90625 -8.054688 6.847656 -7.25 7.890625 -6.5625 C 8.941406 -5.882812 10.085938 -5.546875 11.328125 -5.546875 C 12.253906 -5.546875 13.050781 -5.835938 13.71875 -6.421875 C 14.382812 -7.003906 14.71875 -7.78125 14.71875 -8.75 C 14.71875 -9.664062 14.363281 -10.382812 13.65625 -10.90625 C 12.957031 -11.4375 11.898438 -11.984375 10.484375 -12.546875 C 7.910156 -13.503906 6.191406 -14.375 5.328125 -15.15625 C 4.472656 -15.945312 3.851562 -16.8125 3.46875 -17.75 C 3.082031 -18.695312 2.890625 -19.773438 2.890625 -20.984375 C 2.890625 -23.753906 3.785156 -26.046875 5.578125 -27.859375 C 7.367188 -29.671875 9.609375 -30.578125 12.296875 -30.578125 C 14.023438 -30.535156 15.753906 -30.257812 17.484375 -29.75 C 19.210938 -29.25 20.660156 -28.5 21.828125 -27.5 Z M 18.203125 -22.609375 "/></g></g></g><g clip-path="url(#b395658f60)"><g clip-path="url(#c8e3f7b28b)"><g clip-path="url(#8ad4629047)"><path fill="#188680" d="M 310.03125 361.546875 C 348.53125 366.445312 379.0625 375.796875 379.0625 375.796875 C 379.0625 375.796875 347.171875 377.207031 308.671875 372.3125 C 270.175781 367.414062 239.644531 358.0625 239.644531 358.0625 C 239.644531 358.0625 271.53125 356.652344 310.03125 361.546875 " fill-opacity="1" fill-rule="nonzero"/></g></g></g><g clip-path="url(#fd4d354261)"><g clip-path="url(#d5a1b14330)"><g clip-path="url(#28fb8b52b5)"><path fill="#188680" d="M 355.699219 316.246094 C 373.398438 349.921875 382.902344 379.773438 382.902344 379.773438 C 382.902344 379.773438 363.707031 355.023438 346.003906 321.347656 C 328.304688 287.671875 318.800781 257.820312 318.800781 257.820312 C 318.800781 257.820312 337.996094 282.570312 355.699219 316.246094 " fill-opacity="1" fill-rule="nonzero"/></g></g></g><g clip-path="url(#3d8aaa7559)"><g clip-path="url(#ca77fbe868)"><g clip-path="url(#77893be63a)"><path fill="#229f9b" d="M 305.367188 327.1875 C 341.5 347.691406 367.816406 369.570312 367.816406 369.570312 C 367.816406 369.570312 335.550781 358.203125 299.421875 337.703125 C 263.289062 317.199219 236.972656 295.324219 236.972656 295.324219 C 236.972656 295.324219 269.238281 306.6875 305.367188 327.1875 " fill-opacity="1" fill-rule="nonzero"/></g></g></g><g clip-path="url(#2bd5f358a9)"><g clip-path="url(#f5fd4c7fd1)"><g clip-path="url(#b06f47e899)"><path fill="#229f9b" d="M 372.617188 321.238281 C 379.550781 362.226562 379.21875 396.460938 379.21875 396.460938 C 379.21875 396.460938 367.644531 364.238281 360.710938 323.25 C 353.777344 282.261719 354.109375 248.027344 354.109375 248.027344 C 354.109375 248.027344 365.679688 280.25 372.617188 321.238281 " fill-opacity="1" fill-rule="nonzero"/></g></g></g><g clip-path="url(#7500834c87)"><g clip-path="url(#312c7fb7f2)"><g clip-path="url(#7ed59f999e)"><path fill="#229f9b" d="M 335.429688 317.664062 C 359.097656 347.246094 375.058594 373.816406 375.058594 373.816406 C 375.058594 373.816406 352.644531 352.421875 328.976562 322.835938 C 305.308594 293.253906 289.347656 266.6875 289.347656 266.6875 C 289.347656 266.6875 311.761719 288.082031 335.429688 317.664062 " fill-opacity="1" fill-rule="nonzero"/></g></g></g><g clip-path="url(#2a457cb92e)"><g clip-path="url(#c3494c5a77)"><g clip-path="url(#2e3af405d0)"><path fill="#229f9b" d="M 310.390625 354.566406 C 348.25 363.117188 377.75 375.34375 377.75 375.34375 C 377.75 375.34375 345.871094 373.703125 308.007812 365.148438 C 270.148438 356.597656 240.648438 344.371094 240.648438 344.371094 C 240.648438 344.371094 272.527344 346.011719 310.390625 354.566406 " fill-opacity="1" fill-rule="nonzero"/></g></g></g><g clip-path="url(#a808422552)"><path fill="#349370" d="M 248.117188 72.042969 C 240.273438 81.109375 227.203125 92.324219 221.6875 100.800781 L 196.347656 130.695312 L 197.53125 190.777344 C 204.695312 191.046875 210.761719 190.050781 215.84375 188.523438 C 253.917969 177.097656 278.738281 123.105469 279.84375 54.148438 C 272.101562 60.875 256.441406 62.429688 248.117188 72.042969 Z M 248.117188 72.042969 " fill-opacity="1" fill-rule="nonzero"/></g><g clip-path="url(#d89cbece56)"><path fill="#3fa07f" d="M 279.84375 54.148438 C 272.101562 60.875 263.785156 68.964844 255.460938 78.578125 C 247.617188 87.644531 241.035156 96.613281 235.519531 105.089844 L 235.515625 105.089844 C 219.652344 102.964844 209.910156 97.085938 216.390625 82.4375 C 220.667969 78.179688 226.019531 73.625 232.605469 69.417969 C 251.203125 57.535156 269.558594 54.828125 279.84375 54.148438 Z M 279.84375 54.148438 " fill-opacity="1" fill-rule="nonzero"/></g><g clip-path="url(#2f89f6c370)"><path fill="#5c155e" d="M 120.0625 137.195312 C 105.441406 144.839844 95.464844 160.171875 95.464844 177.835938 C 95.464844 203.136719 115.933594 223.648438 141.179688 223.648438 C 161.121094 223.648438 178.078125 210.851562 184.328125 193.007812 Z M 120.0625 137.195312 " fill-opacity="1" fill-rule="nonzero"/></g><path fill="#752c73" d="M 235.515625 105.089844 C 233.921875 101.855469 232.0625 98.78125 229.945312 95.902344 C 226.160156 90.734375 221.582031 86.183594 216.390625 82.4375 C 206.378906 75.203125 194.085938 70.945312 180.796875 70.945312 C 147.136719 70.945312 119.847656 98.292969 119.847656 132.023438 C 119.847656 133.769531 119.921875 135.488281 120.0625 137.195312 C 120.542969 142.941406 121.816406 148.460938 123.777344 153.644531 C 125.941406 159.390625 128.953125 164.726562 132.65625 169.496094 C 143.8125 183.863281 161.226562 193.109375 180.796875 193.109375 C 181.980469 193.109375 183.160156 193.074219 184.328125 193.007812 C 188.875 192.746094 193.296875 191.984375 197.527344 190.777344 L 197.53125 190.777344 C 210.695312 187.019531 222.039062 178.9375 229.945312 168.164062 C 237.367188 158.042969 241.75 145.542969 241.75 132.023438 C 241.75 122.355469 239.507812 113.214844 235.515625 105.089844 Z M 235.515625 105.089844 " fill-opacity="1" fill-rule="nonzero"/><path fill="#682168" d="M 136.675781 89.882812 C 126.25 100.84375 119.847656 115.683594 119.847656 132.023438 C 119.847656 133.769531 119.921875 135.488281 120.0625 137.195312 C 120.542969 142.941406 121.816406 148.460938 123.777344 153.644531 C 125.941406 159.390625 128.953125 164.726562 132.65625 169.496094 C 143.8125 183.863281 161.226562 193.109375 180.796875 193.109375 C 181.980469 193.109375 183.160156 193.074219 184.328125 193.007812 C 188.875 192.746094 193.296875 191.984375 197.527344 190.777344 L 197.53125 190.777344 C 210.695312 187.019531 222.039062 178.9375 229.945312 168.160156 C 176.777344 158.105469 144.039062 133.210938 136.675781 89.882812 Z M 136.675781 89.882812 " fill-opacity="1" fill-rule="nonzero"/><path fill="#e7c1ce" d="M 116.796875 180.890625 C 121.007812 180.890625 124.414062 184.308594 124.414062 188.523438 C 124.414062 192.742188 121.007812 196.160156 116.796875 196.160156 C 112.589844 196.160156 109.175781 192.742188 109.175781 188.523438 C 109.175781 184.308594 112.589844 180.890625 116.796875 180.890625 Z M 116.796875 180.890625 " fill-opacity="1" fill-rule="nonzero"/><path fill="#e7c1ce" d="M 132.65625 169.496094 C 131.523438 170.171875 130.273438 170.761719 128.925781 171.226562 C 121.765625 173.703125 114.625 171.835938 112.976562 167.050781 C 111.328125 162.265625 115.796875 156.382812 122.957031 153.90625 C 123.230469 153.808594 123.5 153.726562 123.773438 153.644531 L 123.777344 153.644531 C 125.941406 159.390625 128.953125 164.726562 132.65625 169.496094 Z M 132.65625 169.496094 " fill-opacity="1" fill-rule="nonzero"/><path fill="#e7c1ce" d="M 167.082031 87.742188 C 171.289062 87.742188 174.703125 91.160156 174.703125 95.378906 C 174.703125 99.59375 171.289062 103.011719 167.082031 103.011719 C 162.875 103.011719 159.464844 99.59375 159.464844 95.378906 C 159.464844 91.160156 162.875 87.742188 167.082031 87.742188 Z M 167.082031 87.742188 " fill-opacity="1" fill-rule="nonzero"/><path fill="#e7c1ce" d="M 201.628906 101.546875 C 204.097656 108.726562 202.238281 115.878906 197.464844 117.53125 C 192.691406 119.183594 186.816406 114.703125 184.34375 107.527344 C 181.875 100.355469 183.738281 93.199219 188.511719 91.550781 C 193.285156 89.898438 199.160156 94.375 201.628906 101.546875 Z M 201.628906 101.546875 " fill-opacity="1" fill-rule="nonzero"/></svg>