<svg xmlns="http://www.w3.org/2000/svg" xmlns:xlink="http://www.w3.org/1999/xlink" width="500" zoomAndPan="magnify" viewBox="0 0 375 374.999991" height="500" preserveAspectRatio="xMidYMid meet" version="1.0"><defs><g/><clipPath id="ee6c38997d"><path d="M 22.734375 140.8125 L 352.265625 140.8125 L 352.265625 239.15625 L 22.734375 239.15625 Z M 22.734375 140.8125 " clip-rule="nonzero"/></clipPath><clipPath id="85ab418ba2"><path d="M 48.351562 151.476562 L 326.410156 151.476562 L 326.410156 347.960938 L 48.351562 347.960938 Z M 48.351562 151.476562 " clip-rule="nonzero"/></clipPath></defs><rect x="-37.5" width="450" fill="#ffffff" y="-37.499999" height="449.999989" fill-opacity="1"/><rect x="-37.5" width="450" fill="#c60c15" y="-37.499999" height="449.999989" fill-opacity="1"/><g clip-path="url(#ee6c38997d)"><path fill="#f49f0a" d="M 22.734375 140.8125 L 352.03125 140.8125 L 352.03125 239.25 L 22.734375 239.25 Z M 22.734375 140.8125 " fill-opacity="1" fill-rule="nonzero"/></g><path fill="#1d1d1b" d="M 253.824219 300.425781 C 245.300781 306.585938 235.972656 311.523438 226.039062 314.757812 C 198.960938 323.570312 184.050781 317.558594 163.378906 320.246094 C 147.285156 322.632812 141.84375 331.621094 140.734375 318.1875 C 140.996094 315.535156 135.371094 287.433594 155.847656 259.035156 C 161.847656 250.457031 169.699219 243.148438 178.820312 237.734375 C 169.234375 242.320312 160.90625 249.445312 154.210938 257.804688 C 142.292969 273.058594 135.328125 293.019531 136.621094 314.5 L 136.800781 318.476562 C 136.886719 319.855469 137.035156 321.265625 137.375 322.722656 C 138.953125 328.886719 142.667969 330.363281 148.964844 328.671875 C 156.046875 326.777344 156.308594 325.535156 163.9375 324.367188 C 183.277344 321.660156 200.769531 327.609375 227.078125 317.726562 C 237.171875 314 246.628906 308.617188 255 302 C 263.316406 295.328125 271.03125 287.859375 277.304688 279.292969 C 270.335938 287.277344 262.421875 294.363281 253.824219 300.425781 " fill-opacity="1" fill-rule="nonzero"/><path fill="#1d1d1b" d="M 233.828125 217.910156 C 238.59375 217.988281 243.339844 218.269531 248.015625 219.015625 C 274.765625 222.847656 301.074219 241.167969 301.546875 247.703125 C 301.941406 251.972656 296.542969 254.871094 288.96875 263.300781 C 285.847656 266.921875 282.800781 270.609375 280.0625 274.515625 C 283.289062 271.003906 286.523438 267.519531 289.957031 264.234375 C 298.503906 255.832031 304.210938 253.292969 303.976562 247.570312 C 303.273438 237.570312 268.789062 214.011719 233.828125 217.910156 " fill-opacity="1" fill-rule="nonzero"/><path fill="#1d1d1b" d="M 147.011719 316.039062 C 146.132812 295.570312 149.933594 278.617188 159.113281 260.746094 C 146.882812 275.242188 141.925781 297.722656 147.011719 316.039062 " fill-opacity="1" fill-rule="nonzero"/><g clip-path="url(#85ab418ba2)"><path fill="#1d1d1b" d="M 321.082031 243.738281 C 319.542969 245.941406 317.054688 248.496094 314.578125 249.660156 C 308.066406 252.726562 305.46875 258.957031 272.382812 291.335938 C 242.398438 320.671875 203.539062 330.351562 186.160156 329.59375 C 177.089844 329.195312 167.960938 329.117188 158.96875 330.570312 C 154.300781 331.324219 149.003906 332.226562 144.714844 334.296875 C 141.585938 335.808594 138.113281 337.140625 134.925781 334.578125 C 132.917969 332.964844 132.183594 330.230469 132.011719 327.660156 C 131.460938 319.277344 131.839844 310.488281 132.675781 302.121094 C 136.039062 268.816406 148.671875 251.875 170.050781 237.160156 C 180.964844 229.851562 193.113281 224.34375 205.773438 220.535156 C 199.183594 221.515625 192.65625 223.160156 186.425781 225.628906 C 180.164062 228.003906 174.128906 231.074219 168.558594 234.835938 C 163.027344 238.667969 157.792969 242.910156 153.039062 247.640625 C 138.046875 261.972656 131.101562 281.082031 128.683594 301.671875 C 127.65625 310.847656 127.457031 320.113281 128.125 329.316406 C 128.375 332.753906 129.566406 336.804688 127.605469 339.957031 C 126.042969 342.476562 123.121094 343.4375 120.367188 342.3125 C 117.054688 340.960938 116.441406 336.589844 116.84375 333.03125 C 119.675781 329.472656 121.570312 323.90625 121.890625 319.53125 C 119.355469 322.757812 116.523438 327.273438 113.285156 330.429688 C 111.746094 328.097656 110.691406 324.183594 110.632812 320.179688 C 111.3125 316.847656 112.113281 314.355469 113.269531 311.523438 C 116.429688 309.578125 118.917969 306.128906 120.984375 303.054688 C 122.972656 299.820312 124.78125 296.523438 126.058594 292.9375 C 123.359375 295.605469 120.933594 298.390625 118.351562 300.980469 C 117.085938 302.375 114.675781 304.730469 112.871094 306.257812 C 113.039062 306.117188 111.972656 300.542969 111.929688 299.941406 C 111.75 297.542969 111.902344 295.964844 112.957031 293.742188 C 115.546875 288.292969 120.078125 285.089844 124.328125 281.082031 C 128.730469 276.9375 132.914062 272.40625 136.460938 267.5 C 131.382812 270.632812 124.039062 276.230469 119.363281 279.757812 C 119.09375 279.769531 118.808594 279.785156 118.5 279.800781 C 116.914062 279.878906 118.101562 271.960938 118.304688 271.066406 C 120.121094 263.074219 132.085938 258.230469 135.371094 256.652344 C 138.265625 255.121094 141.324219 253.554688 143.730469 251.164062 C 140.5 252.070312 137.417969 252.773438 134.207031 253.511719 C 133.738281 253.640625 133.261719 253.769531 132.785156 253.898438 C 132.359375 248.605469 133 239.816406 146.871094 236.28125 L 146.890625 236.402344 C 151.53125 235.777344 159.695312 233.316406 163.90625 231.304688 C 160.558594 230.917969 156.152344 231.015625 152.527344 231.261719 C 155.15625 219.585938 166.398438 219.792969 178.871094 218.632812 C 181.617188 218.265625 184.359375 217.921875 187.113281 217.160156 C 184.28125 216.304688 179.664062 215.460938 176.703125 215.121094 C 181.789062 200.351562 212.886719 210.03125 213.867188 210.160156 C 211.332031 208.148438 207.824219 206.28125 204.148438 205.242188 C 212.902344 199.277344 227.226562 201.613281 235.847656 206.449219 C 238.722656 207.898438 243.171875 211.238281 246.320312 212.5625 C 243.601562 209.351562 240.546875 206.042969 237.101562 203.636719 C 237.394531 203.835938 240.914062 202.640625 241.492188 202.574219 C 243.082031 202.386719 244.976562 202.265625 246.570312 202.234375 C 256.027344 202.054688 269.652344 218.078125 269.789062 218.359375 C 268.242188 215.21875 265.910156 211.21875 263.480469 208.296875 C 281.699219 206.679688 287.4375 223.890625 290.71875 227.609375 C 290.117188 224.445312 289.136719 220.84375 287.753906 217.929688 C 288.34375 217.792969 289.101562 217.75 290.050781 217.910156 C 300.214844 219.574219 303.5625 233.292969 306.675781 236.628906 C 306.316406 233.296875 306.371094 230.414062 305.78125 227.671875 C 307.171875 227.746094 308.625 228.179688 310.050781 229.03125 C 314.253906 231.542969 316.699219 237.28125 316.367188 242.03125 C 317.054688 241.828125 317.375 241.066406 317.65625 240.410156 C 318.445312 238.550781 320.925781 238.902344 321.886719 240.519531 C 322.527344 241.59375 321.703125 242.847656 321.082031 243.738281 Z M 97.347656 281.167969 C 93.160156 281.503906 85.351562 282.355469 81.5 280.5 C 80.644531 280.085938 79.828125 279.539062 79.066406 278.820312 C 71.375 271.570312 77.816406 245.027344 78.328125 242.960938 C 81.683594 229.652344 89.90625 216.980469 98.890625 206.355469 C 128.671875 170.757812 173.886719 173.386719 176.34375 172.777344 C 167.511719 171.761719 129.964844 167.296875 96.683594 204.414062 C 87.15625 215.15625 78.300781 228.027344 74.492188 241.949219 C 72.15625 250.835938 71.339844 259.84375 71.5 269.003906 C 71.546875 271.8125 71.589844 274.605469 71.457031 277.414062 C 71.257812 281.707031 66.984375 283.769531 62.851562 283.425781 C 59.3125 283.128906 55.890625 280.832031 54.40625 277.605469 C 53.121094 274.816406 53.347656 271.78125 54.496094 269 C 55.398438 266.828125 56.917969 266.003906 58.421875 264.347656 C 61.027344 261.472656 63.449219 258.328125 65.234375 254.871094 C 63.234375 256.230469 56.488281 261.273438 56.195312 261.496094 C 55.527344 262 53.132812 254.121094 53.109375 253.445312 C 53.019531 250.695312 53.914062 246.671875 55.878906 244.605469 C 57.480469 242.917969 60.050781 241.972656 61.871094 240.460938 C 67.269531 235.988281 72.328125 230.839844 76.367188 225.09375 C 72.1875 228.222656 68.382812 231.339844 60.574219 236.871094 C 60.570312 236.875 60.09375 231.351562 60.152344 230.769531 C 60.40625 228.347656 61.179688 226.148438 62.207031 223.988281 C 64.640625 218.886719 69.074219 214.921875 74.484375 213.273438 C 79.851562 211.636719 84.996094 207.710938 89.449219 204.351562 C 84.640625 205.738281 78.738281 208.105469 74.121094 210.09375 C 74.101562 210.101562 73.753906 205.535156 73.78125 205.132812 C 73.933594 202.789062 74.582031 200.527344 75.796875 198.507812 C 81.058594 189.785156 109.183594 184.402344 109.269531 184.40625 C 104.433594 184.121094 98.699219 184.59375 93.796875 185.355469 C 94.269531 185.28125 96.515625 179.601562 97.023438 178.835938 C 98.394531 176.785156 100.121094 175.050781 102.257812 173.789062 C 108.339844 170.207031 114.578125 170.054688 121.199219 170.144531 C 138.652344 170.371094 135.871094 169.390625 138.144531 169.886719 C 133.605469 168.863281 127.667969 167.691406 123.238281 167.355469 C 123.671875 167.386719 126.957031 163.609375 127.585938 163.15625 C 129.859375 161.503906 132.484375 160.453125 135.1875 159.683594 C 147.960938 156.058594 167.589844 166.351562 167.675781 166.410156 C 164.375 164.058594 160.175781 161.285156 156.539062 159.503906 C 156.8125 159.636719 161.585938 156.484375 162.246094 156.199219 C 164.707031 155.148438 167.335938 154.484375 170.015625 154.351562 C 180.96875 153.8125 187.40625 163.257812 196.097656 167.980469 C 194.207031 165.007812 191.386719 161.628906 189.050781 159.011719 C 189.320312 159.316406 196.511719 157.988281 197.472656 158.007812 C 200.800781 158.078125 204.082031 158.789062 207.09375 160.222656 C 211.648438 162.390625 215.972656 165.597656 219.0625 169.609375 C 221.332031 172.554688 224.34375 182.222656 224.402344 182.515625 C 223.914062 180.152344 223.824219 174.328125 222.671875 170.949219 C 222.703125 171.042969 227.980469 171.082031 228.550781 171.167969 C 230.714844 171.503906 232.753906 172.199219 234.621094 173.359375 C 238.160156 175.554688 242.285156 179.53125 243.964844 183.414062 C 247.152344 190.792969 247.941406 192.347656 248.125 192.972656 C 248.003906 189.757812 247.410156 185.660156 246.457031 182.738281 C 246.558594 183.050781 250.097656 184.023438 250.59375 184.269531 C 252.144531 185.027344 253.609375 185.972656 254.90625 187.117188 C 259.480469 191.140625 262.582031 199.019531 263.082031 203.847656 C 263.992188 202.933594 264.054688 199.75 263.726562 198.351562 C 267.355469 199.191406 272.667969 201.660156 274.964844 206.667969 C 269.074219 204.042969 263.496094 203.710938 259.796875 204.507812 C 255.160156 200.679688 250.625 199.015625 246.585938 198.507812 C 233.757812 187.769531 219.644531 181.324219 206.425781 178.722656 C 217.105469 183.046875 227.277344 188.152344 236.714844 194.480469 C 238.601562 195.726562 240.433594 197.050781 242.253906 198.390625 C 241.246094 198.457031 240.296875 198.589844 239.398438 198.757812 C 235.496094 195.996094 231.296875 193.617188 226.671875 192.199219 C 229.742188 194.882812 232.902344 197.265625 236.050781 199.640625 C 234.628906 200.121094 233.472656 200.648438 232.683594 201.066406 C 226.058594 198.925781 209.046875 194.175781 199.117188 203.96875 C 189.101562 203.429688 175.765625 205.804688 173.390625 214.457031 C 152.109375 215.121094 149.074219 226.8125 148.199219 231.683594 C 147.515625 231.78125 146.835938 231.886719 146.160156 232.023438 L 146.1875 232.199219 C 128.265625 236.609375 128.132812 249.042969 128.691406 254.878906 C 121.480469 258.816406 114.6875 264.339844 113.855469 272.554688 C 99.582031 274.101562 77.527344 283.625 89.089844 240.542969 C 93.949219 222.847656 108.441406 204.53125 125.832031 189.613281 C 109.214844 200.550781 91.601562 218.890625 85.410156 239.484375 C 80.082031 257.199219 81.25 271.226562 83.800781 275.058594 C 87.320312 280.335938 99.230469 278.4375 104.355469 277.648438 C 106.554688 277.238281 113.203125 275.996094 113.804688 275.902344 C 113.894531 277.34375 114.09375 278.722656 114.316406 280.023438 C 114.257812 279.671875 98.636719 281.0625 97.347656 281.167969 Z M 320.734375 235.695312 C 319.785156 235.101562 318.898438 234.453125 318.25 233.609375 C 308.3125 220.757812 305.332031 225.996094 304.496094 224.410156 C 302.25 220.132812 298.285156 216.871094 293.730469 215.304688 C 291.765625 214.625 289.613281 213.808594 287.570312 213.699219 C 285.632812 213.59375 286.09375 214.042969 284.425781 212.945312 C 284.28125 212.851562 282.707031 211.324219 282.625 211.445312 C 281.84375 210.800781 281.054688 210.222656 280.265625 209.679688 C 278.488281 200.519531 268.980469 196.054688 263.660156 194.886719 C 260.757812 186.28125 254.886719 181.410156 245.390625 179.625 C 234.992188 164.972656 223.992188 168.609375 220.875 168.0625 C 220.824219 167.964844 220.78125 167.867188 220.730469 167.769531 L 220.625 167.824219 C 208.507812 151.585938 193.121094 155.265625 186.878906 156.960938 C 171.757812 146.796875 159.34375 153.03125 153.632812 157.539062 C 132.9375 150.890625 122.117188 161.4375 118.691406 166.53125 C 97.574219 166.144531 93.535156 174.804688 89.46875 184.949219 C 68.398438 191.050781 68.984375 204.375 69.96875 210.507812 C 56.921875 217.640625 54.339844 230.425781 56.675781 238.390625 C 50.949219 243.457031 47.183594 250.5 49.78125 258.136719 C 50.179688 259.3125 50.832031 260.355469 51.292969 261.496094 C 52.210938 263.773438 51.300781 263.089844 50.136719 265.332031 C 48.410156 268.648438 47.792969 274.777344 48.929688 278.28125 C 50.550781 283.300781 56.167969 287.625 61.433594 287.964844 C 65.539062 288.226562 69.351562 285.019531 73.425781 284.355469 C 77.476562 283.695312 81.984375 284.585938 86.074219 284.859375 C 89.960938 285.125 93.851562 285.296875 97.75 285.273438 C 100.296875 285.257812 102.839844 285.167969 105.378906 285.007812 C 106.980469 284.90625 112.597656 285.300781 113.714844 284.234375 C 106.050781 291.574219 107.257812 303 109.429688 309.324219 C 104.652344 315.214844 106.007812 328.8125 110.925781 334.199219 C 109.921875 339.941406 110.96875 343.984375 114.027344 346.222656 C 115.699219 347.445312 117.820312 347.960938 120.175781 347.960938 C 126.449219 347.960938 130.898438 343.609375 136.089844 340.796875 C 140.292969 338.511719 145.640625 338.164062 150.285156 336.828125 C 161.804688 333.511719 174.082031 333.226562 185.976562 333.75 C 198.988281 334.3125 240.472656 328.375 275.292969 294.308594 C 290.722656 279.210938 299.476562 269.847656 305.269531 263.652344 C 311.351562 257.144531 313.628906 254.710938 316.351562 253.425781 C 320.625 251.414062 326.015625 247.320312 326.394531 242.152344 C 326.660156 238.546875 323.441406 237.375 320.734375 235.695312 " fill-opacity="1" fill-rule="nonzero"/></g><path fill="#1d1d1b" d="M 138.144531 169.886719 C 138.246094 169.910156 138.359375 169.933594 138.457031 169.957031 C 138.339844 169.929688 138.238281 169.90625 138.144531 169.886719 " fill-opacity="1" fill-rule="nonzero"/><path fill="#1d1d1b" d="M 197.570312 249.964844 C 196.90625 249.570312 196.652344 249.183594 196.453125 248.902344 C 196.277344 248.597656 196.179688 248.402344 196.132812 248.261719 C 196.042969 248.152344 195.9375 247.964844 195.78125 247.644531 C 195.660156 247.316406 195.484375 246.890625 195.53125 246.121094 C 194.125 245.855469 192.777344 247.726562 193.683594 249.5625 C 194.691406 251.351562 197.003906 251.285156 197.570312 249.964844 " fill-opacity="1" fill-rule="nonzero"/><path fill="#1d1d1b" d="M 171.679688 275.84375 C 171.199219 276.421875 171.050781 277.292969 171.324219 278.121094 C 171.644531 278.933594 172.316406 279.503906 173.058594 279.644531 C 173.769531 279.8125 174.617188 279.570312 174.949219 278.875 C 173.976562 278.121094 173.375 276.3125 173.625 275.21875 C 172.921875 274.902344 172.121094 275.257812 171.679688 275.84375 " fill-opacity="1" fill-rule="nonzero"/><path fill="#1d1d1b" d="M 155.570312 305.777344 C 156.21875 305.859375 156.945312 305.609375 157.273438 304.957031 C 156.800781 304.5 155.328125 301.878906 155.230469 301.523438 C 152.980469 301.457031 152.9375 305.535156 155.570312 305.777344 " fill-opacity="1" fill-rule="nonzero"/><path fill="#1d1d1b" d="M 204.050781 272.5 C 204.707031 272.386719 205.332031 271.914062 205.417969 271.179688 C 204.820312 270.914062 203.03125 269.246094 202.6875 268.523438 C 201.960938 268.625 201.507812 269.261719 201.410156 269.921875 C 201.28125 270.597656 201.535156 271.335938 202.070312 271.886719 C 202.632812 272.40625 203.378906 272.644531 204.050781 272.5 " fill-opacity="1" fill-rule="nonzero"/><path fill="#1d1d1b" d="M 122.6875 308.234375 C 122.503906 308.027344 122.21875 307.773438 121.984375 307.113281 C 120.886719 307.050781 119.964844 308.382812 120.589844 309.902344 C 121.335938 311.355469 122.957031 311.523438 123.625 310.628906 C 123.269531 310.027344 123.261719 309.644531 123.222656 309.367188 C 123.203125 308.875 123.097656 308.601562 122.6875 308.234375 " fill-opacity="1" fill-rule="nonzero"/><path fill="#1d1d1b" d="M 147.875 242.171875 C 147.828125 241.914062 147.855469 241.8125 147.878906 241.808594 C 147.855469 241.820312 147.761719 241.769531 147.601562 241.558594 C 147.476562 241.347656 147.265625 241.007812 147.332031 240.3125 C 145.082031 239.164062 144.105469 243.949219 147.019531 244.160156 C 147.667969 244.242188 148.414062 243.921875 148.605469 243.222656 C 148.046875 242.796875 147.949219 242.410156 147.875 242.171875 " fill-opacity="1" fill-rule="nonzero"/><path fill="#1d1d1b" d="M 214.484375 228.625 C 215.222656 228.671875 216.03125 228.261719 216.199219 227.507812 C 215.246094 227.066406 214.316406 225.542969 214.585938 224.285156 C 213.882812 223.964844 213.074219 224.367188 212.667969 224.988281 C 212.21875 225.601562 212.128906 226.507812 212.515625 227.332031 C 212.941406 228.136719 213.722656 228.613281 214.484375 228.625 " fill-opacity="1" fill-rule="nonzero"/><path fill="#1d1d1b" d="M 190.582031 306.960938 C 191.625 306.957031 192.617188 306.433594 193.132812 305.742188 C 193.679688 305.0625 193.902344 304.304688 193.902344 303.421875 C 193.015625 303.578125 192.355469 303.871094 191.816406 304.023438 C 191.265625 304.171875 190.929688 304.207031 190.597656 304.1875 C 190.277344 304.183594 190.171875 304.207031 189.929688 304.183594 C 189.710938 304.035156 189.167969 303.652344 189.460938 302.8125 C 188.449219 302.585938 187.632812 303.933594 187.933594 305.007812 C 188.195312 306.300781 189.566406 306.972656 190.582031 306.960938 " fill-opacity="1" fill-rule="nonzero"/><path fill="#1d1d1b" d="M 238.300781 288.339844 C 239.007812 288.875 239.546875 288.855469 240.023438 288.601562 C 240.574219 288.304688 241.035156 287.6875 241.574219 287.230469 C 240.253906 287.199219 239.597656 286.351562 238.589844 285.660156 C 238.15625 285.363281 238.371094 285.035156 237.722656 285.519531 C 237.359375 285.789062 237.308594 286.410156 237.355469 286.816406 C 237.429688 287.464844 237.820312 287.984375 238.300781 288.339844 " fill-opacity="1" fill-rule="nonzero"/><path fill="#1d1d1b" d="M 223.738281 210.742188 C 223.789062 210.695312 223.839844 210.648438 223.894531 210.605469 C 223.199219 210.664062 222.5 210.265625 222.132812 209.679688 C 221.921875 209.347656 221.933594 208.335938 221.476562 208.207031 C 220.109375 207.828125 220.414062 210.589844 220.910156 211.105469 C 222.085938 212.28125 222.757812 211.601562 223.738281 210.742188 " fill-opacity="1" fill-rule="nonzero"/><path fill="#1d1d1b" d="M 177.257812 222.449219 C 176.980469 222.179688 176.644531 221.917969 175.949219 221.722656 C 175.273438 222.214844 174.613281 223.058594 174.949219 223.824219 L 175.503906 225.089844 L 176.410156 224.933594 C 176.648438 224.894531 176.882812 224.734375 177.105469 224.511719 C 177.332031 224.269531 177.546875 223.976562 177.742188 223.449219 C 177.695312 223.363281 177.648438 223.316406 177.597656 223.25 C 177.582031 222.964844 177.453125 222.699219 177.257812 222.449219 " fill-opacity="1" fill-rule="nonzero"/><path fill="#1d1d1b" d="M 309.84375 242.011719 C 309.695312 241.726562 309.507812 241.4375 309.222656 241.136719 C 308.613281 241.484375 307.796875 242.085938 307.773438 242.851562 C 307.671875 246.152344 313.175781 244.136719 311.324219 241.835938 C 310.554688 242.140625 310.152344 242.054688 309.84375 242.011719 " fill-opacity="1" fill-rule="nonzero"/><path fill="#1d1d1b" d="M 127.296875 281.867188 C 126.839844 281.800781 126.367188 281.824219 125.898438 281.933594 C 126.972656 282.65625 127.660156 283.921875 127.6875 285.21875 C 127.710938 286.515625 127.074219 287.808594 126.03125 288.578125 C 127.632812 287.402344 130.121094 287.765625 130.046875 284.726562 C 130.007812 283.136719 128.769531 282.070312 127.296875 281.867188 " fill-opacity="1" fill-rule="nonzero"/><path fill="#1d1d1b" d="M 93.722656 240.421875 C 91.441406 248.921875 90.625 257.898438 92 266.550781 C 92.828125 257.855469 94.117188 249.402344 96.398438 241.152344 C 98.613281 232.886719 101.792969 224.945312 105.5 217.035156 C 99.921875 223.796875 96.078125 231.945312 93.722656 240.421875 " fill-opacity="1" fill-rule="nonzero"/><path fill="#1d1d1b" d="M 125.511719 202.90625 C 124.832031 202.609375 124.089844 202.945312 123.679688 203.488281 C 121.824219 205.75 125.613281 208.546875 126.730469 206.34375 C 126.09375 205.726562 125.398438 203.816406 125.511719 202.90625 " fill-opacity="1" fill-rule="nonzero"/><path fill="#1d1d1b" d="M 89.09375 196.039062 C 88.847656 195.65625 88.792969 194.640625 89.316406 193.78125 C 87.949219 192.910156 85.78125 194.699219 86.464844 196.921875 C 87.257812 199.117188 90.074219 199.21875 90.636719 197.703125 C 89.710938 197.335938 89.140625 196.5 89.09375 196.039062 " fill-opacity="1" fill-rule="nonzero"/><path fill="#1d1d1b" d="M 151.574219 187.660156 C 150.816406 187.917969 150.148438 187.515625 150.054688 187.238281 C 150.089844 187.257812 150.121094 187.242188 150.105469 187.183594 C 150.058594 187.140625 150.023438 187.15625 150.035156 187.207031 C 149.8125 186.980469 149.761719 186.210938 150.308594 185.652344 C 149.1875 184.253906 146.433594 186.433594 147.757812 188.664062 C 149.144531 190.75 152.390625 189.339844 151.574219 187.660156 " fill-opacity="1" fill-rule="nonzero"/><path fill="#1d1d1b" d="M 116.773438 241.605469 C 114.113281 240.828125 113.941406 246.261719 117.21875 245.9375 C 117.953125 245.898438 118.707031 245.402344 118.789062 244.632812 C 117.792969 244.292969 116.683594 242.863281 116.773438 241.605469 " fill-opacity="1" fill-rule="nonzero"/><path fill="#1d1d1b" d="M 62.945312 271.328125 C 60.347656 272.296875 62.058594 277.046875 65.285156 276.253906 C 66.097656 276.085938 66.851562 275.496094 66.988281 274.660156 C 65.285156 274.40625 63.554688 273.070312 62.945312 271.328125 " fill-opacity="1" fill-rule="nonzero"/><path fill="#1d1d1b" d="M 67.414062 242.214844 C 67.367188 241.816406 67.261719 241.390625 67.074219 240.945312 C 67.125 241.066406 65.214844 242.59375 65.753906 243.773438 C 66.359375 245.101562 67.964844 245.3125 69.191406 244.882812 C 70.363281 244.503906 71.382812 243.265625 71.027344 242.039062 C 69.898438 242.492188 68.621094 242.460938 67.414062 242.214844 " fill-opacity="1" fill-rule="nonzero"/><path fill="#1d1d1b" d="M 147.816406 213.707031 C 146.839844 214.050781 145.859375 213.210938 146.285156 212.121094 C 145.027344 211.121094 143.070312 213.5 144.648438 215.234375 C 146.261719 216.824219 148.816406 215.050781 147.816406 213.707031 " fill-opacity="1" fill-rule="nonzero"/><path fill="#1d1d1b" d="M 105.671875 266.53125 C 105.457031 266.585938 104.640625 265.863281 104.621094 264.796875 C 103.765625 264.777344 103.109375 265.652344 103.050781 266.511719 C 102.9375 267.378906 103.382812 268.414062 104.351562 268.96875 C 105.347656 269.480469 106.460938 269.285156 107.125 268.714844 C 107.8125 268.195312 108.179688 267.167969 107.695312 266.464844 C 106.796875 267.023438 105.75 266.738281 105.671875 266.53125 " fill-opacity="1" fill-rule="nonzero"/><path fill="#1d1d1b" d="M 209.195312 170.164062 C 209.953125 169.976562 210.632812 169.320312 210.578125 168.519531 C 209.550781 168.441406 207.9375 167.398438 207.820312 165.753906 C 207.027344 165.703125 206.371094 166.378906 206.179688 167.132812 C 205.949219 167.898438 206.164062 168.828125 206.816406 169.519531 C 207.5 170.171875 208.433594 170.390625 209.195312 170.164062 " fill-opacity="1" fill-rule="nonzero"/><path fill="#1d1d1b" d="M 167.089844 312.976562 C 166.648438 313.695312 166.875 314.992188 167.773438 315.292969 C 168.332031 315.476562 169.316406 315.050781 169.898438 315.011719 C 169.394531 314.625 168.855469 313.101562 168.238281 312.546875 C 167.882812 312.234375 167.503906 312.238281 167.089844 312.976562 " fill-opacity="1" fill-rule="nonzero"/><path fill="#1d1d1b" d="M 261.480469 273.367188 C 262.363281 273.652344 263.28125 273.4375 263.878906 272.921875 C 264.503906 272.449219 264.820312 271.582031 264.558594 270.902344 C 264.011719 271.355469 263.496094 271.425781 263.105469 271.492188 C 262.699219 271.527344 262.375 271.496094 262.152344 271.402344 C 261.917969 271.34375 261.640625 271.171875 261.339844 270.890625 C 261.070312 270.597656 260.707031 270.226562 260.550781 269.535156 C 259.933594 269.914062 259.65625 270.792969 259.855469 271.550781 C 260.019531 272.324219 260.613281 273.054688 261.480469 273.367188 " fill-opacity="1" fill-rule="nonzero"/><g fill="#1d1d1b" fill-opacity="1"><g transform="translate(74.290979, 96.725002)"><g><path d="M 7.171875 -21.453125 L 7.171875 -12.921875 L 19.453125 -12.921875 L 19.453125 -9.90625 L 7.171875 -9.90625 L 7.171875 0 L 3.671875 0 L 3.671875 -24.5 L 20.96875 -24.5 L 20.96875 -21.453125 Z M 7.171875 -21.453125 "/></g></g></g><g fill="#1d1d1b" fill-opacity="1"><g transform="translate(96.510963, 96.725002)"><g><path d="M 6.40625 -15.4375 C 6.988281 -16.507812 7.847656 -17.320312 8.984375 -17.875 C 10.128906 -18.4375 11.519531 -18.71875 13.15625 -18.71875 L 13.15625 -15.46875 C 12.96875 -15.488281 12.710938 -15.5 12.390625 -15.5 C 10.566406 -15.5 9.132812 -14.957031 8.09375 -13.875 C 7.0625 -12.789062 6.546875 -11.242188 6.546875 -9.234375 L 6.546875 0 L 3.1875 0 L 3.1875 -18.546875 L 6.40625 -18.546875 Z M 6.40625 -15.4375 "/></g></g></g><g fill="#1d1d1b" fill-opacity="1"><g transform="translate(110.857722, 96.725002)"><g><path d="M 3.1875 -18.546875 L 6.546875 -18.546875 L 6.546875 0 L 3.1875 0 Z M 4.859375 -22.125 C 4.203125 -22.125 3.65625 -22.332031 3.21875 -22.75 C 2.789062 -23.164062 2.578125 -23.679688 2.578125 -24.296875 C 2.578125 -24.898438 2.789062 -25.414062 3.21875 -25.84375 C 3.65625 -26.28125 4.203125 -26.5 4.859375 -26.5 C 5.515625 -26.5 6.054688 -26.289062 6.484375 -25.875 C 6.921875 -25.46875 7.140625 -24.960938 7.140625 -24.359375 C 7.140625 -23.734375 6.921875 -23.203125 6.484375 -22.765625 C 6.054688 -22.335938 5.515625 -22.125 4.859375 -22.125 Z M 4.859375 -22.125 "/></g></g></g><g fill="#1d1d1b" fill-opacity="1"><g transform="translate(120.620516, 96.725002)"><g><path d="M 19.953125 -9.171875 C 19.953125 -8.910156 19.925781 -8.570312 19.875 -8.15625 L 4.828125 -8.15625 C 5.035156 -6.519531 5.75 -5.207031 6.96875 -4.21875 C 8.195312 -3.226562 9.722656 -2.734375 11.546875 -2.734375 C 13.765625 -2.734375 15.550781 -3.476562 16.90625 -4.96875 L 18.765625 -2.796875 C 17.921875 -1.816406 16.875 -1.070312 15.625 -0.5625 C 14.375 -0.0507812 12.976562 0.203125 11.4375 0.203125 C 9.476562 0.203125 7.738281 -0.195312 6.21875 -1 C 4.707031 -1.800781 3.535156 -2.925781 2.703125 -4.375 C 1.878906 -5.820312 1.46875 -7.457031 1.46875 -9.28125 C 1.46875 -11.070312 1.867188 -12.691406 2.671875 -14.140625 C 3.484375 -15.585938 4.59375 -16.710938 6 -17.515625 C 7.414062 -18.316406 9.007812 -18.71875 10.78125 -18.71875 C 12.550781 -18.71875 14.128906 -18.316406 15.515625 -17.515625 C 16.910156 -16.710938 18 -15.585938 18.78125 -14.140625 C 19.5625 -12.691406 19.953125 -11.035156 19.953125 -9.171875 Z M 10.78125 -15.890625 C 9.164062 -15.890625 7.816406 -15.398438 6.734375 -14.421875 C 5.648438 -13.441406 5.015625 -12.15625 4.828125 -10.5625 L 16.734375 -10.5625 C 16.546875 -12.132812 15.90625 -13.414062 14.8125 -14.40625 C 13.726562 -15.394531 12.382812 -15.890625 10.78125 -15.890625 Z M 10.78125 -15.890625 "/></g></g></g><g fill="#1d1d1b" fill-opacity="1"><g transform="translate(142.035683, 96.725002)"><g><path d="M 20.6875 -25.96875 L 20.6875 0 L 17.46875 0 L 17.46875 -2.9375 C 16.71875 -1.914062 15.769531 -1.132812 14.625 -0.59375 C 13.488281 -0.0625 12.226562 0.203125 10.84375 0.203125 C 9.050781 0.203125 7.441406 -0.191406 6.015625 -0.984375 C 4.597656 -1.773438 3.484375 -2.882812 2.671875 -4.3125 C 1.867188 -5.75 1.46875 -7.40625 1.46875 -9.28125 C 1.46875 -11.144531 1.867188 -12.785156 2.671875 -14.203125 C 3.484375 -15.628906 4.597656 -16.738281 6.015625 -17.53125 C 7.441406 -18.320312 9.050781 -18.71875 10.84375 -18.71875 C 12.175781 -18.71875 13.398438 -18.46875 14.515625 -17.96875 C 15.640625 -17.46875 16.578125 -16.726562 17.328125 -15.75 L 17.328125 -25.96875 Z M 11.125 -2.734375 C 12.289062 -2.734375 13.351562 -3.003906 14.3125 -3.546875 C 15.269531 -4.097656 16.015625 -4.867188 16.546875 -5.859375 C 17.085938 -6.847656 17.359375 -7.988281 17.359375 -9.28125 C 17.359375 -10.5625 17.085938 -11.695312 16.546875 -12.6875 C 16.015625 -13.675781 15.269531 -14.4375 14.3125 -14.96875 C 13.351562 -15.507812 12.289062 -15.78125 11.125 -15.78125 C 9.9375 -15.78125 8.867188 -15.507812 7.921875 -14.96875 C 6.984375 -14.4375 6.238281 -13.675781 5.6875 -12.6875 C 5.132812 -11.695312 4.859375 -10.5625 4.859375 -9.28125 C 4.859375 -7.988281 5.132812 -6.847656 5.6875 -5.859375 C 6.238281 -4.867188 6.984375 -4.097656 7.921875 -3.546875 C 8.867188 -3.003906 9.9375 -2.734375 11.125 -2.734375 Z M 11.125 -2.734375 "/></g></g></g><g fill="#1d1d1b" fill-opacity="1"><g transform="translate(165.900298, 96.725002)"><g/></g></g><g fill="#1d1d1b" fill-opacity="1"><g transform="translate(175.313178, 96.725002)"><g><path d="M 13.015625 -18.71875 C 14.816406 -18.71875 16.425781 -18.320312 17.84375 -17.53125 C 19.269531 -16.738281 20.382812 -15.628906 21.1875 -14.203125 C 22 -12.785156 22.40625 -11.144531 22.40625 -9.28125 C 22.40625 -7.40625 22 -5.75 21.1875 -4.3125 C 20.382812 -2.882812 19.269531 -1.773438 17.84375 -0.984375 C 16.425781 -0.191406 14.816406 0.203125 13.015625 0.203125 C 11.691406 0.203125 10.472656 -0.0507812 9.359375 -0.5625 C 8.253906 -1.070312 7.316406 -1.816406 6.546875 -2.796875 L 6.546875 6.796875 L 3.1875 6.796875 L 3.1875 -18.546875 L 6.40625 -18.546875 L 6.40625 -15.609375 C 7.15625 -16.640625 8.097656 -17.414062 9.234375 -17.9375 C 10.378906 -18.457031 11.640625 -18.71875 13.015625 -18.71875 Z M 12.734375 -2.734375 C 13.929688 -2.734375 15 -3.003906 15.9375 -3.546875 C 16.882812 -4.097656 17.628906 -4.867188 18.171875 -5.859375 C 18.722656 -6.847656 19 -7.988281 19 -9.28125 C 19 -10.5625 18.722656 -11.695312 18.171875 -12.6875 C 17.628906 -13.675781 16.882812 -14.4375 15.9375 -14.96875 C 15 -15.507812 13.929688 -15.78125 12.734375 -15.78125 C 11.566406 -15.78125 10.507812 -15.503906 9.5625 -14.953125 C 8.625 -14.410156 7.878906 -13.648438 7.328125 -12.671875 C 6.785156 -11.691406 6.515625 -10.5625 6.515625 -9.28125 C 6.515625 -7.988281 6.78125 -6.847656 7.3125 -5.859375 C 7.851562 -4.867188 8.597656 -4.097656 9.546875 -3.546875 C 10.503906 -3.003906 11.566406 -2.734375 12.734375 -2.734375 Z M 12.734375 -2.734375 "/></g></g></g><g fill="#1d1d1b" fill-opacity="1"><g transform="translate(199.177793, 96.725002)"><g><path d="M 9.9375 -18.71875 C 12.507812 -18.71875 14.476562 -18.085938 15.84375 -16.828125 C 17.207031 -15.566406 17.890625 -13.691406 17.890625 -11.203125 L 17.890625 0 L 14.703125 0 L 14.703125 -2.453125 C 14.140625 -1.585938 13.335938 -0.925781 12.296875 -0.46875 C 11.265625 -0.0195312 10.035156 0.203125 8.609375 0.203125 C 6.535156 0.203125 4.875 -0.296875 3.625 -1.296875 C 2.375 -2.296875 1.75 -3.613281 1.75 -5.25 C 1.75 -6.882812 2.34375 -8.195312 3.53125 -9.1875 C 4.71875 -10.175781 6.609375 -10.671875 9.203125 -10.671875 L 14.53125 -10.671875 L 14.53125 -11.34375 C 14.53125 -12.789062 14.109375 -13.894531 13.265625 -14.65625 C 12.421875 -15.425781 11.1875 -15.8125 9.5625 -15.8125 C 8.457031 -15.8125 7.378906 -15.628906 6.328125 -15.265625 C 5.285156 -14.910156 4.398438 -14.429688 3.671875 -13.828125 L 2.28125 -16.34375 C 3.226562 -17.113281 4.367188 -17.703125 5.703125 -18.109375 C 7.035156 -18.515625 8.445312 -18.71875 9.9375 -18.71875 Z M 9.171875 -2.375 C 10.453125 -2.375 11.554688 -2.660156 12.484375 -3.234375 C 13.421875 -3.804688 14.101562 -4.617188 14.53125 -5.671875 L 14.53125 -8.265625 L 9.34375 -8.265625 C 6.5 -8.265625 5.078125 -7.304688 5.078125 -5.390625 C 5.078125 -4.453125 5.4375 -3.710938 6.15625 -3.171875 C 6.882812 -2.640625 7.890625 -2.375 9.171875 -2.375 Z M 9.171875 -2.375 "/></g></g></g><g fill="#1d1d1b" fill-opacity="1"><g transform="translate(220.103061, 96.725002)"><g><path d="M 8.5 0.203125 C 6.988281 0.203125 5.53125 0 4.125 -0.40625 C 2.726562 -0.8125 1.632812 -1.328125 0.84375 -1.953125 L 2.234375 -4.625 C 3.054688 -4.039062 4.050781 -3.570312 5.21875 -3.21875 C 6.382812 -2.863281 7.5625 -2.6875 8.75 -2.6875 C 11.6875 -2.6875 13.15625 -3.53125 13.15625 -5.21875 C 13.15625 -5.78125 12.957031 -6.222656 12.5625 -6.546875 C 12.164062 -6.867188 11.671875 -7.101562 11.078125 -7.25 C 10.484375 -7.40625 9.640625 -7.578125 8.546875 -7.765625 C 7.046875 -8.003906 5.820312 -8.273438 4.875 -8.578125 C 3.9375 -8.878906 3.128906 -9.390625 2.453125 -10.109375 C 1.773438 -10.835938 1.4375 -11.851562 1.4375 -13.15625 C 1.4375 -14.84375 2.132812 -16.191406 3.53125 -17.203125 C 4.9375 -18.210938 6.816406 -18.71875 9.171875 -18.71875 C 10.410156 -18.71875 11.644531 -18.566406 12.875 -18.265625 C 14.113281 -17.960938 15.128906 -17.554688 15.921875 -17.046875 L 14.484375 -14.390625 C 12.972656 -15.367188 11.191406 -15.859375 9.140625 -15.859375 C 7.710938 -15.859375 6.625 -15.625 5.875 -15.15625 C 5.132812 -14.6875 4.765625 -14.066406 4.765625 -13.296875 C 4.765625 -12.691406 4.972656 -12.210938 5.390625 -11.859375 C 5.804688 -11.515625 6.320312 -11.257812 6.9375 -11.09375 C 7.5625 -10.925781 8.4375 -10.738281 9.5625 -10.53125 C 11.050781 -10.28125 12.253906 -10.007812 13.171875 -9.71875 C 14.097656 -9.425781 14.882812 -8.925781 15.53125 -8.21875 C 16.1875 -7.519531 16.515625 -6.539062 16.515625 -5.28125 C 16.515625 -3.601562 15.796875 -2.269531 14.359375 -1.28125 C 12.929688 -0.289062 10.976562 0.203125 8.5 0.203125 Z M 8.5 0.203125 "/></g></g></g><g fill="#1d1d1b" fill-opacity="1"><g transform="translate(237.634104, 96.725002)"><g><path d="M 13.609375 -1.078125 C 13.117188 -0.660156 12.507812 -0.34375 11.78125 -0.125 C 11.0625 0.09375 10.320312 0.203125 9.5625 0.203125 C 7.6875 0.203125 6.234375 -0.296875 5.203125 -1.296875 C 4.179688 -2.296875 3.671875 -3.726562 3.671875 -5.59375 L 3.671875 -15.78125 L 0.53125 -15.78125 L 0.53125 -18.546875 L 3.671875 -18.546875 L 3.671875 -22.609375 L 7.03125 -22.609375 L 7.03125 -18.546875 L 12.359375 -18.546875 L 12.359375 -15.78125 L 7.03125 -15.78125 L 7.03125 -5.734375 C 7.03125 -4.734375 7.28125 -3.960938 7.78125 -3.421875 C 8.289062 -2.890625 9.007812 -2.625 9.9375 -2.625 C 10.96875 -2.625 11.84375 -2.914062 12.5625 -3.5 Z M 13.609375 -1.078125 "/></g></g></g><g fill="#1d1d1b" fill-opacity="1"><g transform="translate(252.120835, 96.725002)"><g><path d="M 6.40625 -15.4375 C 6.988281 -16.507812 7.847656 -17.320312 8.984375 -17.875 C 10.128906 -18.4375 11.519531 -18.71875 13.15625 -18.71875 L 13.15625 -15.46875 C 12.96875 -15.488281 12.710938 -15.5 12.390625 -15.5 C 10.566406 -15.5 9.132812 -14.957031 8.09375 -13.875 C 7.0625 -12.789062 6.546875 -11.242188 6.546875 -9.234375 L 6.546875 0 L 3.1875 0 L 3.1875 -18.546875 L 6.40625 -18.546875 Z M 6.40625 -15.4375 "/></g></g></g><g fill="#1d1d1b" fill-opacity="1"><g transform="translate(266.467594, 96.725002)"><g><path d="M 19.59375 -18.546875 L 10.609375 1.859375 C 9.816406 3.742188 8.890625 5.070312 7.828125 5.84375 C 6.765625 6.613281 5.484375 7 3.984375 7 C 3.078125 7 2.195312 6.851562 1.34375 6.5625 C 0.488281 6.269531 -0.210938 5.84375 -0.765625 5.28125 L 0.671875 2.765625 C 1.617188 3.671875 2.722656 4.125 3.984375 4.125 C 4.804688 4.125 5.488281 3.90625 6.03125 3.46875 C 6.582031 3.039062 7.082031 2.304688 7.53125 1.265625 L 8.125 -0.03125 L -0.0625 -18.546875 L 3.4375 -18.546875 L 9.90625 -3.703125 L 16.3125 -18.546875 Z M 19.59375 -18.546875 "/></g></g></g><g fill="#1d1d1b" fill-opacity="1"><g transform="translate(81.516752, 65.100728)"><g><path d="M 21.757812 0 L 28.359375 0 L 17.039062 -28 L 11.320312 -28 L 0.320312 0 L 6.757812 0 L 8.679688 -5.28125 L 19.796875 -5.28125 Z M 14.238281 -20.597656 L 17.917969 -10.558594 L 10.558594 -10.558594 Z M 14.238281 -20.597656 "/></g></g></g><g fill="#1d1d1b" fill-opacity="1"><g transform="translate(110.233902, 65.100728)"><g><path d="M 27.359375 -22.078125 C 24.597656 -22.078125 22.160156 -20.71875 20.679688 -18.640625 C 19.398438 -20.796875 17.160156 -22.078125 14.398438 -22.078125 C 11.839844 -22.078125 9.480469 -20.839844 7.960938 -18.917969 L 6.878906 -21.597656 L 2.800781 -21.597656 L 2.800781 0 L 8.640625 0 L 8.640625 -11.679688 C 8.640625 -15.039062 10.199219 -16.957031 12.839844 -16.957031 C 14.917969 -16.957031 16.039062 -15.4375 16.039062 -12.558594 L 16.039062 0 L 21.71875 0 L 21.71875 -11.679688 C 21.71875 -15.039062 23.277344 -16.957031 25.878906 -16.957031 C 28 -16.957031 29.117188 -15.4375 29.117188 -12.558594 L 29.117188 0 L 34.957031 0 L 34.957031 -13.519531 C 34.957031 -18.597656 31.839844 -22.078125 27.359375 -22.078125 Z M 27.359375 -22.078125 "/></g></g></g><g fill="#1d1d1b" fill-opacity="1"><g transform="translate(147.750173, 65.100728)"><g><path d="M 23.757812 -10.839844 C 23.757812 -17.078125 19.199219 -22.199219 12.558594 -22.199219 C 6.160156 -22.199219 1.359375 -17.277344 1.359375 -10.800781 C 1.359375 -4.320312 6.199219 0.640625 12.558594 0.640625 C 17.597656 0.640625 21.71875 -2.359375 23.277344 -7.078125 L 17.160156 -7.078125 C 16.277344 -5.519531 14.597656 -4.558594 12.558594 -4.558594 C 9.71875 -4.558594 7.800781 -6.199219 7.28125 -9.160156 L 23.636719 -9.160156 C 23.71875 -9.71875 23.757812 -10.28125 23.757812 -10.839844 Z M 12.558594 -17.199219 C 15.199219 -17.199219 17.078125 -15.757812 17.917969 -13.121094 L 7.441406 -13.121094 C 8.121094 -15.679688 9.960938 -17.199219 12.558594 -17.199219 Z M 12.558594 -17.199219 "/></g></g></g><g fill="#1d1d1b" fill-opacity="1"><g transform="translate(172.867676, 65.100728)"><g><path d="M 13.839844 -21.71875 C 11.039062 -21.71875 9.121094 -20.839844 7.558594 -18.917969 L 6.519531 -21.597656 L 2.800781 -21.597656 L 2.800781 0 L 8.640625 0 L 8.640625 -11.199219 C 8.640625 -14.71875 9.917969 -16.199219 13.199219 -16.199219 L 15.757812 -16.199219 L 15.757812 -21.71875 Z M 13.839844 -21.71875 "/></g></g></g><g fill="#1d1d1b" fill-opacity="1"><g transform="translate(189.14606, 65.100728)"><g><path d="M 2.800781 -24.476562 L 8.597656 -24.476562 L 8.597656 -29.878906 L 2.800781 -29.878906 Z M 2.800781 0 L 8.640625 0 L 8.640625 -21.597656 L 2.800781 -21.597656 Z M 2.800781 0 "/></g></g></g><g fill="#1d1d1b" fill-opacity="1"><g transform="translate(200.584921, 65.100728)"><g><path d="M 12.839844 0.640625 C 18.480469 0.640625 22.917969 -3.039062 23.917969 -8.480469 L 18.039062 -8.480469 C 17.039062 -6.160156 15.199219 -4.878906 12.839844 -4.878906 C 9.71875 -4.878906 7.28125 -7.480469 7.28125 -10.800781 C 7.28125 -14.160156 9.679688 -16.71875 12.839844 -16.71875 C 15.160156 -16.71875 17.117188 -15.4375 18.039062 -13.320312 L 23.839844 -13.320312 C 22.796875 -18.640625 18.480469 -22.199219 12.878906 -22.199219 C 6.320312 -22.199219 1.359375 -17.320312 1.359375 -10.839844 C 1.359375 -4.359375 6.320312 0.640625 12.839844 0.640625 Z M 12.839844 0.640625 "/></g></g></g><g fill="#1d1d1b" fill-opacity="1"><g transform="translate(225.582432, 65.100728)"><g><path d="M 20.398438 -21.597656 L 19.796875 -19.558594 C 17.917969 -21.199219 15.480469 -22.199219 12.679688 -22.199219 C 6.199219 -22.199219 1.359375 -17.320312 1.359375 -10.800781 C 1.359375 -4.28125 6.199219 0.640625 12.679688 0.640625 C 15.4375 0.640625 17.839844 -0.320312 19.679688 -1.960938 L 20.199219 0 L 24.757812 0 L 24.757812 -21.597656 Z M 13.160156 -4.878906 C 9.757812 -4.878906 7.28125 -7.441406 7.28125 -10.800781 C 7.28125 -14.199219 9.757812 -16.71875 13.160156 -16.71875 C 16.558594 -16.71875 19.039062 -14.199219 19.039062 -10.800781 C 19.039062 -7.398438 16.558594 -4.878906 13.160156 -4.878906 Z M 13.160156 -4.878906 "/></g></g></g><g fill="#1d1d1b" fill-opacity="1"><g transform="translate(253.179686, 65.100728)"><g><path d="M 15.078125 -22.078125 C 12.160156 -22.078125 9.558594 -20.839844 7.917969 -18.917969 L 6.800781 -21.597656 L 2.800781 -21.597656 L 2.800781 0 L 8.640625 0 L 8.640625 -11.320312 C 8.640625 -14.800781 10.480469 -16.957031 13.480469 -16.957031 C 16 -16.957031 17.238281 -15.398438 17.238281 -12.121094 L 17.238281 0 L 23.078125 0 L 23.078125 -13.078125 C 23.078125 -18.558594 20 -22.078125 15.078125 -22.078125 Z M 15.078125 -22.078125 "/></g></g></g></svg>