<svg xmlns="http://www.w3.org/2000/svg" xmlns:xlink="http://www.w3.org/1999/xlink" width="500" zoomAndPan="magnify" viewBox="0 0 375 374.999991" height="500" preserveAspectRatio="xMidYMid meet" version="1.0"><defs><g/><clipPath id="2e2dda4c42"><path d="M 193.027344 194 L 210 194 L 210 263.25 L 193.027344 263.25 Z M 193.027344 194 " clip-rule="nonzero"/></clipPath><clipPath id="29897d7f6c"><path d="M 259 127.5 L 328.777344 127.5 L 328.777344 144 L 259 144 Z M 259 127.5 " clip-rule="nonzero"/></clipPath><clipPath id="c7b6314b3b"><path d="M 193.027344 144 L 227 144 L 227 186 L 193.027344 186 Z M 193.027344 144 " clip-rule="nonzero"/></clipPath><clipPath id="6d6d952e95"><path d="M 165 194 L 181.824219 194 L 181.824219 263.25 L 165 263.25 Z M 165 194 " clip-rule="nonzero"/></clipPath><clipPath id="6804ab855f"><path d="M 46.214844 127.5 L 116 127.5 L 116 144 L 46.214844 144 Z M 46.214844 127.5 " clip-rule="nonzero"/></clipPath><clipPath id="fb6f5757f9"><path d="M 148 144 L 181.824219 144 L 181.824219 186 L 148 186 Z M 148 144 " clip-rule="nonzero"/></clipPath><clipPath id="90eee6fce2"><path d="M 46.074219 111.597656 L 328.925781 111.597656 L 328.925781 118.964844 L 46.074219 118.964844 Z M 46.074219 111.597656 " clip-rule="nonzero"/></clipPath></defs><rect x="-37.5" width="450" fill="#ffffff" y="-37.499999" height="449.999989" fill-opacity="1"/><rect x="-37.5" width="450" fill="#c60c15" y="-37.499999" height="449.999989" fill-opacity="1"/><g clip-path="url(#2e2dda4c42)"><path fill="#efca08" d="M 193.027344 194.121094 L 193.027344 263.25 L 199.535156 263.25 L 199.535156 200.625 L 209.085938 200.625 L 209.085938 194.121094 L 193.027344 194.121094 " fill-opacity="1" fill-rule="nonzero"/></g><path fill="#efca08" d="M 244.605469 178.082031 L 251.113281 178.082031 L 251.113281 169.675781 L 244.605469 169.675781 L 244.605469 178.082031 " fill-opacity="1" fill-rule="nonzero"/><path fill="#efca08" d="M 210.089844 178.085938 L 216.597656 178.085938 L 216.597656 151.074219 L 216.601562 151.074219 L 216.601562 144.566406 L 216.597656 144.566406 L 216.597656 134.578125 L 244.605469 134.578125 L 244.605469 161.167969 L 251.113281 161.167969 L 251.113281 151.074219 L 251.117188 151.074219 L 251.117188 144.566406 L 251.113281 144.566406 L 251.113281 128.070312 L 210.089844 128.070312 L 210.089844 178.085938 " fill-opacity="1" fill-rule="nonzero"/><path fill="#efca08" d="M 227.691406 213.671875 L 216.597656 213.671875 L 216.597656 203.511719 L 216.59375 203.511719 L 216.597656 190.570312 L 216.597656 186.59375 L 210.089844 186.59375 L 210.089844 194.121094 L 210.085938 194.121094 L 210.085938 200.625 L 210.089844 200.625 L 210.089844 220.179688 L 234.199219 220.179688 L 234.199219 201.628906 L 227.691406 201.628906 L 227.691406 213.671875 " fill-opacity="1" fill-rule="nonzero"/><path fill="#efca08" d="M 251.113281 168.675781 L 258.640625 168.675781 L 258.640625 162.167969 L 227.691406 162.167969 L 227.691406 179.082031 L 227.6875 179.082031 L 227.6875 185.589844 L 227.691406 185.589844 L 227.691406 193.121094 L 234.199219 193.121094 L 234.199219 168.675781 L 244.605469 168.675781 L 244.605469 168.679688 L 251.113281 168.679688 L 251.113281 168.675781 " fill-opacity="1" fill-rule="nonzero"/><path fill="#efca08" d="M 244.605469 194.121094 L 217.59375 194.121094 L 217.59375 200.625 L 227.691406 200.625 L 227.691406 200.628906 L 234.199219 200.632812 L 234.199219 200.625 L 251.113281 200.625 L 251.113281 186.585938 L 244.605469 186.585938 L 244.605469 194.121094 " fill-opacity="1" fill-rule="nonzero"/><g clip-path="url(#29897d7f6c)"><path fill="#efca08" d="M 262.894531 127.503906 L 259.644531 127.503906 L 259.644531 143.566406 L 266.148438 143.566406 L 266.148438 134.011719 L 328.777344 134.011719 L 328.777344 127.503906 L 262.894531 127.503906 " fill-opacity="1" fill-rule="nonzero"/></g><path fill="#efca08" d="M 270.546875 144.566406 L 266.148438 144.566406 L 259.644531 144.5625 L 259.644531 144.566406 L 252.117188 144.566406 L 252.117188 151.074219 L 259.644531 151.074219 L 259.644531 151.078125 L 266.148438 151.078125 L 266.148438 151.074219 L 279.195312 151.074219 L 279.195312 162.167969 L 267.148438 162.167969 L 267.148438 168.675781 L 285.703125 168.675781 L 285.703125 144.566406 L 270.546875 144.566406 " fill-opacity="1" fill-rule="nonzero"/><path fill="#efca08" d="M 243.609375 144.566406 L 217.597656 144.566406 L 217.597656 151.074219 L 243.609375 151.074219 L 243.609375 144.566406 " fill-opacity="1" fill-rule="nonzero"/><path fill="#efca08" d="M 259.644531 162.167969 L 259.636719 162.167969 L 259.636719 168.675781 L 259.644531 168.675781 L 259.644531 179.082031 L 251.113281 179.082031 L 251.113281 179.078125 L 244.605469 179.078125 L 244.605469 179.082031 L 235.195312 179.082031 L 235.195312 185.589844 L 244.605469 185.589844 L 244.605469 185.59375 L 251.113281 185.589844 L 266.148438 185.589844 L 266.148438 152.074219 L 259.644531 152.074219 L 259.644531 162.167969 " fill-opacity="1" fill-rule="nonzero"/><g clip-path="url(#c7b6314b3b)"><path fill="#efca08" d="M 210.089844 185.589844 L 210.089844 185.59375 L 216.597656 185.59375 L 216.597656 185.589844 L 226.6875 185.589844 L 226.6875 179.082031 L 200.101562 179.082031 L 200.101562 151.074219 L 209.09375 151.074219 L 209.09375 144.566406 L 193.59375 144.566406 L 193.59375 185.589844 L 210.089844 185.589844 " fill-opacity="1" fill-rule="nonzero"/></g><g clip-path="url(#6d6d952e95)"><path fill="#efca08" d="M 181.964844 194.121094 L 181.964844 263.25 L 175.453125 263.25 L 175.453125 200.625 L 165.902344 200.625 L 165.902344 194.121094 L 181.964844 194.121094 " fill-opacity="1" fill-rule="nonzero"/></g><path fill="#efca08" d="M 130.382812 178.082031 L 123.875 178.082031 L 123.875 169.675781 L 130.382812 169.675781 L 130.382812 178.082031 " fill-opacity="1" fill-rule="nonzero"/><path fill="#efca08" d="M 164.898438 178.085938 L 158.390625 178.085938 L 158.390625 151.074219 L 158.386719 151.074219 L 158.386719 144.566406 L 158.390625 144.566406 L 158.390625 134.578125 L 130.382812 134.578125 L 130.382812 161.167969 L 123.875 161.167969 L 123.875 151.074219 L 123.871094 151.074219 L 123.871094 144.566406 L 123.875 144.566406 L 123.875 128.070312 L 164.898438 128.070312 L 164.898438 144.566406 L 164.902344 151.074219 L 164.898438 151.074219 L 164.898438 178.085938 " fill-opacity="1" fill-rule="nonzero"/><path fill="#efca08" d="M 147.296875 213.671875 L 158.390625 213.671875 L 158.390625 203.511719 L 158.394531 203.511719 L 158.390625 190.570312 L 158.390625 186.59375 L 164.898438 186.59375 L 164.898438 194.121094 L 164.902344 194.121094 L 164.902344 200.625 L 164.898438 200.625 L 164.898438 220.179688 L 140.789062 220.179688 L 140.789062 201.628906 L 147.296875 201.628906 L 147.296875 213.671875 " fill-opacity="1" fill-rule="nonzero"/><path fill="#efca08" d="M 123.875 168.675781 L 116.351562 168.675781 L 116.351562 162.167969 L 147.296875 162.167969 L 147.296875 179.082031 L 147.300781 179.082031 L 147.300781 185.589844 L 147.296875 185.589844 L 147.296875 193.121094 L 140.789062 193.121094 L 140.789062 168.675781 L 130.382812 168.675781 L 130.382812 168.679688 L 123.875 168.679688 L 123.875 168.675781 " fill-opacity="1" fill-rule="nonzero"/><path fill="#efca08" d="M 130.382812 194.121094 L 157.394531 194.121094 L 157.394531 200.625 L 147.296875 200.625 L 147.296875 200.628906 L 140.789062 200.632812 L 140.789062 200.625 L 123.875 200.625 L 123.875 186.585938 L 130.382812 186.585938 L 130.382812 194.121094 " fill-opacity="1" fill-rule="nonzero"/><g clip-path="url(#6804ab855f)"><path fill="#efca08" d="M 112.09375 127.503906 L 115.347656 127.503906 L 115.347656 143.566406 L 108.839844 143.566406 L 108.839844 134.011719 L 46.214844 134.011719 L 46.214844 127.503906 L 112.09375 127.503906 " fill-opacity="1" fill-rule="nonzero"/></g><path fill="#efca08" d="M 104.441406 144.566406 L 108.839844 144.566406 L 115.347656 144.5625 L 115.347656 144.566406 L 122.871094 144.566406 L 122.871094 151.074219 L 115.347656 151.074219 L 115.347656 151.078125 L 108.839844 151.078125 L 108.839844 151.074219 L 95.792969 151.074219 L 95.792969 162.167969 L 107.839844 162.167969 L 107.839844 168.675781 L 89.285156 168.675781 L 89.285156 144.566406 L 104.441406 144.566406 " fill-opacity="1" fill-rule="nonzero"/><path fill="#efca08" d="M 131.378906 144.566406 L 157.390625 144.566406 L 157.390625 151.074219 L 131.378906 151.074219 L 131.378906 144.566406 " fill-opacity="1" fill-rule="nonzero"/><path fill="#efca08" d="M 115.347656 162.167969 L 115.351562 162.167969 L 115.351562 168.675781 L 115.347656 168.675781 L 115.347656 179.082031 L 123.875 179.082031 L 123.875 179.078125 L 130.382812 179.078125 L 130.382812 179.082031 L 139.792969 179.082031 L 139.792969 185.589844 L 130.382812 185.589844 L 130.382812 185.59375 L 123.875 185.589844 L 108.839844 185.589844 L 108.839844 152.074219 L 115.347656 152.074219 L 115.347656 162.167969 " fill-opacity="1" fill-rule="nonzero"/><g clip-path="url(#fb6f5757f9)"><path fill="#efca08" d="M 164.898438 185.589844 L 164.898438 185.59375 L 158.390625 185.59375 L 158.390625 185.589844 L 148.300781 185.589844 L 148.300781 179.082031 L 174.886719 179.082031 L 174.886719 151.074219 L 165.898438 151.074219 L 165.898438 144.566406 L 181.394531 144.566406 L 181.394531 185.589844 L 164.898438 185.589844 " fill-opacity="1" fill-rule="nonzero"/></g><g clip-path="url(#90eee6fce2)"><path fill="#efca08" d="M 46.074219 111.597656 L 329.023438 111.597656 L 329.023438 118.769531 L 46.074219 118.769531 Z M 46.074219 111.597656 " fill-opacity="1" fill-rule="nonzero"/></g><g fill="#efca08" fill-opacity="1"><g transform="translate(128.220245, 321.213845)"><g><path d="M 8.609375 -25.054688 C 3.847656 -25.054688 1.226562 -22.5 1.226562 -18.164062 L 1.226562 -6.335938 C 1.226562 -1.996094 3.847656 0.558594 8.609375 0.558594 C 13.367188 0.558594 15.957031 -1.996094 15.957031 -6.335938 L 15.957031 -8.082031 L 11.757812 -8.082031 L 11.757812 -6.335938 C 11.757812 -4.234375 10.429688 -3.113281 8.609375 -3.113281 C 6.789062 -3.113281 5.425781 -4.234375 5.425781 -6.335938 L 5.425781 -18.164062 C 5.425781 -20.261719 6.789062 -21.382812 8.609375 -21.382812 C 10.429688 -21.382812 11.757812 -20.261719 11.757812 -18.164062 L 11.757812 -16.414062 L 15.957031 -16.414062 L 15.957031 -18.164062 C 15.957031 -22.5 13.367188 -25.054688 8.609375 -25.054688 Z M 8.609375 -25.054688 "/></g></g></g><g fill="#efca08" fill-opacity="1"><g transform="translate(147.571381, 321.213845)"><g><path d="M 5.425781 -14.066406 L 5.425781 -24.496094 L 1.226562 -24.496094 L 1.226562 0 L 5.425781 0 L 5.425781 -10.429688 L 11.757812 -10.429688 L 11.757812 0 L 15.957031 0 L 15.957031 -24.496094 L 11.757812 -24.496094 L 11.757812 -14.066406 Z M 5.425781 -14.066406 "/></g></g></g><g fill="#efca08" fill-opacity="1"><g transform="translate(166.922518, 321.213845)"><g><path d="M 5.425781 -20.820312 L 5.425781 -24.496094 L 1.226562 -24.496094 L 1.226562 0 L 5.425781 0 Z M 5.425781 -20.820312 "/></g></g></g><g fill="#efca08" fill-opacity="1"><g transform="translate(175.846016, 321.213845)"><g><path d="M 1.226562 -24.496094 L 1.226562 0 L 5.425781 0 L 5.425781 -14.835938 L 12.84375 0 L 15.957031 0 L 15.957031 -24.496094 L 11.757812 -24.496094 L 11.757812 -9.660156 L 4.339844 -24.496094 Z M 1.226562 -24.496094 "/></g></g></g><g fill="#efca08" fill-opacity="1"><g transform="translate(195.197153, 321.213845)"><g><path d="M 1.226562 -24.496094 L 1.226562 0 L 14.171875 0 L 14.171875 -3.675781 L 5.425781 -3.675781 L 5.425781 -10.429688 L 12.421875 -10.429688 L 12.421875 -14.066406 L 5.425781 -14.066406 L 5.425781 -20.820312 L 14.171875 -20.820312 L 14.171875 -24.496094 Z M 1.226562 -24.496094 "/></g></g></g><g fill="#efca08" fill-opacity="1"><g transform="translate(212.448765, 321.213845)"><g><path d="M 8.609375 -25.054688 C 3.988281 -25.054688 1.226562 -22.605469 1.226562 -18.476562 L 1.226562 -16.0625 C 1.226562 -13.824219 2.695312 -11.933594 4.863281 -11.375 L 9.625 -10.078125 C 10.882812 -9.730469 11.757812 -8.609375 11.757812 -7.277344 L 11.757812 -6.019531 C 11.757812 -3.78125 10.570312 -2.589844 8.609375 -2.589844 C 6.648438 -2.589844 5.425781 -3.78125 5.425781 -6.019531 L 5.425781 -8.082031 L 1.226562 -8.082031 L 1.226562 -6.019531 C 1.226562 -1.890625 3.988281 0.558594 8.609375 0.558594 C 13.226562 0.558594 15.957031 -1.890625 15.957031 -6.019531 L 15.957031 -8.433594 C 15.957031 -10.671875 14.488281 -12.5625 12.316406 -13.125 L 7.558594 -14.417969 C 6.300781 -14.769531 5.425781 -15.886719 5.425781 -17.21875 L 5.425781 -18.476562 C 5.425781 -20.71875 6.648438 -21.90625 8.609375 -21.90625 C 10.570312 -21.90625 11.757812 -20.71875 11.757812 -18.476562 L 11.757812 -16.414062 L 15.957031 -16.414062 L 15.957031 -18.476562 C 15.957031 -22.605469 13.226562 -25.054688 8.609375 -25.054688 Z M 8.609375 -25.054688 "/></g></g></g><g fill="#efca08" fill-opacity="1"><g transform="translate(231.799899, 321.213845)"><g><path d="M 1.226562 -24.496094 L 1.226562 0 L 14.171875 0 L 14.171875 -3.675781 L 5.425781 -3.675781 L 5.425781 -10.429688 L 12.421875 -10.429688 L 12.421875 -14.066406 L 5.425781 -14.066406 L 5.425781 -20.820312 L 14.171875 -20.820312 L 14.171875 -24.496094 Z M 1.226562 -24.496094 "/></g></g></g><g fill="#efca08" fill-opacity="1"><g transform="translate(166.779617, 350.763728)"><g><path d="M 6.039062 -11.898438 L 8.097656 -11.898438 L 8.097656 -13.996094 L 0.699219 -13.996094 L 0.699219 0 L 3.097656 0 L 3.097656 -4.957031 L 7.097656 -4.957031 L 7.097656 -7.039062 L 3.097656 -7.039062 L 3.097656 -11.898438 Z M 6.039062 -11.898438 "/></g></g></g><g fill="#efca08" fill-opacity="1"><g transform="translate(176.356347, 350.763728)"><g><path d="M 4.917969 -14.316406 C 2.199219 -14.316406 0.699219 -12.855469 0.699219 -10.378906 L 0.699219 -3.617188 C 0.699219 -1.140625 2.199219 0.320312 4.917969 0.320312 C 7.636719 0.320312 9.117188 -1.140625 9.117188 -3.617188 L 9.117188 -10.378906 C 9.117188 -12.855469 7.636719 -14.316406 4.917969 -14.316406 Z M 4.917969 -12.21875 C 5.957031 -12.21875 6.71875 -11.578125 6.71875 -10.378906 L 6.71875 -3.617188 C 6.71875 -2.417969 5.957031 -1.78125 4.917969 -1.78125 C 3.878906 -1.78125 3.097656 -2.417969 3.097656 -3.617188 L 3.097656 -10.378906 C 3.097656 -11.578125 3.878906 -12.21875 4.917969 -12.21875 Z M 4.917969 -12.21875 "/></g></g></g><g fill="#efca08" fill-opacity="1"><g transform="translate(187.4125, 350.763728)"><g><path d="M 4.917969 -14.316406 C 2.199219 -14.316406 0.699219 -12.855469 0.699219 -10.378906 L 0.699219 -3.617188 C 0.699219 -1.140625 2.199219 0.320312 4.917969 0.320312 C 7.636719 0.320312 9.117188 -1.140625 9.117188 -3.617188 L 9.117188 -10.378906 C 9.117188 -12.855469 7.636719 -14.316406 4.917969 -14.316406 Z M 4.917969 -12.21875 C 5.957031 -12.21875 6.71875 -11.578125 6.71875 -10.378906 L 6.71875 -3.617188 C 6.71875 -2.417969 5.957031 -1.78125 4.917969 -1.78125 C 3.878906 -1.78125 3.097656 -2.417969 3.097656 -3.617188 L 3.097656 -10.378906 C 3.097656 -11.578125 3.878906 -12.21875 4.917969 -12.21875 Z M 4.917969 -12.21875 "/></g></g></g><g fill="#efca08" fill-opacity="1"><g transform="translate(198.468652, 350.763728)"><g><path d="M 5.117188 -13.996094 L 0.699219 -13.996094 L 0.699219 0 L 5.117188 0 C 7.796875 0 9.117188 -1.480469 9.117188 -4 L 9.117188 -9.996094 C 9.117188 -12.515625 7.796875 -13.996094 5.117188 -13.996094 Z M 3.097656 -11.898438 L 4.878906 -11.898438 C 6.117188 -11.898438 6.71875 -11.238281 6.71875 -9.996094 L 6.71875 -4 C 6.71875 -2.757812 6.117188 -2.097656 4.878906 -2.097656 L 3.097656 -2.097656 Z M 3.097656 -11.898438 "/></g></g></g><g fill="#efca08" fill-opacity="1"><g transform="translate(114.98665, 62.414293)"><g><path d="M 15.9375 0.90625 C 13.144531 0.90625 10.691406 0.226562 8.578125 -1.125 C 6.460938 -2.476562 4.832031 -4.316406 3.6875 -6.640625 C 2.550781 -8.960938 1.984375 -11.550781 1.984375 -14.40625 C 1.984375 -17.34375 2.601562 -20.054688 3.84375 -22.546875 C 5.09375 -25.035156 6.789062 -27 8.9375 -28.4375 C 11.082031 -29.875 13.414062 -30.59375 15.9375 -30.59375 C 18.332031 -30.59375 20.4375 -30.253906 22.25 -29.578125 C 24.0625 -28.910156 25.40625 -28.050781 26.28125 -27 C 26.789062 -26.375 27.101562 -25.539062 27.21875 -24.5 C 27.34375 -23.46875 27.40625 -22.050781 27.40625 -20.25 L 26.5 -20.25 C 25.9375 -23.15625 24.890625 -25.304688 23.359375 -26.703125 C 21.828125 -28.097656 19.800781 -28.796875 17.28125 -28.796875 C 14.039062 -28.796875 11.429688 -27.65625 9.453125 -25.375 C 7.472656 -23.09375 6.484375 -19.4375 6.484375 -14.40625 C 6.484375 -12.03125 6.863281 -9.820312 7.625 -7.78125 C 8.394531 -5.738281 9.585938 -4.082031 11.203125 -2.8125 C 12.828125 -1.539062 14.851562 -0.90625 17.28125 -0.90625 C 19.46875 -0.90625 21.378906 -1.425781 23.015625 -2.46875 C 24.648438 -3.519531 26.113281 -5.097656 27.40625 -7.203125 L 28.3125 -6.53125 C 26.925781 -3.820312 25.21875 -1.90625 23.1875 -0.78125 C 21.164062 0.34375 18.75 0.90625 15.9375 0.90625 Z M 15.9375 0.90625 "/></g></g></g><g fill="#efca08" fill-opacity="1"><g transform="translate(147.836622, 62.414293)"><g><path d="M 4.765625 -24.296875 C 4.765625 -25.828125 4.554688 -26.957031 4.140625 -27.6875 C 3.722656 -28.425781 2.882812 -28.796875 1.625 -28.796875 L 0.71875 -28.796875 L 0.71875 -29.703125 L 4.765625 -29.703125 C 5.878906 -29.703125 6.710938 -29.554688 7.265625 -29.265625 C 7.816406 -28.984375 8.210938 -28.46875 8.453125 -27.71875 C 8.691406 -26.96875 8.8125 -25.828125 8.8125 -24.296875 L 8.8125 -16.203125 L 22.3125 -16.203125 L 22.3125 -29.703125 L 26.375 -29.703125 L 26.375 -5.40625 C 26.375 -3.875 26.582031 -2.738281 27 -2 C 27.414062 -1.269531 28.253906 -0.90625 29.515625 -0.90625 L 30.421875 -0.90625 L 30.421875 0 L 26.375 0 C 25.257812 0 24.425781 -0.140625 23.875 -0.421875 C 23.320312 -0.710938 22.921875 -1.234375 22.671875 -1.984375 C 22.429688 -2.734375 22.3125 -3.875 22.3125 -5.40625 L 22.3125 -14.40625 L 8.8125 -14.40625 L 8.8125 0 L 4.765625 0 Z M 4.765625 -24.296875 "/></g></g></g><g fill="#efca08" fill-opacity="1"><g transform="translate(181.946588, 62.414293)"><g><path d="M 8.0625 0 C 6.945312 0 6.109375 -0.140625 5.546875 -0.421875 C 4.992188 -0.710938 4.597656 -1.234375 4.359375 -1.984375 C 4.117188 -2.734375 4 -3.875 4 -5.40625 L 4 -29.703125 L 8.0625 -29.703125 L 8.0625 -5.40625 C 8.0625 -3.875 8.269531 -2.738281 8.6875 -2 C 9.101562 -1.269531 9.941406 -0.90625 11.203125 -0.90625 L 12.109375 -0.90625 L 12.109375 0 Z M 8.0625 0 "/></g></g></g><g fill="#efca08" fill-opacity="1"><g transform="translate(197.696581, 62.414293)"><g><path d="M 6.75 0 L 4.953125 0 L 4.953125 -24.296875 C 4.953125 -25.734375 4.644531 -26.84375 4.03125 -27.625 C 3.414062 -28.40625 2.375 -28.796875 0.90625 -28.796875 L 0.453125 -28.796875 L 0.453125 -29.703125 L 3.375 -29.703125 C 4.75 -29.703125 5.914062 -29.472656 6.875 -29.015625 C 7.84375 -28.566406 8.703125 -27.894531 9.453125 -27 L 25.203125 -7.421875 L 25.203125 -29.703125 L 27 -29.703125 L 27 0.453125 L 26.09375 0.453125 L 6.75 -23.625 Z M 6.75 0 "/></g></g></g><g fill="#efca08" fill-opacity="1"><g transform="translate(231.446551, 62.414293)"><g><path d="M 27.984375 0.21875 C 26.546875 0.21875 25.117188 -0.175781 23.703125 -0.96875 C 22.296875 -1.757812 21.175781 -3.3125 20.34375 -5.625 L 19.21875 -8.546875 L 6.609375 -8.546875 L 3.015625 0 L 0.984375 0 L 13.59375 -29.703125 L 14.9375 -29.703125 L 24.84375 -5.625 C 25.59375 -3.882812 26.296875 -2.691406 26.953125 -2.046875 C 27.609375 -1.398438 28.554688 -1.019531 29.796875 -0.90625 L 29.796875 0 C 29.253906 0.144531 28.648438 0.21875 27.984375 0.21875 Z M 18.3125 -10.34375 L 12.921875 -23.40625 L 7.296875 -10.34375 Z M 18.3125 -10.34375 "/></g></g></g><g fill="#efca08" fill-opacity="1"><g transform="translate(150.572587, 91.914136)"><g><path d="M 5.058594 0.0195312 L 11.539062 0.0195312 L 11.539062 -0.527344 C 10.734375 -0.527344 10.171875 -0.59375 9.859375 -0.722656 C 9.496094 -0.878906 9.3125 -1.171875 9.3125 -1.601562 L 9.3125 -12.75 C 9.3125 -13.089844 9.46875 -13.355469 9.78125 -13.550781 C 10.082031 -13.734375 10.464844 -13.824219 10.933594 -13.824219 C 11.664062 -13.824219 12.445312 -13.453125 13.277344 -12.710938 C 13.851562 -12.203125 14.488281 -11.46875 15.191406 -10.503906 L 15.601562 -10.621094 L 14.175781 -14.351562 L 2.441406 -14.351562 L 1.035156 -10.796875 L 1.40625 -10.660156 C 2.070312 -11.546875 2.71875 -12.238281 3.359375 -12.730469 C 4.269531 -13.460938 5.15625 -13.824219 6.015625 -13.824219 C 6.429688 -13.824219 6.757812 -13.734375 6.992188 -13.550781 C 7.210938 -13.382812 7.324219 -13.113281 7.324219 -12.75 L 7.324219 -1.601562 C 7.324219 -1.183594 7.101562 -0.890625 6.660156 -0.722656 C 6.320312 -0.59375 5.785156 -0.527344 5.058594 -0.527344 Z M 5.058594 0.0195312 "/></g></g></g><g fill="#efca08" fill-opacity="1"><g transform="translate(168.526232, 91.914136)"><g><path d="M 8.335938 -14.097656 C 9.859375 -14.097656 11.039062 -13.363281 11.871094 -11.890625 C 12.601562 -10.628906 12.964844 -9.054688 12.964844 -7.167969 C 12.964844 -5.292969 12.601562 -3.714844 11.871094 -2.441406 C 11.039062 -0.96875 9.859375 -0.234375 8.335938 -0.234375 C 6.800781 -0.234375 5.617188 -0.96875 4.785156 -2.441406 C 4.066406 -3.714844 3.710938 -5.292969 3.710938 -7.167969 C 3.710938 -9.054688 4.066406 -10.628906 4.785156 -11.890625 C 5.617188 -13.363281 6.800781 -14.097656 8.335938 -14.097656 Z M 8.375 -14.664062 C 6.214844 -14.664062 4.492188 -13.871094 3.203125 -12.28125 C 2.058594 -10.851562 1.484375 -9.144531 1.484375 -7.167969 C 1.484375 -5.199219 2.058594 -3.507812 3.203125 -2.089844 C 4.492188 -0.488281 6.214844 0.3125 8.375 0.3125 C 10.511719 0.3125 12.21875 -0.488281 13.492188 -2.089844 C 14.625 -3.496094 15.191406 -5.1875 15.191406 -7.167969 C 15.191406 -9.15625 14.625 -10.863281 13.492188 -12.28125 C 12.21875 -13.871094 10.511719 -14.664062 8.375 -14.664062 Z M 8.375 -14.664062 "/></g></g></g><g fill="#efca08" fill-opacity="1"><g transform="translate(186.479876, 91.914136)"><g><path d="M 0.507812 -14.351562 L 0.507812 -13.785156 C 1.027344 -13.785156 1.375 -13.757812 1.542969 -13.707031 C 1.804688 -13.617188 1.980469 -13.394531 2.070312 -13.042969 L 6.132812 0.3125 L 6.640625 0.3125 L 10.054688 -10.796875 L 13.472656 0.3125 L 14 0.3125 L 17.789062 -12.28125 C 17.933594 -12.867188 18.140625 -13.265625 18.414062 -13.472656 C 18.6875 -13.679688 19.101562 -13.785156 19.664062 -13.785156 L 19.664062 -14.351562 L 15.464844 -14.351562 L 15.464844 -13.785156 C 16.179688 -13.785156 16.683594 -13.65625 16.96875 -13.394531 C 17.242188 -13.132812 17.308594 -12.765625 17.164062 -12.28125 L 14.429688 -3.085938 L 11.421875 -12.789062 C 11.304688 -13.179688 11.363281 -13.445312 11.597656 -13.589844 C 11.820312 -13.71875 12.261719 -13.785156 12.925781 -13.785156 L 12.925781 -14.351562 L 7.773438 -14.351562 L 7.773438 -13.785156 C 8.265625 -13.785156 8.636719 -13.734375 8.882812 -13.628906 C 9.117188 -13.511719 9.28125 -13.316406 9.371094 -13.042969 L 9.722656 -11.773438 L 7.109375 -3.085938 L 4.140625 -12.828125 C 4.023438 -13.257812 4.125 -13.539062 4.453125 -13.667969 C 4.648438 -13.746094 5.078125 -13.785156 5.742188 -13.785156 L 5.742188 -14.351562 Z M 0.507812 -14.351562 "/></g></g></g><g fill="#efca08" fill-opacity="1"><g transform="translate(207.772059, 91.914136)"><g><path d="M 0.820312 0.0195312 L 6.171875 0.0195312 L 6.171875 -0.46875 C 5.429688 -0.46875 4.855469 -0.585938 4.453125 -0.820312 C 4.007812 -1.09375 3.789062 -1.511719 3.789062 -2.070312 L 3.789062 -12.457031 L 13.21875 0.117188 L 13.746094 0.117188 L 13.746094 -12.691406 C 13.746094 -13.070312 13.933594 -13.367188 14.3125 -13.589844 C 14.691406 -13.785156 15.179688 -13.882812 15.777344 -13.882812 L 15.777344 -14.351562 L 11.011719 -14.351562 L 11.011719 -13.882812 C 11.753906 -13.882812 12.296875 -13.777344 12.632812 -13.570312 C 12.945312 -13.375 13.101562 -13.082031 13.101562 -12.691406 L 13.101562 -3.046875 L 4.628906 -14.351562 L 0.820312 -14.351562 L 0.820312 -13.863281 C 1.746094 -13.863281 2.382812 -13.714844 2.734375 -13.414062 C 2.992188 -13.191406 3.125 -12.847656 3.125 -12.378906 L 3.125 -2.03125 C 3.125 -1.417969 2.894531 -0.988281 2.441406 -0.742188 C 2.089844 -0.558594 1.550781 -0.480469 0.820312 -0.507812 Z M 0.820312 0.0195312 "/></g></g></g><path fill="#efca08" d="M 127.5 69.347656 L 145.5 69.347656 L 145.5 72.347656 L 127.5 72.347656 M 148.5 69.347656 L 166.5 69.347656 L 166.5 72.347656 L 148.5 72.347656 M 169.5 69.347656 L 187.5 69.347656 L 187.5 72.347656 L 169.5 72.347656 M 190.5 69.347656 L 208.5 69.347656 L 208.5 72.347656 L 190.5 72.347656 M 211.5 69.347656 L 229.5 69.347656 L 229.5 72.347656 L 211.5 72.347656 M 232.5 69.347656 L 247.5 69.347656 L 247.5 72.347656 L 232.5 72.347656 " fill-opacity="1" fill-rule="nonzero"/></svg>