<svg xmlns="http://www.w3.org/2000/svg" xmlns:xlink="http://www.w3.org/1999/xlink" width="500" zoomAndPan="magnify" viewBox="0 0 375 374.999991" height="500" preserveAspectRatio="xMidYMid meet" version="1.0"><defs><g/><clipPath id="a53c0b70e9"><path d="M 0 79.984375 L 373.5 79.984375 L 373.5 285.484375 L 0 285.484375 Z M 0 79.984375 " clip-rule="nonzero"/></clipPath></defs><g clip-path="url(#a53c0b70e9)"><path fill="#5e17eb" d="M 366.792969 259.796875 C 369.011719 259.796875 371.167969 260.078125 373.222656 260.605469 L 373.222656 246.953125 L 360.363281 234.109375 L 373.222656 221.265625 L 360.363281 208.421875 L 373.222656 195.578125 L 360.363281 182.734375 L 373.222656 169.890625 L 360.363281 157.046875 L 373.222656 144.203125 L 360.363281 131.359375 L 373.222656 118.515625 L 373.222656 104.863281 C 371.167969 105.390625 369.011719 105.671875 366.792969 105.671875 C 352.585938 105.671875 341.070312 94.171875 341.070312 79.984375 L 32.429688 79.984375 C 32.429688 94.171875 20.914062 105.671875 6.707031 105.671875 C 4.488281 105.671875 2.332031 105.390625 0.277344 104.863281 L 0.277344 260.605469 C 2.332031 260.078125 4.488281 259.796875 6.707031 259.796875 C 20.914062 259.796875 32.429688 271.296875 32.429688 285.484375 L 341.070312 285.484375 C 341.070312 271.296875 352.585938 259.796875 366.792969 259.796875 Z M 366.792969 259.796875 " fill-opacity="1" fill-rule="nonzero"/></g><path fill="#5e17eb" d="M 128.878906 99.25 L 328.210938 99.25 L 328.210938 189.15625 L 128.878906 189.15625 Z M 128.878906 99.25 " fill-opacity="1" fill-rule="nonzero"/><path fill="#ffffff" d="M 218.898438 176.3125 C 215.347656 176.3125 212.46875 173.4375 212.46875 169.890625 L 212.46875 131.359375 C 212.46875 127.820312 209.585938 124.9375 206.039062 124.9375 C 202.496094 124.9375 199.609375 127.820312 199.609375 131.359375 L 199.609375 169.890625 C 199.609375 173.4375 196.730469 176.3125 193.179688 176.3125 C 189.628906 176.3125 186.75 173.4375 186.75 169.890625 L 186.75 131.359375 C 186.75 120.738281 195.402344 112.09375 206.039062 112.09375 C 216.675781 112.09375 225.332031 120.738281 225.332031 131.359375 L 225.332031 169.890625 C 225.332031 173.4375 222.453125 176.3125 218.898438 176.3125 Z M 218.898438 176.3125 " fill-opacity="1" fill-rule="nonzero"/><path fill="#ffffff" d="M 218.898438 150.625 L 193.179688 150.625 C 189.628906 150.625 186.75 147.75 186.75 144.203125 C 186.75 140.65625 189.628906 137.78125 193.179688 137.78125 L 218.898438 137.78125 C 222.453125 137.78125 225.332031 140.65625 225.332031 144.203125 C 225.332031 147.75 222.453125 150.625 218.898438 150.625 Z M 218.898438 150.625 " fill-opacity="1" fill-rule="nonzero"/><path fill="#ffffff" d="M 263.910156 176.3125 L 238.191406 176.3125 C 234.640625 176.3125 231.761719 173.4375 231.761719 169.890625 L 231.761719 118.515625 C 231.761719 114.96875 234.640625 112.09375 238.191406 112.09375 C 241.742188 112.09375 244.621094 114.96875 244.621094 118.515625 L 244.621094 163.46875 L 263.910156 163.46875 C 267.460938 163.46875 270.339844 166.34375 270.339844 169.890625 C 270.339844 173.4375 267.460938 176.3125 263.910156 176.3125 Z M 263.910156 176.3125 " fill-opacity="1" fill-rule="nonzero"/><path fill="#ffffff" d="M 308.921875 176.3125 L 283.203125 176.3125 C 279.648438 176.3125 276.769531 173.4375 276.769531 169.890625 L 276.769531 118.515625 C 276.769531 114.96875 279.648438 112.09375 283.203125 112.09375 L 308.921875 112.09375 C 312.472656 112.09375 315.351562 114.96875 315.351562 118.515625 C 315.351562 122.0625 312.472656 124.9375 308.921875 124.9375 L 289.632812 124.9375 L 289.632812 163.46875 L 308.921875 163.46875 C 312.472656 163.46875 315.351562 166.34375 315.351562 169.890625 C 315.351562 173.4375 312.472656 176.3125 308.921875 176.3125 Z M 308.921875 176.3125 " fill-opacity="1" fill-rule="nonzero"/><path fill="#ffffff" d="M 308.921875 150.625 L 283.203125 150.625 C 279.648438 150.625 276.769531 147.75 276.769531 144.203125 C 276.769531 140.65625 279.648438 137.78125 283.203125 137.78125 L 308.921875 137.78125 C 312.472656 137.78125 315.351562 140.65625 315.351562 144.203125 C 315.351562 147.75 312.472656 150.625 308.921875 150.625 Z M 308.921875 150.625 " fill-opacity="1" fill-rule="nonzero"/><path fill="#ffffff" d="M 167.460938 176.3125 L 154.597656 176.3125 C 147.507812 176.3125 141.738281 170.550781 141.738281 163.46875 C 141.738281 159.921875 144.617188 157.046875 148.167969 157.046875 C 151.71875 157.046875 154.597656 159.921875 154.597656 163.46875 C 154.597656 163.472656 154.597656 163.476562 154.597656 163.476562 L 167.460938 163.46875 L 167.460938 150.625 L 154.597656 150.625 C 147.507812 150.625 141.738281 144.863281 141.738281 137.78125 L 141.738281 124.9375 C 141.738281 117.855469 147.507812 112.09375 154.597656 112.09375 L 167.460938 112.09375 C 174.550781 112.09375 180.320312 117.855469 180.320312 124.9375 C 180.320312 128.484375 177.441406 131.359375 173.890625 131.359375 C 170.339844 131.359375 167.460938 128.484375 167.460938 124.9375 L 154.597656 124.9375 L 154.597656 137.78125 L 167.460938 137.78125 C 174.550781 137.78125 180.320312 143.542969 180.320312 150.625 L 180.320312 163.46875 C 180.320312 170.550781 174.550781 176.3125 167.460938 176.3125 Z M 167.460938 176.3125 " fill-opacity="1" fill-rule="nonzero"/><path fill="#ffffff" d="M 103.160156 112.09375 C 99.609375 112.09375 96.730469 109.21875 96.730469 105.671875 L 96.730469 99.25 C 96.730469 95.703125 99.609375 92.828125 103.160156 92.828125 C 106.710938 92.828125 109.589844 95.703125 109.589844 99.25 L 109.589844 105.671875 C 109.589844 109.21875 106.710938 112.09375 103.160156 112.09375 Z M 103.160156 112.09375 " fill-opacity="1" fill-rule="nonzero"/><path fill="#ffffff" d="M 103.160156 137.78125 C 99.609375 137.78125 96.730469 134.90625 96.730469 131.359375 L 96.730469 124.9375 C 96.730469 121.390625 99.609375 118.515625 103.160156 118.515625 C 106.710938 118.515625 109.589844 121.390625 109.589844 124.9375 L 109.589844 131.359375 C 109.589844 134.90625 106.710938 137.78125 103.160156 137.78125 Z M 103.160156 137.78125 " fill-opacity="1" fill-rule="nonzero"/><path fill="#ffffff" d="M 103.160156 163.46875 C 99.609375 163.46875 96.730469 160.59375 96.730469 157.046875 L 96.730469 150.625 C 96.730469 147.078125 99.609375 144.203125 103.160156 144.203125 C 106.710938 144.203125 109.589844 147.078125 109.589844 150.625 L 109.589844 157.046875 C 109.589844 160.59375 106.710938 163.46875 103.160156 163.46875 Z M 103.160156 163.46875 " fill-opacity="1" fill-rule="nonzero"/><path fill="#ffffff" d="M 103.160156 272.640625 C 99.609375 272.640625 96.730469 269.765625 96.730469 266.21875 L 96.730469 259.796875 C 96.730469 256.25 99.609375 253.375 103.160156 253.375 C 106.710938 253.375 109.589844 256.25 109.589844 259.796875 L 109.589844 266.21875 C 109.589844 269.765625 106.710938 272.640625 103.160156 272.640625 Z M 103.160156 272.640625 " fill-opacity="1" fill-rule="nonzero"/><path fill="#ffffff" d="M 103.160156 246.953125 C 99.609375 246.953125 96.730469 244.078125 96.730469 240.53125 L 96.730469 234.109375 C 96.730469 230.5625 99.609375 227.6875 103.160156 227.6875 C 106.710938 227.6875 109.589844 230.5625 109.589844 234.109375 L 109.589844 240.53125 C 109.589844 244.078125 106.710938 246.953125 103.160156 246.953125 Z M 103.160156 246.953125 " fill-opacity="1" fill-rule="nonzero"/><path fill="#ffffff" d="M 103.160156 221.265625 C 99.609375 221.265625 96.730469 218.390625 96.730469 214.84375 L 96.730469 208.421875 C 96.730469 204.875 99.609375 202 103.160156 202 C 106.710938 202 109.589844 204.875 109.589844 208.421875 L 109.589844 214.84375 C 109.589844 218.390625 106.710938 221.265625 103.160156 221.265625 Z M 103.160156 221.265625 " fill-opacity="1" fill-rule="nonzero"/><path fill="#ffffff" d="M 103.160156 195.578125 C 99.609375 195.578125 96.730469 192.703125 96.730469 189.15625 L 96.730469 176.3125 C 96.730469 172.765625 99.609375 169.890625 103.160156 169.890625 C 106.710938 169.890625 109.589844 172.765625 109.589844 176.3125 L 109.589844 189.15625 C 109.589844 192.703125 106.710938 195.578125 103.160156 195.578125 Z M 103.160156 195.578125 " fill-opacity="1" fill-rule="nonzero"/><path fill="#5e17eb" d="M 199.609375 272.640625 C 197.964844 272.640625 196.320312 272.015625 195.0625 270.761719 C 192.550781 268.253906 192.550781 264.1875 195.0625 261.679688 L 246.503906 210.304688 C 249.015625 207.796875 253.085938 207.796875 255.597656 210.304688 C 258.109375 212.8125 258.109375 216.878906 255.597656 219.386719 L 204.15625 270.761719 C 202.902344 272.015625 201.257812 272.640625 199.609375 272.640625 Z M 199.609375 272.640625 " fill-opacity="1" fill-rule="nonzero"/><path fill="#5e17eb" d="M 193.179688 246.953125 C 182.542969 246.953125 173.890625 238.3125 173.890625 227.6875 C 173.890625 217.0625 182.542969 208.421875 193.179688 208.421875 C 203.816406 208.421875 212.46875 217.0625 212.46875 227.6875 C 212.46875 238.3125 203.816406 246.953125 193.179688 246.953125 Z M 193.179688 221.265625 C 189.632812 221.265625 186.75 224.148438 186.75 227.6875 C 186.75 231.230469 189.632812 234.109375 193.179688 234.109375 C 196.726562 234.109375 199.609375 231.230469 199.609375 227.6875 C 199.609375 224.148438 196.726562 221.265625 193.179688 221.265625 Z M 193.179688 221.265625 " fill-opacity="1" fill-rule="nonzero"/><path fill="#5e17eb" d="M 257.480469 272.640625 C 246.84375 272.640625 238.191406 264 238.191406 253.375 C 238.191406 242.75 246.84375 234.109375 257.480469 234.109375 C 268.117188 234.109375 276.769531 242.75 276.769531 253.375 C 276.769531 264 268.117188 272.640625 257.480469 272.640625 Z M 257.480469 246.953125 C 253.933594 246.953125 251.050781 249.835938 251.050781 253.375 C 251.050781 256.917969 253.933594 259.796875 257.480469 259.796875 C 261.027344 259.796875 263.910156 256.917969 263.910156 253.375 C 263.910156 249.835938 261.027344 246.953125 257.480469 246.953125 Z M 257.480469 246.953125 " fill-opacity="1" fill-rule="nonzero"/><path fill="#ffffff" d="M 83.867188 131.359375 L 19.566406 131.359375 C 16.015625 131.359375 13.136719 128.484375 13.136719 124.9375 C 13.136719 121.390625 16.015625 118.515625 19.566406 118.515625 L 83.867188 118.515625 C 87.417969 118.515625 90.296875 121.390625 90.296875 124.9375 C 90.296875 128.484375 87.417969 131.359375 83.867188 131.359375 Z M 83.867188 131.359375 " fill-opacity="1" fill-rule="nonzero"/><path fill="#ffffff" d="M 71.007812 150.625 L 19.566406 150.625 C 16.015625 150.625 13.136719 147.75 13.136719 144.203125 C 13.136719 140.65625 16.015625 137.78125 19.566406 137.78125 L 71.007812 137.78125 C 74.558594 137.78125 77.4375 140.65625 77.4375 144.203125 C 77.4375 147.75 74.558594 150.625 71.007812 150.625 Z M 71.007812 150.625 " fill-opacity="1" fill-rule="nonzero"/><path fill="#ffffff" d="M 83.867188 169.890625 L 19.566406 169.890625 C 16.015625 169.890625 13.136719 167.015625 13.136719 163.46875 C 13.136719 159.921875 16.015625 157.046875 19.566406 157.046875 L 83.867188 157.046875 C 87.417969 157.046875 90.296875 159.921875 90.296875 163.46875 C 90.296875 167.015625 87.417969 169.890625 83.867188 169.890625 Z M 83.867188 169.890625 " fill-opacity="1" fill-rule="nonzero"/><path fill="#ffffff" d="M 77.4375 189.15625 L 19.566406 189.15625 C 16.015625 189.15625 13.136719 186.28125 13.136719 182.734375 C 13.136719 179.1875 16.015625 176.3125 19.566406 176.3125 L 77.4375 176.3125 C 80.988281 176.3125 83.867188 179.1875 83.867188 182.734375 C 83.867188 186.28125 80.988281 189.15625 77.4375 189.15625 Z M 77.4375 189.15625 " fill-opacity="1" fill-rule="nonzero"/><path fill="#ffffff" d="M 83.867188 208.421875 L 19.566406 208.421875 C 16.015625 208.421875 13.136719 205.546875 13.136719 202 C 13.136719 198.453125 16.015625 195.578125 19.566406 195.578125 L 83.867188 195.578125 C 87.417969 195.578125 90.296875 198.453125 90.296875 202 C 90.296875 205.546875 87.417969 208.421875 83.867188 208.421875 Z M 83.867188 208.421875 " fill-opacity="1" fill-rule="nonzero"/><path fill="#ffffff" d="M 71.007812 227.6875 L 19.566406 227.6875 C 16.015625 227.6875 13.136719 224.8125 13.136719 221.265625 C 13.136719 217.71875 16.015625 214.84375 19.566406 214.84375 L 71.007812 214.84375 C 74.558594 214.84375 77.4375 217.71875 77.4375 221.265625 C 77.4375 224.8125 74.558594 227.6875 71.007812 227.6875 Z M 71.007812 227.6875 " fill-opacity="1" fill-rule="nonzero"/><path fill="#ffffff" d="M 83.867188 246.953125 L 19.566406 246.953125 C 16.015625 246.953125 13.136719 244.078125 13.136719 240.53125 C 13.136719 236.984375 16.015625 234.109375 19.566406 234.109375 L 83.867188 234.109375 C 87.417969 234.109375 90.296875 236.984375 90.296875 240.53125 C 90.296875 244.078125 87.417969 246.953125 83.867188 246.953125 Z M 83.867188 246.953125 " fill-opacity="1" fill-rule="nonzero"/><g fill="#ffffff" fill-opacity="1"><g transform="translate(183.97776, 267.752705)"><g><path d="M 9.6875 1.113281 L 77.105469 -66.859375 C 84.902344 -75.28125 72.015625 -82.320312 65.984375 -75.867188 L -1.433594 -7.894531 C -10.386719 1.601562 3.234375 8.085938 9.6875 1.113281 Z M 9.6875 1.113281 "/></g></g></g><g fill="#ffffff" fill-opacity="1"><g transform="translate(162.642035, 234.699009)"><g><path d="M 22.441406 0.71875 L 25.800781 0.660156 L 29.398438 0.179688 L 33.898438 -1.320312 L 35.878906 -2.398438 L 36.78125 -3.121094 L 37.921875 -3.660156 L 39.601562 -5.101562 L 40.378906 -6.179688 L 41.21875 -7.019531 L 43.859375 -11.039062 L 44.761719 -13.320312 L 45.238281 -15.601562 L 45.300781 -16.679688 L 45.601562 -17.878906 L 45.660156 -19.140625 L 45.898438 -20.878906 L 45.71875 -23.878906 L 45.300781 -26.339844 L 43.800781 -30.839844 L 42.660156 -33.058594 L 41.339844 -34.859375 L 39.660156 -36.71875 L 37.921875 -38.21875 L 36.539062 -39.179688 L 34.738281 -39.960938 L 33.839844 -40.621094 L 29.21875 -42.058594 L 25.738281 -42.660156 L 24.121094 -42.71875 L 17.761719 -41.820312 L 13.261719 -40.140625 L 12.359375 -39.480469 L 11.28125 -38.941406 L 9.238281 -37.441406 L 6.300781 -34.019531 L 4.441406 -30.839844 L 3.539062 -28.558594 L 2.519531 -23.941406 L 2.339844 -19.078125 L 2.519531 -17.820312 L 2.820312 -16.738281 L 2.941406 -15.601562 L 3.480469 -13.320312 L 6.238281 -7.859375 L 6.960938 -7.140625 L 7.738281 -6.179688 L 8.640625 -5.339844 L 9.300781 -4.558594 L 11.28125 -3 L 15.960938 -0.601562 L 17.699219 0 L 19.019531 0.121094 L 21.179688 0.601562 Z M 25.800781 -9.898438 L 22.5 -9.898438 L 21.179688 -10.078125 L 19.019531 -10.980469 L 18.058594 -11.519531 L 16.441406 -12.839844 L 15.660156 -13.679688 L 14.820312 -14.820312 L 14.519531 -15.78125 L 13.980469 -16.859375 L 13.5 -19.078125 L 13.5 -22.738281 L 13.800781 -23.820312 L 13.980469 -24.960938 L 14.460938 -26.039062 L 14.820312 -27.121094 L 16.261719 -29.039062 L 19.261719 -31.078125 L 20.039062 -31.378906 L 22.378906 -31.980469 L 24.058594 -32.101562 L 26.941406 -31.738281 L 28.019531 -31.5 L 29.101562 -31.019531 L 30.960938 -29.699219 L 33.300781 -27.238281 L 34.019531 -24.960938 L 34.558594 -23.820312 L 34.738281 -22.738281 L 34.621094 -19.078125 L 34.140625 -16.859375 L 33.71875 -15.78125 L 33.058594 -14.699219 L 32.699219 -13.800781 L 31.859375 -12.839844 L 28.980469 -10.859375 L 27.898438 -10.558594 L 27 -10.140625 Z M 25.800781 -9.898438 "/></g></g></g><g fill="#ffffff" fill-opacity="1"><g transform="translate(233.496083, 270.699006)"><g><path d="M 22.441406 0.71875 L 25.800781 0.660156 L 29.398438 0.179688 L 33.898438 -1.320312 L 35.878906 -2.398438 L 36.78125 -3.121094 L 37.921875 -3.660156 L 39.601562 -5.101562 L 40.378906 -6.179688 L 41.21875 -7.019531 L 43.859375 -11.039062 L 44.761719 -13.320312 L 45.238281 -15.601562 L 45.300781 -16.679688 L 45.601562 -17.878906 L 45.660156 -19.140625 L 45.898438 -20.878906 L 45.71875 -23.878906 L 45.300781 -26.339844 L 43.800781 -30.839844 L 42.660156 -33.058594 L 41.339844 -34.859375 L 39.660156 -36.71875 L 37.921875 -38.21875 L 36.539062 -39.179688 L 34.738281 -39.960938 L 33.839844 -40.621094 L 29.21875 -42.058594 L 25.738281 -42.660156 L 24.121094 -42.71875 L 17.761719 -41.820312 L 13.261719 -40.140625 L 12.359375 -39.480469 L 11.28125 -38.941406 L 9.238281 -37.441406 L 6.300781 -34.019531 L 4.441406 -30.839844 L 3.539062 -28.558594 L 2.519531 -23.941406 L 2.339844 -19.078125 L 2.519531 -17.820312 L 2.820312 -16.738281 L 2.941406 -15.601562 L 3.480469 -13.320312 L 6.238281 -7.859375 L 6.960938 -7.140625 L 7.738281 -6.179688 L 8.640625 -5.339844 L 9.300781 -4.558594 L 11.28125 -3 L 15.960938 -0.601562 L 17.699219 0 L 19.019531 0.121094 L 21.179688 0.601562 Z M 25.800781 -9.898438 L 22.5 -9.898438 L 21.179688 -10.078125 L 19.019531 -10.980469 L 18.058594 -11.519531 L 16.441406 -12.839844 L 15.660156 -13.679688 L 14.820312 -14.820312 L 14.519531 -15.78125 L 13.980469 -16.859375 L 13.5 -19.078125 L 13.5 -22.738281 L 13.800781 -23.820312 L 13.980469 -24.960938 L 14.460938 -26.039062 L 14.820312 -27.121094 L 16.261719 -29.039062 L 19.261719 -31.078125 L 20.039062 -31.378906 L 22.378906 -31.980469 L 24.058594 -32.101562 L 26.941406 -31.738281 L 28.019531 -31.5 L 29.101562 -31.019531 L 30.960938 -29.699219 L 33.300781 -27.238281 L 34.019531 -24.960938 L 34.558594 -23.820312 L 34.738281 -22.738281 L 34.621094 -19.078125 L 34.140625 -16.859375 L 33.71875 -15.78125 L 33.058594 -14.699219 L 32.699219 -13.800781 L 31.859375 -12.839844 L 28.980469 -10.859375 L 27.898438 -10.558594 L 27 -10.140625 Z M 25.800781 -9.898438 "/></g></g></g></svg>