<svg xmlns="http://www.w3.org/2000/svg" xmlns:xlink="http://www.w3.org/1999/xlink" width="600" zoomAndPan="magnify" viewBox="0 0 450 225" height="300" preserveAspectRatio="xMidYMid meet" version="1.0"><defs><clipPath id="d5614c330a"><path d="M 26 2 L 425 2 L 425 223 L 26 223 Z M 26 2 " clip-rule="nonzero"/></clipPath><clipPath id="95779bad48"><path d="M 247.007812 -201.117188 L 538.707031 134.617188 L 202.972656 426.3125 L -88.722656 90.578125 Z M 247.007812 -201.117188 " clip-rule="nonzero"/></clipPath><clipPath id="1193d80dc2"><path d="M 247.007812 -201.117188 L 538.707031 134.617188 L 202.972656 426.3125 L -88.722656 90.578125 Z M 247.007812 -201.117188 " clip-rule="nonzero"/></clipPath><clipPath id="083960d96f"><path d="M 247.007812 -201.117188 L 538.707031 134.617188 L 202.972656 426.3125 L -88.722656 90.578125 Z M 247.007812 -201.117188 " clip-rule="nonzero"/></clipPath><clipPath id="8da0f0fe05"><path d="M 253.144531 -168.738281 L 507.503906 124.019531 L 196.839844 393.933594 L -57.519531 101.175781 Z M 253.144531 -168.738281 " clip-rule="nonzero"/></clipPath><clipPath id="75ee0f5a9e"><path d="M 253.144531 -168.738281 L 507.503906 124.019531 L 196.839844 393.933594 L -57.519531 101.175781 Z M 253.144531 -168.738281 " clip-rule="nonzero"/></clipPath><clipPath id="baa0bb8f29"><path d="M 253.351562 -195.628906 L 534.15625 127.570312 L 196.632812 420.820312 L -84.171875 97.625 Z M 253.351562 -195.628906 " clip-rule="nonzero"/></clipPath><clipPath id="d0e20a2b41"><path d="M 25.722656 3.003906 L 424.214844 2.714844 L 424.375 222.421875 L 25.878906 222.710938 Z M 25.722656 3.003906 " clip-rule="nonzero"/></clipPath><clipPath id="9cfa49aecc"><path d="M 253.351562 -195.628906 L 534.15625 127.570312 L 196.632812 420.820312 L -84.171875 97.625 Z M 253.351562 -195.628906 " clip-rule="nonzero"/></clipPath><clipPath id="ec2f9f7d06"><path d="M 25.722656 3.003906 L 424.214844 2.714844 L 424.375 222.421875 L 25.878906 222.710938 Z M 25.722656 3.003906 " clip-rule="nonzero"/></clipPath><clipPath id="7a38e7f6f7"><path d="M 163 23 L 376 23 L 376 120 L 163 120 Z M 163 23 " clip-rule="nonzero"/></clipPath><clipPath id="38467526b8"><path d="M 247.007812 -201.117188 L 538.707031 134.617188 L 202.972656 426.3125 L -88.722656 90.578125 Z M 247.007812 -201.117188 " clip-rule="nonzero"/></clipPath><clipPath id="8de7815fce"><path d="M 247.007812 -201.117188 L 538.707031 134.617188 L 202.972656 426.3125 L -88.722656 90.578125 Z M 247.007812 -201.117188 " clip-rule="nonzero"/></clipPath><clipPath id="be8cd793f9"><path d="M 247.007812 -201.117188 L 538.707031 134.617188 L 202.972656 426.3125 L -88.722656 90.578125 Z M 247.007812 -201.117188 " clip-rule="nonzero"/></clipPath><clipPath id="14514778e4"><path d="M 284.082031 -82.5 L 424.09375 78.652344 L 254.886719 225.667969 L 114.871094 64.515625 Z M 284.082031 -82.5 " clip-rule="nonzero"/></clipPath><clipPath id="f67f992cbf"><path d="M 284.082031 -82.5 L 424.09375 78.652344 L 254.886719 225.667969 L 114.871094 64.515625 Z M 284.082031 -82.5 " clip-rule="nonzero"/></clipPath><clipPath id="919b35083e"><path d="M 253.351562 -195.628906 L 534.15625 127.570312 L 196.632812 420.820312 L -84.171875 97.625 Z M 253.351562 -195.628906 " clip-rule="nonzero"/></clipPath><clipPath id="b4317e6d57"><path d="M 25.722656 3.003906 L 424.214844 2.714844 L 424.375 222.421875 L 25.878906 222.710938 Z M 25.722656 3.003906 " clip-rule="nonzero"/></clipPath><clipPath id="3b0ed44433"><path d="M 253.351562 -195.628906 L 534.15625 127.570312 L 196.632812 420.820312 L -84.171875 97.625 Z M 253.351562 -195.628906 " clip-rule="nonzero"/></clipPath><clipPath id="c63fd1ef4e"><path d="M 25.722656 3.003906 L 424.214844 2.714844 L 424.375 222.421875 L 25.878906 222.710938 Z M 25.722656 3.003906 " clip-rule="nonzero"/></clipPath><clipPath id="9e7869825b"><path d="M 225 37 L 267 37 L 267 106 L 225 106 Z M 225 37 " clip-rule="nonzero"/></clipPath><clipPath id="1a03116bce"><path d="M 247.007812 -201.117188 L 538.707031 134.617188 L 202.972656 426.3125 L -88.722656 90.578125 Z M 247.007812 -201.117188 " clip-rule="nonzero"/></clipPath><clipPath id="9528f081a6"><path d="M 247.007812 -201.117188 L 538.707031 134.617188 L 202.972656 426.3125 L -88.722656 90.578125 Z M 247.007812 -201.117188 " clip-rule="nonzero"/></clipPath><clipPath id="d151e2f7b2"><path d="M 247.007812 -201.117188 L 538.707031 134.617188 L 202.972656 426.3125 L -88.722656 90.578125 Z M 247.007812 -201.117188 " clip-rule="nonzero"/></clipPath><clipPath id="023c8b1542"><path d="M 247.769531 27.605469 L 292.886719 79.53125 L 242.75 123.089844 L 197.632812 71.164062 Z M 247.769531 27.605469 " clip-rule="nonzero"/></clipPath><clipPath id="0023be793d"><path d="M 247.769531 27.605469 L 292.886719 79.53125 L 242.75 123.089844 L 197.632812 71.164062 Z M 247.769531 27.605469 " clip-rule="nonzero"/></clipPath><clipPath id="baa2d67738"><path d="M 253.351562 -195.628906 L 534.15625 127.570312 L 196.632812 420.820312 L -84.171875 97.625 Z M 253.351562 -195.628906 " clip-rule="nonzero"/></clipPath><clipPath id="6544fb6c07"><path d="M 25.722656 3.003906 L 424.214844 2.714844 L 424.375 222.421875 L 25.878906 222.710938 Z M 25.722656 3.003906 " clip-rule="nonzero"/></clipPath><clipPath id="7640c51d7e"><path d="M 253.351562 -195.628906 L 534.15625 127.570312 L 196.632812 420.820312 L -84.171875 97.625 Z M 253.351562 -195.628906 " clip-rule="nonzero"/></clipPath><clipPath id="d17e3456ea"><path d="M 25.722656 3.003906 L 424.214844 2.714844 L 424.375 222.421875 L 25.878906 222.710938 Z M 25.722656 3.003906 " clip-rule="nonzero"/></clipPath><clipPath id="30e3fcf64b"><path d="M 225 64 L 267 64 L 267 79 L 225 79 Z M 225 64 " clip-rule="nonzero"/></clipPath><clipPath id="5ce3444d50"><path d="M 247.007812 -201.117188 L 538.707031 134.617188 L 202.972656 426.3125 L -88.722656 90.578125 Z M 247.007812 -201.117188 " clip-rule="nonzero"/></clipPath><clipPath id="dd6fae63d8"><path d="M 247.007812 -201.117188 L 538.707031 134.617188 L 202.972656 426.3125 L -88.722656 90.578125 Z M 247.007812 -201.117188 " clip-rule="nonzero"/></clipPath><clipPath id="f1a8b8efc5"><path d="M 247.007812 -201.117188 L 538.707031 134.617188 L 202.972656 426.3125 L -88.722656 90.578125 Z M 247.007812 -201.117188 " clip-rule="nonzero"/></clipPath><clipPath id="3f9e336836"><path d="M 248.035156 47.800781 L 269.8125 72.867188 L 242.957031 96.203125 L 221.175781 71.136719 Z M 248.035156 47.800781 " clip-rule="nonzero"/></clipPath><clipPath id="36b3db5c33"><path d="M 248.035156 47.800781 L 269.8125 72.867188 L 242.957031 96.203125 L 221.175781 71.136719 Z M 248.035156 47.800781 " clip-rule="nonzero"/></clipPath><clipPath id="a61c625df6"><path d="M 253.351562 -195.628906 L 534.15625 127.570312 L 196.632812 420.820312 L -84.171875 97.625 Z M 253.351562 -195.628906 " clip-rule="nonzero"/></clipPath><clipPath id="e843ce601a"><path d="M 25.722656 3.003906 L 424.214844 2.714844 L 424.375 222.421875 L 25.878906 222.710938 Z M 25.722656 3.003906 " clip-rule="nonzero"/></clipPath><clipPath id="0b475107ca"><path d="M 253.351562 -195.628906 L 534.15625 127.570312 L 196.632812 420.820312 L -84.171875 97.625 Z M 253.351562 -195.628906 " clip-rule="nonzero"/></clipPath><clipPath id="709989e1c7"><path d="M 25.722656 3.003906 L 424.214844 2.714844 L 424.375 222.421875 L 25.878906 222.710938 Z M 25.722656 3.003906 " clip-rule="nonzero"/></clipPath><clipPath id="18685b80d2"><path d="M 273 37 L 315 37 L 315 106 L 273 106 Z M 273 37 " clip-rule="nonzero"/></clipPath><clipPath id="cb055df5a0"><path d="M 247.007812 -201.117188 L 538.707031 134.617188 L 202.972656 426.3125 L -88.722656 90.578125 Z M 247.007812 -201.117188 " clip-rule="nonzero"/></clipPath><clipPath id="6529a07a05"><path d="M 247.007812 -201.117188 L 538.707031 134.617188 L 202.972656 426.3125 L -88.722656 90.578125 Z M 247.007812 -201.117188 " clip-rule="nonzero"/></clipPath><clipPath id="a8a03321b0"><path d="M 247.007812 -201.117188 L 538.707031 134.617188 L 202.972656 426.3125 L -88.722656 90.578125 Z M 247.007812 -201.117188 " clip-rule="nonzero"/></clipPath><clipPath id="e6b1704520"><path d="M 281 33.300781 L 330.003906 89.703125 L 291.503906 123.152344 L 242.5 66.746094 Z M 281 33.300781 " clip-rule="nonzero"/></clipPath><clipPath id="9cddaa10e1"><path d="M 281 33.300781 L 330.003906 89.703125 L 291.503906 123.152344 L 242.5 66.746094 Z M 281 33.300781 " clip-rule="nonzero"/></clipPath><clipPath id="a18ec5feb0"><path d="M 253.351562 -195.628906 L 534.15625 127.570312 L 196.632812 420.820312 L -84.171875 97.625 Z M 253.351562 -195.628906 " clip-rule="nonzero"/></clipPath><clipPath id="9c879a5351"><path d="M 25.722656 3.003906 L 424.214844 2.714844 L 424.375 222.421875 L 25.878906 222.710938 Z M 25.722656 3.003906 " clip-rule="nonzero"/></clipPath><clipPath id="5f09ec3c43"><path d="M 253.351562 -195.628906 L 534.15625 127.570312 L 196.632812 420.820312 L -84.171875 97.625 Z M 253.351562 -195.628906 " clip-rule="nonzero"/></clipPath><clipPath id="3604a262e2"><path d="M 25.722656 3.003906 L 424.214844 2.714844 L 424.375 222.421875 L 25.878906 222.710938 Z M 25.722656 3.003906 " clip-rule="nonzero"/></clipPath><clipPath id="9c1c258118"><path d="M 321 37 L 363 37 L 363 106 L 321 106 Z M 321 37 " clip-rule="nonzero"/></clipPath><clipPath id="bfa20ac68a"><path d="M 247.007812 -201.117188 L 538.707031 134.617188 L 202.972656 426.3125 L -88.722656 90.578125 Z M 247.007812 -201.117188 " clip-rule="nonzero"/></clipPath><clipPath id="482d688e28"><path d="M 247.007812 -201.117188 L 538.707031 134.617188 L 202.972656 426.3125 L -88.722656 90.578125 Z M 247.007812 -201.117188 " clip-rule="nonzero"/></clipPath><clipPath id="12365b73ab"><path d="M 247.007812 -201.117188 L 538.707031 134.617188 L 202.972656 426.3125 L -88.722656 90.578125 Z M 247.007812 -201.117188 " clip-rule="nonzero"/></clipPath><clipPath id="7bf4b8ef14"><path d="M 344.195312 19.238281 L 393.199219 75.644531 L 338.589844 123.09375 L 289.582031 66.6875 Z M 344.195312 19.238281 " clip-rule="nonzero"/></clipPath><clipPath id="8ab5cc187c"><path d="M 344.195312 19.238281 L 393.199219 75.644531 L 338.589844 123.09375 L 289.582031 66.6875 Z M 344.195312 19.238281 " clip-rule="nonzero"/></clipPath><clipPath id="5de76f6643"><path d="M 253.351562 -195.628906 L 534.15625 127.570312 L 196.632812 420.820312 L -84.171875 97.625 Z M 253.351562 -195.628906 " clip-rule="nonzero"/></clipPath><clipPath id="d77e221527"><path d="M 25.722656 3.003906 L 424.214844 2.714844 L 424.375 222.421875 L 25.878906 222.710938 Z M 25.722656 3.003906 " clip-rule="nonzero"/></clipPath><clipPath id="90feb4c3dc"><path d="M 253.351562 -195.628906 L 534.15625 127.570312 L 196.632812 420.820312 L -84.171875 97.625 Z M 253.351562 -195.628906 " clip-rule="nonzero"/></clipPath><clipPath id="5b32a3efb2"><path d="M 25.722656 3.003906 L 424.214844 2.714844 L 424.375 222.421875 L 25.878906 222.710938 Z M 25.722656 3.003906 " clip-rule="nonzero"/></clipPath><clipPath id="1d1f9aca44"><path d="M 321 64 L 363 64 L 363 79 L 321 79 Z M 321 64 " clip-rule="nonzero"/></clipPath><clipPath id="80bf7db359"><path d="M 247.007812 -201.117188 L 538.707031 134.617188 L 202.972656 426.3125 L -88.722656 90.578125 Z M 247.007812 -201.117188 " clip-rule="nonzero"/></clipPath><clipPath id="6dcadfe178"><path d="M 247.007812 -201.117188 L 538.707031 134.617188 L 202.972656 426.3125 L -88.722656 90.578125 Z M 247.007812 -201.117188 " clip-rule="nonzero"/></clipPath><clipPath id="29f0b35d01"><path d="M 247.007812 -201.117188 L 538.707031 134.617188 L 202.972656 426.3125 L -88.722656 90.578125 Z M 247.007812 -201.117188 " clip-rule="nonzero"/></clipPath><clipPath id="6e84e372f4"><path d="M 344.769531 47.023438 L 366.546875 72.089844 L 338.792969 96.203125 L 317.015625 71.136719 Z M 344.769531 47.023438 " clip-rule="nonzero"/></clipPath><clipPath id="9fd6fc2ea7"><path d="M 344.769531 47.023438 L 366.546875 72.089844 L 338.792969 96.203125 L 317.015625 71.136719 Z M 344.769531 47.023438 " clip-rule="nonzero"/></clipPath><clipPath id="d42dd01529"><path d="M 253.351562 -195.628906 L 534.15625 127.570312 L 196.632812 420.820312 L -84.171875 97.625 Z M 253.351562 -195.628906 " clip-rule="nonzero"/></clipPath><clipPath id="52856377f1"><path d="M 25.722656 3.003906 L 424.214844 2.714844 L 424.375 222.421875 L 25.878906 222.710938 Z M 25.722656 3.003906 " clip-rule="nonzero"/></clipPath><clipPath id="3262350950"><path d="M 253.351562 -195.628906 L 534.15625 127.570312 L 196.632812 420.820312 L -84.171875 97.625 Z M 253.351562 -195.628906 " clip-rule="nonzero"/></clipPath><clipPath id="341a0b3a6d"><path d="M 25.722656 3.003906 L 424.214844 2.714844 L 424.375 222.421875 L 25.878906 222.710938 Z M 25.722656 3.003906 " clip-rule="nonzero"/></clipPath><clipPath id="3ad8308e35"><path d="M 176 37 L 219 37 L 219 106 L 176 106 Z M 176 37 " clip-rule="nonzero"/></clipPath><clipPath id="0734640a65"><path d="M 247.007812 -201.117188 L 538.707031 134.617188 L 202.972656 426.3125 L -88.722656 90.578125 Z M 247.007812 -201.117188 " clip-rule="nonzero"/></clipPath><clipPath id="f041ac8838"><path d="M 247.007812 -201.117188 L 538.707031 134.617188 L 202.972656 426.3125 L -88.722656 90.578125 Z M 247.007812 -201.117188 " clip-rule="nonzero"/></clipPath><clipPath id="39b31e05f0"><path d="M 247.007812 -201.117188 L 538.707031 134.617188 L 202.972656 426.3125 L -88.722656 90.578125 Z M 247.007812 -201.117188 " clip-rule="nonzero"/></clipPath><clipPath id="99c87392f7"><path d="M 200.144531 23.421875 L 245.261719 75.347656 L 195.125 118.90625 L 150.007812 66.980469 Z M 200.144531 23.421875 " clip-rule="nonzero"/></clipPath><clipPath id="6e5de32dc9"><path d="M 200.144531 23.421875 L 245.261719 75.347656 L 195.125 118.90625 L 150.007812 66.980469 Z M 200.144531 23.421875 " clip-rule="nonzero"/></clipPath><clipPath id="724eb6ecfd"><path d="M 253.351562 -195.628906 L 534.15625 127.570312 L 196.632812 420.820312 L -84.171875 97.625 Z M 253.351562 -195.628906 " clip-rule="nonzero"/></clipPath><clipPath id="9f7aece5d0"><path d="M 25.722656 3.003906 L 424.214844 2.714844 L 424.375 222.421875 L 25.878906 222.710938 Z M 25.722656 3.003906 " clip-rule="nonzero"/></clipPath><clipPath id="f5a3c08af7"><path d="M 253.351562 -195.628906 L 534.15625 127.570312 L 196.632812 420.820312 L -84.171875 97.625 Z M 253.351562 -195.628906 " clip-rule="nonzero"/></clipPath><clipPath id="c64719d94d"><path d="M 25.722656 3.003906 L 424.214844 2.714844 L 424.375 222.421875 L 25.878906 222.710938 Z M 25.722656 3.003906 " clip-rule="nonzero"/></clipPath><clipPath id="dd4a107f1f"><path d="M 128 16 L 143 16 L 143 38 L 128 38 Z M 128 16 " clip-rule="nonzero"/></clipPath><clipPath id="edeaa10fcc"><path d="M 247.007812 -201.117188 L 538.707031 134.617188 L 202.972656 426.3125 L -88.722656 90.578125 Z M 247.007812 -201.117188 " clip-rule="nonzero"/></clipPath><clipPath id="70957f798b"><path d="M 247.007812 -201.117188 L 538.707031 134.617188 L 202.972656 426.3125 L -88.722656 90.578125 Z M 247.007812 -201.117188 " clip-rule="nonzero"/></clipPath><clipPath id="1380b4652a"><path d="M 247.007812 -201.117188 L 538.707031 134.617188 L 202.972656 426.3125 L -88.722656 90.578125 Z M 247.007812 -201.117188 " clip-rule="nonzero"/></clipPath><clipPath id="58336e879b"><path d="M 136.140625 13.042969 L 149.363281 28.265625 L 135.039062 40.710938 L 121.816406 25.488281 Z M 136.140625 13.042969 " clip-rule="nonzero"/></clipPath><clipPath id="e662661d8b"><path d="M 136.140625 13.042969 L 149.363281 28.265625 L 135.039062 40.710938 L 121.816406 25.488281 Z M 136.140625 13.042969 " clip-rule="nonzero"/></clipPath><clipPath id="b1fc006871"><path d="M 253.351562 -195.628906 L 534.15625 127.570312 L 196.632812 420.820312 L -84.171875 97.625 Z M 253.351562 -195.628906 " clip-rule="nonzero"/></clipPath><clipPath id="a57248e630"><path d="M 25.722656 3.003906 L 424.214844 2.714844 L 424.375 222.421875 L 25.878906 222.710938 Z M 25.722656 3.003906 " clip-rule="nonzero"/></clipPath><clipPath id="9676d18455"><path d="M 253.351562 -195.628906 L 534.15625 127.570312 L 196.632812 420.820312 L -84.171875 97.625 Z M 253.351562 -195.628906 " clip-rule="nonzero"/></clipPath><clipPath id="5fc41d11e1"><path d="M 25.722656 3.003906 L 424.214844 2.714844 L 424.375 222.421875 L 25.878906 222.710938 Z M 25.722656 3.003906 " clip-rule="nonzero"/></clipPath><clipPath id="31cfff1cc6"><path d="M 128 44 L 143 44 L 143 65 L 128 65 Z M 128 44 " clip-rule="nonzero"/></clipPath><clipPath id="4fe703b799"><path d="M 247.007812 -201.117188 L 538.707031 134.617188 L 202.972656 426.3125 L -88.722656 90.578125 Z M 247.007812 -201.117188 " clip-rule="nonzero"/></clipPath><clipPath id="16f63b7e51"><path d="M 247.007812 -201.117188 L 538.707031 134.617188 L 202.972656 426.3125 L -88.722656 90.578125 Z M 247.007812 -201.117188 " clip-rule="nonzero"/></clipPath><clipPath id="e1633e0d42"><path d="M 247.007812 -201.117188 L 538.707031 134.617188 L 202.972656 426.3125 L -88.722656 90.578125 Z M 247.007812 -201.117188 " clip-rule="nonzero"/></clipPath><clipPath id="4509abc784"><path d="M 136.710938 40.828125 L 149.933594 56.046875 L 135.609375 68.492188 L 122.386719 53.273438 Z M 136.710938 40.828125 " clip-rule="nonzero"/></clipPath><clipPath id="49f5403dd0"><path d="M 136.710938 40.828125 L 149.933594 56.046875 L 135.609375 68.492188 L 122.386719 53.273438 Z M 136.710938 40.828125 " clip-rule="nonzero"/></clipPath><clipPath id="277c214b88"><path d="M 253.351562 -195.628906 L 534.15625 127.570312 L 196.632812 420.820312 L -84.171875 97.625 Z M 253.351562 -195.628906 " clip-rule="nonzero"/></clipPath><clipPath id="94089e995c"><path d="M 25.722656 3.003906 L 424.214844 2.714844 L 424.375 222.421875 L 25.878906 222.710938 Z M 25.722656 3.003906 " clip-rule="nonzero"/></clipPath><clipPath id="3cdba6799b"><path d="M 253.351562 -195.628906 L 534.15625 127.570312 L 196.632812 420.820312 L -84.171875 97.625 Z M 253.351562 -195.628906 " clip-rule="nonzero"/></clipPath><clipPath id="7bb662976b"><path d="M 25.722656 3.003906 L 424.214844 2.714844 L 424.375 222.421875 L 25.878906 222.710938 Z M 25.722656 3.003906 " clip-rule="nonzero"/></clipPath><clipPath id="900ef56039"><path d="M 128 71 L 143 71 L 143 93 L 128 93 Z M 128 71 " clip-rule="nonzero"/></clipPath><clipPath id="223c6ddc09"><path d="M 247.007812 -201.117188 L 538.707031 134.617188 L 202.972656 426.3125 L -88.722656 90.578125 Z M 247.007812 -201.117188 " clip-rule="nonzero"/></clipPath><clipPath id="23801eafc6"><path d="M 247.007812 -201.117188 L 538.707031 134.617188 L 202.972656 426.3125 L -88.722656 90.578125 Z M 247.007812 -201.117188 " clip-rule="nonzero"/></clipPath><clipPath id="a9bd03fde3"><path d="M 247.007812 -201.117188 L 538.707031 134.617188 L 202.972656 426.3125 L -88.722656 90.578125 Z M 247.007812 -201.117188 " clip-rule="nonzero"/></clipPath><clipPath id="808eedb03b"><path d="M 136.503906 67.714844 L 149.730469 82.933594 L 135.40625 95.378906 L 122.179688 80.160156 Z M 136.503906 67.714844 " clip-rule="nonzero"/></clipPath><clipPath id="4fea4bd89c"><path d="M 136.503906 67.714844 L 149.730469 82.933594 L 135.40625 95.378906 L 122.179688 80.160156 Z M 136.503906 67.714844 " clip-rule="nonzero"/></clipPath><clipPath id="c69ca8b961"><path d="M 253.351562 -195.628906 L 534.15625 127.570312 L 196.632812 420.820312 L -84.171875 97.625 Z M 253.351562 -195.628906 " clip-rule="nonzero"/></clipPath><clipPath id="110fe7be61"><path d="M 25.722656 3.003906 L 424.214844 2.714844 L 424.375 222.421875 L 25.878906 222.710938 Z M 25.722656 3.003906 " clip-rule="nonzero"/></clipPath><clipPath id="a749135923"><path d="M 253.351562 -195.628906 L 534.15625 127.570312 L 196.632812 420.820312 L -84.171875 97.625 Z M 253.351562 -195.628906 " clip-rule="nonzero"/></clipPath><clipPath id="3b1b3e3eed"><path d="M 25.722656 3.003906 L 424.214844 2.714844 L 424.375 222.421875 L 25.878906 222.710938 Z M 25.722656 3.003906 " clip-rule="nonzero"/></clipPath><clipPath id="ef4afd337a"><path d="M 129 188 L 143 188 L 143 209 L 129 209 Z M 129 188 " clip-rule="nonzero"/></clipPath><clipPath id="a731491f5d"><path d="M 247.007812 -201.117188 L 538.707031 134.617188 L 202.972656 426.3125 L -88.722656 90.578125 Z M 247.007812 -201.117188 " clip-rule="nonzero"/></clipPath><clipPath id="c15755d341"><path d="M 247.007812 -201.117188 L 538.707031 134.617188 L 202.972656 426.3125 L -88.722656 90.578125 Z M 247.007812 -201.117188 " clip-rule="nonzero"/></clipPath><clipPath id="a226e15176"><path d="M 247.007812 -201.117188 L 538.707031 134.617188 L 202.972656 426.3125 L -88.722656 90.578125 Z M 247.007812 -201.117188 " clip-rule="nonzero"/></clipPath><clipPath id="28925ed6fd"><path d="M 136.652344 185.421875 L 149.097656 199.746094 L 134.773438 212.191406 L 122.328125 197.867188 Z M 136.652344 185.421875 " clip-rule="nonzero"/></clipPath><clipPath id="3d48494b8e"><path d="M 136.652344 185.421875 L 149.097656 199.746094 L 134.773438 212.191406 L 122.328125 197.867188 Z M 136.652344 185.421875 " clip-rule="nonzero"/></clipPath><clipPath id="6e68037a60"><path d="M 253.351562 -195.628906 L 534.15625 127.570312 L 196.632812 420.820312 L -84.171875 97.625 Z M 253.351562 -195.628906 " clip-rule="nonzero"/></clipPath><clipPath id="60c582dca7"><path d="M 25.722656 3.003906 L 424.214844 2.714844 L 424.375 222.421875 L 25.878906 222.710938 Z M 25.722656 3.003906 " clip-rule="nonzero"/></clipPath><clipPath id="c8b8bb350f"><path d="M 253.351562 -195.628906 L 534.15625 127.570312 L 196.632812 420.820312 L -84.171875 97.625 Z M 253.351562 -195.628906 " clip-rule="nonzero"/></clipPath><clipPath id="c0de381a3b"><path d="M 25.722656 3.003906 L 424.214844 2.714844 L 424.375 222.421875 L 25.878906 222.710938 Z M 25.722656 3.003906 " clip-rule="nonzero"/></clipPath><clipPath id="1b508ff2c9"><path d="M 129 160 L 143 160 L 143 182 L 129 182 Z M 129 160 " clip-rule="nonzero"/></clipPath><clipPath id="b2e4569d51"><path d="M 247.007812 -201.117188 L 538.707031 134.617188 L 202.972656 426.3125 L -88.722656 90.578125 Z M 247.007812 -201.117188 " clip-rule="nonzero"/></clipPath><clipPath id="195f248456"><path d="M 247.007812 -201.117188 L 538.707031 134.617188 L 202.972656 426.3125 L -88.722656 90.578125 Z M 247.007812 -201.117188 " clip-rule="nonzero"/></clipPath><clipPath id="eb07bc4762"><path d="M 247.007812 -201.117188 L 538.707031 134.617188 L 202.972656 426.3125 L -88.722656 90.578125 Z M 247.007812 -201.117188 " clip-rule="nonzero"/></clipPath><clipPath id="dffef04f38"><path d="M 136.972656 156.859375 L 150.199219 172.082031 L 134.976562 185.304688 L 121.753906 170.085938 Z M 136.972656 156.859375 " clip-rule="nonzero"/></clipPath><clipPath id="1693ba273f"><path d="M 136.972656 156.859375 L 150.199219 172.082031 L 134.976562 185.304688 L 121.753906 170.085938 Z M 136.972656 156.859375 " clip-rule="nonzero"/></clipPath><clipPath id="a60bc5957c"><path d="M 253.351562 -195.628906 L 534.15625 127.570312 L 196.632812 420.820312 L -84.171875 97.625 Z M 253.351562 -195.628906 " clip-rule="nonzero"/></clipPath><clipPath id="a95dedfb81"><path d="M 25.722656 3.003906 L 424.214844 2.714844 L 424.375 222.421875 L 25.878906 222.710938 Z M 25.722656 3.003906 " clip-rule="nonzero"/></clipPath><clipPath id="02372b68a5"><path d="M 253.351562 -195.628906 L 534.15625 127.570312 L 196.632812 420.820312 L -84.171875 97.625 Z M 253.351562 -195.628906 " clip-rule="nonzero"/></clipPath><clipPath id="070eba0db7"><path d="M 25.722656 3.003906 L 424.214844 2.714844 L 424.375 222.421875 L 25.878906 222.710938 Z M 25.722656 3.003906 " clip-rule="nonzero"/></clipPath><clipPath id="4923acd70d"><path d="M 129 133 L 143 133 L 143 154 L 129 154 Z M 129 133 " clip-rule="nonzero"/></clipPath><clipPath id="954887d4af"><path d="M 247.007812 -201.117188 L 538.707031 134.617188 L 202.972656 426.3125 L -88.722656 90.578125 Z M 247.007812 -201.117188 " clip-rule="nonzero"/></clipPath><clipPath id="5cba8e7c5e"><path d="M 247.007812 -201.117188 L 538.707031 134.617188 L 202.972656 426.3125 L -88.722656 90.578125 Z M 247.007812 -201.117188 " clip-rule="nonzero"/></clipPath><clipPath id="62bd47af14"><path d="M 247.007812 -201.117188 L 538.707031 134.617188 L 202.972656 426.3125 L -88.722656 90.578125 Z M 247.007812 -201.117188 " clip-rule="nonzero"/></clipPath><clipPath id="22c98dab87"><path d="M 137.179688 129.972656 L 149.625 144.296875 L 134.40625 157.523438 L 121.960938 143.195312 Z M 137.179688 129.972656 " clip-rule="nonzero"/></clipPath><clipPath id="bcb1a557fb"><path d="M 137.179688 129.972656 L 149.625 144.296875 L 134.40625 157.523438 L 121.960938 143.195312 Z M 137.179688 129.972656 " clip-rule="nonzero"/></clipPath><clipPath id="e847743ca9"><path d="M 253.351562 -195.628906 L 534.15625 127.570312 L 196.632812 420.820312 L -84.171875 97.625 Z M 253.351562 -195.628906 " clip-rule="nonzero"/></clipPath><clipPath id="e8ceea77f5"><path d="M 25.722656 3.003906 L 424.214844 2.714844 L 424.375 222.421875 L 25.878906 222.710938 Z M 25.722656 3.003906 " clip-rule="nonzero"/></clipPath><clipPath id="34510bb7f6"><path d="M 253.351562 -195.628906 L 534.15625 127.570312 L 196.632812 420.820312 L -84.171875 97.625 Z M 253.351562 -195.628906 " clip-rule="nonzero"/></clipPath><clipPath id="96024ddbc2"><path d="M 25.722656 3.003906 L 424.214844 2.714844 L 424.375 222.421875 L 25.878906 222.710938 Z M 25.722656 3.003906 " clip-rule="nonzero"/></clipPath><clipPath id="975fefd2b3"><path d="M 129 99 L 143 99 L 143 127 L 129 127 Z M 129 99 " clip-rule="nonzero"/></clipPath><clipPath id="87f244d0b9"><path d="M 247.007812 -201.117188 L 538.707031 134.617188 L 202.972656 426.3125 L -88.722656 90.578125 Z M 247.007812 -201.117188 " clip-rule="nonzero"/></clipPath><clipPath id="90c52c0f0d"><path d="M 247.007812 -201.117188 L 538.707031 134.617188 L 202.972656 426.3125 L -88.722656 90.578125 Z M 247.007812 -201.117188 " clip-rule="nonzero"/></clipPath><clipPath id="bfa10d5bbf"><path d="M 247.007812 -201.117188 L 538.707031 134.617188 L 202.972656 426.3125 L -88.722656 90.578125 Z M 247.007812 -201.117188 " clip-rule="nonzero"/></clipPath><clipPath id="5598b0963b"><path d="M 137.078125 95.5 L 153.414062 114.300781 L 135.507812 129.855469 L 119.171875 111.054688 Z M 137.078125 95.5 " clip-rule="nonzero"/></clipPath><clipPath id="84c5e87aa8"><path d="M 137.078125 95.5 L 153.414062 114.300781 L 135.507812 129.855469 L 119.171875 111.054688 Z M 137.078125 95.5 " clip-rule="nonzero"/></clipPath><clipPath id="4e5b968d0b"><path d="M 253.351562 -195.628906 L 534.15625 127.570312 L 196.632812 420.820312 L -84.171875 97.625 Z M 253.351562 -195.628906 " clip-rule="nonzero"/></clipPath><clipPath id="c9cfe20649"><path d="M 25.722656 3.003906 L 424.214844 2.714844 L 424.375 222.421875 L 25.878906 222.710938 Z M 25.722656 3.003906 " clip-rule="nonzero"/></clipPath><clipPath id="e54505cd00"><path d="M 253.351562 -195.628906 L 534.15625 127.570312 L 196.632812 420.820312 L -84.171875 97.625 Z M 253.351562 -195.628906 " clip-rule="nonzero"/></clipPath><clipPath id="60bfc76934"><path d="M 25.722656 3.003906 L 424.214844 2.714844 L 424.375 222.421875 L 25.878906 222.710938 Z M 25.722656 3.003906 " clip-rule="nonzero"/></clipPath><clipPath id="3223365bd2"><path d="M 231 140 L 301 140 L 301 209 L 231 209 Z M 231 140 " clip-rule="nonzero"/></clipPath><clipPath id="e633043f68"><path d="M 247.007812 -201.117188 L 538.707031 134.617188 L 202.972656 426.3125 L -88.722656 90.578125 Z M 247.007812 -201.117188 " clip-rule="nonzero"/></clipPath><clipPath id="369885a5ed"><path d="M 247.007812 -201.117188 L 538.707031 134.617188 L 202.972656 426.3125 L -88.722656 90.578125 Z M 247.007812 -201.117188 " clip-rule="nonzero"/></clipPath><clipPath id="24fcfe9e27"><path d="M 247.007812 -201.117188 L 538.707031 134.617188 L 202.972656 426.3125 L -88.722656 90.578125 Z M 247.007812 -201.117188 " clip-rule="nonzero"/></clipPath><clipPath id="f175c1269b"><path d="M 293.914062 136.769531 L 307.136719 151.992188 L 238.199219 211.886719 L 224.976562 196.664062 Z M 293.914062 136.769531 " clip-rule="nonzero"/></clipPath><clipPath id="f7950e5c26"><path d="M 293.914062 136.769531 L 307.136719 151.992188 L 238.199219 211.886719 L 224.976562 196.664062 Z M 293.914062 136.769531 " clip-rule="nonzero"/></clipPath><clipPath id="bb14e91b34"><path d="M 253.351562 -195.628906 L 534.15625 127.570312 L 196.632812 420.820312 L -84.171875 97.625 Z M 253.351562 -195.628906 " clip-rule="nonzero"/></clipPath><clipPath id="5dce1c53be"><path d="M 25.722656 3.003906 L 424.214844 2.714844 L 424.375 222.421875 L 25.878906 222.710938 Z M 25.722656 3.003906 " clip-rule="nonzero"/></clipPath><clipPath id="58924b6a16"><path d="M 253.351562 -195.628906 L 534.15625 127.570312 L 196.632812 420.820312 L -84.171875 97.625 Z M 253.351562 -195.628906 " clip-rule="nonzero"/></clipPath><clipPath id="b90eda7ed6"><path d="M 25.722656 3.003906 L 424.214844 2.714844 L 424.375 222.421875 L 25.878906 222.710938 Z M 25.722656 3.003906 " clip-rule="nonzero"/></clipPath><clipPath id="969f646239"><path d="M 211 140 L 253 140 L 253 182 L 211 182 Z M 211 140 " clip-rule="nonzero"/></clipPath><clipPath id="514abbf2f6"><path d="M 247.007812 -201.117188 L 538.707031 134.617188 L 202.972656 426.3125 L -88.722656 90.578125 Z M 247.007812 -201.117188 " clip-rule="nonzero"/></clipPath><clipPath id="651c413638"><path d="M 247.007812 -201.117188 L 538.707031 134.617188 L 202.972656 426.3125 L -88.722656 90.578125 Z M 247.007812 -201.117188 " clip-rule="nonzero"/></clipPath><clipPath id="927244585b"><path d="M 247.007812 -201.117188 L 538.707031 134.617188 L 202.972656 426.3125 L -88.722656 90.578125 Z M 247.007812 -201.117188 " clip-rule="nonzero"/></clipPath><clipPath id="285d34323f"><path d="M 233.796875 130.871094 L 261.800781 163.101562 L 229.570312 191.101562 L 201.566406 158.871094 Z M 233.796875 130.871094 " clip-rule="nonzero"/></clipPath><clipPath id="8dcd1bcf73"><path d="M 233.796875 130.871094 L 261.800781 163.101562 L 229.570312 191.101562 L 201.566406 158.871094 Z M 233.796875 130.871094 " clip-rule="nonzero"/></clipPath><clipPath id="3ff705b04d"><path d="M 253.351562 -195.628906 L 534.15625 127.570312 L 196.632812 420.820312 L -84.171875 97.625 Z M 253.351562 -195.628906 " clip-rule="nonzero"/></clipPath><clipPath id="3b6c366788"><path d="M 25.722656 3.003906 L 424.214844 2.714844 L 424.375 222.421875 L 25.878906 222.710938 Z M 25.722656 3.003906 " clip-rule="nonzero"/></clipPath><clipPath id="127e3e3db0"><path d="M 253.351562 -195.628906 L 534.15625 127.570312 L 196.632812 420.820312 L -84.171875 97.625 Z M 253.351562 -195.628906 " clip-rule="nonzero"/></clipPath><clipPath id="a28cb11859"><path d="M 25.722656 3.003906 L 424.214844 2.714844 L 424.375 222.421875 L 25.878906 222.710938 Z M 25.722656 3.003906 " clip-rule="nonzero"/></clipPath><clipPath id="fa77cf6a56"><path d="M 279 167 L 322 167 L 322 209 L 279 209 Z M 279 167 " clip-rule="nonzero"/></clipPath><clipPath id="7f3efa44cf"><path d="M 247.007812 -201.117188 L 538.707031 134.617188 L 202.972656 426.3125 L -88.722656 90.578125 Z M 247.007812 -201.117188 " clip-rule="nonzero"/></clipPath><clipPath id="787e66a28d"><path d="M 247.007812 -201.117188 L 538.707031 134.617188 L 202.972656 426.3125 L -88.722656 90.578125 Z M 247.007812 -201.117188 " clip-rule="nonzero"/></clipPath><clipPath id="063389e3ba"><path d="M 247.007812 -201.117188 L 538.707031 134.617188 L 202.972656 426.3125 L -88.722656 90.578125 Z M 247.007812 -201.117188 " clip-rule="nonzero"/></clipPath><clipPath id="7a34682f1f"><path d="M 303.320312 158.449219 L 330.546875 189.78125 L 298.316406 217.785156 L 271.089844 186.449219 Z M 303.320312 158.449219 " clip-rule="nonzero"/></clipPath><clipPath id="758380bf37"><path d="M 303.320312 158.449219 L 330.546875 189.78125 L 298.316406 217.785156 L 271.089844 186.449219 Z M 303.320312 158.449219 " clip-rule="nonzero"/></clipPath><clipPath id="b64c639abb"><path d="M 253.351562 -195.628906 L 534.15625 127.570312 L 196.632812 420.820312 L -84.171875 97.625 Z M 253.351562 -195.628906 " clip-rule="nonzero"/></clipPath><clipPath id="ac24e980b9"><path d="M 25.722656 3.003906 L 424.214844 2.714844 L 424.375 222.421875 L 25.878906 222.710938 Z M 25.722656 3.003906 " clip-rule="nonzero"/></clipPath><clipPath id="679ff0809f"><path d="M 253.351562 -195.628906 L 534.15625 127.570312 L 196.632812 420.820312 L -84.171875 97.625 Z M 253.351562 -195.628906 " clip-rule="nonzero"/></clipPath><clipPath id="39d884b652"><path d="M 25.722656 3.003906 L 424.214844 2.714844 L 424.375 222.421875 L 25.878906 222.710938 Z M 25.722656 3.003906 " clip-rule="nonzero"/></clipPath><clipPath id="3ed7191de9"><path d="M 39 44 L 123 44 L 123 58 L 39 58 Z M 39 44 " clip-rule="nonzero"/></clipPath><clipPath id="5988726fff"><path d="M 247.007812 -201.117188 L 538.707031 134.617188 L 202.972656 426.3125 L -88.722656 90.578125 Z M 247.007812 -201.117188 " clip-rule="nonzero"/></clipPath><clipPath id="c060df4ac7"><path d="M 247.007812 -201.117188 L 538.707031 134.617188 L 202.972656 426.3125 L -88.722656 90.578125 Z M 247.007812 -201.117188 " clip-rule="nonzero"/></clipPath><clipPath id="b4597ff254"><path d="M 247.007812 -201.117188 L 538.707031 134.617188 L 202.972656 426.3125 L -88.722656 90.578125 Z M 247.007812 -201.117188 " clip-rule="nonzero"/></clipPath><clipPath id="6f51dccc71"><path d="M 86.179688 6.175781 L 125.851562 51.835938 L 75.714844 95.394531 L 36.042969 49.734375 Z M 86.179688 6.175781 " clip-rule="nonzero"/></clipPath><clipPath id="0a3f9de55a"><path d="M 86.179688 6.175781 L 125.851562 51.835938 L 75.714844 95.394531 L 36.042969 49.734375 Z M 86.179688 6.175781 " clip-rule="nonzero"/></clipPath><clipPath id="2f8bd03d3a"><path d="M 253.351562 -195.628906 L 534.15625 127.570312 L 196.632812 420.820312 L -84.171875 97.625 Z M 253.351562 -195.628906 " clip-rule="nonzero"/></clipPath><clipPath id="09c45e9dc6"><path d="M 25.722656 3.003906 L 424.214844 2.714844 L 424.375 222.421875 L 25.878906 222.710938 Z M 25.722656 3.003906 " clip-rule="nonzero"/></clipPath><clipPath id="255b021d63"><path d="M 253.351562 -195.628906 L 534.15625 127.570312 L 196.632812 420.820312 L -84.171875 97.625 Z M 253.351562 -195.628906 " clip-rule="nonzero"/></clipPath><clipPath id="f41a4de07f"><path d="M 25.722656 3.003906 L 424.214844 2.714844 L 424.375 222.421875 L 25.878906 222.710938 Z M 25.722656 3.003906 " clip-rule="nonzero"/></clipPath><clipPath id="6d4b0afe9a"><path d="M 39 64 L 109 64 L 109 79 L 39 79 Z M 39 64 " clip-rule="nonzero"/></clipPath><clipPath id="24e0de8f76"><path d="M 247.007812 -201.117188 L 538.707031 134.617188 L 202.972656 426.3125 L -88.722656 90.578125 Z M 247.007812 -201.117188 " clip-rule="nonzero"/></clipPath><clipPath id="ac5b1aa792"><path d="M 247.007812 -201.117188 L 538.707031 134.617188 L 202.972656 426.3125 L -88.722656 90.578125 Z M 247.007812 -201.117188 " clip-rule="nonzero"/></clipPath><clipPath id="fdec7037ac"><path d="M 247.007812 -201.117188 L 538.707031 134.617188 L 202.972656 426.3125 L -88.722656 90.578125 Z M 247.007812 -201.117188 " clip-rule="nonzero"/></clipPath><clipPath id="42fdedb4f8"><path d="M 79.164062 34.265625 L 111.835938 71.867188 L 68.859375 109.207031 L 36.191406 71.601562 Z M 79.164062 34.265625 " clip-rule="nonzero"/></clipPath><clipPath id="c378889c69"><path d="M 79.164062 34.265625 L 111.835938 71.867188 L 68.859375 109.207031 L 36.191406 71.601562 Z M 79.164062 34.265625 " clip-rule="nonzero"/></clipPath><clipPath id="f06479ecfd"><path d="M 253.351562 -195.628906 L 534.15625 127.570312 L 196.632812 420.820312 L -84.171875 97.625 Z M 253.351562 -195.628906 " clip-rule="nonzero"/></clipPath><clipPath id="418b574461"><path d="M 25.722656 3.003906 L 424.214844 2.714844 L 424.375 222.421875 L 25.878906 222.710938 Z M 25.722656 3.003906 " clip-rule="nonzero"/></clipPath><clipPath id="771f2332db"><path d="M 253.351562 -195.628906 L 534.15625 127.570312 L 196.632812 420.820312 L -84.171875 97.625 Z M 253.351562 -195.628906 " clip-rule="nonzero"/></clipPath><clipPath id="acd652e69b"><path d="M 25.722656 3.003906 L 424.214844 2.714844 L 424.375 222.421875 L 25.878906 222.710938 Z M 25.722656 3.003906 " clip-rule="nonzero"/></clipPath><clipPath id="2b5f5a762e"><path d="M 39 85 L 123 85 L 123 100 L 39 100 Z M 39 85 " clip-rule="nonzero"/></clipPath><clipPath id="a66e8d6c21"><path d="M 247.007812 -201.117188 L 538.707031 134.617188 L 202.972656 426.3125 L -88.722656 90.578125 Z M 247.007812 -201.117188 " clip-rule="nonzero"/></clipPath><clipPath id="820f517d8c"><path d="M 247.007812 -201.117188 L 538.707031 134.617188 L 202.972656 426.3125 L -88.722656 90.578125 Z M 247.007812 -201.117188 " clip-rule="nonzero"/></clipPath><clipPath id="d88d0b50f2"><path d="M 247.007812 -201.117188 L 538.707031 134.617188 L 202.972656 426.3125 L -88.722656 90.578125 Z M 247.007812 -201.117188 " clip-rule="nonzero"/></clipPath><clipPath id="1f9efdf420"><path d="M 86.589844 48.238281 L 125.484375 93.003906 L 75.347656 136.5625 L 36.453125 91.796875 Z M 86.589844 48.238281 " clip-rule="nonzero"/></clipPath><clipPath id="9d96f95849"><path d="M 86.589844 48.238281 L 125.484375 93.003906 L 75.347656 136.5625 L 36.453125 91.796875 Z M 86.589844 48.238281 " clip-rule="nonzero"/></clipPath><clipPath id="c94834d348"><path d="M 253.351562 -195.628906 L 534.15625 127.570312 L 196.632812 420.820312 L -84.171875 97.625 Z M 253.351562 -195.628906 " clip-rule="nonzero"/></clipPath><clipPath id="597f090193"><path d="M 25.722656 3.003906 L 424.214844 2.714844 L 424.375 222.421875 L 25.878906 222.710938 Z M 25.722656 3.003906 " clip-rule="nonzero"/></clipPath><clipPath id="d495ee5e7f"><path d="M 253.351562 -195.628906 L 534.15625 127.570312 L 196.632812 420.820312 L -84.171875 97.625 Z M 253.351562 -195.628906 " clip-rule="nonzero"/></clipPath><clipPath id="e59cee645c"><path d="M 25.722656 3.003906 L 424.214844 2.714844 L 424.375 222.421875 L 25.878906 222.710938 Z M 25.722656 3.003906 " clip-rule="nonzero"/></clipPath><clipPath id="478c35770a"><path d="M 39 105 L 116 105 L 116 120 L 39 120 Z M 39 105 " clip-rule="nonzero"/></clipPath><clipPath id="2b07ec0cc2"><path d="M 247.007812 -201.117188 L 538.707031 134.617188 L 202.972656 426.3125 L -88.722656 90.578125 Z M 247.007812 -201.117188 " clip-rule="nonzero"/></clipPath><clipPath id="4cee36bb84"><path d="M 247.007812 -201.117188 L 538.707031 134.617188 L 202.972656 426.3125 L -88.722656 90.578125 Z M 247.007812 -201.117188 " clip-rule="nonzero"/></clipPath><clipPath id="8d720cf83e"><path d="M 247.007812 -201.117188 L 538.707031 134.617188 L 202.972656 426.3125 L -88.722656 90.578125 Z M 247.007812 -201.117188 " clip-rule="nonzero"/></clipPath><clipPath id="e2a2e3ae92"><path d="M 82.378906 72.324219 L 118.160156 113.507812 L 72.5 153.175781 L 36.71875 111.992188 Z M 82.378906 72.324219 " clip-rule="nonzero"/></clipPath><clipPath id="9535207246"><path d="M 82.378906 72.324219 L 118.160156 113.507812 L 72.5 153.175781 L 36.71875 111.992188 Z M 82.378906 72.324219 " clip-rule="nonzero"/></clipPath><clipPath id="b966cf3413"><path d="M 253.351562 -195.628906 L 534.15625 127.570312 L 196.632812 420.820312 L -84.171875 97.625 Z M 253.351562 -195.628906 " clip-rule="nonzero"/></clipPath><clipPath id="b2ffd0cd4b"><path d="M 25.722656 3.003906 L 424.214844 2.714844 L 424.375 222.421875 L 25.878906 222.710938 Z M 25.722656 3.003906 " clip-rule="nonzero"/></clipPath><clipPath id="20d6567dee"><path d="M 253.351562 -195.628906 L 534.15625 127.570312 L 196.632812 420.820312 L -84.171875 97.625 Z M 253.351562 -195.628906 " clip-rule="nonzero"/></clipPath><clipPath id="890c9fcbee"><path d="M 25.722656 3.003906 L 424.214844 2.714844 L 424.375 222.421875 L 25.878906 222.710938 Z M 25.722656 3.003906 " clip-rule="nonzero"/></clipPath><clipPath id="75989422fd"><path d="M 39 126 L 123 126 L 123 141 L 39 141 Z M 39 126 " clip-rule="nonzero"/></clipPath><clipPath id="ce99bf3fb0"><path d="M 247.007812 -201.117188 L 538.707031 134.617188 L 202.972656 426.3125 L -88.722656 90.578125 Z M 247.007812 -201.117188 " clip-rule="nonzero"/></clipPath><clipPath id="77db4f91c5"><path d="M 247.007812 -201.117188 L 538.707031 134.617188 L 202.972656 426.3125 L -88.722656 90.578125 Z M 247.007812 -201.117188 " clip-rule="nonzero"/></clipPath><clipPath id="d5ee8e42d5"><path d="M 247.007812 -201.117188 L 538.707031 134.617188 L 202.972656 426.3125 L -88.722656 90.578125 Z M 247.007812 -201.117188 " clip-rule="nonzero"/></clipPath><clipPath id="f6362c2932"><path d="M 86.222656 89.40625 L 125.117188 134.171875 L 74.980469 177.730469 L 36.085938 132.964844 Z M 86.222656 89.40625 " clip-rule="nonzero"/></clipPath><clipPath id="0b7984d654"><path d="M 86.222656 89.40625 L 125.117188 134.171875 L 74.980469 177.730469 L 36.085938 132.964844 Z M 86.222656 89.40625 " clip-rule="nonzero"/></clipPath><clipPath id="8bfddc0147"><path d="M 253.351562 -195.628906 L 534.15625 127.570312 L 196.632812 420.820312 L -84.171875 97.625 Z M 253.351562 -195.628906 " clip-rule="nonzero"/></clipPath><clipPath id="82f8fc93d1"><path d="M 25.722656 3.003906 L 424.214844 2.714844 L 424.375 222.421875 L 25.878906 222.710938 Z M 25.722656 3.003906 " clip-rule="nonzero"/></clipPath><clipPath id="fef1d6582f"><path d="M 253.351562 -195.628906 L 534.15625 127.570312 L 196.632812 420.820312 L -84.171875 97.625 Z M 253.351562 -195.628906 " clip-rule="nonzero"/></clipPath><clipPath id="9dd5e6ac70"><path d="M 25.722656 3.003906 L 424.214844 2.714844 L 424.375 222.421875 L 25.878906 222.710938 Z M 25.722656 3.003906 " clip-rule="nonzero"/></clipPath><clipPath id="70db19cebf"><path d="M 39 147 L 109 147 L 109 161 L 39 161 Z M 39 147 " clip-rule="nonzero"/></clipPath><clipPath id="2c4ead7bb4"><path d="M 247.007812 -201.117188 L 538.707031 134.617188 L 202.972656 426.3125 L -88.722656 90.578125 Z M 247.007812 -201.117188 " clip-rule="nonzero"/></clipPath><clipPath id="3a8e52828a"><path d="M 247.007812 -201.117188 L 538.707031 134.617188 L 202.972656 426.3125 L -88.722656 90.578125 Z M 247.007812 -201.117188 " clip-rule="nonzero"/></clipPath><clipPath id="e504a1bd39"><path d="M 247.007812 -201.117188 L 538.707031 134.617188 L 202.972656 426.3125 L -88.722656 90.578125 Z M 247.007812 -201.117188 " clip-rule="nonzero"/></clipPath><clipPath id="78c15be544"><path d="M 78.429688 116.601562 L 111.878906 155.101562 L 69.800781 191.660156 L 36.351562 153.160156 Z M 78.429688 116.601562 " clip-rule="nonzero"/></clipPath><clipPath id="9e6cefec7a"><path d="M 78.429688 116.601562 L 111.878906 155.101562 L 69.800781 191.660156 L 36.351562 153.160156 Z M 78.429688 116.601562 " clip-rule="nonzero"/></clipPath><clipPath id="05c964ee01"><path d="M 253.351562 -195.628906 L 534.15625 127.570312 L 196.632812 420.820312 L -84.171875 97.625 Z M 253.351562 -195.628906 " clip-rule="nonzero"/></clipPath><clipPath id="cb0c467f0f"><path d="M 25.722656 3.003906 L 424.214844 2.714844 L 424.375 222.421875 L 25.878906 222.710938 Z M 25.722656 3.003906 " clip-rule="nonzero"/></clipPath><clipPath id="703220dec2"><path d="M 253.351562 -195.628906 L 534.15625 127.570312 L 196.632812 420.820312 L -84.171875 97.625 Z M 253.351562 -195.628906 " clip-rule="nonzero"/></clipPath><clipPath id="a46e1415e2"><path d="M 25.722656 3.003906 L 424.214844 2.714844 L 424.375 222.421875 L 25.878906 222.710938 Z M 25.722656 3.003906 " clip-rule="nonzero"/></clipPath><clipPath id="1f19e7ee24"><path d="M 39 167 L 123 167 L 123 182 L 39 182 Z M 39 167 " clip-rule="nonzero"/></clipPath><clipPath id="b790200f28"><path d="M 247.007812 -201.117188 L 538.707031 134.617188 L 202.972656 426.3125 L -88.722656 90.578125 Z M 247.007812 -201.117188 " clip-rule="nonzero"/></clipPath><clipPath id="355f39d579"><path d="M 247.007812 -201.117188 L 538.707031 134.617188 L 202.972656 426.3125 L -88.722656 90.578125 Z M 247.007812 -201.117188 " clip-rule="nonzero"/></clipPath><clipPath id="344b0ed3fb"><path d="M 247.007812 -201.117188 L 538.707031 134.617188 L 202.972656 426.3125 L -88.722656 90.578125 Z M 247.007812 -201.117188 " clip-rule="nonzero"/></clipPath><clipPath id="97c6a157db"><path d="M 86.75 129.796875 L 126.421875 175.457031 L 75.390625 219.792969 L 35.71875 174.132812 Z M 86.75 129.796875 " clip-rule="nonzero"/></clipPath><clipPath id="0e1071c486"><path d="M 86.75 129.796875 L 126.421875 175.457031 L 75.390625 219.792969 L 35.71875 174.132812 Z M 86.75 129.796875 " clip-rule="nonzero"/></clipPath><clipPath id="6dd93a3ada"><path d="M 253.351562 -195.628906 L 534.15625 127.570312 L 196.632812 420.820312 L -84.171875 97.625 Z M 253.351562 -195.628906 " clip-rule="nonzero"/></clipPath><clipPath id="7e0df8fd14"><path d="M 25.722656 3.003906 L 424.214844 2.714844 L 424.375 222.421875 L 25.878906 222.710938 Z M 25.722656 3.003906 " clip-rule="nonzero"/></clipPath><clipPath id="543807cc5b"><path d="M 253.351562 -195.628906 L 534.15625 127.570312 L 196.632812 420.820312 L -84.171875 97.625 Z M 253.351562 -195.628906 " clip-rule="nonzero"/></clipPath><clipPath id="74d637e1e1"><path d="M 25.722656 3.003906 L 424.214844 2.714844 L 424.375 222.421875 L 25.878906 222.710938 Z M 25.722656 3.003906 " clip-rule="nonzero"/></clipPath></defs><g clip-path="url(#d5614c330a)"><g clip-path="url(#95779bad48)"><g clip-path="url(#1193d80dc2)"><g clip-path="url(#083960d96f)"><g clip-path="url(#8da0f0fe05)"><g clip-path="url(#75ee0f5a9e)"><g clip-path="url(#baa0bb8f29)"><g clip-path="url(#d0e20a2b41)"><g clip-path="url(#9cfa49aecc)"><g clip-path="url(#ec2f9f7d06)"><path fill="#f03612" d="M 417.195312 194.960938 C 419.5625 194.960938 421.863281 195.261719 424.058594 195.824219 L 424.046875 181.226562 L 410.316406 167.503906 L 424.027344 153.761719 L 410.300781 140.042969 L 424.003906 126.300781 L 410.28125 112.578125 L 423.988281 98.835938 L 410.257812 85.117188 L 423.96875 71.371094 L 410.238281 57.652344 L 423.945312 43.910156 L 423.9375 29.3125 C 421.746094 29.878906 419.445312 30.183594 417.078125 30.183594 C 401.921875 30.195312 389.628906 17.910156 389.617188 2.742188 L 60.320312 2.976562 C 60.328125 18.148438 48.054688 30.449219 32.898438 30.460938 C 30.53125 30.460938 28.230469 30.164062 26.039062 29.601562 L 26.160156 196.109375 C 28.347656 195.542969 30.644531 195.242188 33.015625 195.238281 C 48.171875 195.226562 60.46875 207.515625 60.480469 222.683594 L 389.773438 222.445312 C 389.765625 207.28125 402.042969 194.976562 417.195312 194.960938 Z M 417.195312 194.960938 " fill-opacity="1" fill-rule="nonzero"/></g></g></g></g></g></g></g></g></g></g><g clip-path="url(#7a38e7f6f7)"><g clip-path="url(#38467526b8)"><g clip-path="url(#8de7815fce)"><g clip-path="url(#be8cd793f9)"><g clip-path="url(#14514778e4)"><g clip-path="url(#f67f992cbf)"><g clip-path="url(#919b35083e)"><g clip-path="url(#b4317e6d57)"><g clip-path="url(#3b0ed44433)"><g clip-path="url(#c63fd1ef4e)"><path fill="#5e17eb" d="M 163.238281 23.5 L 375.910156 23.347656 L 375.980469 119.46875 L 163.3125 119.625 Z M 163.238281 23.5 " fill-opacity="1" fill-rule="nonzero"/></g></g></g></g></g></g></g></g></g></g><g clip-path="url(#9e7869825b)"><g clip-path="url(#1a03116bce)"><g clip-path="url(#9528f081a6)"><g clip-path="url(#d151e2f7b2)"><g clip-path="url(#023c8b1542)"><g clip-path="url(#0023be793d)"><g clip-path="url(#baa2d67738)"><g clip-path="url(#6544fb6c07)"><g clip-path="url(#7640c51d7e)"><g clip-path="url(#d17e3456ea)"><path fill="#ffffff" d="M 259.34375 105.820312 C 255.554688 105.824219 252.480469 102.753906 252.480469 98.964844 L 252.453125 57.765625 C 252.449219 53.980469 249.367188 50.902344 245.582031 50.90625 C 241.800781 50.910156 238.726562 53.992188 238.726562 57.777344 L 238.757812 98.972656 C 238.761719 102.761719 235.691406 105.839844 231.90625 105.839844 C 228.113281 105.84375 225.039062 102.773438 225.035156 98.980469 L 225.003906 57.785156 C 225 46.429688 234.226562 37.183594 245.574219 37.171875 C 256.921875 37.164062 266.160156 46.398438 266.171875 57.753906 L 266.199219 98.949219 C 266.203125 102.746094 263.132812 105.816406 259.34375 105.820312 Z M 259.34375 105.820312 " fill-opacity="1" fill-rule="nonzero"/></g></g></g></g></g></g></g></g></g></g><g clip-path="url(#30e3fcf64b)"><g clip-path="url(#5ce3444d50)"><g clip-path="url(#dd6fae63d8)"><g clip-path="url(#f1a8b8efc5)"><g clip-path="url(#3f9e336836)"><g clip-path="url(#36b3db5c33)"><g clip-path="url(#a61c625df6)"><g clip-path="url(#e843ce601a)"><g clip-path="url(#0b475107ca)"><g clip-path="url(#709989e1c7)"><path fill="#ffffff" d="M 259.328125 78.359375 L 231.882812 78.378906 C 228.09375 78.378906 225.019531 75.308594 225.015625 71.515625 C 225.015625 67.726562 228.082031 64.648438 231.875 64.644531 L 259.316406 64.628906 C 263.105469 64.625 266.175781 67.695312 266.179688 71.488281 C 266.183594 75.28125 263.113281 78.359375 259.328125 78.359375 Z M 259.328125 78.359375 " fill-opacity="1" fill-rule="nonzero"/></g></g></g></g></g></g></g></g></g></g><g clip-path="url(#18685b80d2)"><g clip-path="url(#cb055df5a0)"><g clip-path="url(#6529a07a05)"><g clip-path="url(#a8a03321b0)"><g clip-path="url(#e6b1704520)"><g clip-path="url(#9cddaa10e1)"><g clip-path="url(#a18ec5feb0)"><g clip-path="url(#9c879a5351)"><g clip-path="url(#5f09ec3c43)"><g clip-path="url(#3604a262e2)"><path fill="#ffffff" d="M 307.367188 105.785156 L 279.925781 105.808594 C 276.140625 105.808594 273.0625 102.738281 273.0625 98.945312 L 273.019531 44.015625 C 273.019531 40.226562 276.085938 37.148438 279.875 37.148438 C 283.664062 37.144531 286.738281 40.21875 286.742188 44.007812 L 286.773438 92.070312 L 307.355469 92.054688 C 311.144531 92.050781 314.222656 95.125 314.21875 98.917969 C 314.222656 102.707031 311.152344 105.785156 307.367188 105.785156 Z M 307.367188 105.785156 " fill-opacity="1" fill-rule="nonzero"/></g></g></g></g></g></g></g></g></g></g><g clip-path="url(#9c1c258118)"><g clip-path="url(#bfa20ac68a)"><g clip-path="url(#482d688e28)"><g clip-path="url(#12365b73ab)"><g clip-path="url(#7bf4b8ef14)"><g clip-path="url(#8ab5cc187c)"><g clip-path="url(#5de76f6643)"><g clip-path="url(#d77e221527)"><g clip-path="url(#90feb4c3dc)"><g clip-path="url(#5b32a3efb2)"><path fill="#ffffff" d="M 355.386719 105.753906 L 327.945312 105.769531 C 324.164062 105.773438 321.085938 102.703125 321.085938 98.914062 L 321.042969 43.984375 C 321.042969 40.191406 324.109375 37.117188 327.898438 37.113281 L 355.339844 37.09375 C 359.128906 37.09375 362.203125 40.160156 362.207031 43.953125 C 362.207031 47.746094 359.140625 50.824219 355.351562 50.828125 L 334.765625 50.839844 L 334.796875 92.035156 L 355.378906 92.019531 C 359.167969 92.019531 362.242188 95.089844 362.246094 98.882812 C 362.246094 102.671875 359.179688 105.75 355.386719 105.753906 Z M 355.386719 105.753906 " fill-opacity="1" fill-rule="nonzero"/></g></g></g></g></g></g></g></g></g></g><g clip-path="url(#1d1f9aca44)"><g clip-path="url(#80bf7db359)"><g clip-path="url(#6dcadfe178)"><g clip-path="url(#29f0b35d01)"><g clip-path="url(#6e84e372f4)"><g clip-path="url(#9fd6fc2ea7)"><g clip-path="url(#d42dd01529)"><g clip-path="url(#52856377f1)"><g clip-path="url(#3262350950)"><g clip-path="url(#341a0b3a6d)"><path fill="#ffffff" d="M 355.367188 78.289062 L 327.929688 78.308594 C 324.140625 78.3125 321.066406 75.238281 321.066406 71.445312 C 321.0625 67.65625 324.132812 64.578125 327.917969 64.578125 L 355.359375 64.5625 C 359.144531 64.554688 362.222656 67.625 362.226562 71.417969 C 362.230469 75.210938 359.15625 78.285156 355.367188 78.289062 Z M 355.367188 78.289062 " fill-opacity="1" fill-rule="nonzero"/></g></g></g></g></g></g></g></g></g></g><g clip-path="url(#3ad8308e35)"><g clip-path="url(#0734640a65)"><g clip-path="url(#f041ac8838)"><g clip-path="url(#39b31e05f0)"><g clip-path="url(#99c87392f7)"><g clip-path="url(#6e5de32dc9)"><g clip-path="url(#724eb6ecfd)"><g clip-path="url(#9f7aece5d0)"><g clip-path="url(#f5a3c08af7)"><g clip-path="url(#c64719d94d)"><path fill="#ffffff" d="M 204.464844 105.859375 L 190.738281 105.871094 C 183.175781 105.875 177.015625 99.71875 177.011719 92.148438 C 177.007812 88.355469 180.078125 85.28125 183.867188 85.28125 C 187.652344 85.273438 190.726562 88.347656 190.730469 92.136719 C 190.730469 92.144531 190.734375 92.148438 190.734375 92.148438 L 204.453125 92.128906 L 204.441406 78.398438 L 190.722656 78.410156 C 183.15625 78.410156 176.992188 72.257812 176.988281 64.6875 L 176.980469 50.953125 C 176.976562 43.382812 183.128906 37.21875 190.691406 37.214844 L 204.410156 37.203125 C 211.976562 37.199219 218.136719 43.355469 218.140625 50.921875 C 218.148438 54.71875 215.074219 57.792969 211.285156 57.796875 C 207.5 57.796875 204.425781 54.726562 204.421875 50.9375 L 190.703125 50.945312 L 190.714844 64.675781 L 204.433594 64.667969 C 212 64.664062 218.15625 70.820312 218.160156 78.386719 L 218.171875 92.121094 C 218.179688 99.691406 212.027344 105.855469 204.464844 105.859375 Z M 204.464844 105.859375 " fill-opacity="1" fill-rule="nonzero"/></g></g></g></g></g></g></g></g></g></g><g clip-path="url(#dd4a107f1f)"><g clip-path="url(#edeaa10fcc)"><g clip-path="url(#70957f798b)"><g clip-path="url(#1380b4652a)"><g clip-path="url(#58336e879b)"><g clip-path="url(#e662661d8b)"><g clip-path="url(#b1fc006871)"><g clip-path="url(#a57248e630)"><g clip-path="url(#9676d18455)"><g clip-path="url(#5fc41d11e1)"><path fill="#f7d101" d="M 135.808594 37.253906 C 132.019531 37.257812 128.945312 34.183594 128.945312 30.390625 L 128.9375 23.523438 C 128.933594 19.734375 132.003906 16.65625 135.789062 16.65625 C 139.582031 16.652344 142.65625 19.726562 142.660156 23.515625 L 142.667969 30.382812 C 142.664062 34.175781 139.601562 37.25 135.808594 37.253906 Z M 135.808594 37.253906 " fill-opacity="1" fill-rule="nonzero"/></g></g></g></g></g></g></g></g></g></g><g clip-path="url(#31cfff1cc6)"><g clip-path="url(#4fe703b799)"><g clip-path="url(#16f63b7e51)"><g clip-path="url(#e1633e0d42)"><g clip-path="url(#4509abc784)"><g clip-path="url(#49f5403dd0)"><g clip-path="url(#277c214b88)"><g clip-path="url(#94089e995c)"><g clip-path="url(#3cdba6799b)"><g clip-path="url(#7bb662976b)"><path fill="#f7d101" d="M 135.828125 64.714844 C 132.039062 64.722656 128.96875 61.644531 128.964844 57.855469 L 128.957031 50.988281 C 128.953125 47.199219 132.023438 44.121094 135.8125 44.117188 C 139.601562 44.117188 142.675781 47.191406 142.679688 50.980469 L 142.683594 57.84375 C 142.6875 61.636719 139.617188 64.710938 135.828125 64.714844 Z M 135.828125 64.714844 " fill-opacity="1" fill-rule="nonzero"/></g></g></g></g></g></g></g></g></g></g><g clip-path="url(#900ef56039)"><g clip-path="url(#223c6ddc09)"><g clip-path="url(#23801eafc6)"><g clip-path="url(#a9bd03fde3)"><g clip-path="url(#808eedb03b)"><g clip-path="url(#4fea4bd89c)"><g clip-path="url(#c69ca8b961)"><g clip-path="url(#110fe7be61)"><g clip-path="url(#a749135923)"><g clip-path="url(#3b1b3e3eed)"><path fill="#f7d101" d="M 135.847656 92.179688 C 132.058594 92.179688 128.988281 89.109375 128.980469 85.316406 L 128.976562 78.453125 C 128.976562 74.660156 132.042969 71.585938 135.832031 71.582031 C 139.625 71.578125 142.695312 74.648438 142.699219 78.445312 L 142.703125 85.308594 C 142.707031 89.097656 139.636719 92.175781 135.847656 92.179688 Z M 135.847656 92.179688 " fill-opacity="1" fill-rule="nonzero"/></g></g></g></g></g></g></g></g></g></g><g clip-path="url(#ef4afd337a)"><g clip-path="url(#a731491f5d)"><g clip-path="url(#c15755d341)"><g clip-path="url(#a226e15176)"><g clip-path="url(#28925ed6fd)"><g clip-path="url(#3d48494b8e)"><g clip-path="url(#6e68037a60)"><g clip-path="url(#60c582dca7)"><g clip-path="url(#c8b8bb350f)"><g clip-path="url(#c0de381a3b)"><path fill="#f7d101" d="M 135.929688 208.898438 C 132.144531 208.902344 129.070312 205.828125 129.066406 202.039062 L 129.0625 195.171875 C 129.0625 191.378906 132.128906 188.304688 135.917969 188.300781 C 139.707031 188.296875 142.78125 191.371094 142.78125 195.164062 L 142.785156 202.027344 C 142.792969 205.820312 139.71875 208.894531 135.929688 208.898438 Z M 135.929688 208.898438 " fill-opacity="1" fill-rule="nonzero"/></g></g></g></g></g></g></g></g></g></g><g clip-path="url(#1b508ff2c9)"><g clip-path="url(#b2e4569d51)"><g clip-path="url(#195f248456)"><g clip-path="url(#eb07bc4762)"><g clip-path="url(#dffef04f38)"><g clip-path="url(#1693ba273f)"><g clip-path="url(#a60bc5957c)"><g clip-path="url(#a95dedfb81)"><g clip-path="url(#02372b68a5)"><g clip-path="url(#070eba0db7)"><path fill="#f7d101" d="M 135.914062 181.4375 C 132.125 181.4375 129.046875 178.367188 129.046875 174.574219 L 129.042969 167.707031 C 129.039062 163.917969 132.109375 160.839844 135.898438 160.835938 C 139.683594 160.835938 142.757812 163.90625 142.761719 167.699219 L 142.769531 174.566406 C 142.769531 178.359375 139.703125 181.433594 135.914062 181.4375 Z M 135.914062 181.4375 " fill-opacity="1" fill-rule="nonzero"/></g></g></g></g></g></g></g></g></g></g><g clip-path="url(#4923acd70d)"><g clip-path="url(#954887d4af)"><g clip-path="url(#5cba8e7c5e)"><g clip-path="url(#62bd47af14)"><g clip-path="url(#22c98dab87)"><g clip-path="url(#bcb1a557fb)"><g clip-path="url(#e847743ca9)"><g clip-path="url(#e8ceea77f5)"><g clip-path="url(#34510bb7f6)"><g clip-path="url(#96024ddbc2)"><path fill="#f7d101" d="M 135.894531 153.972656 C 132.101562 153.972656 129.027344 150.902344 129.023438 147.113281 L 129.023438 140.246094 C 129.019531 136.453125 132.089844 133.375 135.878906 133.375 C 139.667969 133.371094 142.738281 136.441406 142.746094 140.234375 L 142.75 147.097656 C 142.75 150.890625 139.683594 153.96875 135.894531 153.972656 Z M 135.894531 153.972656 " fill-opacity="1" fill-rule="nonzero"/></g></g></g></g></g></g></g></g></g></g><g clip-path="url(#975fefd2b3)"><g clip-path="url(#87f244d0b9)"><g clip-path="url(#90c52c0f0d)"><g clip-path="url(#bfa10d5bbf)"><g clip-path="url(#5598b0963b)"><g clip-path="url(#84c5e87aa8)"><g clip-path="url(#4e5b968d0b)"><g clip-path="url(#c9cfe20649)"><g clip-path="url(#e54505cd00)"><g clip-path="url(#60bfc76934)"><path fill="#f7d101" d="M 135.875 126.507812 C 132.082031 126.507812 129.011719 123.441406 129.003906 119.648438 L 129 105.914062 C 128.996094 102.121094 132.066406 99.046875 135.851562 99.046875 C 139.640625 99.039062 142.714844 102.113281 142.71875 105.902344 L 142.726562 119.636719 C 142.730469 123.425781 139.660156 126.503906 135.875 126.507812 Z M 135.875 126.507812 " fill-opacity="1" fill-rule="nonzero"/></g></g></g></g></g></g></g></g></g></g><g clip-path="url(#3223365bd2)"><g clip-path="url(#e633043f68)"><g clip-path="url(#369885a5ed)"><g clip-path="url(#24fcfe9e27)"><g clip-path="url(#f175c1269b)"><g clip-path="url(#f7950e5c26)"><g clip-path="url(#bb14e91b34)"><g clip-path="url(#5dce1c53be)"><g clip-path="url(#58924b6a16)"><g clip-path="url(#b90eda7ed6)"><path fill="#5e17eb" d="M 238.835938 208.828125 C 237.082031 208.824219 235.328125 208.15625 233.988281 206.816406 C 231.300781 204.136719 231.300781 199.792969 233.980469 197.109375 L 288.820312 142.140625 C 291.496094 139.457031 295.84375 139.457031 298.523438 142.136719 C 301.207031 144.8125 301.210938 149.160156 298.53125 151.84375 L 243.6875 206.808594 C 242.347656 208.152344 240.59375 208.820312 238.835938 208.828125 Z M 238.835938 208.828125 " fill-opacity="1" fill-rule="nonzero"/></g></g></g></g></g></g></g></g></g></g><g clip-path="url(#969f646239)"><g clip-path="url(#514abbf2f6)"><g clip-path="url(#651c413638)"><g clip-path="url(#927244585b)"><g clip-path="url(#285d34323f)"><g clip-path="url(#8dcd1bcf73)"><g clip-path="url(#3ff705b04d)"><g clip-path="url(#3b6c366788)"><g clip-path="url(#127e3e3db0)"><g clip-path="url(#a28cb11859)"><path fill="#5e17eb" d="M 231.957031 181.363281 C 220.605469 181.375 211.371094 172.140625 211.363281 160.78125 C 211.351562 149.425781 220.582031 140.179688 231.929688 140.171875 C 243.277344 140.160156 252.515625 149.398438 252.523438 160.75 C 252.53125 172.109375 243.308594 181.359375 231.957031 181.363281 Z M 231.9375 153.90625 C 228.15625 153.90625 225.082031 156.988281 225.085938 160.773438 C 225.085938 164.558594 228.164062 167.640625 231.949219 167.636719 C 235.730469 167.632812 238.804688 164.550781 238.804688 160.765625 C 238.796875 156.976562 235.71875 153.902344 231.9375 153.90625 Z M 231.9375 153.90625 " fill-opacity="1" fill-rule="nonzero"/></g></g></g></g></g></g></g></g></g></g><g clip-path="url(#fa77cf6a56)"><g clip-path="url(#7f3efa44cf)"><g clip-path="url(#787e66a28d)"><g clip-path="url(#063389e3ba)"><g clip-path="url(#7a34682f1f)"><g clip-path="url(#758380bf37)"><g clip-path="url(#b64c639abb)"><g clip-path="url(#ac24e980b9)"><g clip-path="url(#679ff0809f)"><g clip-path="url(#39d884b652)"><path fill="#5e17eb" d="M 300.578125 208.777344 C 289.234375 208.789062 279.996094 199.554688 279.984375 188.199219 C 279.976562 176.839844 289.203125 167.59375 300.550781 167.585938 C 311.902344 167.574219 321.136719 176.808594 321.144531 188.167969 C 321.15625 199.523438 311.929688 208.769531 300.578125 208.777344 Z M 300.5625 181.316406 C 296.777344 181.320312 293.703125 184.398438 293.707031 188.1875 C 293.710938 191.972656 296.789062 195.050781 300.570312 195.046875 C 304.351562 195.042969 307.429688 191.964844 307.425781 188.175781 C 307.421875 184.390625 304.347656 181.3125 300.5625 181.316406 Z M 300.5625 181.316406 " fill-opacity="1" fill-rule="nonzero"/></g></g></g></g></g></g></g></g></g></g><g clip-path="url(#3ed7191de9)"><g clip-path="url(#5988726fff)"><g clip-path="url(#c060df4ac7)"><g clip-path="url(#b4597ff254)"><g clip-path="url(#6f51dccc71)"><g clip-path="url(#0a3f9de55a)"><g clip-path="url(#2f8bd03d3a)"><g clip-path="url(#09c45e9dc6)"><g clip-path="url(#255b021d63)"><g clip-path="url(#f41a4de07f)"><path fill="#ffffff" d="M 115.242188 57.863281 L 46.636719 57.917969 C 42.851562 57.917969 39.777344 54.84375 39.773438 51.054688 C 39.769531 47.265625 42.839844 44.1875 46.628906 44.183594 L 115.230469 44.132812 C 119.023438 44.132812 122.097656 47.203125 122.097656 50.996094 C 122.101562 54.785156 119.03125 57.863281 115.242188 57.863281 Z M 115.242188 57.863281 " fill-opacity="1" fill-rule="nonzero"/></g></g></g></g></g></g></g></g></g></g><g clip-path="url(#6d4b0afe9a)"><g clip-path="url(#24e0de8f76)"><g clip-path="url(#ac5b1aa792)"><g clip-path="url(#fdec7037ac)"><g clip-path="url(#42fdedb4f8)"><g clip-path="url(#c378889c69)"><g clip-path="url(#f06479ecfd)"><g clip-path="url(#418b574461)"><g clip-path="url(#771f2332db)"><g clip-path="url(#acd652e69b)"><path fill="#ffffff" d="M 101.535156 78.472656 L 46.65625 78.511719 C 42.863281 78.515625 39.789062 75.441406 39.785156 71.652344 C 39.785156 67.859375 42.851562 64.785156 46.644531 64.78125 L 101.527344 64.738281 C 105.3125 64.738281 108.386719 67.8125 108.390625 71.601562 C 108.394531 75.390625 105.324219 78.46875 101.535156 78.472656 Z M 101.535156 78.472656 " fill-opacity="1" fill-rule="nonzero"/></g></g></g></g></g></g></g></g></g></g><g clip-path="url(#2b5f5a762e)"><g clip-path="url(#a66e8d6c21)"><g clip-path="url(#820f517d8c)"><g clip-path="url(#d88d0b50f2)"><g clip-path="url(#1f9efdf420)"><g clip-path="url(#9d96f95849)"><g clip-path="url(#c94834d348)"><g clip-path="url(#597f090193)"><g clip-path="url(#d495ee5e7f)"><g clip-path="url(#e59cee645c)"><path fill="#ffffff" d="M 115.273438 99.058594 L 46.667969 99.109375 C 42.878906 99.109375 39.808594 96.039062 39.800781 92.246094 C 39.800781 88.457031 42.867188 85.378906 46.660156 85.375 L 115.261719 85.328125 C 119.050781 85.324219 122.125 88.394531 122.125 92.1875 C 122.132812 95.984375 119.058594 99.058594 115.273438 99.058594 Z M 115.273438 99.058594 " fill-opacity="1" fill-rule="nonzero"/></g></g></g></g></g></g></g></g></g></g><g clip-path="url(#478c35770a)"><g clip-path="url(#2b07ec0cc2)"><g clip-path="url(#4cee36bb84)"><g clip-path="url(#8d720cf83e)"><g clip-path="url(#e2a2e3ae92)"><g clip-path="url(#9535207246)"><g clip-path="url(#b966cf3413)"><g clip-path="url(#b2ffd0cd4b)"><g clip-path="url(#20d6567dee)"><g clip-path="url(#890c9fcbee)"><path fill="#ffffff" d="M 108.425781 119.660156 L 46.6875 119.707031 C 42.894531 119.710938 39.820312 116.636719 39.816406 112.847656 C 39.816406 109.054688 42.882812 105.980469 46.675781 105.976562 L 108.414062 105.929688 C 112.207031 105.925781 115.28125 109 115.28125 112.792969 C 115.285156 116.582031 112.214844 119.660156 108.425781 119.660156 Z M 108.425781 119.660156 " fill-opacity="1" fill-rule="nonzero"/></g></g></g></g></g></g></g></g></g></g><g clip-path="url(#75989422fd)"><g clip-path="url(#ce99bf3fb0)"><g clip-path="url(#77db4f91c5)"><g clip-path="url(#d5ee8e42d5)"><g clip-path="url(#f6362c2932)"><g clip-path="url(#0b7984d654)"><g clip-path="url(#8bfddc0147)"><g clip-path="url(#82f8fc93d1)"><g clip-path="url(#fef1d6582f)"><g clip-path="url(#9dd5e6ac70)"><path fill="#ffffff" d="M 115.304688 140.253906 L 46.699219 140.304688 C 42.910156 140.308594 39.832031 137.234375 39.832031 133.441406 C 39.832031 129.652344 42.898438 126.574219 46.691406 126.570312 L 115.292969 126.523438 C 119.082031 126.519531 122.15625 129.59375 122.15625 133.386719 C 122.160156 137.175781 119.089844 140.253906 115.304688 140.253906 Z M 115.304688 140.253906 " fill-opacity="1" fill-rule="nonzero"/></g></g></g></g></g></g></g></g></g></g><g clip-path="url(#70db19cebf)"><g clip-path="url(#2c4ead7bb4)"><g clip-path="url(#3a8e52828a)"><g clip-path="url(#e504a1bd39)"><g clip-path="url(#78c15be544)"><g clip-path="url(#9e6cefec7a)"><g clip-path="url(#05c964ee01)"><g clip-path="url(#cb0c467f0f)"><g clip-path="url(#703220dec2)"><g clip-path="url(#a46e1415e2)"><path fill="#ffffff" d="M 101.59375 160.859375 L 46.714844 160.898438 C 42.925781 160.902344 39.851562 157.835938 39.847656 154.039062 C 39.847656 150.246094 42.914062 147.171875 46.703125 147.167969 L 101.585938 147.132812 C 105.375 147.125 108.449219 150.199219 108.453125 153.988281 C 108.453125 157.785156 105.386719 160.855469 101.59375 160.859375 Z M 101.59375 160.859375 " fill-opacity="1" fill-rule="nonzero"/></g></g></g></g></g></g></g></g></g></g><g clip-path="url(#1f19e7ee24)"><g clip-path="url(#b790200f28)"><g clip-path="url(#355f39d579)"><g clip-path="url(#344b0ed3fb)"><g clip-path="url(#97c6a157db)"><g clip-path="url(#0e1071c486)"><g clip-path="url(#6dd93a3ada)"><g clip-path="url(#7e0df8fd14)"><g clip-path="url(#543807cc5b)"><g clip-path="url(#74d637e1e1)"><path fill="#ffffff" d="M 115.332031 181.453125 L 46.726562 181.5 C 42.941406 181.503906 39.863281 178.433594 39.863281 174.640625 C 39.859375 170.847656 42.929688 167.769531 46.71875 167.769531 L 115.324219 167.71875 C 119.113281 167.714844 122.183594 170.785156 122.1875 174.582031 C 122.191406 178.371094 119.117188 181.445312 115.332031 181.453125 Z M 115.332031 181.453125 " fill-opacity="1" fill-rule="nonzero"/></g></g></g></g></g></g></g></g></g></g></svg>