<svg xmlns="http://www.w3.org/2000/svg" xmlns:xlink="http://www.w3.org/1999/xlink" width="500" zoomAndPan="magnify" viewBox="0 0 375 374.999991" height="500" preserveAspectRatio="xMidYMid meet" version="1.0"><defs><clipPath id="942dcbab55"><path d="M 154 23.179688 L 231 23.179688 L 231 100 L 154 100 Z M 154 23.179688 " clip-rule="nonzero"/></clipPath><clipPath id="e7317c7fff"><path d="M 234 77 L 328.933594 77 L 328.933594 351.679688 L 234 351.679688 Z M 234 77 " clip-rule="nonzero"/></clipPath><clipPath id="929b960b97"><path d="M 46.183594 77 L 253 77 L 253 351.679688 L 46.183594 351.679688 Z M 46.183594 77 " clip-rule="nonzero"/></clipPath><clipPath id="cf3439c6b0"><path d="M 118 23.179688 L 195 23.179688 L 195 100 L 118 100 Z M 118 23.179688 " clip-rule="nonzero"/></clipPath></defs><g clip-path="url(#942dcbab55)"><path fill="#e7380f" d="M 162.535156 95.84375 L 162.535156 60.003906 C 162.554688 52.125 165.851562 45.007812 171.273438 39.792969 C 176.695312 34.59375 184.195312 31.351562 192.539062 31.351562 C 200.886719 31.351562 208.382812 34.59375 213.824219 39.792969 C 219.246094 45.007812 222.546875 52.125 222.546875 60.003906 L 222.546875 95.84375 C 222.546875 98.101562 224.382812 99.921875 226.625 99.921875 C 228.886719 99.921875 230.707031 98.101562 230.707031 95.84375 L 230.707031 60.003906 C 230.722656 49.796875 226.386719 40.539062 219.46875 33.914062 C 212.566406 27.273438 203.03125 23.179688 192.539062 23.179688 C 182.070312 23.179688 172.515625 27.273438 165.613281 33.914062 C 158.695312 40.539062 154.375 49.796875 154.375 60.003906 L 154.375 95.84375 C 154.375 98.101562 156.210938 99.921875 158.457031 99.921875 C 160.71875 99.921875 162.554688 98.101562 162.554688 95.84375 " fill-opacity="1" fill-rule="nonzero"/></g><g clip-path="url(#e7317c7fff)"><path fill="#8c52ff" d="M 328.507812 339.179688 L 297.734375 339.179688 L 252.753906 351.664062 L 234.988281 77.277344 L 270.503906 77.277344 L 328.507812 339.179688 " fill-opacity="1" fill-rule="nonzero"/></g><g clip-path="url(#929b960b97)"><path fill="#5e17eb" d="M 252.753906 351.664062 L 46.785156 351.664062 L 68.085938 77.277344 L 234.988281 77.277344 L 252.753906 351.664062 " fill-opacity="1" fill-rule="nonzero"/></g><path fill="#8c52ff" d="M 135.132812 95.707031 C 135.132812 102.65625 129.488281 108.277344 122.535156 108.277344 C 115.582031 108.277344 109.9375 102.65625 109.9375 95.707031 C 109.9375 88.761719 115.582031 83.121094 122.535156 83.121094 C 129.488281 83.121094 135.132812 88.761719 135.132812 95.707031 " fill-opacity="1" fill-rule="nonzero"/><path fill="#8c52ff" d="M 205.136719 95.707031 C 205.136719 102.65625 199.492188 108.277344 192.539062 108.277344 C 185.585938 108.277344 179.945312 102.65625 179.945312 95.707031 C 179.945312 88.761719 185.585938 83.121094 192.539062 83.121094 C 199.492188 83.121094 205.136719 88.761719 205.136719 95.707031 " fill-opacity="1" fill-rule="nonzero"/><g clip-path="url(#cf3439c6b0)"><path fill="#f49f0a" d="M 126.613281 95.84375 L 126.613281 60.003906 C 126.632812 52.125 129.929688 45.007812 135.351562 39.792969 C 140.777344 34.59375 148.289062 31.351562 156.636719 31.351562 C 164.96875 31.351562 172.480469 34.59375 177.902344 39.792969 C 183.328125 45.007812 186.625 52.125 186.625 60.003906 L 186.625 95.84375 C 186.625 98.101562 188.460938 99.921875 190.703125 99.921875 C 192.964844 99.921875 194.785156 98.101562 194.785156 95.84375 L 194.785156 60.003906 C 194.800781 49.796875 190.464844 40.539062 183.566406 33.914062 C 176.644531 27.273438 167.109375 23.179688 156.636719 23.179688 C 146.148438 23.179688 136.609375 27.273438 129.691406 33.914062 C 122.789062 40.539062 118.453125 49.796875 118.453125 60.003906 L 118.453125 95.84375 C 118.453125 98.101562 120.289062 99.921875 122.535156 99.921875 C 124.796875 99.921875 126.613281 98.101562 126.613281 95.84375 " fill-opacity="1" fill-rule="nonzero"/></g></svg>