<svg xmlns="http://www.w3.org/2000/svg" xmlns:xlink="http://www.w3.org/1999/xlink" width="500" zoomAndPan="magnify" viewBox="0 0 375 374.999991" height="500" preserveAspectRatio="xMidYMid meet" version="1.0"><defs><g/><clipPath id="f79622a39c"><path d="M 87.917969 49.230469 L 287.222656 49.230469 L 287.222656 205.980469 L 87.917969 205.980469 Z M 87.917969 49.230469 " clip-rule="nonzero"/></clipPath></defs><rect x="-37.5" width="450" fill="#ffffff" y="-37.499999" height="449.999989" fill-opacity="1"/><rect x="-37.5" width="450" fill="#1b002b" y="-37.499999" height="449.999989" fill-opacity="1"/><path stroke-linecap="butt" transform="matrix(0.749201, 0, 0, 0.75, 77.505923, 223.180063)" fill="none" stroke-linejoin="miter" d="M 0.00252147 1.9995 L 293.315048 1.9995 " stroke="#ffffff" stroke-width="4" stroke-opacity="1" stroke-miterlimit="4"/><g clip-path="url(#f79622a39c)"><path fill="#f49f0a" d="M 234.453125 77.621094 C 238.085938 77.621094 238.085938 71.984375 234.453125 71.984375 C 230.824219 71.984375 230.820312 77.621094 234.453125 77.621094 Z M 142.996094 76.75 C 146.628906 76.75 146.632812 71.109375 142.996094 71.109375 C 139.367188 71.109375 139.363281 76.75 142.996094 76.75 Z M 128.777344 98.179688 C 132.40625 98.179688 132.410156 92.539062 128.777344 92.539062 C 125.144531 92.539062 125.140625 98.179688 128.777344 98.179688 Z M 169.910156 86.714844 C 173.535156 86.714844 173.550781 81.078125 169.910156 81.078125 C 166.28125 81.078125 166.273438 86.714844 169.910156 86.714844 Z M 179.535156 63.40625 C 183.167969 63.40625 183.167969 57.765625 179.535156 57.765625 C 175.910156 57.765625 175.902344 63.40625 179.535156 63.40625 Z M 228.109375 99.273438 C 231.742188 99.273438 231.75 93.636719 228.109375 93.636719 C 224.480469 93.636719 224.476562 99.273438 228.109375 99.273438 Z M 209.953125 69.53125 C 213.578125 69.53125 213.585938 63.890625 209.953125 63.890625 C 206.320312 63.890625 206.3125 69.53125 209.953125 69.53125 Z M 187.570312 54.863281 C 142.304688 54.863281 105.484375 77.539062 105.484375 105.410156 L 105.480469 107.832031 C 105.480469 110.644531 107.769531 112.933594 110.585938 112.933594 L 264.5625 112.933594 C 267.375 112.933594 269.664062 110.644531 269.664062 107.832031 L 269.664062 105.410156 C 269.664062 77.539062 232.835938 54.863281 187.574219 54.863281 Z M 264.5625 118.5625 L 110.582031 118.5625 C 104.664062 118.5625 99.847656 113.75 99.847656 107.832031 L 99.847656 105.410156 C 99.847656 90.152344 109.148438 75.90625 126.035156 65.292969 C 142.515625 54.933594 164.367188 49.230469 187.570312 49.230469 C 210.777344 49.230469 232.628906 54.933594 249.109375 65.292969 C 266 75.90625 275.292969 90.152344 275.292969 105.410156 L 275.292969 107.832031 C 275.292969 113.75 270.476562 118.5625 264.5625 118.5625 Z M 279.34375 128.285156 C 279.71875 127.996094 279.589844 128.109375 279.175781 128.382812 C 278.582031 128.769531 277.984375 129.144531 277.367188 129.488281 C 275.519531 130.496094 273.507812 131.242188 271.421875 131.578125 C 268.324219 132.085938 265.167969 131.621094 262.34375 130.25 C 259.144531 128.699219 256.660156 126.128906 253.355469 124.722656 C 246.484375 121.78125 238.164062 123.214844 232.566406 128.191406 C 232.503906 128.242188 232.410156 128.304688 232.292969 128.382812 C 231.699219 128.769531 231.101562 129.144531 230.480469 129.488281 C 228.636719 130.496094 226.617188 131.242188 224.539062 131.578125 C 221.441406 132.085938 218.285156 131.621094 215.460938 130.25 C 212.261719 128.699219 209.769531 126.128906 206.472656 124.722656 C 199.601562 121.78125 191.285156 123.214844 185.683594 128.191406 C 185.621094 128.242188 185.527344 128.304688 185.410156 128.382812 C 184.816406 128.769531 184.210938 129.144531 183.59375 129.488281 C 181.746094 130.496094 179.734375 131.242188 177.65625 131.578125 C 174.558594 132.085938 171.394531 131.621094 168.570312 130.25 C 165.375 128.699219 162.886719 126.128906 159.589844 124.722656 C 152.714844 121.78125 144.394531 123.214844 138.800781 128.191406 C 138.734375 128.242188 138.644531 128.304688 138.523438 128.382812 C 137.929688 128.769531 137.332031 129.144531 136.707031 129.488281 C 134.863281 130.496094 132.847656 131.242188 130.769531 131.578125 C 127.671875 132.085938 124.511719 131.621094 121.6875 130.25 C 118.492188 128.699219 116.003906 126.128906 112.707031 124.722656 C 105.785156 121.765625 97.398438 123.230469 91.804688 128.285156 C 89.105469 130.726562 93.105469 134.699219 95.796875 132.269531 C 97.503906 130.726562 100.378906 129.425781 102.871094 128.980469 C 110.132812 127.671875 114.34375 133.296875 120.421875 135.835938 C 127.789062 138.914062 136.511719 137.183594 142.679688 132.269531 C 144.390625 130.726562 147.265625 129.425781 149.753906 128.980469 C 157.019531 127.671875 161.230469 133.296875 167.308594 135.835938 C 174.675781 138.914062 183.394531 137.183594 189.566406 132.269531 C 191.277344 130.726562 194.148438 129.425781 196.644531 128.980469 C 203.902344 127.671875 208.113281 133.296875 214.191406 135.835938 C 221.558594 138.914062 230.277344 137.183594 236.453125 132.269531 C 238.164062 130.726562 241.03125 129.425781 243.527344 128.980469 C 250.792969 127.671875 255.003906 133.296875 261.082031 135.835938 C 268.441406 138.914062 277.167969 137.183594 283.335938 132.269531 C 286.175781 130.007812 282.160156 126.046875 279.34375 128.285156 Z M 97.539062 147.621094 C 95.339844 147.621094 93.550781 149.410156 93.550781 151.605469 L 93.550781 155.273438 C 93.550781 157.46875 95.339844 159.257812 97.539062 159.257812 L 277.605469 159.257812 C 279.800781 159.257812 281.589844 157.46875 281.589844 155.273438 L 281.589844 151.605469 C 281.589844 149.410156 279.800781 147.621094 277.605469 147.621094 Z M 277.605469 164.890625 L 97.539062 164.890625 C 92.234375 164.890625 87.917969 160.582031 87.917969 155.273438 L 87.917969 151.605469 C 87.917969 146.304688 92.234375 141.992188 97.539062 141.992188 L 277.605469 141.992188 C 282.90625 141.992188 287.226562 146.304688 287.226562 151.605469 L 287.226562 155.273438 C 287.226562 160.582031 282.90625 164.890625 277.605469 164.890625 Z M 110.582031 176.074219 C 107.765625 176.074219 105.480469 178.363281 105.480469 181.171875 L 105.480469 184.699219 C 105.480469 193.328125 112.503906 200.355469 121.144531 200.355469 L 253.996094 200.355469 C 262.636719 200.355469 269.65625 193.328125 269.65625 184.699219 L 269.65625 181.171875 C 269.65625 178.363281 267.367188 176.074219 264.558594 176.074219 Z M 253.996094 205.984375 L 121.144531 205.984375 C 109.402344 205.984375 99.847656 196.433594 99.847656 184.699219 L 99.847656 181.171875 C 99.847656 175.257812 104.664062 170.441406 110.585938 170.441406 L 264.5625 170.441406 C 270.480469 170.441406 275.296875 175.257812 275.296875 181.171875 L 275.296875 184.699219 C 275.296875 196.433594 265.746094 205.984375 254 205.984375 " fill-opacity="1" fill-rule="nonzero"/></g><g fill="#f49f0a" fill-opacity="1"><g transform="translate(47.331963, 278.986544)"><g><path d="M 7.4375 0.390625 C 18.089844 0.234375 23.023438 -15.113281 29.445312 -28.035156 C 32.890625 -28.503906 35.238281 -28.972656 38.527344 -29.679688 C 37.824219 -28.035156 23.414062 0.390625 35.707031 0.390625 C 42.519531 0.390625 49.019531 -11.355469 51.371094 -14.722656 C 51.527344 -14.878906 51.527344 -15.269531 51.292969 -15.503906 C 50.820312 -15.976562 50.273438 -15.660156 49.648438 -14.722656 C 46.671875 -10.335938 41.109375 -1.332031 35.863281 -1.332031 C 30.304688 -1.332031 38.214844 -19.890625 43.460938 -30.460938 C 51.371094 -32.339844 63.664062 -38.761719 68.285156 -45.027344 C 70.085938 -47.53125 71.730469 -50.664062 71.964844 -53.71875 C 72.355469 -58.183594 69.929688 -62.175781 65.699219 -62.175781 C 63.742188 -62.175781 61.863281 -61.550781 60.140625 -60.53125 C 51.917969 -55.363281 45.261719 -44.792969 39.230469 -31.246094 C 38.605469 -31.089844 33.59375 -29.992188 30.148438 -29.523438 C 36.257812 -42.675781 39.546875 -49.882812 39.625 -50.507812 C 39.703125 -51.292969 38.761719 -52.777344 37.824219 -52.777344 C 37.117188 -52.777344 36.492188 -51.761719 35.941406 -51.214844 C 30.617188 -44.792969 25.605469 -37.824219 19.027344 -38.683594 C 18.714844 -38.761719 18.167969 -38.214844 18.324219 -37.742188 C 18.402344 -37.039062 18.871094 -37.039062 19.421875 -37.039062 C 23.960938 -36.804688 28.191406 -39.308594 32.8125 -44.480469 C 31.558594 -41.738281 26.078125 -29.914062 25.683594 -28.894531 C 11.277344 -26.078125 2.347656 -18.714844 0.46875 -10.804688 C -1.097656 -4.464844 0.863281 0.46875 7.4375 0.390625 Z M 44.164062 -32.027344 C 47.847656 -39.308594 50.195312 -43.773438 54.1875 -49.410156 C 57.007812 -53.484375 62.097656 -59.511719 66.71875 -59.511719 C 69.535156 -59.511719 70.632812 -56.929688 70.398438 -53.953125 C 69.222656 -43.382812 54.265625 -35.082031 44.164062 -32.027344 Z M 7.597656 -1.253906 C 2.113281 -1.019531 0.863281 -6.03125 2.113281 -10.804688 C 3.992188 -18.167969 13.3125 -24.824219 25.136719 -27.40625 C 18.246094 -14.488281 15.035156 -1.566406 7.597656 -1.253906 Z M 7.597656 -1.253906 "/></g></g></g><g fill="#f49f0a" fill-opacity="1"><g transform="translate(94.627791, 278.986544)"><g><path d="M 20.125 0.390625 C 25.996094 0.390625 31.089844 -6.5 36.019531 -14.722656 C 36.257812 -15.113281 36.101562 -15.738281 35.472656 -15.738281 C 35.082031 -15.738281 34.535156 -15.113281 34.296875 -14.722656 C 29.992188 -7.597656 25.527344 -1.332031 20.359375 -1.332031 C 19.421875 -1.332031 18.636719 -2.035156 18.636719 -3.210938 C 18.636719 -5.871094 20.828125 -10.882812 22.394531 -14.488281 C 23.726562 -17.539062 27.878906 -26.46875 27.878906 -27.25 C 27.878906 -28.503906 27.09375 -29.050781 26.078125 -29.050781 C 24.589844 -29.050781 24.355469 -28.738281 22.238281 -25.058594 C 20.28125 -27.328125 18.558594 -28.738281 16.210938 -28.738281 C 8.847656 -28.738281 -0.078125 -15.113281 -0.078125 -6.890625 C -0.078125 -3.054688 1.410156 0.15625 4.386719 0.15625 C 7.988281 0.15625 13 -5.558594 15.660156 -9.320312 C 15.347656 -7.832031 15.191406 -6.578125 15.191406 -5.402344 C 15.191406 -1.566406 16.914062 0.390625 20.125 0.390625 Z M 4.855469 -1.722656 C 3.679688 -1.722656 3.367188 -2.585938 3.367188 -3.914062 C 3.367188 -10.492188 12.058594 -25.527344 17.855469 -25.527344 C 19.421875 -25.527344 20.671875 -24.195312 21.300781 -23.023438 C 20.359375 -20.988281 18.324219 -16.992188 17.382812 -14.957031 C 15.816406 -11.042969 8.300781 -1.722656 4.855469 -1.722656 Z M 4.855469 -1.722656 "/></g></g></g><g fill="#f49f0a" fill-opacity="1"><g transform="translate(126.575977, 278.986544)"><g><path d="M -1.878906 0.390625 C -0.3125 0.390625 -0.15625 -0.15625 0.15625 -0.46875 C 0.703125 -1.722656 2.347656 -5.953125 3.757812 -9.003906 C 7.597656 -17.148438 13.9375 -25.996094 17.304688 -25.996094 C 18.949219 -25.996094 18.402344 -24.746094 16.289062 -19.96875 C 14.09375 -15.035156 11.511719 -8.613281 11.511719 -4.230469 C 11.511719 -1.253906 13.546875 0.390625 16.132812 0.390625 C 23.335938 0.390625 29.835938 -11.667969 32.027344 -14.722656 C 32.105469 -14.878906 32.261719 -15.347656 31.871094 -15.582031 C 31.402344 -15.894531 31.167969 -15.816406 30.304688 -14.722656 C 27.878906 -11.589844 22.472656 -1.332031 16.210938 -1.332031 C 12.136719 -1.332031 18.402344 -13.78125 20.90625 -19.96875 C 23.257812 -25.839844 21.535156 -28.660156 18.636719 -28.660156 C 14.332031 -28.660156 10.179688 -23.023438 8.535156 -20.359375 C 10.414062 -24.433594 11.042969 -25.839844 11.433594 -27.40625 C 11.667969 -28.347656 10.570312 -28.972656 9.867188 -28.972656 C 8.144531 -28.972656 7.597656 -28.113281 7.203125 -27.40625 C 6.265625 -25.761719 4.699219 -23.023438 2.585938 -17.304688 C 0.46875 -11.667969 -2.898438 -4.070312 -3.367188 -0.703125 C -3.445312 -0.078125 -2.742188 0.390625 -1.878906 0.390625 Z M -1.878906 0.390625 "/></g></g></g><g fill="#f49f0a" fill-opacity="1"><g transform="translate(154.530645, 278.986544)"><g><path d="M 44.792969 -55.519531 C 39.308594 -55.519531 28.894531 -38.371094 22.316406 -25.058594 C 20.359375 -27.40625 18.558594 -28.738281 16.210938 -28.738281 C 8.925781 -28.738281 0 -15.191406 0 -6.890625 C 0 -3.054688 1.488281 0.15625 4.464844 0.15625 C 7.753906 0.15625 14.410156 -6.34375 16.289062 -10.179688 C 15.503906 -5.714844 15.347656 0.390625 20.28125 0.390625 C 25.292969 0.390625 29.128906 -4.308594 33.59375 -10.804688 C 34.457031 -12.058594 35.316406 -13.390625 36.179688 -14.722656 C 36.492188 -15.191406 36.179688 -15.660156 35.785156 -15.738281 C 35.472656 -15.816406 35.082031 -15.660156 34.457031 -14.722656 C 29.835938 -7.832031 25.371094 -1.332031 20.4375 -1.332031 C 18.089844 -1.332031 18.558594 -5.089844 22.628906 -14.644531 C 25.683594 -22.003906 27.171875 -25.214844 29.207031 -28.660156 C 35.707031 -31.089844 42.753906 -38.292969 46.203125 -44.398438 C 49.648438 -50.429688 49.019531 -55.519531 44.792969 -55.519531 Z M 44.558594 -44.871094 C 42.285156 -41.191406 35.707031 -33.671875 30.148438 -30.929688 C 33.515625 -37.585938 41.582031 -51.292969 45.105469 -51.996094 C 47.21875 -52.386719 46.28125 -47.6875 44.558594 -44.871094 Z M 4.933594 -1.722656 C 3.757812 -1.722656 3.445312 -2.585938 3.445312 -3.914062 C 3.445312 -10.492188 12.136719 -25.527344 17.933594 -25.527344 C 19.5 -25.527344 20.75 -24.195312 21.378906 -23.101562 C 20.4375 -21.144531 19.578125 -19.34375 18.871094 -17.699219 C 15.976562 -11.355469 8.925781 -1.722656 4.933594 -1.722656 Z M 4.933594 -1.722656 "/></g></g></g><g fill="#f49f0a" fill-opacity="1"><g transform="translate(186.635444, 278.986544)"><g><path d="M -1.878906 0.390625 C -0.3125 0.390625 -0.15625 -0.15625 0.15625 -0.46875 C 1.097656 -1.410156 2.347656 -5.953125 3.757812 -9.003906 C 7.515625 -17.148438 14.332031 -25.996094 17.699219 -25.996094 C 19.34375 -25.996094 18.792969 -24.746094 16.679688 -19.96875 C 13.46875 -12.6875 9.945312 -3.757812 9.554688 -0.703125 C 9.476562 -0.078125 10.179688 0.390625 11.042969 0.390625 C 12.609375 0.390625 12.84375 -0.078125 13.078125 -0.46875 C 13.9375 -1.957031 17.855469 -12.84375 19.183594 -15.035156 C 22.945312 -21.222656 27.640625 -25.996094 30.148438 -25.996094 C 31.792969 -25.996094 31.246094 -24.746094 29.128906 -19.96875 C 26.9375 -15.035156 24.355469 -8.613281 24.355469 -4.230469 C 24.355469 -1.253906 26.390625 0.390625 28.972656 0.390625 C 35.160156 0.390625 40.171875 -7.753906 44.792969 -14.722656 C 44.871094 -14.878906 45.027344 -15.347656 44.558594 -15.660156 C 44.242188 -15.894531 43.851562 -15.816406 43.070312 -14.722656 C 38.683594 -8.378906 34.457031 -1.332031 28.972656 -1.332031 C 24.902344 -1.332031 31.246094 -13.78125 33.75 -19.96875 C 36.101562 -25.839844 34.375 -28.660156 31.480469 -28.660156 C 28.035156 -28.660156 24.117188 -25.136719 22.082031 -22.316406 C 23.101562 -26.625 21.535156 -28.660156 19.027344 -28.660156 C 14.722656 -28.660156 10.179688 -23.023438 8.535156 -20.359375 C 10.414062 -24.433594 11.042969 -25.839844 11.433594 -27.40625 C 11.667969 -28.347656 10.570312 -28.972656 9.867188 -28.972656 C 8.144531 -28.972656 7.597656 -28.113281 7.203125 -27.40625 C 6.265625 -25.761719 4.699219 -23.023438 2.585938 -17.304688 C 0.46875 -11.667969 -2.976562 -4.070312 -3.367188 -0.703125 C -3.445312 -0.078125 -2.742188 0.390625 -1.878906 0.390625 Z M -1.878906 0.390625 "/></g></g></g><g fill="#f49f0a" fill-opacity="1"><g transform="translate(227.353709, 278.986544)"><g><path d="M 20.125 0.390625 C 25.996094 0.390625 31.089844 -6.5 36.019531 -14.722656 C 36.257812 -15.113281 36.101562 -15.738281 35.472656 -15.738281 C 35.082031 -15.738281 34.535156 -15.113281 34.296875 -14.722656 C 29.992188 -7.597656 25.527344 -1.332031 20.359375 -1.332031 C 19.421875 -1.332031 18.636719 -2.035156 18.636719 -3.210938 C 18.636719 -5.871094 20.828125 -10.882812 22.394531 -14.488281 C 23.726562 -17.539062 27.878906 -26.46875 27.878906 -27.25 C 27.878906 -28.503906 27.09375 -29.050781 26.078125 -29.050781 C 24.589844 -29.050781 24.355469 -28.738281 22.238281 -25.058594 C 20.28125 -27.328125 18.558594 -28.738281 16.210938 -28.738281 C 8.847656 -28.738281 -0.078125 -15.113281 -0.078125 -6.890625 C -0.078125 -3.054688 1.410156 0.15625 4.386719 0.15625 C 7.988281 0.15625 13 -5.558594 15.660156 -9.320312 C 15.347656 -7.832031 15.191406 -6.578125 15.191406 -5.402344 C 15.191406 -1.566406 16.914062 0.390625 20.125 0.390625 Z M 4.855469 -1.722656 C 3.679688 -1.722656 3.367188 -2.585938 3.367188 -3.914062 C 3.367188 -10.492188 12.058594 -25.527344 17.855469 -25.527344 C 19.421875 -25.527344 20.671875 -24.195312 21.300781 -23.023438 C 20.359375 -20.988281 18.324219 -16.992188 17.382812 -14.957031 C 15.816406 -11.042969 8.300781 -1.722656 4.855469 -1.722656 Z M 4.855469 -1.722656 "/></g></g></g><g fill="#f49f0a" fill-opacity="1"><g transform="translate(259.301895, 278.986544)"><g><path d="M 44.792969 -55.519531 C 39.308594 -55.519531 28.894531 -38.371094 22.316406 -25.058594 C 20.359375 -27.40625 18.558594 -28.738281 16.210938 -28.738281 C 8.925781 -28.738281 0 -15.191406 0 -6.890625 C 0 -3.054688 1.488281 0.15625 4.464844 0.15625 C 7.753906 0.15625 14.410156 -6.34375 16.289062 -10.179688 C 15.503906 -5.714844 15.347656 0.390625 20.28125 0.390625 C 25.292969 0.390625 29.128906 -4.308594 33.59375 -10.804688 C 34.457031 -12.058594 35.316406 -13.390625 36.179688 -14.722656 C 36.492188 -15.191406 36.179688 -15.660156 35.785156 -15.738281 C 35.472656 -15.816406 35.082031 -15.660156 34.457031 -14.722656 C 29.835938 -7.832031 25.371094 -1.332031 20.4375 -1.332031 C 18.089844 -1.332031 18.558594 -5.089844 22.628906 -14.644531 C 25.683594 -22.003906 27.171875 -25.214844 29.207031 -28.660156 C 35.707031 -31.089844 42.753906 -38.292969 46.203125 -44.398438 C 49.648438 -50.429688 49.019531 -55.519531 44.792969 -55.519531 Z M 44.558594 -44.871094 C 42.285156 -41.191406 35.707031 -33.671875 30.148438 -30.929688 C 33.515625 -37.585938 41.582031 -51.292969 45.105469 -51.996094 C 47.21875 -52.386719 46.28125 -47.6875 44.558594 -44.871094 Z M 4.933594 -1.722656 C 3.757812 -1.722656 3.445312 -2.585938 3.445312 -3.914062 C 3.445312 -10.492188 12.136719 -25.527344 17.933594 -25.527344 C 19.5 -25.527344 20.75 -24.195312 21.378906 -23.101562 C 20.4375 -21.144531 19.578125 -19.34375 18.871094 -17.699219 C 15.976562 -11.355469 8.925781 -1.722656 4.933594 -1.722656 Z M 4.933594 -1.722656 "/></g></g></g><g fill="#f49f0a" fill-opacity="1"><g transform="translate(291.406694, 278.986544)"><g><path d="M 7.832031 0.390625 C 13.9375 0.390625 19.027344 -7.125 23.882812 -14.722656 C 24.117188 -15.113281 24.195312 -15.347656 23.492188 -15.738281 C 23.101562 -15.976562 22.472656 -15.113281 22.160156 -14.722656 C 17.777344 -8.222656 13.390625 -1.332031 7.910156 -1.332031 C 3.054688 -1.332031 4.070312 -9.554688 6.890625 -16.054688 C 12.765625 -16.054688 19.027344 -19.890625 19.027344 -23.960938 C 19.027344 -27.09375 16.992188 -28.582031 14.488281 -28.582031 C 7.046875 -28.582031 0.703125 -15.582031 0.703125 -8.613281 C 0.703125 -0.78125 4.542969 0.390625 7.832031 0.390625 Z M 7.753906 -17.855469 C 9.945312 -23.023438 13.15625 -25.371094 15.191406 -25.371094 C 16.289062 -25.371094 16.757812 -24.273438 16.757812 -23.414062 C 16.757812 -20.515625 11.121094 -17.855469 7.753906 -17.855469 Z M 7.753906 -17.855469 "/></g></g></g><g fill="#f49f0a" fill-opacity="1"><g transform="translate(311.199521, 278.986544)"><g/></g></g><g fill="#ffffff" fill-opacity="1"><g transform="translate(87.80115, 316.864183)"><g><path d="M 27.65625 -25.359375 C 27.65625 -28.117188 26.34375 -30.175781 23.71875 -31.53125 C 22 -32.363281 19.941406 -32.78125 17.546875 -32.78125 L 2.1875 -32.78125 L 2.1875 -31.359375 L 6.5625 -31.359375 L 6.5625 -1.421875 L 2.1875 -1.421875 L 2.1875 0 L 17.703125 0 C 22.398438 0 25.84375 -1.492188 28.03125 -4.484375 C 29.15625 -6.046875 29.71875 -7.753906 29.71875 -9.609375 C 29.71875 -12.523438 28.425781 -14.785156 25.84375 -16.390625 C 24.644531 -17.085938 23.257812 -17.582031 21.6875 -17.875 C 24.3125 -18.851562 26.117188 -20.507812 27.109375 -22.84375 C 27.472656 -23.71875 27.65625 -24.554688 27.65625 -25.359375 Z M 16.234375 -31.359375 C 19.984375 -31.359375 22.113281 -29.703125 22.625 -26.390625 C 22.695312 -25.921875 22.734375 -25.429688 22.734375 -24.921875 C 22.734375 -22.546875 21.800781 -20.757812 19.9375 -19.5625 C 18.851562 -18.875 17.582031 -18.53125 16.125 -18.53125 L 11.25 -18.53125 L 11.25 -31.359375 Z M 17.15625 -17.046875 C 20.46875 -17.046875 22.691406 -15.644531 23.828125 -12.84375 C 24.265625 -11.820312 24.484375 -10.707031 24.484375 -9.5 C 24.484375 -6.695312 23.570312 -4.515625 21.75 -2.953125 C 20.539062 -1.929688 19.101562 -1.421875 17.4375 -1.421875 L 11.25 -1.421875 L 11.25 -17.046875 Z M 17.15625 -17.046875 "/></g></g></g><g fill="#ffffff" fill-opacity="1"><g transform="translate(119.986776, 316.864183)"><g><path d="M 28.140625 -1.359375 L 25.40625 -1.359375 L 25.40625 -23.21875 L 16.828125 -23.21875 L 16.828125 -21.859375 L 21.3125 -21.859375 L 21.3125 -10.046875 C 21.3125 -6.773438 20.164062 -4.375 17.875 -2.84375 C 16.851562 -2.144531 15.796875 -1.796875 14.703125 -1.796875 C 11.710938 -1.796875 9.976562 -3.328125 9.5 -6.390625 C 9.425781 -6.898438 9.390625 -7.445312 9.390625 -8.03125 L 9.390625 -23.21875 L 1.09375 -23.21875 L 1.09375 -21.859375 L 5.296875 -21.859375 L 5.296875 -8.859375 C 5.335938 -2.628906 7.941406 0.503906 13.109375 0.546875 C 15.847656 0.546875 18.085938 -0.5625 19.828125 -2.78125 C 20.484375 -3.625 21.015625 -4.554688 21.421875 -5.578125 L 21.796875 0 L 29.5 0 C 29.5 -0.800781 29.226562 -1.238281 28.6875 -1.3125 C 28.539062 -1.34375 28.359375 -1.359375 28.140625 -1.359375 Z M 28.140625 -1.359375 "/></g></g></g><g fill="#ffffff" fill-opacity="1"><g transform="translate(150.970222, 316.864183)"><g><path d="M 13.875 -1.359375 L 9.9375 -1.359375 L 9.9375 -12.234375 C 9.9375 -15.554688 10.957031 -18.21875 13 -20.21875 C 13.800781 -20.976562 14.476562 -21.378906 15.03125 -21.421875 C 15.644531 -21.421875 16.207031 -20.960938 16.71875 -20.046875 C 17.300781 -19.035156 17.847656 -18.457031 18.359375 -18.3125 C 18.578125 -18.238281 18.796875 -18.203125 19.015625 -18.203125 C 20.109375 -18.203125 20.800781 -18.726562 21.09375 -19.78125 C 21.164062 -20 21.203125 -20.21875 21.203125 -20.4375 C 21.203125 -22.070312 20.363281 -23.070312 18.6875 -23.4375 C 18.320312 -23.507812 17.976562 -23.546875 17.65625 -23.546875 C 15.46875 -23.546875 13.515625 -22.617188 11.796875 -20.765625 C 10.992188 -19.890625 10.359375 -18.90625 9.890625 -17.8125 L 9.671875 -23.21875 L 1.75 -23.21875 L 1.75 -21.859375 L 5.84375 -21.859375 L 5.84375 -4.640625 C 5.84375 -2.960938 5.367188 -1.960938 4.421875 -1.640625 C 3.878906 -1.453125 2.988281 -1.359375 1.75 -1.359375 L 1.75 0 L 15.25 0 C 15.25 -0.800781 14.972656 -1.238281 14.421875 -1.3125 C 14.273438 -1.34375 14.09375 -1.359375 13.875 -1.359375 Z M 13.875 -1.359375 "/></g></g></g><g fill="#ffffff" fill-opacity="1"><g transform="translate(172.445521, 316.864183)"><g><path d="M 7.109375 -15.140625 C 7.179688 -19.941406 9 -22.363281 12.5625 -22.40625 C 16.132812 -22.332031 17.941406 -19.910156 17.984375 -15.140625 C 17.910156 -10.179688 16.101562 -7.6875 12.5625 -7.65625 C 8.957031 -7.726562 7.140625 -10.222656 7.109375 -15.140625 Z M 12.625 -23.765625 C 9.34375 -23.765625 6.738281 -22.707031 4.8125 -20.59375 C 3.425781 -19.03125 2.734375 -17.191406 2.734375 -15.078125 C 2.734375 -12.304688 4.082031 -10.015625 6.78125 -8.203125 C 7.03125 -8.015625 7.285156 -7.847656 7.546875 -7.703125 C 5.210938 -7.703125 3.753906 -6.703125 3.171875 -4.703125 C 3.054688 -4.222656 3 -3.75 3 -3.28125 C 3.039062 -1.34375 3.828125 0.09375 5.359375 1.03125 C 4.148438 2.3125 3.546875 3.609375 3.546875 4.921875 C 3.546875 6.921875 4.734375 8.410156 7.109375 9.390625 C 8.597656 10.046875 10.4375 10.375 12.625 10.375 C 18.15625 10.375 21.816406 9.03125 23.609375 6.34375 C 24.191406 5.425781 24.484375 4.457031 24.484375 3.4375 C 24.484375 0.3125 22.675781 -1.488281 19.0625 -1.96875 C 18.59375 -2.039062 18.101562 -2.078125 17.59375 -2.078125 L 7.65625 -2.296875 C 5.976562 -2.398438 5.117188 -3.128906 5.078125 -4.484375 C 5.078125 -5.429688 5.679688 -6.03125 6.890625 -6.28125 C 7.140625 -6.320312 7.410156 -6.34375 7.703125 -6.34375 L 12.515625 -6.28125 C 15.753906 -6.28125 18.335938 -7.375 20.265625 -9.5625 C 21.648438 -11.125 22.34375 -12.984375 22.34375 -15.140625 C 22.3125 -17.867188 21.253906 -20.050781 19.171875 -21.6875 C 19.503906 -22.851562 20.125 -23.546875 21.03125 -23.765625 C 21.175781 -23.804688 21.320312 -23.828125 21.46875 -23.828125 C 21.976562 -23.828125 22.523438 -23.550781 23.109375 -23 C 23.515625 -22.632812 23.878906 -22.453125 24.203125 -22.453125 C 25.117188 -22.671875 25.648438 -23.253906 25.796875 -24.203125 C 25.796875 -25.335938 25.265625 -26.101562 24.203125 -26.5 C 23.804688 -26.644531 23.40625 -26.71875 23 -26.71875 C 21.289062 -26.71875 19.90625 -25.953125 18.84375 -24.421875 C 18.445312 -23.835938 18.140625 -23.203125 17.921875 -22.515625 C 16.285156 -23.347656 14.519531 -23.765625 12.625 -23.765625 Z M 12.625 8.96875 C 9.019531 8.96875 6.742188 8.019531 5.796875 6.125 C 5.535156 5.613281 5.40625 5.101562 5.40625 4.59375 C 5.445312 3.601562 5.882812 2.617188 6.71875 1.640625 C 7.445312 1.785156 8.050781 1.859375 8.53125 1.859375 L 16.9375 1.96875 C 19.664062 2 21.25 2.617188 21.6875 3.828125 C 21.800781 4.117188 21.859375 4.484375 21.859375 4.921875 C 21.859375 6.523438 20.363281 7.691406 17.375 8.421875 C 15.914062 8.785156 14.332031 8.96875 12.625 8.96875 Z M 12.625 8.96875 "/></g></g></g><g fill="#ffffff" fill-opacity="1"><g transform="translate(198.729538, 316.864183)"><g><path d="M 28.140625 -1.359375 L 25.40625 -1.359375 L 25.40625 -23.21875 L 16.828125 -23.21875 L 16.828125 -21.859375 L 21.3125 -21.859375 L 21.3125 -10.046875 C 21.3125 -6.773438 20.164062 -4.375 17.875 -2.84375 C 16.851562 -2.144531 15.796875 -1.796875 14.703125 -1.796875 C 11.710938 -1.796875 9.976562 -3.328125 9.5 -6.390625 C 9.425781 -6.898438 9.390625 -7.445312 9.390625 -8.03125 L 9.390625 -23.21875 L 1.09375 -23.21875 L 1.09375 -21.859375 L 5.296875 -21.859375 L 5.296875 -8.859375 C 5.335938 -2.628906 7.941406 0.503906 13.109375 0.546875 C 15.847656 0.546875 18.085938 -0.5625 19.828125 -2.78125 C 20.484375 -3.625 21.015625 -4.554688 21.421875 -5.578125 L 21.796875 0 L 29.5 0 C 29.5 -0.800781 29.226562 -1.238281 28.6875 -1.3125 C 28.539062 -1.34375 28.359375 -1.359375 28.140625 -1.359375 Z M 28.140625 -1.359375 "/></g></g></g><g fill="#ffffff" fill-opacity="1"><g transform="translate(229.712984, 316.864183)"><g><path d="M 13.609375 -22.40625 C 16.160156 -22.40625 17.851562 -21.328125 18.6875 -19.171875 C 18.976562 -18.484375 19.125 -17.738281 19.125 -16.9375 C 19.125 -15.113281 18.25 -14.003906 16.5 -13.609375 C 15.59375 -13.421875 14.300781 -13.347656 12.625 -13.390625 L 6.828125 -13.546875 C 7.015625 -17.734375 8.378906 -20.46875 10.921875 -21.75 C 11.765625 -22.1875 12.660156 -22.40625 13.609375 -22.40625 Z M 23.109375 -5.25 L 21.75 -5.734375 C 20.46875 -2.960938 18.410156 -1.394531 15.578125 -1.03125 C 15.210938 -1 14.863281 -0.984375 14.53125 -0.984375 C 10.707031 -0.984375 8.304688 -3.257812 7.328125 -7.8125 C 7.035156 -9.082031 6.867188 -10.484375 6.828125 -12.015625 L 13.390625 -11.90625 C 17.828125 -11.832031 20.6875 -12.253906 21.96875 -13.171875 C 22.945312 -13.898438 23.4375 -14.9375 23.4375 -16.28125 C 23.4375 -18.757812 22.179688 -20.726562 19.671875 -22.1875 C 17.890625 -23.238281 15.832031 -23.765625 13.5 -23.765625 C 8.945312 -23.765625 5.6875 -21.875 3.71875 -18.09375 C 2.695312 -16.125 2.1875 -13.898438 2.1875 -11.421875 C 2.1875 -6.898438 3.804688 -3.546875 7.046875 -1.359375 C 8.972656 -0.0859375 11.175781 0.546875 13.65625 0.546875 C 17.59375 0.546875 20.488281 -0.875 22.34375 -3.71875 C 22.632812 -4.226562 22.890625 -4.738281 23.109375 -5.25 Z M 23.109375 -5.25 "/></g></g></g><g fill="#ffffff" fill-opacity="1"><g transform="translate(255.068044, 316.864183)"><g><path d="M 13.875 -1.359375 L 9.9375 -1.359375 L 9.9375 -12.234375 C 9.9375 -15.554688 10.957031 -18.21875 13 -20.21875 C 13.800781 -20.976562 14.476562 -21.378906 15.03125 -21.421875 C 15.644531 -21.421875 16.207031 -20.960938 16.71875 -20.046875 C 17.300781 -19.035156 17.847656 -18.457031 18.359375 -18.3125 C 18.578125 -18.238281 18.796875 -18.203125 19.015625 -18.203125 C 20.109375 -18.203125 20.800781 -18.726562 21.09375 -19.78125 C 21.164062 -20 21.203125 -20.21875 21.203125 -20.4375 C 21.203125 -22.070312 20.363281 -23.070312 18.6875 -23.4375 C 18.320312 -23.507812 17.976562 -23.546875 17.65625 -23.546875 C 15.46875 -23.546875 13.515625 -22.617188 11.796875 -20.765625 C 10.992188 -19.890625 10.359375 -18.90625 9.890625 -17.8125 L 9.671875 -23.21875 L 1.75 -23.21875 L 1.75 -21.859375 L 5.84375 -21.859375 L 5.84375 -4.640625 C 5.84375 -2.960938 5.367188 -1.960938 4.421875 -1.640625 C 3.878906 -1.453125 2.988281 -1.359375 1.75 -1.359375 L 1.75 0 L 15.25 0 C 15.25 -0.800781 14.972656 -1.238281 14.421875 -1.3125 C 14.273438 -1.34375 14.09375 -1.359375 13.875 -1.359375 Z M 13.875 -1.359375 "/></g></g></g><g fill="#ffffff" fill-opacity="1"><g transform="translate(276.539916, 316.864183)"><g/></g></g></svg>