<svg xmlns="http://www.w3.org/2000/svg" xmlns:xlink="http://www.w3.org/1999/xlink" width="500" zoomAndPan="magnify" viewBox="0 0 375 374.999991" height="500" preserveAspectRatio="xMidYMid meet" version="1.0"><defs><clipPath id="5311009fc1"><path d="M 31 28 L 315 28 L 315 348 L 31 348 Z M 31 28 " clip-rule="nonzero"/></clipPath><clipPath id="02be2ad9a9"><path d="M 205.589844 28.988281 L 315.042969 267.898438 L 140.664062 347.785156 L 31.210938 108.875 Z M 205.589844 28.988281 " clip-rule="nonzero"/></clipPath><clipPath id="fbf26b67eb"><path d="M 205.589844 28.988281 L 314.746094 267.253906 L 140.375 347.140625 L 31.214844 108.875 Z M 205.589844 28.988281 " clip-rule="nonzero"/></clipPath><clipPath id="a74a2c7c4c"><path d="M 36.449219 106.589844 L 359.960938 106.589844 L 359.960938 296.398438 L 36.449219 296.398438 Z M 36.449219 106.589844 " clip-rule="nonzero"/></clipPath><clipPath id="9d980f3918"><path d="M 133 136 L 369 136 L 369 360 L 133 360 Z M 133 136 " clip-rule="nonzero"/></clipPath><clipPath id="ab277e4f48"><path d="M 133.824219 236.78125 L 291.066406 136.460938 L 369.050781 258.6875 L 211.808594 359.011719 Z M 133.824219 236.78125 " clip-rule="nonzero"/></clipPath><clipPath id="a232526949"><path d="M 133.824219 236.78125 L 290.664062 136.714844 L 368.648438 258.945312 L 211.808594 359.011719 Z M 133.824219 236.78125 " clip-rule="nonzero"/></clipPath><clipPath id="7f285b1352"><path d="M 31 166 L 251 166 L 251 359 L 31 359 Z M 31 166 " clip-rule="nonzero"/></clipPath><clipPath id="f10418f0a1"><path d="M 73.140625 166.429688 L 251.691406 220.355469 L 209.773438 359.152344 L 31.222656 305.226562 Z M 73.140625 166.429688 " clip-rule="nonzero"/></clipPath><clipPath id="503713c973"><path d="M 73.140625 166.429688 L 251.238281 220.21875 L 209.320312 359.015625 L 31.222656 305.226562 Z M 73.140625 166.429688 " clip-rule="nonzero"/></clipPath><clipPath id="1de101245f"><path d="M 141 28 L 361 28 L 361 222 L 141 222 Z M 141 28 " clip-rule="nonzero"/></clipPath><clipPath id="cb1ce16a11"><path d="M 183.148438 28.992188 L 361.699219 82.917969 L 319.78125 221.710938 L 141.230469 167.785156 Z M 183.148438 28.992188 " clip-rule="nonzero"/></clipPath><clipPath id="2b7743ec0d"><path d="M 183.148438 28.992188 L 361.246094 82.78125 L 319.328125 221.574219 L 141.230469 167.785156 Z M 183.148438 28.992188 " clip-rule="nonzero"/></clipPath></defs><g clip-path="url(#5311009fc1)"><g clip-path="url(#02be2ad9a9)"><g clip-path="url(#fbf26b67eb)"><path fill="#ffffff" d="M 205.589844 28.988281 L 314.726562 267.210938 L 140.351562 347.097656 L 31.210938 108.875 Z M 205.589844 28.988281 " fill-opacity="1" fill-rule="nonzero"/></g></g></g><g clip-path="url(#a74a2c7c4c)"><path fill="#ffffff" d="M 36.449219 106.589844 L 359.648438 106.589844 L 359.648438 296.132812 L 36.449219 296.132812 Z M 36.449219 106.589844 " fill-opacity="1" fill-rule="nonzero"/></g><g clip-path="url(#9d980f3918)"><g clip-path="url(#ab277e4f48)"><g clip-path="url(#a232526949)"><path fill="#ffffff" d="M 133.824219 236.78125 L 290.429688 136.867188 L 368.414062 259.09375 L 211.808594 359.011719 Z M 133.824219 236.78125 " fill-opacity="1" fill-rule="nonzero"/></g></g></g><g clip-path="url(#7f285b1352)"><g clip-path="url(#f10418f0a1)"><g clip-path="url(#503713c973)"><path fill="#ffffff" d="M 73.140625 166.429688 L 250.96875 220.136719 L 209.050781 358.933594 L 31.222656 305.226562 Z M 73.140625 166.429688 " fill-opacity="1" fill-rule="nonzero"/></g></g></g><g clip-path="url(#1de101245f)"><g clip-path="url(#cb1ce16a11)"><g clip-path="url(#2b7743ec0d)"><path fill="#ffffff" d="M 183.148438 28.992188 L 360.976562 82.699219 L 319.058594 221.496094 L 141.230469 167.785156 Z M 183.148438 28.992188 " fill-opacity="1" fill-rule="nonzero"/></g></g></g><path fill="#5e17eb" d="M 221.136719 112.527344 C 221.136719 114.371094 221.09375 116.210938 221.003906 118.054688 C 220.910156 119.894531 220.777344 121.730469 220.597656 123.5625 C 220.414062 125.398438 220.191406 127.226562 219.917969 129.046875 C 219.648438 130.871094 219.335938 132.6875 218.976562 134.492188 C 218.617188 136.300781 218.214844 138.097656 217.765625 139.886719 C 217.316406 141.671875 216.828125 143.449219 216.292969 145.210938 C 215.757812 146.972656 215.179688 148.722656 214.558594 150.457031 C 213.941406 152.191406 213.277344 153.910156 212.574219 155.613281 C 211.867188 157.316406 211.121094 159 210.335938 160.664062 C 209.546875 162.332031 208.71875 163.976562 207.851562 165.601562 C 206.984375 167.226562 206.078125 168.828125 205.128906 170.410156 C 204.183594 171.988281 203.199219 173.546875 202.175781 175.078125 C 201.152344 176.609375 200.09375 178.117188 198.996094 179.597656 C 197.898438 181.078125 196.765625 182.527344 195.597656 183.953125 C 194.429688 185.378906 193.226562 186.773438 191.988281 188.136719 C 190.753906 189.503906 189.484375 190.835938 188.183594 192.140625 C 186.878906 193.441406 185.546875 194.710938 184.183594 195.949219 C 182.816406 197.1875 181.421875 198.390625 180 199.558594 C 178.578125 200.726562 177.125 201.863281 175.644531 202.960938 C 174.167969 204.058594 172.664062 205.117188 171.132812 206.140625 C 169.601562 207.164062 168.042969 208.152344 166.464844 209.097656 C 164.886719 210.046875 163.285156 210.953125 161.660156 211.820312 C 160.035156 212.691406 158.390625 213.519531 156.726562 214.304688 C 155.0625 215.09375 153.378906 215.839844 151.679688 216.546875 C 149.976562 217.25 148.257812 217.914062 146.527344 218.535156 C 144.792969 219.15625 143.042969 219.734375 141.28125 220.269531 C 139.519531 220.800781 137.746094 221.292969 135.960938 221.742188 C 134.171875 222.1875 132.375 222.59375 130.570312 222.953125 C 128.765625 223.3125 126.949219 223.625 125.128906 223.898438 C 123.308594 224.167969 121.480469 224.394531 119.648438 224.574219 C 117.816406 224.753906 115.980469 224.890625 114.140625 224.980469 C 112.300781 225.070312 110.460938 225.117188 108.621094 225.117188 C 106.777344 225.117188 104.9375 225.070312 103.097656 224.980469 C 101.257812 224.890625 99.421875 224.753906 97.589844 224.574219 C 95.757812 224.394531 93.929688 224.167969 92.109375 223.898438 C 90.289062 223.625 88.472656 223.3125 86.667969 222.953125 C 84.863281 222.59375 83.066406 222.1875 81.28125 221.742188 C 79.492188 221.292969 77.71875 220.800781 75.957031 220.269531 C 74.195312 219.734375 72.445312 219.15625 70.714844 218.535156 C 68.980469 217.914062 67.261719 217.25 65.5625 216.546875 C 63.859375 215.839844 62.175781 215.09375 60.511719 214.304688 C 58.847656 213.519531 57.203125 212.691406 55.578125 211.820312 C 53.953125 210.953125 52.351562 210.046875 50.773438 209.097656 C 49.195312 208.152344 47.640625 207.164062 46.109375 206.140625 C 44.578125 205.117188 43.070312 204.058594 41.59375 202.960938 C 40.113281 201.863281 38.664062 200.726562 37.238281 199.558594 C 35.816406 198.390625 34.421875 197.1875 33.058594 195.949219 C 31.691406 194.710938 30.359375 193.441406 29.058594 192.140625 C 27.753906 190.835938 26.484375 189.503906 25.25 188.136719 C 24.011719 186.773438 22.808594 185.378906 21.640625 183.953125 C 20.472656 182.527344 19.339844 181.078125 18.242188 179.597656 C 17.148438 178.117188 16.085938 176.609375 15.0625 175.078125 C 14.039062 173.546875 13.054688 171.988281 12.109375 170.410156 C 11.164062 168.828125 10.253906 167.226562 9.386719 165.601562 C 8.519531 163.976562 7.691406 162.332031 6.902344 160.664062 C 6.117188 159 5.371094 157.316406 4.667969 155.613281 C 3.960938 153.910156 3.300781 152.191406 2.679688 150.457031 C 2.058594 148.722656 1.480469 146.972656 0.945312 145.210938 C 0.410156 143.449219 -0.078125 141.671875 -0.527344 139.886719 C -0.972656 138.097656 -1.378906 136.300781 -1.738281 134.492188 C -2.097656 132.6875 -2.410156 130.871094 -2.679688 129.046875 C -2.949219 127.226562 -3.175781 125.398438 -3.355469 123.5625 C -3.539062 121.730469 -3.671875 119.894531 -3.761719 118.054688 C -3.855469 116.210938 -3.898438 114.371094 -3.898438 112.527344 C -3.898438 110.6875 -3.855469 108.84375 -3.761719 107.003906 C -3.671875 105.164062 -3.539062 103.328125 -3.355469 101.492188 C -3.175781 99.660156 -2.949219 97.832031 -2.679688 96.007812 C -2.410156 94.1875 -2.097656 92.371094 -1.738281 90.5625 C -1.378906 88.757812 -0.972656 86.960938 -0.527344 85.171875 C -0.078125 83.382812 0.410156 81.609375 0.945312 79.847656 C 1.480469 78.082031 2.058594 76.332031 2.679688 74.597656 C 3.300781 72.863281 3.960938 71.144531 4.667969 69.441406 C 5.371094 67.742188 6.117188 66.058594 6.902344 64.390625 C 7.691406 62.726562 8.519531 61.082031 9.386719 59.457031 C 10.253906 57.832031 11.164062 56.226562 12.109375 54.648438 C 13.054688 53.066406 14.039062 51.511719 15.0625 49.976562 C 16.085938 48.445312 17.148438 46.941406 18.242188 45.460938 C 19.339844 43.980469 20.472656 42.527344 21.640625 41.105469 C 22.808594 39.679688 24.011719 38.285156 25.25 36.917969 C 26.484375 35.554688 27.753906 34.21875 29.058594 32.917969 C 30.359375 31.613281 31.691406 30.34375 33.058594 29.105469 C 34.421875 27.871094 35.816406 26.667969 37.238281 25.496094 C 38.660156 24.328125 40.113281 23.195312 41.59375 22.097656 C 43.070312 21 44.578125 19.9375 46.109375 18.914062 C 47.640625 17.890625 49.195312 16.90625 50.773438 15.960938 C 52.351562 15.011719 53.953125 14.105469 55.578125 13.234375 C 57.203125 12.367188 58.847656 11.539062 60.511719 10.75 C 62.175781 9.964844 63.859375 9.214844 65.5625 8.511719 C 67.261719 7.804688 68.980469 7.144531 70.714844 6.523438 C 72.445312 5.902344 74.195312 5.324219 75.957031 4.789062 C 77.71875 4.253906 79.492188 3.761719 81.28125 3.316406 C 83.066406 2.867188 84.863281 2.464844 86.667969 2.105469 C 88.472656 1.746094 90.289062 1.429688 92.109375 1.160156 C 93.929688 0.890625 95.757812 0.664062 97.589844 0.484375 C 99.421875 0.304688 101.257812 0.167969 103.097656 0.078125 C 104.9375 -0.0117188 106.777344 -0.0585938 108.621094 -0.0585938 C 110.460938 -0.0585938 112.300781 -0.0117188 114.140625 0.078125 C 115.980469 0.167969 117.816406 0.304688 119.648438 0.484375 C 121.480469 0.664062 123.308594 0.890625 125.128906 1.160156 C 126.949219 1.429688 128.765625 1.746094 130.570312 2.105469 C 132.375 2.464844 134.171875 2.867188 135.960938 3.316406 C 137.746094 3.761719 139.519531 4.253906 141.28125 4.789062 C 143.042969 5.324219 144.792969 5.902344 146.527344 6.523438 C 148.257812 7.144531 149.976562 7.804688 151.679688 8.511719 C 153.378906 9.214844 155.0625 9.964844 156.726562 10.75 C 158.390625 11.539062 160.035156 12.367188 161.660156 13.234375 C 163.285156 14.105469 164.886719 15.011719 166.464844 15.960938 C 168.042969 16.90625 169.601562 17.890625 171.132812 18.914062 C 172.664062 19.9375 174.167969 21 175.644531 22.097656 C 177.125 23.195312 178.578125 24.328125 180 25.496094 C 181.421875 26.667969 182.816406 27.871094 184.183594 29.105469 C 185.546875 30.34375 186.878906 31.613281 188.183594 32.917969 C 189.484375 34.21875 190.753906 35.554688 191.988281 36.917969 C 193.226562 38.285156 194.429688 39.679688 195.597656 41.105469 C 196.765625 42.527344 197.898438 43.980469 198.996094 45.460938 C 200.09375 46.941406 201.152344 48.445312 202.175781 49.976562 C 203.199219 51.511719 204.183594 53.066406 205.128906 54.648438 C 206.078125 56.226562 206.984375 57.832031 207.851562 59.457031 C 208.71875 61.082031 209.546875 62.726562 210.335938 64.390625 C 211.121094 66.058594 211.867188 67.742188 212.574219 69.441406 C 213.277344 71.144531 213.941406 72.863281 214.558594 74.597656 C 215.179688 76.332031 215.757812 78.082031 216.292969 79.847656 C 216.828125 81.609375 217.316406 83.382812 217.765625 85.171875 C 218.214844 86.960938 218.617188 88.757812 218.976562 90.5625 C 219.335938 92.371094 219.648438 94.1875 219.917969 96.007812 C 220.191406 97.832031 220.414062 99.660156 220.597656 101.492188 C 220.777344 103.328125 220.910156 105.164062 221.003906 107.003906 C 221.09375 108.84375 221.136719 110.6875 221.136719 112.527344 Z M 221.136719 112.527344 " fill-opacity="1" fill-rule="nonzero"/><path fill="#212121" d="M 204.832031 375.386719 C 204.242188 375.386719 203.652344 375.304688 203.074219 375.128906 L 28.445312 322.097656 C 25.886719 321.320312 24.144531 318.964844 24.144531 316.292969 L 24.144531 112.65625 C 24.144531 110.722656 25.0625 108.90625 26.621094 107.765625 C 28.179688 106.625 30.191406 106.292969 32.03125 106.875 L 206.660156 162.027344 C 209.179688 162.820312 210.898438 165.164062 210.898438 167.808594 L 210.898438 369.324219 C 210.898438 371.246094 209.988281 373.054688 208.445312 374.199219 C 207.386719 374.980469 206.117188 375.386719 204.832031 375.386719 Z M 36.265625 311.796875 L 198.773438 361.148438 L 198.773438 172.253906 L 36.265625 120.929688 Z M 36.265625 311.796875 " fill-opacity="1" fill-rule="nonzero"/><path fill="#212121" d="M 204.832031 375.386719 C 203.765625 375.386719 202.699219 375.105469 201.75 374.546875 C 199.90625 373.453125 198.773438 371.46875 198.773438 369.324219 L 198.773438 172.253906 L 28.378906 118.441406 C 25.980469 117.679688 24.296875 115.523438 24.152344 113.007812 C 24.003906 110.496094 25.421875 108.152344 27.71875 107.121094 L 195.089844 31.898438 C 196.476562 31.277344 198.042969 31.199219 199.484375 31.675781 L 361.980469 85.648438 C 362.707031 85.871094 363.371094 86.226562 363.953125 86.683594 C 364.226562 86.894531 364.476562 87.128906 364.703125 87.382812 C 365.632812 88.414062 366.214844 89.761719 366.261719 91.246094 C 366.265625 91.328125 366.265625 91.40625 366.265625 91.488281 L 366.265625 283.78125 C 366.265625 285.992188 365.0625 288.027344 363.125 289.09375 L 207.757812 374.636719 C 206.84375 375.140625 205.839844 375.386719 204.832031 375.386719 Z M 210.894531 171.585938 L 210.894531 359.066406 L 354.140625 280.195312 L 354.140625 101.1875 Z M 47.199219 111.664062 L 204.34375 161.292969 L 344.238281 92.539062 L 197.902344 43.933594 Z M 47.199219 111.664062 " fill-opacity="1" fill-rule="nonzero"/><path fill="#a6a6a6" d="M 239.453125 304.898438 C 239.453125 343.089844 270.394531 374.039062 308.558594 374.039062 C 346.71875 374.039062 377.65625 343.085938 377.65625 304.898438 C 377.65625 266.710938 346.714844 235.75 308.558594 235.75 C 270.394531 235.753906 239.453125 266.710938 239.453125 304.898438 Z M 239.453125 304.898438 " fill-opacity="1" fill-rule="nonzero"/><path fill="#212121" d="M 308.558594 380.105469 C 267.109375 380.105469 233.390625 346.367188 233.390625 304.898438 C 233.390625 263.425781 267.109375 229.6875 308.558594 229.6875 C 350.003906 229.6875 383.71875 263.425781 383.71875 304.898438 C 383.71875 346.367188 350.003906 380.105469 308.558594 380.105469 Z M 308.558594 241.816406 C 273.792969 241.816406 245.511719 270.117188 245.511719 304.898438 C 245.511719 339.683594 273.792969 367.980469 308.558594 367.980469 C 343.316406 367.980469 371.597656 339.683594 371.597656 304.898438 C 371.597656 270.113281 343.316406 241.816406 308.558594 241.816406 Z M 308.558594 241.816406 " fill-opacity="1" fill-rule="nonzero"/><path fill="#212121" d="M 308.875 261.105469 C 305.527344 261.105469 302.8125 258.390625 302.8125 255.042969 L 302.8125 235.753906 C 302.8125 232.402344 305.527344 229.6875 308.875 229.6875 C 312.222656 229.6875 314.9375 232.402344 314.9375 235.753906 L 314.9375 255.042969 C 314.9375 258.390625 312.226562 261.105469 308.875 261.105469 Z M 308.875 261.105469 " fill-opacity="1" fill-rule="nonzero"/><path fill="#212121" d="M 308.875 380.105469 C 305.527344 380.105469 302.8125 377.390625 302.8125 374.042969 L 302.8125 354.753906 C 302.8125 351.40625 305.527344 348.691406 308.875 348.691406 C 312.222656 348.691406 314.9375 351.40625 314.9375 354.753906 L 314.9375 374.042969 C 314.9375 377.390625 312.226562 380.105469 308.875 380.105469 Z M 308.875 380.105469 " fill-opacity="1" fill-rule="nonzero"/><path fill="#212121" d="M 258.855469 310.960938 L 239.578125 310.960938 C 236.230469 310.960938 233.519531 308.246094 233.519531 304.898438 C 233.519531 301.546875 236.230469 298.832031 239.578125 298.832031 L 258.855469 298.832031 C 262.203125 298.832031 264.917969 301.546875 264.917969 304.898438 C 264.917969 308.246094 262.203125 310.960938 258.855469 310.960938 Z M 258.855469 310.960938 " fill-opacity="1" fill-rule="nonzero"/><path fill="#212121" d="M 377.496094 310.960938 L 358.214844 310.960938 C 354.867188 310.960938 352.152344 308.246094 352.152344 304.898438 C 352.152344 301.546875 354.867188 298.832031 358.214844 298.832031 L 377.496094 298.832031 C 380.84375 298.832031 383.554688 301.546875 383.554688 304.898438 C 383.554688 308.246094 380.84375 310.960938 377.496094 310.960938 Z M 377.496094 310.960938 " fill-opacity="1" fill-rule="nonzero"/><path fill="#a6a6a6" d="M 306.496094 280.417969 L 306.496094 304.898438 L 326.304688 304.898438 " fill-opacity="1" fill-rule="nonzero"/><path fill="#212121" d="M 326.304688 310.960938 L 306.496094 310.960938 C 303.148438 310.960938 300.433594 308.246094 300.433594 304.898438 L 300.433594 280.421875 C 300.433594 277.070312 303.148438 274.355469 306.496094 274.355469 C 309.84375 274.355469 312.554688 277.070312 312.554688 280.421875 L 312.554688 298.832031 L 326.304688 298.832031 C 329.652344 298.832031 332.363281 301.546875 332.363281 304.898438 C 332.363281 308.246094 329.652344 310.960938 326.304688 310.960938 Z M 326.304688 310.960938 " fill-opacity="1" fill-rule="nonzero"/><path fill="#212121" d="M 131.585938 150.738281 C 130.972656 150.738281 130.359375 150.644531 129.761719 150.457031 L 79.246094 134.503906 C 76.878906 133.753906 75.210938 131.640625 75.027344 129.164062 C 74.84375 126.6875 76.1875 124.351562 78.421875 123.265625 L 237.144531 46 C 238.566406 45.3125 240.207031 45.199219 241.707031 45.699219 L 287.578125 60.933594 C 289.898438 61.707031 291.53125 63.800781 291.710938 66.242188 C 291.890625 68.683594 290.585938 70.996094 288.402344 72.101562 L 134.320312 150.085938 C 133.46875 150.519531 132.527344 150.738281 131.585938 150.738281 Z M 97.398438 127.519531 L 131.058594 138.148438 L 269.9375 67.859375 L 240.230469 57.992188 Z M 97.398438 127.519531 " fill-opacity="1" fill-rule="nonzero"/><path fill="#212121" d="M 131.585938 181.324219 C 130.972656 181.324219 130.363281 181.234375 129.765625 181.042969 L 79.25 165.121094 C 76.726562 164.328125 75.011719 161.984375 75.011719 159.339844 L 75.011719 128.722656 C 75.011719 126.789062 75.929688 124.972656 77.488281 123.832031 C 79.046875 122.6875 81.054688 122.355469 82.898438 122.9375 L 133.414062 138.894531 C 135.933594 139.691406 137.648438 142.03125 137.648438 144.675781 L 137.648438 175.265625 C 137.648438 177.199219 136.730469 179.011719 135.171875 180.15625 C 134.117188 180.925781 132.859375 181.324219 131.585938 181.324219 Z M 87.132812 154.890625 L 125.523438 166.992188 L 125.523438 149.121094 L 87.132812 136.996094 Z M 87.132812 154.890625 " fill-opacity="1" fill-rule="nonzero"/></svg>