<svg xmlns="http://www.w3.org/2000/svg" xmlns:xlink="http://www.w3.org/1999/xlink" width="500" zoomAndPan="magnify" viewBox="0 0 375 374.999991" height="500" preserveAspectRatio="xMidYMid meet" version="1.0"><defs><clipPath id="d0480da34a"><path d="M 63 68 L 284 68 L 284 315 L 63 315 Z M 63 68 " clip-rule="nonzero"/></clipPath><clipPath id="a96d009ebd"><path d="M 198.804688 68.136719 L 283.730469 253.515625 L 148.425781 315.503906 L 63.5 130.125 Z M 198.804688 68.136719 " clip-rule="nonzero"/></clipPath><clipPath id="bafe75df2e"><path d="M 198.804688 68.136719 L 283.503906 253.015625 L 148.199219 315 L 63.5 130.125 Z M 198.804688 68.136719 " clip-rule="nonzero"/></clipPath><clipPath id="ecb8cd4fe2"><path d="M 67.5625 128.351562 L 318.585938 128.351562 L 318.585938 275.628906 L 67.5625 275.628906 Z M 67.5625 128.351562 " clip-rule="nonzero"/></clipPath><clipPath id="d911f45ff5"><path d="M 143 151 L 326 151 L 326 325 L 143 325 Z M 143 151 " clip-rule="nonzero"/></clipPath><clipPath id="3b9343047a"><path d="M 143.121094 229.371094 L 265.128906 151.527344 L 325.636719 246.367188 L 203.628906 324.210938 Z M 143.121094 229.371094 " clip-rule="nonzero"/></clipPath><clipPath id="e637e23523"><path d="M 143.121094 229.371094 L 264.816406 151.726562 L 325.328125 246.566406 L 203.628906 324.210938 Z M 143.121094 229.371094 " clip-rule="nonzero"/></clipPath><clipPath id="5ea3e7c646"><path d="M 63 174 L 235 174 L 235 325 L 63 325 Z M 63 174 " clip-rule="nonzero"/></clipPath><clipPath id="338944ef8f"><path d="M 96.03125 174.78125 L 234.578125 216.625 L 202.050781 324.320312 L 63.503906 282.480469 Z M 96.03125 174.78125 " clip-rule="nonzero"/></clipPath><clipPath id="10a67af0ed"><path d="M 96.03125 174.78125 L 234.222656 216.519531 L 201.699219 324.214844 L 63.503906 282.480469 Z M 96.03125 174.78125 " clip-rule="nonzero"/></clipPath><clipPath id="410da75c38"><path d="M 148 68 L 320 68 L 320 218 L 148 218 Z M 148 68 " clip-rule="nonzero"/></clipPath><clipPath id="bda6bbf54e"><path d="M 181.390625 68.140625 L 319.9375 109.980469 L 287.410156 217.679688 L 148.863281 175.835938 Z M 181.390625 68.140625 " clip-rule="nonzero"/></clipPath><clipPath id="455411405b"><path d="M 181.390625 68.140625 L 319.582031 109.875 L 287.058594 217.570312 L 148.863281 175.835938 Z M 181.390625 68.140625 " clip-rule="nonzero"/></clipPath><clipPath id="1721669d61"><path d="M 40.773438 40.773438 L 212 40.773438 L 212 215 L 40.773438 215 Z M 40.773438 40.773438 " clip-rule="nonzero"/></clipPath><clipPath id="eb417684db"><path d="M 220 217 L 334.023438 217 L 334.023438 334 L 220 334 Z M 220 217 " clip-rule="nonzero"/></clipPath><clipPath id="23951a37d5"><path d="M 312 271 L 334.023438 271 L 334.023438 281 L 312 281 Z M 312 271 " clip-rule="nonzero"/></clipPath></defs><g clip-path="url(#d0480da34a)"><g clip-path="url(#a96d009ebd)"><g clip-path="url(#bafe75df2e)"><path fill="#ffffff" d="M 198.804688 68.136719 L 283.488281 252.980469 L 148.183594 314.96875 L 63.5 130.125 Z M 198.804688 68.136719 " fill-opacity="1" fill-rule="nonzero"/></g></g></g><g clip-path="url(#ecb8cd4fe2)"><path fill="#ffffff" d="M 67.5625 128.351562 L 318.34375 128.351562 L 318.34375 275.421875 L 67.5625 275.421875 Z M 67.5625 128.351562 " fill-opacity="1" fill-rule="nonzero"/></g><g clip-path="url(#d911f45ff5)"><g clip-path="url(#3b9343047a)"><g clip-path="url(#e637e23523)"><path fill="#ffffff" d="M 143.121094 229.371094 L 264.632812 151.84375 L 325.144531 246.683594 L 203.628906 324.210938 Z M 143.121094 229.371094 " fill-opacity="1" fill-rule="nonzero"/></g></g></g><g clip-path="url(#5ea3e7c646)"><g clip-path="url(#338944ef8f)"><g clip-path="url(#10a67af0ed)"><path fill="#ffffff" d="M 96.03125 174.78125 L 234.015625 216.457031 L 201.492188 324.152344 L 63.503906 282.480469 Z M 96.03125 174.78125 " fill-opacity="1" fill-rule="nonzero"/></g></g></g><g clip-path="url(#410da75c38)"><g clip-path="url(#bda6bbf54e)"><g clip-path="url(#455411405b)"><path fill="#ffffff" d="M 181.390625 68.140625 L 319.375 109.8125 L 286.847656 217.507812 L 148.863281 175.835938 Z M 181.390625 68.140625 " fill-opacity="1" fill-rule="nonzero"/></g></g></g><g clip-path="url(#1721669d61)"><path fill="#5e17eb" d="M 211.535156 127.554688 C 211.535156 128.976562 211.5 130.394531 211.429688 131.816406 C 211.363281 133.234375 211.257812 134.652344 211.117188 136.066406 C 210.976562 137.480469 210.804688 138.890625 210.59375 140.296875 C 210.386719 141.699219 210.144531 143.101562 209.867188 144.496094 C 209.589844 145.886719 209.277344 147.273438 208.933594 148.652344 C 208.585938 150.03125 208.207031 151.398438 207.792969 152.757812 C 207.382812 154.121094 206.9375 155.46875 206.457031 156.804688 C 205.976562 158.144531 205.464844 159.46875 204.921875 160.78125 C 204.378906 162.09375 203.800781 163.394531 203.195312 164.679688 C 202.585938 165.964844 201.945312 167.230469 201.277344 168.484375 C 200.605469 169.738281 199.90625 170.972656 199.175781 172.191406 C 198.445312 173.414062 197.683594 174.613281 196.894531 175.792969 C 196.101562 176.976562 195.285156 178.136719 194.4375 179.277344 C 193.589844 180.417969 192.714844 181.539062 191.8125 182.636719 C 190.910156 183.734375 189.984375 184.8125 189.027344 185.863281 C 188.074219 186.917969 187.09375 187.945312 186.085938 188.953125 C 185.082031 189.957031 184.050781 190.9375 183 191.890625 C 181.945312 192.84375 180.867188 193.773438 179.769531 194.671875 C 178.671875 195.574219 177.550781 196.449219 176.40625 197.296875 C 175.265625 198.140625 174.101562 198.960938 172.921875 199.75 C 171.738281 200.539062 170.539062 201.300781 169.316406 202.03125 C 168.097656 202.761719 166.863281 203.460938 165.609375 204.128906 C 164.351562 204.800781 163.082031 205.4375 161.796875 206.046875 C 160.511719 206.652344 159.214844 207.230469 157.898438 207.773438 C 156.585938 208.316406 155.257812 208.828125 153.921875 209.308594 C 152.582031 209.785156 151.230469 210.230469 149.871094 210.644531 C 148.511719 211.054688 147.140625 211.433594 145.761719 211.78125 C 144.382812 212.125 142.996094 212.4375 141.601562 212.714844 C 140.207031 212.992188 138.804688 213.234375 137.398438 213.441406 C 135.992188 213.652344 134.582031 213.824219 133.164062 213.964844 C 131.75 214.105469 130.332031 214.207031 128.914062 214.277344 C 127.492188 214.347656 126.070312 214.382812 124.648438 214.382812 C 123.226562 214.382812 121.804688 214.347656 120.386719 214.277344 C 118.964844 214.207031 117.546875 214.105469 116.132812 213.964844 C 114.71875 213.824219 113.308594 213.652344 111.902344 213.441406 C 110.492188 213.234375 109.09375 212.992188 107.699219 212.714844 C 106.304688 212.4375 104.917969 212.125 103.539062 211.78125 C 102.160156 211.433594 100.789062 211.054688 99.425781 210.644531 C 98.066406 210.230469 96.71875 209.785156 95.378906 209.308594 C 94.039062 208.828125 92.714844 208.316406 91.398438 207.773438 C 90.085938 207.230469 88.785156 206.652344 87.5 206.046875 C 86.214844 205.4375 84.945312 204.800781 83.691406 204.128906 C 82.4375 203.460938 81.199219 202.761719 79.980469 202.03125 C 78.761719 201.300781 77.558594 200.539062 76.378906 199.75 C 75.195312 198.960938 74.035156 198.140625 72.890625 197.296875 C 71.75 196.449219 70.628906 195.574219 69.527344 194.671875 C 68.429688 193.773438 67.355469 192.84375 66.300781 191.890625 C 65.246094 190.9375 64.21875 189.957031 63.210938 188.953125 C 62.207031 187.945312 61.226562 186.917969 60.269531 185.863281 C 59.316406 184.8125 58.386719 183.734375 57.484375 182.636719 C 56.582031 181.539062 55.707031 180.417969 54.863281 179.277344 C 54.015625 178.136719 53.195312 176.976562 52.40625 175.792969 C 51.617188 174.613281 50.855469 173.414062 50.125 172.191406 C 49.394531 170.972656 48.691406 169.738281 48.023438 168.484375 C 47.351562 167.230469 46.714844 165.964844 46.105469 164.679688 C 45.496094 163.394531 44.921875 162.09375 44.375 160.78125 C 43.832031 159.46875 43.320312 158.144531 42.84375 156.804688 C 42.363281 155.46875 41.917969 154.121094 41.503906 152.757812 C 41.089844 151.398438 40.710938 150.03125 40.367188 148.652344 C 40.019531 147.273438 39.710938 145.886719 39.433594 144.496094 C 39.15625 143.101562 38.910156 141.699219 38.703125 140.296875 C 38.496094 138.890625 38.320312 137.480469 38.179688 136.066406 C 38.042969 134.652344 37.9375 133.234375 37.867188 131.816406 C 37.796875 130.394531 37.761719 128.976562 37.761719 127.554688 C 37.761719 126.132812 37.796875 124.714844 37.867188 123.292969 C 37.9375 121.875 38.042969 120.457031 38.179688 119.042969 C 38.320312 117.628906 38.496094 116.21875 38.703125 114.816406 C 38.910156 113.410156 39.15625 112.007812 39.433594 110.617188 C 39.710938 109.222656 40.019531 107.835938 40.367188 106.457031 C 40.710938 105.078125 41.089844 103.710938 41.503906 102.351562 C 41.917969 100.992188 42.363281 99.640625 42.84375 98.304688 C 43.320312 96.964844 43.832031 95.640625 44.375 94.328125 C 44.921875 93.015625 45.496094 91.714844 46.105469 90.429688 C 46.714844 89.148438 47.351562 87.878906 48.023438 86.625 C 48.691406 85.371094 49.394531 84.136719 50.125 82.917969 C 50.855469 81.699219 51.617188 80.496094 52.40625 79.316406 C 53.195312 78.132812 54.015625 76.972656 54.863281 75.832031 C 55.707031 74.691406 56.582031 73.570312 57.484375 72.472656 C 58.386719 71.375 59.316406 70.296875 60.269531 69.246094 C 61.226562 68.191406 62.207031 67.164062 63.210938 66.160156 C 64.21875 65.152344 65.246094 64.175781 66.300781 63.21875 C 67.355469 62.265625 68.429688 61.339844 69.527344 60.4375 C 70.628906 59.535156 71.75 58.660156 72.890625 57.816406 C 74.035156 56.96875 75.195312 56.148438 76.378906 55.359375 C 77.558594 54.570312 78.761719 53.8125 79.980469 53.082031 C 81.199219 52.351562 82.4375 51.648438 83.691406 50.980469 C 84.945312 50.308594 86.214844 49.671875 87.5 49.0625 C 88.785156 48.457031 90.085938 47.878906 91.398438 47.335938 C 92.714844 46.792969 94.039062 46.28125 95.378906 45.804688 C 96.71875 45.324219 98.066406 44.878906 99.425781 44.464844 C 100.789062 44.054688 102.160156 43.675781 103.539062 43.328125 C 104.917969 42.984375 106.304688 42.671875 107.699219 42.394531 C 109.09375 42.117188 110.492188 41.875 111.902344 41.667969 C 113.308594 41.457031 114.71875 41.285156 116.132812 41.144531 C 117.546875 41.007812 118.964844 40.902344 120.386719 40.832031 C 121.804688 40.761719 123.226562 40.726562 124.648438 40.726562 C 126.070312 40.726562 127.492188 40.761719 128.914062 40.832031 C 130.332031 40.902344 131.75 41.007812 133.164062 41.144531 C 134.582031 41.285156 135.992188 41.457031 137.398438 41.667969 C 138.804688 41.875 140.207031 42.117188 141.601562 42.394531 C 142.996094 42.671875 144.382812 42.984375 145.761719 43.328125 C 147.140625 43.675781 148.511719 44.054688 149.871094 44.464844 C 151.230469 44.878906 152.582031 45.324219 153.921875 45.804688 C 155.257812 46.28125 156.585938 46.792969 157.898438 47.335938 C 159.214844 47.878906 160.511719 48.457031 161.796875 49.0625 C 163.082031 49.671875 164.351562 50.308594 165.609375 50.980469 C 166.863281 51.648438 168.097656 52.351562 169.316406 53.082031 C 170.539062 53.8125 171.738281 54.570312 172.921875 55.359375 C 174.101562 56.148438 175.265625 56.96875 176.40625 57.816406 C 177.550781 58.660156 178.671875 59.535156 179.769531 60.4375 C 180.867188 61.339844 181.945312 62.265625 183 63.21875 C 184.050781 64.175781 185.082031 65.152344 186.085938 66.160156 C 187.09375 67.164062 188.074219 68.191406 189.027344 69.246094 C 189.984375 70.296875 190.910156 71.375 191.8125 72.472656 C 192.714844 73.570312 193.589844 74.691406 194.4375 75.832031 C 195.285156 76.972656 196.101562 78.132812 196.894531 79.316406 C 197.683594 80.496094 198.445312 81.699219 199.175781 82.917969 C 199.90625 84.136719 200.605469 85.371094 201.277344 86.625 C 201.945312 87.878906 202.585938 89.148438 203.195312 90.429688 C 203.800781 91.714844 204.378906 93.015625 204.921875 94.328125 C 205.464844 95.640625 205.976562 96.964844 206.457031 98.304688 C 206.9375 99.640625 207.382812 100.992188 207.792969 102.351562 C 208.207031 103.710938 208.585938 105.078125 208.933594 106.457031 C 209.277344 107.835938 209.589844 109.222656 209.867188 110.617188 C 210.144531 112.007812 210.386719 113.410156 210.59375 114.816406 C 210.804688 116.21875 210.976562 117.628906 211.117188 119.042969 C 211.257812 120.457031 211.363281 121.875 211.429688 123.292969 C 211.5 124.714844 211.535156 126.132812 211.535156 127.554688 Z M 211.535156 127.554688 " fill-opacity="1" fill-rule="nonzero"/></g><path fill="#212121" d="M 198.945312 330.273438 C 198.492188 330.273438 198.035156 330.207031 197.585938 330.070312 L 62.738281 289.175781 C 60.765625 288.574219 59.417969 286.757812 59.417969 284.699219 L 59.417969 127.652344 C 59.417969 126.164062 60.125 124.761719 61.332031 123.882812 C 62.535156 123 64.085938 122.746094 65.507812 123.195312 L 200.355469 165.726562 C 202.304688 166.339844 203.628906 168.148438 203.628906 170.1875 L 203.628906 325.597656 C 203.628906 327.078125 202.925781 328.472656 201.734375 329.355469 C 200.917969 329.957031 199.9375 330.273438 198.945312 330.273438 Z M 68.777344 281.230469 L 194.265625 319.289062 L 194.265625 173.617188 L 68.777344 134.035156 Z M 68.777344 281.230469 " fill-opacity="1" fill-rule="nonzero"/><path fill="#212121" d="M 198.945312 330.273438 C 198.121094 330.273438 197.296875 330.054688 196.566406 329.625 C 195.140625 328.78125 194.265625 327.25 194.265625 325.597656 L 194.265625 173.617188 L 62.6875 132.113281 C 60.835938 131.527344 59.535156 129.863281 59.421875 127.925781 C 59.3125 125.988281 60.40625 124.179688 62.179688 123.386719 L 191.421875 65.375 C 192.492188 64.894531 193.703125 64.832031 194.816406 65.203125 L 320.296875 106.828125 C 320.855469 106.996094 321.371094 107.269531 321.820312 107.625 C 322.027344 107.785156 322.222656 107.96875 322.398438 108.164062 C 323.117188 108.957031 323.566406 109.996094 323.601562 111.140625 C 323.605469 111.203125 323.605469 111.265625 323.605469 111.328125 L 323.605469 259.625 C 323.605469 261.332031 322.675781 262.902344 321.179688 263.722656 L 201.203125 329.691406 C 200.5 330.082031 199.722656 330.273438 198.945312 330.273438 Z M 203.625 173.101562 L 203.625 317.6875 L 314.242188 256.859375 L 314.242188 118.808594 Z M 77.222656 126.890625 L 198.566406 165.164062 L 306.597656 112.136719 L 193.59375 74.65625 Z M 77.222656 126.890625 " fill-opacity="1" fill-rule="nonzero"/><path fill="#aeadac" d="M 225.679688 275.910156 C 225.679688 305.363281 249.574219 329.234375 279.042969 329.234375 C 308.507812 329.234375 332.402344 305.363281 332.402344 275.910156 C 332.402344 246.460938 308.507812 222.585938 279.042969 222.585938 C 249.574219 222.585938 225.679688 246.460938 225.679688 275.910156 Z M 225.679688 275.910156 " fill-opacity="1" fill-rule="nonzero"/><g clip-path="url(#eb417684db)"><path fill="#212121" d="M 279.042969 333.910156 C 247.035156 333.910156 220.996094 307.894531 220.996094 275.910156 C 220.996094 243.925781 247.035156 217.90625 279.042969 217.90625 C 311.046875 217.90625 337.082031 243.925781 337.082031 275.910156 C 337.082031 307.890625 311.046875 333.910156 279.042969 333.910156 Z M 279.042969 227.261719 C 252.199219 227.261719 230.359375 249.085938 230.359375 275.910156 C 230.359375 302.738281 252.199219 324.558594 279.042969 324.558594 C 305.882812 324.558594 327.71875 302.738281 327.71875 275.910156 C 327.71875 249.085938 305.882812 227.261719 279.042969 227.261719 Z M 279.042969 227.261719 " fill-opacity="1" fill-rule="nonzero"/></g><path fill="#212121" d="M 279.285156 242.140625 C 276.703125 242.140625 274.605469 240.046875 274.605469 237.460938 L 274.605469 222.585938 C 274.605469 220.003906 276.703125 217.910156 279.285156 217.910156 C 281.871094 217.910156 283.96875 220.003906 283.96875 222.585938 L 283.96875 237.460938 C 283.96875 240.042969 281.875 242.140625 279.285156 242.140625 Z M 279.285156 242.140625 " fill-opacity="1" fill-rule="nonzero"/><path fill="#212121" d="M 279.285156 333.910156 C 276.703125 333.910156 274.605469 331.816406 274.605469 329.234375 L 274.605469 314.359375 C 274.605469 311.777344 276.703125 309.683594 279.285156 309.683594 C 281.871094 309.683594 283.96875 311.777344 283.96875 314.359375 L 283.96875 329.234375 C 283.96875 331.816406 281.875 333.910156 279.285156 333.910156 Z M 279.285156 333.910156 " fill-opacity="1" fill-rule="nonzero"/><path fill="#212121" d="M 240.664062 280.585938 L 225.777344 280.585938 C 223.191406 280.585938 221.097656 278.492188 221.097656 275.910156 C 221.097656 273.328125 223.191406 271.234375 225.777344 271.234375 L 240.664062 271.234375 C 243.246094 271.234375 245.34375 273.328125 245.34375 275.910156 C 245.34375 278.492188 243.246094 280.585938 240.664062 280.585938 Z M 240.664062 280.585938 " fill-opacity="1" fill-rule="nonzero"/><g clip-path="url(#23951a37d5)"><path fill="#212121" d="M 332.273438 280.585938 L 317.386719 280.585938 C 314.800781 280.585938 312.707031 278.492188 312.707031 275.910156 C 312.707031 273.328125 314.800781 271.234375 317.386719 271.234375 L 332.273438 271.234375 C 334.859375 271.234375 336.953125 273.328125 336.953125 275.910156 C 336.953125 278.492188 334.859375 280.585938 332.273438 280.585938 Z M 332.273438 280.585938 " fill-opacity="1" fill-rule="nonzero"/></g><path fill="#aeadac" d="M 277.449219 257.03125 L 277.449219 275.910156 L 292.746094 275.910156 " fill-opacity="1" fill-rule="nonzero"/><path fill="#212121" d="M 292.746094 280.585938 L 277.449219 280.585938 C 274.863281 280.585938 272.769531 278.492188 272.769531 275.910156 L 272.769531 257.035156 C 272.769531 254.449219 274.863281 252.355469 277.449219 252.355469 C 280.035156 252.355469 282.128906 254.449219 282.128906 257.035156 L 282.128906 271.234375 L 292.746094 271.234375 C 295.332031 271.234375 297.425781 273.328125 297.425781 275.910156 C 297.425781 278.492188 295.332031 280.585938 292.746094 280.585938 Z M 292.746094 280.585938 " fill-opacity="1" fill-rule="nonzero"/><path fill="#212121" d="M 142.382812 157.023438 C 141.910156 157.023438 141.4375 156.949219 140.976562 156.804688 L 101.96875 144.5 C 100.140625 143.925781 98.851562 142.292969 98.707031 140.382812 C 98.566406 138.472656 99.605469 136.671875 101.328125 135.835938 L 223.894531 76.25 C 224.996094 75.714844 226.261719 75.628906 227.417969 76.015625 L 262.839844 87.765625 C 264.632812 88.359375 265.894531 89.976562 266.035156 91.859375 C 266.171875 93.742188 265.164062 95.523438 263.480469 96.378906 L 144.496094 156.519531 C 143.835938 156.855469 143.113281 157.023438 142.382812 157.023438 Z M 115.984375 139.113281 L 141.976562 147.3125 L 249.21875 93.105469 L 226.277344 85.496094 Z M 115.984375 139.113281 " fill-opacity="1" fill-rule="nonzero"/><path fill="#212121" d="M 142.382812 180.613281 C 141.910156 180.613281 141.4375 180.542969 140.980469 180.394531 L 101.972656 168.117188 C 100.023438 167.5 98.695312 165.695312 98.695312 163.65625 L 98.695312 140.042969 C 98.695312 138.550781 99.40625 137.152344 100.609375 136.273438 C 101.8125 135.390625 103.363281 135.136719 104.785156 135.582031 L 143.792969 147.886719 C 145.742188 148.5 147.066406 150.308594 147.066406 152.347656 L 147.066406 175.9375 C 147.066406 177.429688 146.355469 178.828125 145.152344 179.707031 C 144.339844 180.300781 143.367188 180.613281 142.382812 180.613281 Z M 108.054688 160.226562 L 137.703125 169.558594 L 137.703125 155.773438 L 108.054688 146.421875 Z M 108.054688 160.226562 " fill-opacity="1" fill-rule="nonzero"/></svg>