<svg xmlns="http://www.w3.org/2000/svg" xmlns:xlink="http://www.w3.org/1999/xlink" width="500" zoomAndPan="magnify" viewBox="0 0 375 374.999991" height="500" preserveAspectRatio="xMidYMid meet" version="1.0"><defs><g/><clipPath id="273dcc2b52"><path d="M 56.488281 265.429688 L 318.238281 265.429688 L 318.238281 337.429688 L 56.488281 337.429688 Z M 56.488281 265.429688 " clip-rule="nonzero"/></clipPath><clipPath id="d06499c61d"><path d="M 63.558594 272.203125 L 187.332031 272.203125 L 187.332031 330.726562 L 63.558594 330.726562 Z M 63.558594 272.203125 " clip-rule="nonzero"/></clipPath><clipPath id="b9028afaac"><path d="M 177 37.5 L 245.257812 37.5 L 245.257812 103 L 177 103 Z M 177 37.5 " clip-rule="nonzero"/></clipPath><clipPath id="e3dec7a7cc"><path d="M 129.757812 115 L 240 115 L 240 138 L 129.757812 138 Z M 129.757812 115 " clip-rule="nonzero"/></clipPath><clipPath id="cdef338f28"><path d="M 150 244 L 219 244 L 219 255.75 L 150 255.75 Z M 150 244 " clip-rule="nonzero"/></clipPath></defs><rect x="-37.5" width="450" fill="#ffffff" y="-37.499999" height="449.999989" fill-opacity="1"/><rect x="-37.5" width="450" fill="#ffffff" y="-37.499999" height="449.999989" fill-opacity="1"/><rect x="-37.5" width="450" fill="#ffffff" y="-37.499999" height="449.999989" fill-opacity="1"/><g clip-path="url(#273dcc2b52)"><path stroke-linecap="butt" transform="matrix(0.750202, 0, 0, 0.749268, 56.489269, 265.430051)" fill="none" stroke-linejoin="miter" d="M -0.00131637 -0.000485634 L 348.904932 -0.000485634 L 348.904932 96.093274 L -0.00131637 96.093274 L -0.00131637 -0.000485634 " stroke="#229f9b" stroke-width="6" stroke-opacity="1" stroke-miterlimit="4"/></g><g clip-path="url(#d06499c61d)"><path fill="#188680" d="M 63.558594 272.203125 L 187.515625 272.203125 L 187.515625 330.808594 L 63.558594 330.808594 Z M 63.558594 272.203125 " fill-opacity="1" fill-rule="nonzero"/></g><g clip-path="url(#b9028afaac)"><path fill="#229f9b" d="M 180.625 101.074219 C 181.410156 93.238281 182.195312 85.40625 182.976562 77.570312 C 183.761719 69.738281 184.546875 61.902344 185.332031 54.070312 C 185.375 53.609375 185.421875 53.152344 185.46875 52.691406 C 185.492188 52.449219 185.515625 52.203125 185.542969 51.960938 C 185.550781 51.878906 185.558594 51.792969 185.566406 51.710938 C 185.574219 51.660156 185.652344 51.257812 185.582031 51.589844 C 185.617188 51.425781 185.640625 51.257812 185.679688 51.089844 C 185.707031 50.992188 185.75 50.890625 185.769531 50.789062 C 185.808594 50.582031 185.660156 50.976562 185.761719 50.792969 C 185.8125 50.703125 185.859375 50.613281 185.910156 50.519531 C 185.957031 50.4375 186.078125 50.367188 185.90625 50.523438 C 185.960938 50.472656 186.019531 50.40625 186.070312 50.351562 C 186.316406 50.109375 185.851562 50.46875 186.152344 50.296875 C 186.292969 50.21875 186.429688 50.140625 186.574219 50.074219 C 186.292969 50.203125 186.542969 50.09375 186.621094 50.066406 C 186.71875 50.03125 186.816406 50 186.914062 49.972656 C 187.28125 49.867188 187.65625 49.789062 188.03125 49.710938 C 188.980469 49.515625 189.933594 49.320312 190.882812 49.128906 C 194.714844 48.351562 198.550781 47.59375 202.390625 46.863281 C 210.042969 45.398438 217.710938 44.027344 225.398438 42.746094 C 229.277344 42.097656 233.164062 41.46875 237.054688 40.871094 C 237.242188 40.84375 237.429688 40.8125 237.617188 40.785156 C 237.914062 40.742188 237.710938 40.773438 237.648438 40.78125 C 237.765625 40.765625 237.886719 40.75 238.003906 40.738281 C 238.453125 40.6875 238.902344 40.65625 239.355469 40.65625 C 239.539062 40.65625 239.726562 40.660156 239.914062 40.671875 C 240.007812 40.679688 240.101562 40.6875 240.191406 40.699219 C 239.910156 40.667969 240.210938 40.703125 240.28125 40.714844 C 240.488281 40.753906 240.6875 40.804688 240.886719 40.863281 C 240.976562 40.890625 241.0625 40.925781 241.148438 40.953125 C 240.910156 40.875 241.21875 40.984375 241.265625 41.011719 C 241.316406 41.039062 241.367188 41.070312 241.417969 41.101562 C 241.640625 41.222656 241.332031 41.0625 241.335938 41.03125 C 241.332031 41.042969 241.601562 41.296875 241.625 41.324219 C 241.765625 41.453125 241.445312 41.019531 241.597656 41.292969 C 241.628906 41.347656 241.667969 41.402344 241.699219 41.457031 C 241.734375 41.515625 241.761719 41.574219 241.792969 41.632812 C 241.957031 41.925781 241.699219 41.335938 241.808594 41.664062 C 241.917969 41.984375 242 42.304688 242.054688 42.636719 C 242 42.300781 242.054688 42.742188 242.058594 42.847656 C 242.070312 43.058594 242.070312 43.269531 242.058594 43.480469 C 242.054688 43.566406 242.050781 43.652344 242.042969 43.742188 C 242.042969 43.730469 242 44.160156 242.027344 43.941406 C 242.054688 43.722656 241.988281 44.164062 241.988281 44.148438 C 241.972656 44.242188 241.953125 44.332031 241.933594 44.421875 C 241.84375 44.84375 241.714844 45.253906 241.5625 45.660156 C 241.292969 46.378906 241.863281 47.300781 242.589844 47.464844 C 243.425781 47.65625 244.109375 47.210938 244.398438 46.441406 C 245.023438 44.777344 245.257812 42.804688 244.714844 41.085938 C 244.480469 40.335938 244.097656 39.589844 243.515625 39.046875 C 242.867188 38.429688 242.003906 38.070312 241.132812 37.894531 C 239.136719 37.496094 237.132812 37.902344 235.152344 38.210938 C 233.183594 38.519531 231.210938 38.832031 229.242188 39.152344 C 221.261719 40.445312 213.292969 41.835938 205.34375 43.324219 C 201.367188 44.066406 197.398438 44.835938 193.429688 45.625 C 191.476562 46.015625 189.519531 46.414062 187.566406 46.816406 C 186.675781 47 185.804688 47.183594 184.980469 47.585938 C 184.03125 48.050781 183.367188 48.863281 182.996094 49.832031 C 182.671875 50.683594 182.632812 51.628906 182.542969 52.53125 C 182.441406 53.527344 182.34375 54.527344 182.242188 55.527344 C 182.039062 57.582031 181.832031 59.632812 181.625 61.6875 C 181.21875 65.738281 180.816406 69.792969 180.410156 73.84375 C 179.601562 81.921875 178.792969 89.996094 177.984375 98.074219 C 177.882812 99.074219 177.785156 100.074219 177.683594 101.074219 C 177.605469 101.839844 178.414062 102.574219 179.15625 102.542969 C 180.015625 102.503906 180.542969 101.894531 180.625 101.074219 Z M 180.625 101.074219 " fill-opacity="1" fill-rule="nonzero"/></g><path fill="#229f9b" d="M 188.570312 101.074219 C 188.972656 96.964844 189.371094 92.859375 189.785156 88.753906 C 190.246094 84.136719 190.722656 79.523438 191.222656 74.910156 C 191.460938 72.757812 191.699219 70.609375 191.957031 68.457031 C 192.070312 67.484375 192.1875 66.507812 192.308594 65.535156 C 192.367188 65.078125 192.425781 64.625 192.484375 64.167969 C 192.511719 63.964844 192.535156 63.761719 192.5625 63.554688 C 192.589844 63.351562 192.578125 63.070312 192.652344 62.878906 C 192.664062 62.855469 192.605469 63.234375 192.628906 63.074219 C 192.632812 63.023438 192.640625 62.972656 192.648438 62.921875 C 192.660156 62.820312 192.675781 62.71875 192.691406 62.617188 C 192.71875 62.40625 192.746094 62.195312 192.777344 61.988281 C 192.828125 61.613281 192.882812 61.242188 192.9375 60.871094 C 193.035156 60.230469 193.132812 59.589844 193.242188 58.953125 C 193.386719 58.09375 193.523438 57.214844 193.785156 56.382812 C 193.804688 56.328125 193.824219 56.269531 193.839844 56.214844 C 193.9375 55.921875 193.75 56.417969 193.761719 56.390625 C 193.894531 56.097656 193.71875 56.441406 193.644531 56.511719 C 193.757812 56.40625 193.265625 56.734375 193.414062 56.6875 C 193.445312 56.675781 193.476562 56.644531 193.507812 56.632812 C 193.542969 56.617188 193.582031 56.597656 193.617188 56.578125 C 193.792969 56.480469 193.160156 56.757812 193.429688 56.660156 C 194.070312 56.429688 194.722656 56.253906 195.382812 56.089844 C 197.832031 55.484375 200.320312 55.015625 202.800781 54.542969 C 206.253906 53.890625 209.710938 53.28125 213.171875 52.6875 C 216.960938 52.035156 220.753906 51.402344 224.542969 50.78125 C 227.976562 50.21875 231.410156 49.664062 234.84375 49.109375 C 237.238281 48.726562 239.632812 48.34375 242.027344 47.953125 C 242.375 47.898438 242.722656 47.839844 243.070312 47.78125 C 243.832031 47.65625 244.324219 46.675781 244.097656 45.976562 C 243.832031 45.152344 243.105469 44.8125 242.289062 44.949219 C 240.226562 45.292969 238.164062 45.621094 236.097656 45.949219 C 232.820312 46.476562 229.539062 47.003906 226.261719 47.539062 C 222.476562 48.15625 218.691406 48.78125 214.910156 49.425781 C 211.28125 50.039062 207.65625 50.667969 204.035156 51.335938 C 201.273438 51.84375 198.507812 52.363281 195.765625 52.984375 C 194.925781 53.175781 194.082031 53.371094 193.257812 53.621094 C 192.65625 53.804688 192.011719 54 191.550781 54.449219 C 191.003906 54.976562 190.847656 55.894531 190.699219 56.605469 C 190.453125 57.757812 190.273438 58.925781 190.101562 60.089844 C 189.539062 63.882812 189.09375 67.691406 188.660156 71.5 C 188.140625 76.097656 187.660156 80.703125 187.191406 85.304688 C 186.746094 89.65625 186.320312 94.011719 185.890625 98.363281 C 185.804688 99.265625 185.714844 100.167969 185.625 101.074219 C 185.550781 101.839844 186.355469 102.574219 187.097656 102.542969 C 187.957031 102.503906 188.488281 101.894531 188.570312 101.074219 Z M 188.570312 101.074219 " fill-opacity="1" fill-rule="nonzero"/><path fill="#229f9b" d="M 176.914062 103.226562 C 180.496094 105.570312 185.394531 105.628906 189.050781 103.421875 C 189.710938 103.023438 190.015625 102.085938 189.578125 101.414062 C 189.152344 100.753906 188.269531 100.460938 187.566406 100.886719 C 187.367188 101.003906 187.167969 101.121094 186.960938 101.226562 C 186.867188 101.273438 186.773438 101.320312 186.679688 101.363281 C 186.644531 101.382812 186.261719 101.542969 186.570312 101.417969 C 186.179688 101.574219 185.78125 101.710938 185.375 101.816406 C 185.152344 101.875 184.925781 101.925781 184.699219 101.96875 C 184.59375 101.988281 184.492188 102.007812 184.386719 102.023438 C 183.976562 102.097656 184.695312 102 184.277344 102.039062 C 183.839844 102.082031 183.398438 102.105469 182.957031 102.097656 C 182.746094 102.09375 182.535156 102.085938 182.324219 102.070312 C 182.21875 102.058594 182.117188 102.050781 182.011719 102.039062 C 181.59375 102 182.3125 102.09375 181.902344 102.023438 C 181.464844 101.949219 181.035156 101.855469 180.609375 101.730469 C 180.390625 101.664062 180.171875 101.59375 179.953125 101.511719 C 179.875 101.480469 179.796875 101.449219 179.71875 101.417969 C 180.027344 101.539062 179.644531 101.382812 179.609375 101.367188 C 179.191406 101.171875 178.789062 100.941406 178.402344 100.6875 C 177.757812 100.265625 176.746094 100.539062 176.386719 101.214844 C 176 101.949219 176.226562 102.773438 176.914062 103.226562 Z M 176.914062 103.226562 " fill-opacity="1" fill-rule="nonzero"/><path fill="#229f9b" d="M 144.410156 112.214844 C 148.707031 113.917969 153.246094 114.984375 157.792969 115.765625 C 163.25 116.699219 168.78125 117.226562 174.3125 117.480469 C 180.191406 117.753906 186.082031 117.722656 191.957031 117.4375 C 197.9375 117.148438 203.902344 116.589844 209.832031 115.765625 C 215.191406 115.015625 220.527344 114.035156 225.773438 112.691406 C 226.371094 112.539062 226.972656 112.378906 227.570312 112.214844 C 228.3125 112.011719 228.839844 111.164062 228.597656 110.40625 C 228.351562 109.648438 227.582031 109.164062 226.785156 109.382812 C 221.671875 110.785156 216.457031 111.816406 211.214844 112.617188 C 210.515625 112.722656 209.8125 112.824219 209.113281 112.921875 C 208.929688 112.949219 208.75 112.972656 208.566406 113 C 208.472656 113.011719 208.003906 113.074219 208.351562 113.027344 C 207.984375 113.078125 207.617188 113.125 207.253906 113.171875 C 205.8125 113.355469 204.375 113.519531 202.929688 113.667969 C 200 113.972656 197.058594 114.210938 194.117188 114.386719 C 188.242188 114.730469 182.347656 114.828125 176.464844 114.628906 C 173.640625 114.535156 170.816406 114.371094 168 114.125 C 166.644531 114.007812 165.289062 113.867188 163.9375 113.707031 C 163.636719 113.671875 163.332031 113.636719 163.03125 113.597656 C 162.863281 113.574219 162.691406 113.554688 162.523438 113.53125 C 162.449219 113.523438 162.375 113.511719 162.296875 113.503906 C 162.109375 113.476562 162.585938 113.542969 162.296875 113.503906 C 161.632812 113.410156 160.96875 113.316406 160.304688 113.214844 C 155.664062 112.5 151.027344 111.507812 146.601562 109.914062 C 146.128906 109.746094 145.660156 109.566406 145.191406 109.382812 C 144.476562 109.097656 143.546875 109.691406 143.382812 110.40625 C 143.191406 111.253906 143.644531 111.910156 144.410156 112.214844 Z M 144.410156 112.214844 " fill-opacity="1" fill-rule="nonzero"/><path fill="#229f9b" d="M 187.402344 99.414062 C 191.128906 99.464844 194.851562 99.652344 198.5625 99.984375 C 200.398438 100.148438 202.230469 100.34375 204.054688 100.578125 C 204.933594 100.6875 205.617188 100.78125 206.609375 100.929688 C 207.535156 101.066406 208.460938 101.210938 209.386719 101.367188 C 212.300781 101.855469 215.207031 102.402344 218.066406 103.132812 C 219.296875 103.445312 220.523438 103.78125 221.730469 104.171875 C 222.226562 104.332031 222.714844 104.507812 223.203125 104.695312 C 223.402344 104.773438 222.878906 104.546875 223.199219 104.695312 C 223.289062 104.738281 223.378906 104.777344 223.46875 104.824219 C 223.546875 104.867188 223.636719 104.945312 223.714844 104.976562 C 223.6875 104.964844 223.441406 104.722656 223.574219 104.875 C 223.613281 104.921875 223.660156 104.960938 223.703125 105 C 223.734375 105.035156 223.761719 105.078125 223.800781 105.113281 C 223.894531 105.199219 223.585938 104.792969 223.753906 105.058594 C 223.820312 105.164062 223.890625 105.261719 223.953125 105.371094 C 224.023438 105.496094 224.09375 105.625 224.15625 105.753906 C 224.183594 105.808594 224.207031 105.863281 224.234375 105.917969 C 224.386719 106.25 224.230469 105.914062 224.234375 105.910156 C 224.269531 105.898438 224.804688 107.617188 224.847656 107.769531 C 225.164062 108.90625 225.375 110.074219 225.757812 111.1875 C 226.007812 111.914062 226.78125 112.46875 227.570312 112.214844 C 228.289062 111.980469 228.863281 111.1875 228.597656 110.40625 C 227.847656 108.226562 227.664062 105.828125 226.449219 103.816406 C 226.117188 103.265625 225.707031 102.785156 225.175781 102.421875 C 224.738281 102.125 224.203125 101.945312 223.714844 101.757812 C 222.578125 101.324219 221.398438 100.984375 220.222656 100.664062 C 213.710938 98.882812 206.949219 97.878906 200.234375 97.207031 C 195.972656 96.777344 191.691406 96.535156 187.402344 96.476562 C 186.632812 96.464844 185.898438 97.160156 185.933594 97.945312 C 185.96875 98.75 186.578125 99.402344 187.402344 99.414062 Z M 187.402344 99.414062 " fill-opacity="1" fill-rule="nonzero"/><path fill="#229f9b" d="M 145.347656 110.292969 C 145.386719 109.746094 145.433594 109.199219 145.496094 108.65625 C 145.5 108.628906 145.523438 108.417969 145.5 108.597656 C 145.476562 108.792969 145.511719 108.523438 145.519531 108.476562 C 145.539062 108.351562 145.558594 108.226562 145.582031 108.101562 C 145.628906 107.835938 145.6875 107.566406 145.753906 107.300781 C 145.820312 107.042969 145.898438 106.785156 145.988281 106.53125 C 146.007812 106.476562 146.132812 106.15625 146.070312 106.304688 C 146 106.46875 146.082031 106.28125 146.09375 106.257812 C 146.136719 106.167969 146.179688 106.074219 146.230469 105.984375 C 146.34375 105.769531 146.484375 105.574219 146.609375 105.363281 C 146.691406 105.226562 146.578125 105.402344 146.5625 105.417969 C 146.613281 105.355469 146.664062 105.292969 146.71875 105.230469 C 146.816406 105.125 146.917969 105.019531 147.023438 104.917969 C 147.066406 104.878906 147.320312 104.652344 147.214844 104.742188 C 147.089844 104.84375 147.253906 104.710938 147.269531 104.703125 C 147.339844 104.652344 147.410156 104.605469 147.484375 104.558594 C 147.714844 104.40625 147.960938 104.273438 148.210938 104.15625 C 148.269531 104.128906 148.328125 104.101562 148.386719 104.074219 C 148.367188 104.085938 148.175781 104.15625 148.335938 104.097656 C 148.476562 104.042969 148.617188 103.988281 148.761719 103.9375 C 149.027344 103.84375 149.300781 103.761719 149.574219 103.6875 C 150.851562 103.332031 152.15625 103.070312 153.453125 102.792969 C 156.195312 102.210938 158.957031 101.699219 161.726562 101.261719 C 162.410156 101.152344 163.09375 101.046875 163.78125 100.949219 C 164.097656 100.902344 164.414062 100.859375 164.730469 100.8125 C 164.914062 100.789062 165.097656 100.761719 165.28125 100.738281 C 165.246094 100.742188 165.113281 100.761719 165.289062 100.738281 C 165.394531 100.722656 165.5 100.710938 165.605469 100.695312 C 167 100.511719 168.398438 100.351562 169.796875 100.207031 C 172.910156 99.886719 176.03125 99.660156 179.15625 99.527344 C 179.921875 99.496094 180.660156 98.875 180.625 98.058594 C 180.589844 97.292969 179.976562 96.558594 179.15625 96.59375 C 173.265625 96.839844 167.398438 97.429688 161.578125 98.328125 C 158.671875 98.777344 155.78125 99.304688 152.90625 99.914062 C 150.304688 100.460938 147.421875 100.847656 145.28125 102.546875 C 142.964844 104.390625 142.601562 107.546875 142.40625 110.292969 C 142.351562 111.0625 143.121094 111.796875 143.878906 111.761719 C 144.722656 111.722656 145.292969 111.117188 145.347656 110.292969 Z M 145.347656 110.292969 " fill-opacity="1" fill-rule="nonzero"/><path fill="#229f9b" d="M 146.109375 105.632812 C 147.882812 106.617188 149.847656 107.253906 151.804688 107.753906 C 154.222656 108.371094 156.6875 108.773438 159.15625 109.101562 C 164.371094 109.796875 169.636719 110.089844 174.894531 110.234375 C 179.148438 110.351562 183.417969 110.382812 187.675781 110.273438 C 193.386719 110.125 199.097656 109.726562 204.785156 109.1875 C 210.792969 108.613281 216.804688 107.898438 222.734375 106.769531 C 223.367188 106.652344 224 106.523438 224.628906 106.394531 C 225.382812 106.234375 225.890625 105.308594 225.65625 104.585938 C 225.398438 103.792969 224.65625 103.390625 223.847656 103.558594 C 221.152344 104.128906 218.433594 104.578125 215.707031 104.96875 C 215.359375 105.019531 215.011719 105.070312 214.664062 105.117188 C 214.480469 105.144531 214.292969 105.167969 214.109375 105.195312 C 214.042969 105.203125 213.816406 105.230469 214.125 105.191406 C 214 105.207031 213.875 105.222656 213.75 105.242188 C 213.015625 105.335938 212.277344 105.429688 211.542969 105.519531 C 210.003906 105.707031 208.460938 105.878906 206.917969 106.039062 C 201.117188 106.632812 195.296875 107.070312 189.46875 107.277344 C 185.261719 107.429688 181.042969 107.421875 176.832031 107.34375 C 171.664062 107.242188 166.488281 107.003906 161.351562 106.433594 C 160.707031 106.359375 160.0625 106.28125 159.421875 106.199219 C 159.351562 106.191406 159.277344 106.179688 159.207031 106.171875 C 159.570312 106.222656 159.363281 106.191406 159.285156 106.179688 C 159.125 106.160156 158.96875 106.136719 158.8125 106.113281 C 158.484375 106.066406 158.15625 106.019531 157.828125 105.96875 C 156.636719 105.785156 155.453125 105.570312 154.277344 105.320312 C 153.21875 105.089844 152.167969 104.832031 151.132812 104.519531 C 150.65625 104.375 150.179688 104.21875 149.710938 104.050781 C 149.5 103.972656 149.289062 103.894531 149.082031 103.8125 C 148.988281 103.773438 148.894531 103.726562 148.796875 103.695312 C 149.265625 103.851562 148.847656 103.714844 148.734375 103.664062 C 148.347656 103.492188 147.964844 103.304688 147.59375 103.097656 C 146.921875 102.722656 145.957031 102.910156 145.582031 103.625 C 145.214844 104.3125 145.390625 105.234375 146.109375 105.632812 Z M 146.109375 105.632812 " fill-opacity="1" fill-rule="nonzero"/><g clip-path="url(#e3dec7a7cc)"><path fill="#229f9b" d="M 129.761719 117.875 C 129.769531 122.101562 130.175781 128.191406 134.796875 129.996094 C 138.59375 131.476562 142.5625 132.570312 146.535156 133.476562 C 155.40625 135.511719 164.511719 136.53125 173.597656 136.953125 C 182.734375 137.375 191.90625 137.171875 201.015625 136.363281 C 209.128906 135.648438 217.253906 134.5 225.15625 132.503906 C 226.792969 132.09375 228.417969 131.640625 230.027344 131.132812 C 231.5625 130.652344 233.238281 130.203125 234.65625 129.445312 C 238.1875 127.554688 238.9375 122.875 239.175781 119.277344 C 239.226562 118.507812 239.25 117.738281 239.265625 116.96875 C 239.277344 116.175781 238.578125 115.5 237.792969 115.5 C 236.984375 115.5 236.335938 116.171875 236.320312 116.96875 C 236.308594 117.738281 236.285156 118.511719 236.234375 119.277344 C 236.207031 119.679688 236.175781 120.082031 236.132812 120.480469 C 236.125 120.554688 236.046875 121.1875 236.09375 120.832031 C 236.058594 121.085938 236.019531 121.335938 235.976562 121.585938 C 235.820312 122.476562 235.605469 123.363281 235.289062 124.214844 C 235.253906 124.308594 235.214844 124.40625 235.179688 124.5 C 235.308594 124.179688 235.152344 124.554688 235.132812 124.601562 C 235.046875 124.78125 234.957031 124.960938 234.859375 125.136719 C 234.765625 125.308594 234.664062 125.476562 234.554688 125.640625 C 234.511719 125.707031 234.464844 125.769531 234.421875 125.835938 C 234.324219 125.96875 234.328125 125.960938 234.441406 125.816406 C 234.390625 125.875 234.34375 125.933594 234.292969 125.992188 C 234.167969 126.136719 234.035156 126.273438 233.894531 126.402344 C 233.824219 126.46875 233.753906 126.53125 233.683594 126.59375 C 233.511719 126.742188 233.972656 126.40625 233.664062 126.605469 C 233.5 126.710938 233.34375 126.816406 233.171875 126.90625 C 233.070312 126.964844 232.964844 127.011719 232.855469 127.0625 C 233.164062 126.921875 232.855469 127.054688 232.804688 127.074219 C 232.113281 127.324219 231.425781 127.582031 230.726562 127.820312 C 229.238281 128.324219 227.726562 128.777344 226.210938 129.191406 C 222.714844 130.144531 219.164062 130.902344 215.597656 131.53125 C 213.65625 131.875 211.710938 132.179688 209.757812 132.449219 C 209.640625 132.464844 209.523438 132.480469 209.40625 132.496094 C 209.382812 132.5 208.914062 132.5625 209.226562 132.523438 C 208.988281 132.554688 208.75 132.585938 208.515625 132.617188 C 207.984375 132.683594 207.457031 132.75 206.929688 132.8125 C 205.902344 132.9375 204.878906 133.050781 203.851562 133.15625 C 195.023438 134.066406 186.125 134.394531 177.253906 134.148438 C 172.71875 134.023438 168.191406 133.746094 163.679688 133.285156 C 159.371094 132.847656 155.410156 132.289062 151.058594 131.4375 C 147.054688 130.65625 143.085938 129.683594 139.203125 128.429688 C 138.28125 128.132812 137.363281 127.816406 136.453125 127.484375 C 136.242188 127.410156 136.035156 127.332031 135.828125 127.253906 C 135.773438 127.234375 135.371094 127.0625 135.714844 127.222656 C 135.644531 127.1875 135.574219 127.15625 135.503906 127.121094 C 135.332031 127.03125 135.175781 126.925781 135.015625 126.820312 C 135.308594 127.011719 135.003906 126.808594 134.953125 126.761719 C 134.863281 126.683594 134.78125 126.605469 134.699219 126.519531 C 134.628906 126.449219 134.28125 126.003906 134.464844 126.265625 C 134.335938 126.078125 134.207031 125.886719 134.09375 125.6875 C 133.972656 125.480469 133.867188 125.265625 133.765625 125.046875 C 133.742188 125.003906 133.65625 124.792969 133.75 125.023438 C 133.683594 124.851562 133.617188 124.675781 133.558594 124.5 C 133.398438 124.03125 133.269531 123.550781 133.160156 123.066406 C 133.050781 122.566406 132.933594 121.867188 132.898438 121.554688 C 132.765625 120.332031 132.707031 119.105469 132.703125 117.875 C 132.703125 117.082031 132.027344 116.40625 131.234375 116.40625 C 130.4375 116.40625 129.761719 117.078125 129.761719 117.875 Z M 129.761719 117.875 " fill-opacity="1" fill-rule="nonzero"/></g><path fill="#229f9b" d="M 227.789062 111.710938 C 228.960938 111.9375 230.117188 112.253906 231.25 112.625 C 231.578125 112.734375 231.90625 112.847656 232.230469 112.96875 C 232.414062 113.035156 232.59375 113.105469 232.773438 113.175781 C 232.855469 113.207031 232.9375 113.242188 233.019531 113.277344 C 233.171875 113.339844 233.152344 113.328125 232.960938 113.25 C 233.027344 113.277344 233.089844 113.308594 233.15625 113.335938 C 233.800781 113.621094 234.4375 113.945312 235.03125 114.332031 C 235.1875 114.433594 235.335938 114.542969 235.488281 114.652344 C 235.1875 114.4375 235.480469 114.648438 235.601562 114.757812 C 235.703125 114.851562 235.804688 114.949219 235.902344 115.050781 C 235.957031 115.109375 236.003906 115.171875 236.0625 115.230469 C 236.242188 115.414062 235.886719 114.941406 236.019531 115.179688 C 236.078125 115.285156 236.148438 115.390625 236.210938 115.496094 C 236.394531 115.800781 236.109375 115.171875 236.242188 115.605469 C 236.257812 115.648438 236.257812 115.699219 236.273438 115.738281 C 236.371094 115.972656 236.28125 115.371094 236.253906 115.625 C 236.25 115.664062 236.253906 115.722656 236.257812 115.765625 C 236.277344 116.125 236.34375 115.515625 236.265625 115.730469 C 236.25 115.773438 236.203125 116.085938 236.15625 116.097656 C 236.160156 116.097656 236.347656 115.761719 236.164062 116.046875 C 236.132812 116.09375 236.105469 116.148438 236.074219 116.199219 C 236.023438 116.277344 235.96875 116.351562 235.917969 116.429688 C 236.136719 116.101562 235.953125 116.378906 235.894531 116.445312 C 235.722656 116.628906 235.550781 116.804688 235.367188 116.972656 C 235.199219 117.128906 235.023438 117.28125 234.84375 117.429688 C 234.867188 117.410156 234.507812 117.695312 234.660156 117.578125 C 234.816406 117.460938 234.441406 117.738281 234.46875 117.71875 C 234.035156 118.03125 233.585938 118.320312 233.125 118.585938 C 232.167969 119.136719 231.171875 119.59375 230.316406 119.921875 C 229.238281 120.335938 228.132812 120.6875 227.019531 120.988281 C 224.875 121.566406 222.6875 121.980469 220.492188 122.3125 C 214.976562 123.140625 209.402344 123.621094 203.835938 123.984375 C 198.09375 124.359375 192.347656 124.636719 186.601562 124.902344 C 181.230469 125.152344 175.84375 125.035156 170.480469 124.65625 C 165.011719 124.269531 159.625 123.613281 154.238281 122.691406 C 149.246094 121.835938 144.199219 120.863281 139.339844 119.429688 C 138.519531 119.1875 137.710938 118.917969 136.914062 118.605469 C 136.792969 118.554688 136.671875 118.507812 136.546875 118.457031 C 136.808594 118.5625 136.539062 118.453125 136.476562 118.425781 C 136.257812 118.324219 136.039062 118.226562 135.820312 118.121094 C 135.40625 117.917969 135 117.699219 134.613281 117.453125 C 134.449219 117.347656 134.289062 117.234375 134.132812 117.117188 C 134.429688 117.335938 133.960938 116.964844 133.890625 116.894531 C 133.789062 116.796875 133.480469 116.351562 133.695312 116.707031 C 133.664062 116.65625 133.621094 116.609375 133.59375 116.554688 C 133.519531 116.414062 133.464844 116.128906 133.550781 116.511719 C 133.535156 116.457031 133.515625 116.359375 133.488281 116.308594 C 133.398438 116.152344 133.523438 116.660156 133.503906 116.4375 C 133.5 116.414062 133.519531 116.28125 133.507812 116.265625 C 133.503906 116.261719 133.453125 116.691406 133.484375 116.484375 C 133.488281 116.46875 133.542969 116.308594 133.542969 116.308594 C 133.660156 116.386719 133.335938 116.667969 133.492188 116.453125 C 133.523438 116.410156 133.554688 116.355469 133.578125 116.308594 C 133.742188 115.988281 133.402344 116.476562 133.570312 116.308594 C 133.773438 116.105469 133.957031 115.898438 134.175781 115.710938 C 134.25 115.652344 134.324219 115.59375 134.398438 115.53125 C 134.367188 115.558594 134.121094 115.726562 134.335938 115.585938 C 134.507812 115.46875 134.671875 115.34375 134.847656 115.230469 C 135.558594 114.765625 136.316406 114.363281 137.082031 113.988281 C 137.46875 113.800781 137.863281 113.621094 138.257812 113.445312 C 138.351562 113.40625 138.445312 113.363281 138.539062 113.324219 C 138.585938 113.304688 138.964844 113.144531 138.640625 113.28125 C 138.863281 113.1875 139.085938 113.097656 139.308594 113.007812 C 140.054688 112.710938 140.808594 112.433594 141.570312 112.183594 C 142.089844 112.007812 142.613281 111.84375 143.144531 111.710938 C 143.914062 111.511719 144.378906 110.65625 144.171875 109.902344 C 143.957031 109.125 143.132812 108.679688 142.363281 108.875 C 140.941406 109.238281 139.550781 109.757812 138.195312 110.308594 C 136.441406 111.023438 134.660156 111.792969 133.097656 112.871094 C 131.875 113.714844 130.4375 114.929688 130.574219 116.578125 C 130.75 118.667969 132.855469 119.964844 134.570312 120.769531 C 136.367188 121.613281 138.253906 122.207031 140.171875 122.699219 C 142.832031 123.382812 145.507812 123.992188 148.195312 124.539062 C 153.960938 125.710938 159.789062 126.589844 165.640625 127.175781 C 171.308594 127.746094 177.011719 128.039062 182.710938 127.957031 C 185.640625 127.914062 188.5625 127.738281 191.488281 127.589844 C 194.464844 127.441406 197.441406 127.296875 200.414062 127.128906 C 206.476562 126.785156 212.535156 126.316406 218.554688 125.519531 C 223.4375 124.875 228.359375 124.070312 232.875 122.011719 C 235.703125 120.722656 241.1875 117.402344 238.515625 113.632812 C 237.574219 112.304688 236.101562 111.449219 234.640625 110.800781 C 233.152344 110.140625 231.613281 109.617188 230.039062 109.210938 C 229.554688 109.085938 229.0625 108.972656 228.570312 108.875 C 227.792969 108.726562 226.984375 109.097656 226.761719 109.902344 C 226.5625 110.621094 227.003906 111.558594 227.789062 111.710938 Z M 227.789062 111.710938 " fill-opacity="1" fill-rule="nonzero"/><path fill="#229f9b" d="M 132.316406 128.476562 C 132.597656 130.089844 132.84375 131.710938 133.097656 133.332031 C 133.578125 136.421875 134.054688 139.511719 134.53125 142.605469 C 135.183594 146.847656 135.832031 151.089844 136.484375 155.332031 C 137.246094 160.316406 138.007812 165.304688 138.769531 170.289062 C 139.59375 175.667969 140.417969 181.042969 141.242188 186.417969 C 142.070312 191.820312 142.902344 197.222656 143.734375 202.625 C 144.515625 207.6875 145.296875 212.75 146.085938 217.808594 C 146.769531 222.179688 147.453125 226.546875 148.148438 230.917969 C 148.667969 234.195312 149.195312 237.472656 149.738281 240.746094 C 150.046875 242.585938 150.335938 244.429688 150.707031 246.257812 C 150.746094 246.445312 150.785156 246.632812 150.832031 246.820312 C 151.289062 248.652344 154.128906 247.875 153.667969 246.039062 C 153.316406 244.621094 153.117188 243.15625 152.871094 241.71875 C 152.371094 238.773438 151.894531 235.820312 151.421875 232.867188 C 150.757812 228.726562 150.105469 224.585938 149.457031 220.445312 C 148.6875 215.523438 147.921875 210.597656 147.164062 205.675781 C 146.335938 200.324219 145.511719 194.96875 144.6875 189.617188 C 143.855469 184.199219 143.027344 178.785156 142.199219 173.367188 C 141.414062 168.253906 140.632812 163.136719 139.851562 158.023438 C 139.167969 153.5625 138.484375 149.101562 137.800781 144.640625 C 137.277344 141.230469 136.753906 137.824219 136.222656 134.417969 C 135.910156 132.410156 135.601562 130.402344 135.273438 128.398438 C 135.234375 128.164062 135.195312 127.929688 135.152344 127.695312 C 135.019531 126.914062 134.058594 126.472656 133.34375 126.667969 C 132.515625 126.894531 132.179688 127.691406 132.316406 128.476562 Z M 132.316406 128.476562 " fill-opacity="1" fill-rule="nonzero"/><path fill="#229f9b" d="M 148.355469 132.6875 C 148.40625 133.988281 148.574219 135.289062 148.699219 136.585938 C 148.976562 139.523438 149.265625 142.460938 149.558594 145.402344 C 149.972656 149.582031 150.390625 153.761719 150.8125 157.945312 C 151.316406 162.96875 151.824219 167.996094 152.332031 173.023438 C 152.886719 178.496094 153.4375 183.96875 153.992188 189.441406 C 154.554688 194.980469 155.117188 200.523438 155.675781 206.0625 C 156.199219 211.234375 156.722656 216.402344 157.242188 221.574219 C 157.6875 225.996094 158.132812 230.417969 158.570312 234.839844 C 158.898438 238.117188 159.222656 241.390625 159.539062 244.667969 C 159.707031 246.398438 159.882812 248.128906 160.015625 249.859375 C 160.027344 250.003906 160.039062 250.148438 160.046875 250.292969 C 160.074219 251.082031 160.699219 251.757812 161.515625 251.757812 C 162.289062 251.757812 163.019531 251.085938 162.988281 250.292969 C 162.9375 248.992188 162.769531 247.6875 162.644531 246.394531 C 162.367188 243.453125 162.078125 240.515625 161.785156 237.578125 C 161.371094 233.398438 160.953125 229.214844 160.53125 225.035156 C 160.027344 220.007812 159.519531 214.984375 159.011719 209.957031 C 158.457031 204.484375 157.90625 199.011719 157.351562 193.539062 C 156.789062 187.996094 156.226562 182.457031 155.667969 176.914062 C 155.144531 171.746094 154.621094 166.574219 154.101562 161.402344 C 153.65625 156.980469 153.210938 152.558594 152.773438 148.136719 C 152.445312 144.863281 152.121094 141.585938 151.804688 138.3125 C 151.636719 136.582031 151.460938 134.851562 151.328125 133.117188 C 151.316406 132.972656 151.304688 132.832031 151.296875 132.6875 C 151.269531 131.894531 150.644531 131.21875 149.828125 131.21875 C 149.054688 131.21875 148.324219 131.890625 148.355469 132.6875 Z M 148.355469 132.6875 " fill-opacity="1" fill-rule="nonzero"/><path fill="#229f9b" d="M 183.363281 136.289062 C 183.363281 137.507812 183.382812 138.722656 183.394531 139.941406 C 183.421875 142.816406 183.449219 145.6875 183.480469 148.5625 C 183.519531 152.671875 183.5625 156.78125 183.605469 160.890625 C 183.652344 165.84375 183.703125 170.800781 183.753906 175.753906 C 183.808594 181.179688 183.867188 186.601562 183.921875 192.023438 C 183.976562 197.496094 184.03125 202.96875 184.089844 208.4375 C 184.140625 213.539062 184.191406 218.640625 184.246094 223.742188 C 184.289062 228.109375 184.332031 232.472656 184.378906 236.839844 C 184.410156 240.039062 184.441406 243.242188 184.472656 246.441406 C 184.488281 248.097656 184.503906 249.753906 184.515625 251.414062 C 184.519531 251.535156 184.519531 251.65625 184.519531 251.777344 C 184.519531 253.667969 187.460938 253.671875 187.460938 251.777344 C 187.460938 250.558594 187.441406 249.34375 187.429688 248.125 C 187.402344 245.25 187.375 242.378906 187.347656 239.503906 C 187.304688 235.394531 187.261719 231.285156 187.222656 227.175781 C 187.171875 222.222656 187.121094 217.265625 187.070312 212.3125 C 187.015625 206.886719 186.960938 201.464844 186.90625 196.042969 C 186.847656 190.570312 186.792969 185.097656 186.738281 179.628906 C 186.683594 174.527344 186.632812 169.425781 186.582031 164.324219 C 186.535156 159.957031 186.492188 155.59375 186.449219 151.226562 C 186.417969 148.027344 186.382812 144.824219 186.355469 141.625 C 186.335938 139.96875 186.320312 138.3125 186.308594 136.652344 C 186.308594 136.53125 186.308594 136.410156 186.304688 136.289062 C 186.304688 134.398438 183.363281 134.394531 183.363281 136.289062 Z M 183.363281 136.289062 " fill-opacity="1" fill-rule="nonzero"/><g clip-path="url(#cdef338f28)"><path fill="#229f9b" d="M 151.507812 247.695312 C 154.441406 249.75 157.875 251.097656 161.273438 252.160156 C 165.589844 253.515625 170.050781 254.363281 174.535156 254.921875 C 179.375 255.527344 184.273438 255.746094 189.148438 255.558594 C 194.085938 255.367188 199.035156 254.769531 203.835938 253.589844 C 208.234375 252.511719 212.585938 250.917969 216.449219 248.535156 C 216.882812 248.265625 217.308594 247.984375 217.730469 247.695312 C 218.363281 247.261719 218.710938 246.386719 218.257812 245.6875 C 217.851562 245.058594 216.925781 244.695312 216.246094 245.160156 C 214.507812 246.355469 212.652344 247.363281 210.726562 248.21875 C 210.605469 248.269531 210.488281 248.324219 210.367188 248.375 C 210.308594 248.398438 210.246094 248.425781 210.1875 248.453125 C 210.003906 248.53125 210.449219 248.34375 210.265625 248.417969 C 210.003906 248.523438 209.746094 248.632812 209.484375 248.734375 C 208.957031 248.945312 208.425781 249.140625 207.890625 249.328125 C 206.828125 249.703125 205.753906 250.039062 204.667969 250.339844 C 202.40625 250.964844 200.105469 251.445312 197.789062 251.808594 C 197.503906 251.855469 197.21875 251.898438 196.933594 251.9375 C 196.789062 251.960938 196.648438 251.980469 196.503906 252 C 196.449219 252.007812 196.214844 252.039062 196.429688 252.011719 C 196.664062 251.976562 196.351562 252.019531 196.304688 252.027344 C 195.691406 252.105469 195.078125 252.179688 194.464844 252.242188 C 193.261719 252.367188 192.058594 252.464844 190.855469 252.535156 C 186.015625 252.824219 181.148438 252.695312 176.328125 252.191406 C 175.746094 252.132812 175.167969 252.066406 174.585938 251.992188 C 174.449219 251.976562 174.308594 251.957031 174.167969 251.9375 C 174.097656 251.929688 174.03125 251.921875 173.960938 251.910156 C 173.753906 251.886719 174.246094 251.953125 174.039062 251.921875 C 173.746094 251.882812 173.453125 251.839844 173.15625 251.800781 C 172.039062 251.636719 170.925781 251.449219 169.816406 251.242188 C 167.6875 250.839844 165.574219 250.355469 163.496094 249.761719 C 161.652344 249.234375 159.835938 248.621094 158.0625 247.890625 C 157.707031 247.746094 158.265625 247.980469 158.042969 247.882812 C 157.945312 247.839844 157.84375 247.800781 157.746094 247.757812 C 157.53125 247.664062 157.316406 247.566406 157.097656 247.46875 C 156.71875 247.292969 156.339844 247.109375 155.964844 246.921875 C 155.261719 246.566406 154.574219 246.183594 153.90625 245.765625 C 153.597656 245.570312 153.292969 245.371094 152.992188 245.160156 C 152.363281 244.71875 151.332031 245.027344 150.980469 245.6875 C 150.582031 246.441406 150.835938 247.226562 151.507812 247.695312 Z M 151.507812 247.695312 " fill-opacity="1" fill-rule="nonzero"/></g><path fill="#229f9b" d="M 183.945312 57.382812 C 184.101562 57.34375 184.257812 57.304688 184.414062 57.273438 C 184.53125 57.25 184.9375 57.21875 184.617188 57.238281 C 184.9375 57.21875 185.253906 57.1875 185.578125 57.195312 C 185.738281 57.199219 185.898438 57.207031 186.058594 57.222656 C 186.140625 57.230469 186.21875 57.238281 186.296875 57.246094 C 186.175781 57.234375 186.097656 57.214844 186.265625 57.246094 C 186.601562 57.308594 186.933594 57.382812 187.261719 57.480469 C 187.414062 57.527344 187.566406 57.582031 187.71875 57.636719 C 187.746094 57.648438 187.988281 57.746094 187.820312 57.675781 C 187.652344 57.605469 187.890625 57.707031 187.921875 57.722656 C 188.210938 57.859375 188.492188 58.011719 188.765625 58.183594 C 188.898438 58.269531 189.027344 58.367188 189.160156 58.453125 C 189.339844 58.570312 188.988281 58.304688 189.148438 58.445312 C 189.210938 58.496094 189.273438 58.546875 189.335938 58.597656 C 189.59375 58.820312 189.832031 59.066406 190.054688 59.320312 C 190.5625 59.902344 191.625 59.878906 192.136719 59.320312 C 192.707031 58.703125 192.679688 57.863281 192.136719 57.246094 C 189.957031 54.753906 186.351562 53.71875 183.164062 54.550781 C 182.417969 54.746094 181.894531 55.609375 182.136719 56.359375 C 182.382812 57.125 183.148438 57.59375 183.945312 57.382812 Z M 183.945312 57.382812 " fill-opacity="1" fill-rule="nonzero"/><path fill="#229f9b" d="M 185.117188 50.6875 C 185.46875 50.78125 185.816406 50.882812 186.15625 51.003906 C 186.339844 51.066406 186.519531 51.136719 186.699219 51.207031 C 186.824219 51.253906 186.832031 51.261719 186.699219 51.203125 C 186.796875 51.246094 186.894531 51.289062 186.992188 51.335938 C 187.671875 51.648438 188.324219 52.015625 188.941406 52.433594 C 189.085938 52.53125 189.222656 52.628906 189.363281 52.730469 C 189.390625 52.75 189.664062 52.960938 189.519531 52.84375 C 189.390625 52.746094 189.597656 52.914062 189.621094 52.929688 C 189.902344 53.160156 190.175781 53.398438 190.4375 53.648438 C 190.714844 53.914062 190.980469 54.191406 191.234375 54.480469 C 191.34375 54.609375 191.457031 54.738281 191.5625 54.871094 C 191.585938 54.898438 191.796875 55.171875 191.6875 55.023438 C 191.578125 54.878906 191.804688 55.1875 191.800781 55.183594 C 192.25 55.800781 193.097656 56.167969 193.8125 55.707031 C 194.429688 55.3125 194.824219 54.363281 194.339844 53.699219 C 192.269531 50.855469 189.320312 48.757812 185.898438 47.855469 C 185.15625 47.660156 184.265625 48.101562 184.089844 48.882812 C 183.914062 49.652344 184.320312 50.476562 185.117188 50.6875 Z M 185.117188 50.6875 " fill-opacity="1" fill-rule="nonzero"/><path fill="#229f9b" d="M 192.335938 48.601562 C 192.640625 48.667969 192.945312 48.753906 193.242188 48.859375 C 193.3125 48.886719 193.386719 48.914062 193.460938 48.941406 C 193.289062 48.871094 193.28125 48.867188 193.433594 48.933594 C 193.574219 49.003906 193.714844 49.070312 193.855469 49.144531 C 194.132812 49.292969 194.390625 49.46875 194.65625 49.640625 C 194.785156 49.738281 194.78125 49.730469 194.640625 49.621094 C 194.703125 49.671875 194.761719 49.71875 194.824219 49.769531 C 194.929688 49.859375 195.03125 49.949219 195.132812 50.042969 C 195.347656 50.246094 195.550781 50.457031 195.742188 50.683594 C 195.792969 50.742188 195.84375 50.800781 195.890625 50.863281 C 195.78125 50.722656 195.777344 50.714844 195.875 50.847656 C 195.964844 50.976562 196.054688 51.105469 196.136719 51.238281 C 196.304688 51.503906 196.445312 51.78125 196.585938 52.0625 C 196.65625 52.214844 196.652344 52.207031 196.578125 52.035156 C 196.609375 52.109375 196.636719 52.183594 196.664062 52.253906 C 196.714844 52.402344 196.761719 52.554688 196.808594 52.703125 C 197.023438 53.441406 197.851562 53.976562 198.617188 53.730469 C 199.363281 53.488281 199.875 52.710938 199.644531 51.921875 C 198.753906 48.90625 196.207031 46.453125 193.117188 45.769531 C 192.367188 45.601562 191.488281 45.996094 191.308594 46.792969 C 191.136719 47.539062 191.53125 48.421875 192.335938 48.601562 Z M 192.335938 48.601562 " fill-opacity="1" fill-rule="nonzero"/><path fill="#229f9b" d="M 164.34375 136.085938 C 164.234375 135.441406 164.304688 135.792969 164.328125 136.035156 C 164.347656 136.273438 164.367188 136.511719 164.386719 136.75 C 164.449219 137.585938 164.511719 138.421875 164.570312 139.257812 C 164.777344 142.160156 164.972656 145.066406 165.167969 147.972656 C 165.449219 152.183594 165.730469 156.390625 166.007812 160.597656 C 166.34375 165.691406 166.679688 170.78125 167.011719 175.875 C 167.378906 181.433594 167.742188 186.992188 168.105469 192.550781 C 168.472656 198.179688 168.84375 203.804688 169.210938 209.433594 C 169.554688 214.667969 169.898438 219.902344 170.242188 225.140625 C 170.535156 229.585938 170.832031 234.03125 171.128906 238.480469 C 171.347656 241.726562 171.566406 244.976562 171.789062 248.222656 C 171.902344 249.828125 171.996094 251.4375 172.144531 253.042969 C 172.167969 253.269531 172.191406 253.5 172.230469 253.730469 C 172.363281 254.511719 173.328125 254.949219 174.039062 254.753906 C 174.871094 254.527344 175.199219 253.734375 175.066406 252.949219 C 175.175781 253.59375 175.105469 253.242188 175.082031 253 C 175.0625 252.761719 175.042969 252.523438 175.027344 252.285156 C 174.960938 251.449219 174.902344 250.613281 174.839844 249.777344 C 174.636719 246.871094 174.441406 243.964844 174.246094 241.058594 C 173.960938 236.851562 173.683594 232.644531 173.402344 228.433594 C 173.066406 223.34375 172.730469 218.25 172.398438 213.15625 C 172.03125 207.597656 171.667969 202.039062 171.304688 196.480469 C 170.9375 190.855469 170.570312 185.226562 170.199219 179.601562 C 169.855469 174.367188 169.511719 169.128906 169.167969 163.894531 C 168.875 159.449219 168.578125 155 168.28125 150.554688 C 168.066406 147.304688 167.847656 144.058594 167.621094 140.808594 C 167.507812 139.203125 167.414062 137.59375 167.265625 135.992188 C 167.246094 135.761719 167.21875 135.53125 167.179688 135.304688 C 167.046875 134.523438 166.082031 134.082031 165.371094 134.277344 C 164.542969 134.507812 164.210938 135.300781 164.34375 136.085938 Z M 164.34375 136.085938 " fill-opacity="1" fill-rule="nonzero"/><path fill="#229f9b" d="M 234.71875 126.890625 C 234.4375 128.503906 234.191406 130.125 233.941406 131.746094 C 233.457031 134.835938 232.980469 137.925781 232.503906 141.019531 C 231.851562 145.261719 231.203125 149.503906 230.550781 153.746094 C 229.789062 158.730469 229.027344 163.71875 228.265625 168.703125 C 227.441406 174.078125 226.617188 179.457031 225.792969 184.832031 C 224.964844 190.234375 224.136719 195.636719 223.300781 201.039062 C 222.519531 206.101562 221.738281 211.160156 220.949219 216.222656 C 220.265625 220.59375 219.582031 224.960938 218.886719 229.328125 C 218.367188 232.609375 217.839844 235.886719 217.296875 239.160156 C 216.988281 241 216.699219 242.84375 216.328125 244.667969 C 216.289062 244.859375 216.25 245.046875 216.203125 245.230469 C 215.746094 247.066406 218.582031 247.847656 219.039062 246.011719 C 219.394531 244.597656 219.59375 243.132812 219.839844 241.695312 C 220.339844 238.746094 220.816406 235.792969 221.289062 232.839844 C 221.953125 228.703125 222.601562 224.558594 223.25 220.417969 C 224.023438 215.496094 224.785156 210.574219 225.546875 205.648438 C 226.375 200.296875 227.199219 194.945312 228.019531 189.59375 C 228.851562 184.175781 229.683594 178.757812 230.511719 173.34375 C 231.292969 168.226562 232.074219 163.113281 232.859375 158 C 233.539062 153.539062 234.222656 149.074219 234.910156 144.613281 C 235.433594 141.207031 235.957031 137.796875 236.484375 134.390625 C 236.796875 132.386719 237.105469 130.378906 237.4375 128.375 C 237.476562 128.140625 237.515625 127.902344 237.554688 127.667969 C 237.691406 126.890625 237.347656 126.085938 236.527344 125.863281 C 235.820312 125.667969 234.855469 126.101562 234.71875 126.890625 Z M 234.71875 126.890625 " fill-opacity="1" fill-rule="nonzero"/><path fill="#229f9b" d="M 218.492188 132.6875 C 218.445312 133.980469 218.277344 135.28125 218.152344 136.566406 C 217.878906 139.476562 217.589844 142.386719 217.300781 145.296875 C 216.890625 149.464844 216.472656 153.636719 216.050781 157.804688 C 215.550781 162.785156 215.050781 167.761719 214.546875 172.738281 C 213.996094 178.195312 213.441406 183.652344 212.890625 189.109375 C 212.335938 194.578125 211.78125 200.042969 211.230469 205.507812 C 210.707031 210.664062 210.1875 215.820312 209.667969 220.980469 C 209.226562 225.359375 208.785156 229.734375 208.351562 234.113281 C 208.023438 237.382812 207.703125 240.648438 207.386719 243.914062 C 207.222656 245.628906 207.042969 247.339844 206.914062 249.054688 C 206.902344 249.199219 206.890625 249.339844 206.886719 249.484375 C 206.855469 250.277344 207.582031 250.953125 208.355469 250.953125 C 209.179688 250.953125 209.796875 250.28125 209.828125 249.484375 C 209.875 248.191406 210.042969 246.894531 210.167969 245.605469 C 210.441406 242.695312 210.730469 239.785156 211.019531 236.875 C 211.429688 232.707031 211.847656 228.535156 212.269531 224.367188 C 212.769531 219.390625 213.269531 214.414062 213.773438 209.4375 C 214.324219 203.976562 214.878906 198.519531 215.429688 193.0625 C 215.984375 187.597656 216.539062 182.128906 217.09375 176.664062 C 217.613281 171.507812 218.136719 166.351562 218.652344 161.195312 C 219.09375 156.816406 219.535156 152.4375 219.96875 148.058594 C 220.296875 144.792969 220.621094 141.523438 220.933594 138.257812 C 221.101562 136.546875 221.277344 134.832031 221.40625 133.117188 C 221.417969 132.972656 221.429688 132.832031 221.4375 132.6875 C 221.464844 131.894531 220.738281 131.21875 219.964844 131.21875 C 219.140625 131.21875 218.523438 131.890625 218.492188 132.6875 Z M 218.492188 132.6875 " fill-opacity="1" fill-rule="nonzero"/><path fill="#229f9b" d="M 202.691406 134.496094 C 202.476562 135.765625 202.457031 137.082031 202.367188 138.363281 C 202.164062 141.246094 201.96875 144.128906 201.773438 147.015625 C 201.492188 151.207031 201.214844 155.402344 200.9375 159.59375 C 200.601562 164.675781 200.265625 169.757812 199.933594 174.84375 C 199.566406 180.398438 199.203125 185.953125 198.839844 191.507812 C 198.472656 197.136719 198.101562 202.765625 197.734375 208.394531 C 197.390625 213.636719 197.046875 218.882812 196.699219 224.125 C 196.40625 228.585938 196.109375 233.046875 195.8125 237.507812 C 195.59375 240.777344 195.375 244.042969 195.148438 247.3125 C 195.035156 248.941406 194.9375 250.578125 194.789062 252.207031 C 194.757812 252.523438 194.726562 252.597656 194.804688 252.140625 C 194.671875 252.921875 195.011719 253.722656 195.832031 253.949219 C 196.539062 254.140625 197.507812 253.707031 197.644531 252.921875 C 197.859375 251.65625 197.875 250.335938 197.964844 249.058594 C 198.171875 246.175781 198.367188 243.289062 198.558594 240.40625 C 198.84375 236.210938 199.121094 232.019531 199.398438 227.828125 C 199.734375 222.742188 200.066406 217.660156 200.402344 212.578125 C 200.765625 207.023438 201.128906 201.46875 201.492188 195.914062 C 201.863281 190.285156 202.230469 184.65625 202.597656 179.027344 C 202.941406 173.78125 203.289062 168.539062 203.632812 163.292969 C 203.925781 158.835938 204.222656 154.375 204.519531 149.914062 C 204.738281 146.644531 204.960938 143.375 205.1875 140.109375 C 205.300781 138.476562 205.398438 136.84375 205.546875 135.214844 C 205.574219 134.894531 205.605469 134.824219 205.527344 135.277344 C 205.660156 134.496094 205.320312 133.695312 204.5 133.472656 C 203.792969 133.277344 202.824219 133.710938 202.691406 134.496094 Z M 202.691406 134.496094 " fill-opacity="1" fill-rule="nonzero"/><g fill="#ffffff" fill-opacity="1"><g transform="translate(87.805977, 310.582861)"><g><path d="M 2.863281 0 L 5.335938 0 L 5.335938 -15.054688 L 11.851562 -5.222656 L 13.875 -5.222656 L 20.390625 -15.027344 L 20.390625 0 L 22.863281 0 L 22.863281 -19.660156 L 20.558594 -19.660156 L 12.890625 -8.003906 L 5.167969 -19.660156 L 2.863281 -19.660156 Z M 2.863281 0 "/></g></g></g><g fill="#ffffff" fill-opacity="1"><g transform="translate(115.660293, 310.582861)"><g><path d="M 2.863281 0 L 5.335938 0 L 5.335938 -19.660156 L 2.863281 -19.660156 Z M 2.863281 0 "/></g></g></g><g fill="#ffffff" fill-opacity="1"><g transform="translate(125.99389, 310.582861)"><g><path d="M 2.863281 0 L 14.886719 0 L 14.886719 -2.359375 L 5.335938 -2.359375 L 5.335938 -19.660156 L 2.863281 -19.660156 Z M 2.863281 0 "/></g></g></g><g fill="#ffffff" fill-opacity="1"><g transform="translate(143.880494, 310.582861)"><g><path d="M 2.863281 0 L 5.335938 0 L 5.335938 -8.847656 L 8.144531 -8.847656 C 8.902344 -8.847656 9.578125 -8.902344 10.195312 -9.015625 L 15.28125 0 L 18.144531 0 L 12.5 -9.914062 C 13.621094 -10.644531 14.410156 -11.769531 14.96875 -13.257812 L 17.386719 -19.660156 L 14.773438 -19.660156 L 12.75 -14.242188 C 11.964844 -12.105469 10.8125 -11.207031 8.144531 -11.207031 L 5.335938 -11.207031 L 5.335938 -19.660156 L 2.863281 -19.660156 Z M 2.863281 0 "/></g></g></g><g fill="#229f9b" fill-opacity="1"><g transform="translate(193.284381, 310.734114)"><g><path d="M 9.128906 0.421875 C 14.015625 0.421875 16.90625 -1.882812 16.90625 -5.757812 C 16.90625 -9.015625 14.800781 -10.925781 10.027344 -11.992188 C 7.5 -12.554688 6.574219 -13.171875 6.574219 -14.183594 C 6.574219 -15.140625 7.414062 -15.730469 8.734375 -15.730469 C 10.308594 -15.730469 11.207031 -14.914062 11.207031 -13.425781 L 16.542969 -13.425781 C 16.542969 -17.46875 13.453125 -20.082031 8.621094 -20.082031 C 3.988281 -20.082031 1.125 -17.777344 1.125 -14.070312 C 1.125 -10.757812 3.285156 -8.707031 7.722656 -7.863281 C 10.109375 -7.386719 11.261719 -6.65625 11.261719 -5.53125 C 11.261719 -4.550781 10.421875 -3.988281 9.042969 -3.988281 C 7.414062 -3.988281 6.460938 -4.859375 6.460938 -6.375 L 0.984375 -6.375 C 0.984375 -2.132812 4.015625 0.421875 9.128906 0.421875 Z M 9.128906 0.421875 "/></g></g></g><g fill="#229f9b" fill-opacity="1"><g transform="translate(211.230708, 310.734114)"><g><path d="M 13.820312 0 L 19.492188 0 L 19.492188 -19.660156 L 13.820312 -19.660156 L 13.820312 -12.609375 L 7.75 -12.609375 L 7.75 -19.660156 L 2.078125 -19.660156 L 2.078125 0 L 7.75 0 L 7.75 -7.386719 L 13.820312 -7.386719 Z M 13.820312 0 "/></g></g></g><g fill="#229f9b" fill-opacity="1"><g transform="translate(232.799999, 310.734114)"><g><path d="M 0.140625 0 L 6.152344 0 L 7.21875 -2.78125 L 13.929688 -2.78125 L 15 0 L 21.035156 0 L 13.398438 -19.660156 L 7.78125 -19.660156 Z M 8.398438 -6.9375 L 10.589844 -13.03125 L 12.78125 -6.9375 Z M 8.398438 -6.9375 "/></g></g></g><g fill="#229f9b" fill-opacity="1"><g transform="translate(253.976096, 310.734114)"><g><path d="M 2.078125 0 L 7.75 0 L 7.75 -7.441406 L 10.222656 -7.441406 L 13.988281 0 L 20.558594 0 L 15.390625 -9.550781 C 15.980469 -10.25 16.515625 -11.179688 16.964844 -12.328125 L 19.886719 -19.660156 L 13.734375 -19.660156 L 11.964844 -14.746094 C 11.375 -13.03125 10.730469 -12.609375 8.707031 -12.609375 L 7.75 -12.609375 L 7.75 -19.660156 L 2.078125 -19.660156 Z M 2.078125 0 "/></g></g></g><g fill="#229f9b" fill-opacity="1"><g transform="translate(275.208371, 310.734114)"><g><path d="M 2.078125 0 L 15.867188 0 L 15.867188 -4.632812 L 7.695312 -4.632812 L 7.695312 -7.667969 L 14.800781 -7.667969 L 14.800781 -12.21875 L 7.695312 -12.21875 L 7.695312 -15.082031 L 15.558594 -15.082031 L 15.558594 -19.660156 L 2.078125 -19.660156 Z M 2.078125 0 "/></g></g></g><g fill="#229f9b" fill-opacity="1"><g transform="translate(292.340226, 310.734114)"><g><path d="M 2.078125 0 L 7.75 0 L 7.75 -5.589844 L 9.886719 -5.589844 L 12.695312 0 L 19.128906 0 L 15.503906 -6.628906 C 17.582031 -7.78125 18.761719 -9.859375 18.761719 -12.609375 C 18.761719 -16.964844 15.8125 -19.660156 11.039062 -19.660156 L 2.078125 -19.660156 Z M 7.640625 -10.109375 L 7.640625 -15.027344 L 10.28125 -15.027344 C 12.078125 -15.027344 13.058594 -14.15625 13.058594 -12.582031 C 13.058594 -11.011719 12.078125 -10.109375 10.28125 -10.109375 Z M 7.640625 -10.109375 "/></g></g></g></svg>