<svg xmlns="http://www.w3.org/2000/svg" xmlns:xlink="http://www.w3.org/1999/xlink" width="500" zoomAndPan="magnify" viewBox="0 0 375 374.999991" height="500" preserveAspectRatio="xMidYMid meet" version="1.0"><defs><clipPath id="6ebdbfac51"><path d="M 62 70 L 359 70 L 359 359 L 62 359 Z M 62 70 " clip-rule="nonzero"/></clipPath><clipPath id="c19f0fe42c"><path d="M 312.410156 70.617188 L 428.902344 195.800781 L 178.53125 428.78125 L 62.042969 303.597656 Z M 312.410156 70.617188 " clip-rule="nonzero"/></clipPath><clipPath id="31aaa45cbd"><path d="M 312.410156 70.617188 L 428.902344 195.800781 L 178.53125 428.78125 L 62.042969 303.597656 Z M 312.410156 70.617188 " clip-rule="nonzero"/></clipPath><clipPath id="575179b3cf"><path d="M 16 16 L 313 16 L 313 304 L 16 304 Z M 16 16 " clip-rule="nonzero"/></clipPath><clipPath id="cd090be809"><path d="M 62.351562 304.128906 L -53.910156 178.730469 L 196.882812 -53.789062 L 313.144531 71.609375 Z M 62.351562 304.128906 " clip-rule="nonzero"/></clipPath><clipPath id="4298551924"><path d="M 62.351562 304.128906 L -53.910156 178.730469 L 196.882812 -53.789062 L 313.144531 71.609375 Z M 62.351562 304.128906 " clip-rule="nonzero"/></clipPath><clipPath id="f5f9a936b7"><path d="M 72 33 L 308 33 L 308 305 L 72 305 Z M 72 33 " clip-rule="nonzero"/></clipPath><clipPath id="454c242683"><path d="M 78.28125 29.703125 L 312.855469 38.765625 L 302.402344 309.316406 L 67.828125 300.253906 Z M 78.28125 29.703125 " clip-rule="nonzero"/></clipPath><clipPath id="70eeecef78"><path d="M 78.28125 29.703125 L 312.855469 38.765625 L 302.402344 309.316406 L 67.828125 300.253906 Z M 78.28125 29.703125 " clip-rule="nonzero"/></clipPath><clipPath id="6d1bbc6e13"><path d="M 78.304688 29.703125 L 313.691406 38.800781 L 303.238281 309.347656 L 67.851562 300.253906 Z M 78.304688 29.703125 " clip-rule="nonzero"/></clipPath><clipPath id="78ab71f27f"><path d="M 78.304688 29.703125 L 312.859375 38.765625 L 302.40625 309.316406 L 67.851562 300.253906 Z M 78.304688 29.703125 " clip-rule="nonzero"/></clipPath></defs><rect x="-37.5" width="450" fill="#ffffff" y="-37.499999" height="449.999989" fill-opacity="1"/><rect x="-37.5" width="450" fill="#ffffff" y="-37.499999" height="449.999989" fill-opacity="1"/><g clip-path="url(#6ebdbfac51)"><g clip-path="url(#c19f0fe42c)"><g clip-path="url(#31aaa45cbd)"><path fill="#f8333c" d="M 312.621094 70.84375 L 62.253906 303.824219 C 64.160156 305.871094 66.113281 307.871094 68.121094 309.820312 C 70.125 311.773438 72.175781 313.675781 74.273438 315.527344 C 76.371094 317.375 78.515625 319.175781 80.703125 320.921875 C 82.886719 322.667969 85.117188 324.359375 87.386719 325.996094 C 89.65625 327.628906 91.964844 329.210938 94.3125 330.734375 C 96.65625 332.257812 99.042969 333.722656 101.460938 335.128906 C 103.878906 336.535156 106.332031 337.878906 108.816406 339.164062 C 111.300781 340.453125 113.816406 341.675781 116.363281 342.839844 C 118.90625 344 121.480469 345.101562 124.078125 346.136719 C 126.675781 347.171875 129.300781 348.144531 131.945312 349.050781 C 134.59375 349.957031 137.261719 350.800781 139.949219 351.578125 C 142.636719 352.351562 145.34375 353.0625 148.066406 353.707031 C 150.789062 354.351562 153.527344 354.925781 156.277344 355.4375 C 159.027344 355.945312 161.789062 356.386719 164.5625 356.761719 C 167.335938 357.132812 170.117188 357.441406 172.90625 357.675781 C 175.691406 357.914062 178.484375 358.082031 181.28125 358.183594 C 184.078125 358.285156 186.875 358.316406 189.671875 358.277344 C 192.46875 358.242188 195.265625 358.136719 198.058594 357.960938 C 200.847656 357.785156 203.636719 357.542969 206.417969 357.230469 C 209.195312 356.921875 211.96875 356.542969 214.730469 356.09375 C 217.492188 355.648438 220.242188 355.132812 222.976562 354.550781 C 225.714844 353.96875 228.4375 353.320312 231.140625 352.605469 C 233.847656 351.890625 236.53125 351.105469 239.199219 350.257812 C 241.863281 349.414062 244.507812 348.5 247.128906 347.523438 C 249.753906 346.546875 252.347656 345.503906 254.917969 344.398438 C 257.488281 343.292969 260.03125 342.128906 262.542969 340.898438 C 265.058594 339.667969 267.539062 338.378906 269.988281 337.027344 C 272.441406 335.675781 274.855469 334.265625 277.234375 332.796875 C 279.617188 331.324219 281.960938 329.796875 284.265625 328.210938 C 286.570312 326.628906 288.835938 324.988281 291.0625 323.292969 C 293.285156 321.59375 295.46875 319.84375 297.609375 318.042969 C 299.746094 316.238281 301.839844 314.382812 303.890625 312.476562 C 305.9375 310.574219 307.9375 308.617188 309.890625 306.613281 C 311.84375 304.609375 313.746094 302.558594 315.597656 300.460938 C 317.449219 298.363281 319.246094 296.222656 320.992188 294.035156 C 322.742188 291.847656 324.433594 289.621094 326.070312 287.351562 C 327.707031 285.082031 329.289062 282.777344 330.8125 280.429688 C 332.335938 278.082031 333.800781 275.699219 335.207031 273.28125 C 336.613281 270.863281 337.960938 268.414062 339.246094 265.925781 C 340.535156 263.441406 341.757812 260.929688 342.921875 258.382812 C 344.085938 255.839844 345.183594 253.265625 346.222656 250.667969 C 347.257812 248.070312 348.230469 245.445312 349.140625 242.800781 C 350.046875 240.15625 350.890625 237.488281 351.667969 234.800781 C 352.445312 232.113281 353.15625 229.40625 353.800781 226.683594 C 354.445312 223.960938 355.023438 221.222656 355.53125 218.472656 C 356.042969 215.722656 356.484375 212.960938 356.859375 210.1875 C 357.234375 207.414062 357.539062 204.632812 357.777344 201.847656 C 358.015625 199.058594 358.1875 196.265625 358.289062 193.46875 C 358.386719 190.675781 358.421875 187.878906 358.382812 185.078125 C 358.347656 182.28125 358.242188 179.488281 358.070312 176.695312 C 357.898438 173.902344 357.65625 171.113281 357.34375 168.332031 C 357.035156 165.554688 356.65625 162.78125 356.210938 160.019531 C 355.761719 157.257812 355.25 154.507812 354.667969 151.769531 C 354.085938 149.035156 353.4375 146.3125 352.722656 143.609375 C 352.007812 140.902344 351.230469 138.214844 350.382812 135.550781 C 349.535156 132.882812 348.625 130.238281 347.648438 127.617188 C 346.671875 124.996094 345.628906 122.398438 344.527344 119.828125 C 343.421875 117.253906 342.257812 114.714844 341.027344 112.199219 C 339.800781 109.6875 338.507812 107.203125 337.160156 104.753906 C 335.808594 102.300781 334.398438 99.886719 332.929688 97.503906 C 331.460938 95.125 329.933594 92.78125 328.347656 90.472656 C 326.765625 88.167969 325.125 85.902344 323.429688 83.675781 C 321.734375 81.449219 319.984375 79.265625 318.183594 77.125 C 316.378906 74.988281 314.527344 72.890625 312.621094 70.84375 Z M 312.621094 70.84375 " fill-opacity="1" fill-rule="nonzero"/></g></g></g><g clip-path="url(#575179b3cf)"><g clip-path="url(#cd090be809)"><g clip-path="url(#4298551924)"><path fill="#c2f970" d="M 62.140625 303.902344 L 312.933594 71.382812 C 311.03125 69.332031 309.078125 67.328125 307.078125 65.371094 C 305.078125 63.417969 303.027344 61.511719 300.933594 59.65625 C 298.839844 57.800781 296.699219 56 294.515625 54.25 C 292.332031 52.5 290.109375 50.804688 287.84375 49.164062 C 285.574219 47.523438 283.269531 45.941406 280.925781 44.414062 C 278.582031 42.886719 276.199219 41.414062 273.785156 40.003906 C 271.367188 38.59375 268.917969 37.242188 266.4375 35.953125 C 263.953125 34.664062 261.441406 33.433594 258.898438 32.269531 C 256.355469 31.101562 253.785156 29.996094 251.1875 28.957031 C 248.589844 27.914062 245.96875 26.9375 243.324219 26.027344 C 240.679688 25.113281 238.011719 24.265625 235.324219 23.484375 C 232.640625 22.703125 229.933594 21.988281 227.214844 21.339844 C 224.492188 20.691406 221.753906 20.109375 219.003906 19.597656 C 216.253906 19.082031 213.492188 18.636719 210.722656 18.257812 C 207.949219 17.878906 205.167969 17.566406 202.382812 17.324219 C 199.59375 17.082031 196.800781 16.910156 194.007812 16.804688 C 191.210938 16.699219 188.414062 16.664062 185.617188 16.695312 C 182.816406 16.726562 180.023438 16.828125 177.230469 16.996094 C 174.4375 17.164062 171.648438 17.402344 168.867188 17.707031 C 166.085938 18.015625 163.316406 18.390625 160.550781 18.832031 C 157.789062 19.273438 155.039062 19.78125 152.300781 20.359375 C 149.5625 20.9375 146.84375 21.582031 144.136719 22.292969 C 141.429688 23.003906 138.742188 23.777344 136.074219 24.621094 C 133.40625 25.464844 130.761719 26.371094 128.136719 27.34375 C 125.511719 28.316406 122.914062 29.351562 120.34375 30.453125 C 117.769531 31.554688 115.226562 32.714844 112.710938 33.941406 C 110.195312 35.164062 107.710938 36.453125 105.257812 37.796875 C 102.804688 39.144531 100.386719 40.550781 98.003906 42.015625 C 95.621094 43.480469 93.277344 45.003906 90.96875 46.585938 C 88.65625 48.167969 86.390625 49.804688 84.160156 51.496094 C 81.933594 53.1875 79.746094 54.933594 77.605469 56.730469 C 75.460938 58.53125 73.363281 60.382812 71.3125 62.285156 C 69.261719 64.1875 67.257812 66.136719 65.300781 68.140625 C 63.347656 70.140625 61.441406 72.1875 59.585938 74.28125 C 57.730469 76.375 55.925781 78.515625 54.175781 80.695312 C 52.425781 82.878906 50.730469 85.105469 49.089844 87.371094 C 47.445312 89.636719 45.863281 91.941406 44.332031 94.285156 C 42.804688 96.628906 41.335938 99.007812 39.925781 101.421875 C 38.511719 103.839844 37.160156 106.289062 35.871094 108.769531 C 34.578125 111.253906 33.351562 113.765625 32.183594 116.308594 C 31.015625 118.851562 29.910156 121.421875 28.867188 124.015625 C 27.828125 126.613281 26.847656 129.234375 25.9375 131.878906 C 25.023438 134.523438 24.175781 137.191406 23.394531 139.875 C 22.609375 142.5625 21.894531 145.265625 21.246094 147.988281 C 20.597656 150.710938 20.015625 153.445312 19.5 156.195312 C 18.984375 158.945312 18.535156 161.707031 18.15625 164.480469 C 17.777344 167.25 17.464844 170.03125 17.222656 172.816406 C 16.980469 175.605469 16.804688 178.398438 16.699219 181.191406 C 16.59375 183.988281 16.554688 186.785156 16.585938 189.582031 C 16.617188 192.382812 16.71875 195.175781 16.886719 197.96875 C 17.054688 200.761719 17.289062 203.550781 17.59375 206.332031 C 17.902344 209.113281 18.273438 211.882812 18.714844 214.648438 C 19.15625 217.410156 19.664062 220.160156 20.242188 222.898438 C 20.816406 225.636719 21.460938 228.359375 22.171875 231.066406 C 22.878906 233.773438 23.65625 236.460938 24.5 239.128906 C 25.339844 241.796875 26.246094 244.441406 27.21875 247.066406 C 28.191406 249.691406 29.226562 252.289062 30.324219 254.863281 C 31.425781 257.433594 32.585938 259.980469 33.808594 262.496094 C 35.035156 265.011719 36.320312 267.496094 37.664062 269.949219 C 39.011719 272.402344 40.417969 274.820312 41.882812 277.203125 C 43.347656 279.589844 44.867188 281.933594 46.449219 284.246094 C 48.027344 286.554688 49.664062 288.824219 51.355469 291.050781 C 53.046875 293.28125 54.792969 295.464844 56.589844 297.609375 C 58.390625 299.753906 60.238281 301.851562 62.140625 303.902344 Z M 62.140625 303.902344 " fill-opacity="1" fill-rule="nonzero"/></g></g></g><g clip-path="url(#f5f9a936b7)"><g clip-path="url(#454c242683)"><g clip-path="url(#70eeecef78)"><g clip-path="url(#6d1bbc6e13)"><g clip-path="url(#78ab71f27f)"><path fill="#ffffff" d="M 155.050781 110.890625 C 157.144531 109.921875 159.246094 108.953125 161.34375 107.980469 C 163.222656 107.117188 163.855469 104.546875 162.921875 102.800781 C 161.898438 100.886719 159.617188 100.347656 157.730469 101.222656 C 155.632812 102.191406 153.535156 103.160156 151.4375 104.128906 C 149.558594 105 148.921875 107.566406 149.859375 109.316406 C 150.882812 111.226562 153.164062 111.761719 155.050781 110.890625 Z M 206.585938 131.035156 C 204.933594 132.65625 203.289062 134.277344 201.644531 135.898438 C 200.21875 137.308594 199.929688 139.828125 201.433594 141.320312 C 202.875 142.746094 205.328125 143.03125 206.859375 141.53125 C 208.503906 139.898438 210.148438 138.285156 211.792969 136.65625 C 213.21875 135.246094 213.507812 132.730469 212 131.246094 C 210.5625 129.820312 208.109375 129.53125 206.585938 131.035156 Z M 236.074219 172.40625 C 234.816406 170.472656 233.550781 168.527344 232.292969 166.601562 C 231.199219 164.921875 228.996094 163.910156 227.101562 165.023438 C 225.445312 166.003906 224.355469 168.410156 225.523438 170.207031 C 226.789062 172.144531 228.046875 174.078125 229.304688 176.011719 C 230.398438 177.691406 232.601562 178.707031 234.492188 177.59375 C 236.152344 176.613281 237.242188 174.203125 236.074219 172.40625 Z M 209.785156 254.359375 C 212.089844 254.429688 214.40625 254.5 216.714844 254.570312 C 218.78125 254.632812 220.609375 252.96875 220.691406 250.886719 C 220.769531 248.832031 219.085938 246.976562 217.011719 246.914062 C 214.703125 246.84375 212.386719 246.773438 210.078125 246.714844 C 208.003906 246.652344 206.175781 248.304688 206.09375 250.390625 C 206.015625 252.453125 207.707031 254.300781 209.785156 254.359375 Z M 228.757812 207.527344 L 229.3125 200.628906 C 229.476562 198.566406 227.640625 196.734375 225.632812 196.65625 C 223.476562 196.574219 221.8125 198.261719 221.644531 200.332031 L 221.09375 207.234375 C 220.925781 209.304688 222.761719 211.136719 224.769531 211.214844 C 226.925781 211.296875 228.582031 209.609375 228.757812 207.527344 Z M 157.140625 172.421875 C 156 170.402344 154.855469 168.398438 153.714844 166.390625 C 152.722656 164.648438 150.339844 163.742188 148.523438 164.820312 C 146.777344 165.84375 145.886719 168.136719 146.945312 170.007812 C 148.089844 172.011719 149.230469 174.019531 150.371094 176.027344 C 151.363281 177.769531 153.75 178.675781 155.5625 177.605469 C 157.3125 176.5625 158.199219 174.28125 157.140625 172.421875 Z M 122.101562 218.976562 C 124.058594 217.75 126.015625 216.523438 127.976562 215.296875 C 129.671875 214.234375 130.65625 211.972656 129.550781 210.109375 C 128.554688 208.425781 126.175781 207.394531 124.363281 208.53125 C 122.402344 209.757812 120.445312 210.984375 118.488281 212.210938 C 116.792969 213.277344 115.804688 215.535156 116.910156 217.398438 C 117.910156 219.082031 120.285156 220.113281 122.101562 218.976562 Z M 131.6875 161.738281 C 132.496094 162.457031 132.972656 163.445312 133.039062 164.519531 C 133.105469 165.601562 132.742188 166.632812 132.023438 167.449219 C 131.308594 168.253906 130.320312 168.730469 129.242188 168.796875 C 128.164062 168.859375 127.125 168.492188 126.316406 167.78125 C 125.507812 167.0625 125.03125 166.078125 124.964844 165 C 124.898438 163.917969 125.261719 162.886719 125.976562 162.074219 C 126.695312 161.269531 127.6875 160.789062 128.761719 160.726562 C 128.898438 160.722656 129.03125 160.714844 129.164062 160.722656 C 130.097656 160.757812 130.984375 161.109375 131.6875 161.738281 Z M 129.695312 176.433594 C 132.816406 176.25 135.675781 174.867188 137.75 172.523438 C 139.828125 170.191406 140.871094 167.1875 140.6875 164.066406 C 140.5 160.949219 139.113281 158.089844 136.773438 156.019531 C 134.4375 153.945312 131.433594 152.902344 128.308594 153.085938 C 125.1875 153.273438 122.328125 154.65625 120.253906 156.996094 C 118.175781 159.328125 117.132812 162.335938 117.316406 165.453125 C 117.503906 168.570312 118.894531 171.429688 121.230469 173.503906 C 123.277344 175.316406 125.832031 176.34375 128.53125 176.445312 C 128.914062 176.460938 129.304688 176.457031 129.695312 176.433594 Z M 299.355469 188.015625 C 299.472656 160.667969 289.425781 135.433594 272.6875 116.050781 L 269.15625 119.316406 C 270.492188 121.691406 271.410156 124.472656 272.171875 127.652344 C 272.550781 129.234375 272.90625 130.910156 273.246094 132.527344 C 274.617188 138.976562 276.175781 146.304688 279.609375 149.148438 C 283.695312 152.523438 293.261719 160.4375 290.976562 176.882812 C 290.3125 181.632812 289.382812 184.941406 288.550781 187.597656 Z M 266.90625 265.355469 C 285.101562 247.332031 297.066406 222.949219 299.058594 195.664062 L 286.742188 195.1875 C 286.738281 196.328125 286.917969 197.570312 287.320312 199.144531 C 287.652344 200.460938 288.050781 201.75 288.46875 203.105469 C 290.859375 210.886719 293.578125 219.714844 282.972656 230.792969 C 279.835938 234.0625 277.265625 236.363281 275.199219 238.21875 C 270.226562 242.671875 268.730469 244.011719 267.871094 250.878906 C 267.242188 255.910156 266.175781 259.785156 264.480469 262.734375 Z M 189.261719 297.207031 C 216.636719 297.328125 241.890625 287.292969 261.292969 270.558594 L 259.066406 268.167969 C 256.773438 269.445312 253.984375 270.210938 250.578125 270.585938 C 249.652344 270.683594 248.710938 270.773438 247.769531 270.871094 C 240.378906 271.609375 232.730469 272.367188 229.894531 277.109375 C 225.40625 284.636719 216.269531 290.976562 207.285156 290.628906 C 205.78125 290.570312 204.277344 290.328125 202.800781 289.871094 C 200.320312 289.09375 197.855469 288.0625 195.480469 287.058594 C 193.5 286.238281 191.546875 285.414062 189.742188 284.808594 Z M 111.847656 264.785156 C 129.894531 282.964844 154.296875 294.917969 181.609375 296.910156 L 182.089844 284.472656 C 182.039062 284.5 181.980469 284.519531 181.941406 284.546875 C 174.320312 289.335938 158.242188 290.398438 149.375 281.238281 L 148.65625 280.503906 C 141.863281 273.46875 135.449219 266.847656 127.363281 266.535156 C 122.574219 266.347656 118.335938 264.558594 114.960938 261.898438 Z M 79.960938 187.199219 C 79.847656 214.558594 89.894531 239.789062 106.640625 259.164062 L 109.828125 256.214844 C 107.992188 253.320312 106.886719 250.109375 106.714844 247.007812 C 106.183594 237.691406 103.628906 230.289062 99.875 227.222656 C 99.027344 226.527344 98.125 225.851562 97.253906 225.195312 C 92.050781 221.300781 85.574219 216.445312 87.789062 204.886719 C 88.285156 202.292969 88.878906 199.855469 89.449219 197.511719 C 90.285156 194.089844 91.0625 190.890625 91.425781 187.640625 Z M 112.367188 109.816406 C 93.472656 128.53125 82.1875 153.039062 80.253906 179.550781 L 91.371094 179.980469 C 91.175781 178.574219 90.863281 177.136719 90.414062 175.632812 C 87.003906 164.292969 85.371094 154.808594 97.65625 144.625 C 107.277344 136.660156 109.019531 133.730469 110.386719 127.109375 C 111.703125 120.734375 113.390625 116.246094 115.59375 113.296875 Z M 161.140625 162.464844 L 120.957031 119.085938 C 120.011719 120.804688 118.910156 123.722656 117.886719 128.660156 C 116.050781 137.535156 113.039062 141.820312 102.542969 150.519531 C 94.542969 157.144531 94.328125 162.054688 97.746094 173.429688 C 98.464844 175.820312 98.894531 178.097656 99.113281 180.277344 L 180.570312 183.425781 Z M 196.921875 98.980469 L 193.847656 178.53125 L 258.085938 119.117188 C 256.382812 118.339844 254.191406 117.792969 251.300781 117.4375 C 240.359375 116.097656 234.003906 109.703125 228.894531 104.5625 C 227.734375 103.394531 226.636719 102.289062 225.542969 101.296875 C 219.5625 95.859375 214.886719 91.601562 204.054688 96.632812 C 201.65625 97.742188 199.265625 98.53125 196.921875 98.980469 Z M 267.480469 110.433594 C 249.425781 92.253906 225.023438 80.296875 197.71875 78.300781 L 197.226562 91.046875 C 198.390625 90.710938 199.585938 90.265625 200.824219 89.691406 C 216.273438 82.519531 224.578125 90.070312 230.640625 95.582031 C 231.9375 96.757812 233.15625 97.984375 234.335938 99.171875 C 239.050781 103.914062 243.929688 108.824219 252.226562 109.839844 C 257.386719 110.46875 261.160156 111.753906 263.992188 113.65625 Z M 190.046875 276.933594 C 192.902344 277.6875 195.75 278.878906 198.445312 280.015625 C 200.664062 280.945312 202.945312 281.90625 205.074219 282.5625 C 211.457031 284.550781 219.660156 279.324219 223.320312 273.195312 C 228.132812 265.136719 238.167969 264.136719 247.007812 263.261719 C 247.929688 263.171875 248.847656 263.074219 249.75 262.984375 C 251.214844 262.820312 252.484375 262.621094 253.601562 262.261719 L 193.132812 196.992188 L 191.628906 236 C 191.980469 236.253906 192.324219 236.523438 192.660156 236.8125 C 197.488281 241.097656 197.917969 248.507812 193.640625 253.328125 C 192.820312 254.246094 191.878906 254.996094 190.871094 255.597656 Z M 120.671875 256.617188 C 122.617188 257.910156 124.953125 258.785156 127.660156 258.890625 C 138.816406 259.320312 146.617188 267.378906 154.164062 275.183594 L 154.878906 275.921875 C 160.675781 281.910156 172.625 281.363281 177.859375 278.074219 C 179.324219 277.160156 180.839844 276.617188 182.402344 276.351562 L 183.144531 257.109375 C 180.972656 256.785156 178.871094 255.859375 177.113281 254.300781 C 172.285156 250.015625 171.851562 242.617188 176.140625 237.792969 C 178.183594 235.5 180.976562 234.121094 184.042969 233.90625 L 185.480469 196.699219 Z M 187.914062 248.246094 C 189.386719 246.578125 189.238281 244.015625 187.570312 242.535156 C 186.867188 241.914062 185.980469 241.554688 185.050781 241.519531 C 184.917969 241.511719 184.78125 241.515625 184.648438 241.53125 C 183.574219 241.585938 182.585938 242.0625 181.863281 242.878906 C 180.382812 244.546875 180.53125 247.097656 182.199219 248.578125 C 183.867188 250.0625 186.433594 249.910156 187.914062 248.246094 Z M 115.605469 250.878906 L 180.273438 191.078125 L 99.09375 187.941406 C 98.695312 191.917969 97.789062 195.65625 96.894531 199.328125 C 96.34375 201.585938 95.773438 203.917969 95.3125 206.332031 C 94 213.191406 96.953125 215.414062 101.851562 219.078125 C 102.789062 219.785156 103.753906 220.511719 104.722656 221.296875 C 112.210938 227.414062 113.976562 239.769531 114.359375 246.582031 C 114.4375 247.90625 114.871094 249.394531 115.605469 250.878906 Z M 279.097656 194.894531 L 198.75 191.792969 L 258.867188 256.683594 C 259.460938 254.972656 259.917969 252.777344 260.277344 249.9375 C 261.488281 240.21875 264.722656 237.328125 270.082031 232.519531 C 272.058594 230.757812 274.511719 228.554688 277.4375 225.507812 C 284.9375 217.667969 283.351562 212.503906 281.148438 205.355469 C 280.722656 203.96875 280.277344 202.535156 279.894531 201.046875 C 279.289062 198.667969 279.066406 196.675781 279.097656 194.894531 Z M 263.304688 124.722656 L 199.046875 184.144531 L 280.609375 187.296875 C 280.664062 187.105469 280.726562 186.925781 280.785156 186.738281 C 281.675781 183.976562 282.6875 180.847656 283.378906 175.828125 C 284.957031 164.5625 279.738281 159.191406 274.726562 155.042969 C 269.226562 150.503906 267.460938 142.171875 265.757812 134.121094 C 265.417969 132.515625 265.078125 130.9375 264.722656 129.433594 C 264.292969 127.632812 263.855469 126.070312 263.304688 124.722656 Z M 306.9375 192.140625 C 304.441406 256.757812 249.800781 307.285156 185.136719 304.789062 C 120.464844 302.289062 69.882812 247.695312 72.378906 183.078125 C 73.589844 151.789062 86.925781 122.828125 109.929688 101.554688 L 112.742188 98.957031 L 186.191406 178.238281 L 190.363281 70.296875 L 194.191406 70.441406 C 258.855469 72.9375 309.433594 127.539062 306.9375 192.140625 Z M 252.5 212.855469 C 253.554688 213.132812 254.417969 213.800781 254.957031 214.730469 C 255.496094 215.671875 255.648438 216.757812 255.367188 217.800781 C 255.085938 218.84375 254.410156 219.714844 253.480469 220.253906 C 252.550781 220.792969 251.449219 220.941406 250.40625 220.664062 C 249.375 220.382812 248.5 219.707031 247.960938 218.777344 C 247.410156 217.835938 247.273438 216.75 247.550781 215.707031 C 247.832031 214.664062 248.496094 213.792969 249.4375 213.253906 C 250.105469 212.875 250.851562 212.683594 251.605469 212.714844 C 251.914062 212.726562 252.207031 212.777344 252.5 212.855469 Z M 257.304688 226.882812 C 260.019531 225.324219 261.957031 222.804688 262.765625 219.789062 C 263.570312 216.765625 263.15625 213.609375 261.59375 210.90625 C 260.03125 208.207031 257.507812 206.269531 254.492188 205.464844 C 251.46875 204.648438 248.316406 205.070312 245.601562 206.632812 C 242.898438 208.183594 240.960938 210.703125 240.152344 213.726562 C 239.347656 216.75 239.761719 219.898438 241.324219 222.601562 C 242.886719 225.304688 245.410156 227.238281 248.425781 228.054688 C 249.289062 228.277344 250.15625 228.417969 251.027344 228.453125 C 253.207031 228.535156 255.375 227.996094 257.304688 226.882812 Z M 251.738281 157.6875 C 252.78125 157.964844 253.65625 158.640625 254.195312 159.570312 C 254.734375 160.511719 254.875 161.589844 254.59375 162.640625 C 254.023438 164.792969 251.796875 166.078125 249.644531 165.496094 C 248.601562 165.214844 247.726562 164.550781 247.1875 163.609375 C 246.648438 162.679688 246.507812 161.59375 246.789062 160.550781 C 247.070312 159.507812 247.734375 158.632812 248.667969 158.09375 C 249.34375 157.710938 250.085938 157.527344 250.84375 157.554688 C 251.140625 157.566406 251.445312 157.609375 251.738281 157.6875 Z M 261.992188 164.621094 C 262.808594 161.601562 262.394531 158.453125 260.832031 155.75 C 259.269531 153.046875 256.746094 151.101562 253.71875 150.296875 C 247.488281 148.628906 241.058594 152.332031 239.390625 158.570312 C 238.574219 161.582031 238.988281 164.730469 240.554688 167.433594 C 242.125 170.144531 244.648438 172.082031 247.664062 172.886719 C 248.527344 173.121094 249.382812 173.25 250.246094 173.28125 C 255.585938 173.488281 260.558594 169.984375 261.992188 164.621094 Z M 226.007812 114.519531 C 225.921875 116.746094 224.042969 118.488281 221.816406 118.398438 C 219.585938 118.3125 217.847656 116.433594 217.933594 114.207031 C 218.019531 111.980469 219.898438 110.238281 222.128906 110.324219 C 224.355469 110.410156 226.09375 112.292969 226.007812 114.519531 Z M 233.664062 114.816406 C 233.914062 108.375 228.871094 102.925781 222.421875 102.679688 C 215.972656 102.429688 210.527344 107.46875 210.277344 113.910156 C 210.027344 120.351562 215.070312 125.800781 221.519531 126.046875 C 227.96875 126.296875 233.414062 121.257812 233.664062 114.816406 Z M 163.105469 80.941406 C 163.019531 83.167969 161.136719 84.910156 158.910156 84.824219 C 156.679688 84.738281 154.933594 82.855469 155.019531 80.628906 C 155.105469 78.40625 156.992188 76.664062 159.21875 76.75 C 161.449219 76.835938 163.191406 78.71875 163.105469 80.941406 Z M 170.761719 81.238281 C 171.007812 74.796875 165.964844 69.351562 159.515625 69.101562 C 153.066406 68.851562 147.613281 73.894531 147.363281 80.335938 C 147.117188 86.777344 152.160156 92.222656 158.613281 92.46875 C 165.058594 92.71875 170.511719 87.679688 170.761719 81.238281 Z M 161.074219 57.472656 C 160.132812 56.945312 159.246094 56.441406 158.457031 56.058594 C 155.191406 54.449219 145.160156 59.585938 140.871094 65.0625 C 135.617188 71.769531 128.054688 75.351562 118.394531 75.722656 C 115.582031 75.828125 113.304688 76.503906 111.585938 77.289062 L 170.972656 141.390625 L 174.023438 62.40625 C 168.613281 61.726562 164.355469 59.324219 161.074219 57.472656 Z M 102.777344 67.777344 L 106.203125 71.476562 C 108.859375 69.921875 112.863281 68.273438 118.101562 68.074219 C 125.511719 67.792969 130.988281 65.261719 134.839844 60.347656 C 139.523438 54.363281 153.300781 44.996094 161.839844 49.191406 C 162.820312 49.671875 163.800781 50.222656 164.835938 50.808594 C 167.617188 52.378906 170.6875 54.101562 174.320312 54.710938 L 174.84375 41.160156 C 148.234375 41.042969 122.90625 50.398438 102.777344 67.777344 Z M 182.796875 33.746094 L 177.914062 160.148438 L 91.90625 67.3125 L 94.714844 64.710938 C 117.722656 43.4375 147.644531 32.386719 178.96875 33.597656 Z M 272.613281 176.761719 C 277.539062 176.953125 277.84375 169.292969 272.90625 169.101562 C 267.96875 168.914062 267.664062 176.570312 272.613281 176.761719 Z M 135.195312 90.347656 C 140.128906 90.539062 140.433594 82.882812 135.492188 82.691406 C 130.5625 82.5 130.257812 90.15625 135.195312 90.347656 Z M 272.613281 176.761719 C 277.539062 176.953125 277.84375 169.292969 272.90625 169.101562 C 267.96875 168.914062 267.664062 176.570312 272.613281 176.761719 Z M 270.667969 210.398438 C 275.597656 210.585938 275.902344 202.929688 270.964844 202.738281 C 266.027344 202.546875 265.722656 210.207031 270.667969 210.398438 Z M 210.304688 240.914062 C 215.234375 241.105469 215.539062 233.449219 210.601562 233.257812 C 205.675781 233.066406 205.367188 240.722656 210.304688 240.914062 Z M 164.898438 233.308594 C 169.828125 233.5 170.132812 225.84375 165.195312 225.652344 C 160.261719 225.460938 159.957031 233.117188 164.898438 233.308594 Z M 152.148438 259.40625 C 157.078125 259.59375 157.386719 251.9375 152.445312 251.746094 C 147.515625 251.558594 147.210938 259.214844 152.148438 259.40625 Z M 149.894531 208.324219 C 144.953125 208.132812 145.257812 200.476562 150.191406 200.667969 C 155.132812 200.859375 154.828125 208.515625 149.894531 208.324219 " fill-opacity="1" fill-rule="nonzero"/></g></g></g></g></g></svg>